<svg id="Layer_2" data-name="Layer 2" xmlns="http://www.w3.org/2000/svg" width="452.286" height="90.465" viewBox="0 0 452.286 90.465">
  <g id="Your_design" data-name="Your design" transform="translate(0)">
    <path id="Path_30" data-name="Path 30" d="M34.635,38.012,52.2,20.449,69.782,38.027,80,27.8,52.2,0,24.41,27.795Z" transform="translate(-6.972)" fill="#fff"/>
    <rect id="Rectangle_1872" data-name="Rectangle 1872" width="14.455" height="14.455" transform="translate(0 45.235) rotate(-45)" fill="#fff"/>
    <path id="Path_31" data-name="Path 31" d="M34.629,73.407,52.2,90.977,69.776,73.4,80,83.61l-.007.007L52.2,111.419,24.4,83.632l-.014-.014Z" transform="translate(-6.966 -20.955)" fill="#fff"/>
    <rect id="Rectangle_1873" data-name="Rectangle 1873" width="14.455" height="14.455" transform="translate(70.02 45.237) rotate(-45)" fill="#fff"/>
    <path id="Path_32" data-name="Path 32" d="M69.53,59.155h0L59.162,48.78,51.5,56.447h0l-.886.879L48.794,59.14h0l-.014.014.014.021,10.368,10.36L69.53,59.162l.007-.007Z" transform="translate(-13.929 -13.926)" fill="#fff"/>
    <path id="Path_33" data-name="Path 33" d="M148.92,30.68h22.207q8.288,0,12.518,4.244a11.082,11.082,0,0,1,3.308,8.131v.136a11.682,11.682,0,0,1-.514,3.63,11.133,11.133,0,0,1-1.358,2.858,10.789,10.789,0,0,1-1.979,2.229,12.526,12.526,0,0,1-2.415,1.643,16.241,16.241,0,0,1,6.552,4.287,11.026,11.026,0,0,1,2.386,7.5v.136a12.461,12.461,0,0,1-1.265,5.759,11.19,11.19,0,0,1-3.658,4.13,17.055,17.055,0,0,1-5.68,2.465,30.424,30.424,0,0,1-7.352.822H148.92Zm20.006,19.392a11,11,0,0,0,5.552-1.2A4.137,4.137,0,0,0,176.536,45v-.136A4.223,4.223,0,0,0,174.75,41.2a8.806,8.806,0,0,0-5.137-1.265H159.195V50.072ZM171.742,69.4a10.167,10.167,0,0,0,5.48-1.265,4.359,4.359,0,0,0,1.986-3.944v-.136a4.509,4.509,0,0,0-1.851-3.8q-1.851-1.429-5.959-1.429h-12.2V69.4Z" transform="translate(-42.517 -8.759)" fill="#fff"/>
    <path id="Path_34" data-name="Path 34" d="M224.42,30.68h10.553V78.653H224.42Z" transform="translate(-64.071 -8.759)" fill="#fff"/>
    <path id="Path_35" data-name="Path 35" d="M261.57,30.68h9.725L293.78,60.2V30.68h10.411V78.653h-8.974l-23.236-30.5v30.5H261.57Z" transform="translate(-74.677 -8.759)" fill="#fff"/>
    <path id="Path_36" data-name="Path 36" d="M357.727,30.2h9.732l20.564,48.316H376.99L372.6,67.755H352.318l-4.387,10.761H337.17Zm11.1,28.238-6.373-15.562-6.374,15.562Z" transform="translate(-96.259 -8.622)" fill="#fff"/>
    <path id="Path_37" data-name="Path 37" d="M424.28,30.68h9.739L456.49,60.2V30.68h10.418V78.653h-8.974L434.7,48.157v30.5H424.28Z" transform="translate(-121.128 -8.759)" fill="#fff"/>
    <path id="Path_38" data-name="Path 38" d="M527.27,79.175a24.951,24.951,0,0,1-9.8-1.915,24.143,24.143,0,0,1-7.817-5.23,23.774,23.774,0,0,1-5.137-7.86A25.259,25.259,0,0,1,502.67,54.5v-.136a24.93,24.93,0,0,1,6.988-17.513,23.892,23.892,0,0,1,7.86-5.345,25.723,25.723,0,0,1,10.146-1.951,31.789,31.789,0,0,1,6.131.55,25.264,25.264,0,0,1,5,1.508,21.576,21.576,0,0,1,4.18,2.329,28.3,28.3,0,0,1,3.573,3.015l-6.717,7.745a25.2,25.2,0,0,0-5.716-3.98A14.6,14.6,0,0,0,527.57,39.3a13.276,13.276,0,0,0-10,4.387,14.94,14.94,0,0,0-2.858,4.759,16.184,16.184,0,0,0-1.029,5.795v.136a16.434,16.434,0,0,0,1.029,5.823,15.1,15.1,0,0,0,2.858,4.794,13.19,13.19,0,0,0,10.039,4.459,14.691,14.691,0,0,0,6.96-1.508,26.882,26.882,0,0,0,5.652-4.116l6.716,6.788a34.871,34.871,0,0,1-3.837,3.573,23.289,23.289,0,0,1-4.351,2.708,22.664,22.664,0,0,1-5.173,1.708A30.924,30.924,0,0,1,527.27,79.175Z" transform="translate(-143.507 -8.438)" fill="#fff"/>
    <path id="Path_39" data-name="Path 39" d="M582,30.68h36.119v9.389H592.4V49.8h22.622v9.389H592.425V69.264H618.44v9.389H582Z" transform="translate(-166.154 -8.759)" fill="#fff"/>
  </g>
</svg>
