<svg width="34" height="34" viewBox="0 0 34 34" fill="none" xmlns="http://www.w3.org/2000/svg">
<path d="M22.9594 11.417L28.4797 5.89673" stroke="#DDFC76" stroke-width="0.5" stroke-miterlimit="10" stroke-dasharray="1 1"/>
<path d="M5.89667 28.6053L11.417 23.085" stroke="#DDFC76" stroke-width="0.5" stroke-miterlimit="10" stroke-dasharray="1 1"/>
<path d="M22.7085 22.7085L28.2288 28.2288" stroke="#DDFC76" stroke-width="0.5" stroke-miterlimit="10" stroke-dasharray="1 1"/>
<path d="M5.64575 5.64575L11.166 11.166" stroke="#DDFC76" stroke-width="0.5" stroke-miterlimit="10" stroke-dasharray="1 1"/>
<path d="M16.9373 32.9963C25.8064 32.9963 32.9963 25.8064 32.9963 16.9372C32.9963 8.06805 25.8064 0.878174 16.9373 0.878174C8.06811 0.878174 0.878235 8.06805 0.878235 16.9372C0.878235 25.8064 8.06811 32.9963 16.9373 32.9963Z" stroke="#DDFC76" stroke-width="1.5" stroke-miterlimit="10"/>
<path d="M22.9594 11.0406H11.0406V22.9595H22.9594V11.0406Z" stroke="#DDFC76" stroke-miterlimit="10"/>
<path d="M22.9594 11.0406H11.0406V22.9595H22.9594V11.0406Z" stroke="#DDFC76" stroke-miterlimit="10"/>
<path d="M19.6974 14.4281H14.428V19.6975H19.6974V14.4281Z" fill="#DDFC76"/>
</svg>
