<svg width="34" height="34" viewBox="0 0 34 34" fill="none" xmlns="http://www.w3.org/2000/svg">
<path d="M22.9594 10.915H11.0406V22.8339H22.9594V10.915Z" stroke="#DDFC76" stroke-miterlimit="10"/>
<path d="M16.9373 32.9963C25.8064 32.9963 32.9963 25.8064 32.9963 16.9372C32.9963 8.06805 25.8064 0.878174 16.9373 0.878174C8.06811 0.878174 0.878235 8.06805 0.878235 16.9372C0.878235 25.8064 8.06811 32.9963 16.9373 32.9963Z" stroke="#DDFC76" stroke-width="1.5" stroke-miterlimit="10"/>
<path d="M16.9373 27.9779C23.0348 27.9779 27.9779 23.0349 27.9779 16.9373C27.9779 10.8398 23.0348 5.89673 16.9373 5.89673C10.8397 5.89673 5.89668 10.8398 5.89668 16.9373C5.89668 23.0349 10.8397 27.9779 16.9373 27.9779Z" stroke="#DDFC76" stroke-width="0.5" stroke-miterlimit="10" stroke-dasharray="1 1"/>
<path d="M29.9359 23.5523V19.0356H25.4193V23.5523H29.9359Z" fill="#2E3032"/>
<path d="M29.979 18.1486V14.5103H26.3406V18.1486H29.979Z" fill="#2E3032"/>
<path d="M17.3993 29.7029V25.1863H12.8827V29.7029H17.3993Z" fill="#2E3032"/>
<path d="M9.09595 13.7741V10.1357H5.45757L5.45757 13.7741H9.09595Z" fill="#2E3032"/>
<path d="M8.65683 10.6643H5.89668V13.4245H8.65683V10.6643Z" fill="#DDFC76"/>
<path d="M8.18246 20.2354V15.7188H3.66586L3.66586 20.2354H8.18246Z" fill="#2E3032"/>
<path d="M19.6855 8.3667V3.8501L15.1689 3.8501V8.3667H19.6855Z" fill="#2E3032"/>
<path d="M7.7786 16.0591H4.14023V19.6975H7.7786V16.0591Z" fill="#DDFC76"/>
<path d="M19.1956 4.26562H15.5572V7.904H19.1956V4.26562Z" fill="#DDFC76"/>
<path d="M17.0627 25.594H13.4243V29.2324H17.0627V25.594Z" fill="#DDFC76"/>
<path d="M29.4834 19.4465H25.845V23.0849H29.4834V19.4465Z" fill="#DDFC76"/>
<path d="M29.3579 14.9299H26.7233V17.5646H29.3579V14.9299Z" fill="#DDFC76"/>
</svg>
