<svg width="48" height="48" viewBox="0 0 48 48" fill="none" xmlns="http://www.w3.org/2000/svg">
<path d="M32.3 15.8999H16V32.1999H32.3V15.8999Z" stroke="#DDFC76" stroke-miterlimit="10" stroke-linecap="round"/>
<path d="M24.2 39.4C32.5947 39.4 39.4 32.5947 39.4 24.2C39.4 15.8053 32.5947 9 24.2 9C15.8053 9 9 15.8053 9 24.2C9 32.5947 15.8053 39.4 24.2 39.4Z" stroke="#DDFC76" stroke-width="0.5" stroke-miterlimit="10" stroke-dasharray="1 1"/>
<path d="M41.9582 33.1724V26.9724H35.7582V33.1724H41.9582Z" fill="#2E3032"/>
<path d="M42.0119 25.7485V20.7485H37.0119V25.7485H42.0119Z" fill="#2E3032"/>
<path d="M24.7527 41.6597V35.4597H18.5527V41.6597H24.7527Z" fill="#2E3032"/>
<path d="M13.3602 19.8242L13.3602 14.8242L8.3602 14.8242V19.8242H13.3602Z" fill="#2E3032"/>
<path d="M12.7 15.5H8.9V19.3H12.7V15.5Z" fill="#DDFC76"/>
<path d="M12.0894 28.5354L12.0894 22.3354H5.8894L5.8894 28.5354H12.0894Z" fill="#2E3032"/>
<path d="M27.8183 12.2435V6.04346L21.6183 6.04346V12.2435H27.8183Z" fill="#2E3032"/>
<path d="M11.5 23H6.6V27.9H11.5V23Z" fill="#DDFC76"/>
<path d="M27.2 6.69995H22.3V11.6H27.2V6.69995Z" fill="#DDFC76"/>
<path d="M24.2 36H19.3V40.9H24.2V36Z" fill="#DDFC76"/>
<path d="M41.2 27.6001H36.3V32.5001H41.2V27.6001Z" fill="#DDFC76"/>
<path d="M41.2 21.3999H37.6V24.9999H41.2V21.3999Z" fill="#DDFC76"/>
<path d="M24 47C36.7025 47 47 36.7025 47 24C47 11.2974 36.7025 1 24 1C11.2975 1 1 11.2974 1 24C1 36.7025 11.2975 47 24 47Z" stroke="#DDFC76" stroke-width="1.5" stroke-miterlimit="10"/>
<path d="M28.7 24H20.3V28.7H28.7V24Z" fill="#DDFC76"/>
<path d="M24.6 27.3999C23.4 27.3999 22.4 26.3999 22.4 25.1999V22.5999C22.4 21.3999 23.4 20.3999 24.6 20.3999C25.8 20.3999 26.8 21.3999 26.8 22.5999V25.1999C26.7 26.3999 25.8 27.3999 24.6 27.3999Z" stroke="#DDFC76" stroke-miterlimit="10"/>
</svg>
