<svg width="77" height="60" viewBox="0 0 77 60" fill="none" xmlns="http://www.w3.org/2000/svg">
<g clip-path="url(#clip0_9_42)">
<path d="M65.2393 5.02523C60.2463 2.66398 54.9225 0.968718 49.328 0C48.6362 1.24117 47.8542 2.90616 47.2827 4.23814C41.3573 3.32997 35.4921 3.32997 29.687 4.23814C29.1456 2.90616 28.3034 1.24117 27.6417 0C22.0772 0.968718 16.7233 2.69425 11.7303 5.02523C1.68423 20.3128 -1.0228 35.2371 0.330719 49.9495C7.00806 54.9748 13.4749 58.002 19.8213 60C21.3854 57.8204 22.7991 55.5197 24.0022 53.0979C21.7163 52.22 19.5206 51.1302 17.4452 49.889C17.9866 49.4652 18.528 49.0414 19.0694 48.6176C31.7323 54.5812 45.5081 54.5812 58.0206 48.6176C58.562 49.0716 59.0733 49.4955 59.6448 49.889C57.5694 51.1604 55.3436 52.2503 53.0577 53.1282C54.2608 55.5499 55.6444 57.8809 57.2385 60.0303C63.585 58.0323 70.0518 55.005 76.7292 49.9798C78.2632 32.9062 73.9319 18.1332 65.2393 5.02523ZM25.7167 40.8981C21.9268 40.8981 18.7987 37.3259 18.7987 32.9667C18.7987 28.6075 21.8366 25.0353 25.7167 25.0353C29.5967 25.0353 32.6948 28.6075 32.6346 32.9667C32.6346 37.3259 29.5667 40.8981 25.7167 40.8981ZM51.2831 40.8981C47.4932 40.8981 44.3651 37.3259 44.3651 32.9667C44.3651 28.6075 47.403 25.0353 51.2831 25.0353C55.1631 25.0353 58.2612 28.6075 58.201 32.9667C58.201 37.3259 55.1631 40.8981 51.2831 40.8981Z" fill="white"/>
</g>
<defs>
<clipPath id="clip0_9_42">
<rect width="77" height="60" fill="white"/>
</clipPath>
</defs>
</svg>
