<svg xmlns="http://www.w3.org/2000/svg" width="725.774" height="95.405" viewBox="0 0 725.774 95.405">
  <g id="galaxy-eco" transform="translate(0)">
    <path id="Path_40" data-name="Path 40" d="M95.334,45.091a47.522,47.522,0,0,0-1.456-9.408,46.845,46.845,0,0,0-1.715-5.3,47.722,47.722,0,0,0-88.92,0A47.425,47.425,0,0,0,.072,45.091Q0,46.389,0,47.7q0,1.354.076,2.689a47.712,47.712,0,0,0,92.16,14.443A47.383,47.383,0,0,0,95.33,50.391q.076-1.336.076-2.689,0-1.314-.072-2.612Z" transform="translate(0 0)" fill="#fff"/>
    <path id="Path_41" data-name="Path 41" d="M211.394,223.762l12.368-12.368a2.65,2.65,0,0,0-3.747-3.747l-12.368,12.368a2.65,2.65,0,0,0,3.747,3.747Zm29.234,4.5-12.368,12.368a2.65,2.65,0,0,0,3.747,3.747l12.368-12.368a2.65,2.65,0,0,0-3.747-3.747Zm1.406-21.831-35.6,35.6a2.65,2.65,0,0,0,3.747,3.747l35.6-35.6a2.65,2.65,0,1,0-3.747-3.747Z" transform="translate(-178.402 -178.402)"/>
    <path id="Path_42" data-name="Path 42" d="M984.538,215.571a12.668,12.668,0,0,1,5.573,4.708,14.26,14.26,0,0,1,0,14.4,12.463,12.463,0,0,1-5.573,4.708,20.619,20.619,0,0,1-8.532,1.634h-7.117a.325.325,0,0,0-.324.323v9.674a.326.326,0,0,1-.325.324h-7.914a.325.325,0,0,1-.325-.324V214.244a.325.325,0,0,1,.325-.323h15.68A20.361,20.361,0,0,1,984.538,215.571ZM981.4,232.282a6.758,6.758,0,0,0,0-9.626,8.955,8.955,0,0,0-5.866-1.682h-6.647a.325.325,0,0,0-.324.324v12.344a.325.325,0,0,0,.324.324h6.647a8.892,8.892,0,0,0,5.866-1.682Zm45.927,7.345a.339.339,0,0,1,.131-.485,12.665,12.665,0,0,0,5.281-4.465,12.844,12.844,0,0,0,1.982-7.183,13.065,13.065,0,0,0-1.949-7.215,12.774,12.774,0,0,0-5.574-4.708,20.358,20.358,0,0,0-8.531-1.65h-15.681a.324.324,0,0,0-.324.323v6.406a.325.325,0,0,0,.324.324H1018.2a8.985,8.985,0,0,1,5.867,1.682,6.776,6.776,0,0,1,0,9.642,8.777,8.777,0,0,1-5.867,1.715h-15.209a.325.325,0,0,0-.324.324v16.679a.325.325,0,0,0,.324.324h7.913a.325.325,0,0,0,.325-.324v-9.772a.326.326,0,0,1,.326-.324h7.361a.323.323,0,0,1,.277.146l6.938,10.144a.364.364,0,0,0,.276.146h8.4a.314.314,0,0,0,.26-.5Zm74.526,10.961a13.17,13.17,0,0,1-4.989-3.834.314.314,0,0,1,0-.4l4.322-5.258a.322.322,0,0,1,.5,0q2.926,3.786,6.629,3.786,5.242,0,5.233-6.2V221.209a.324.324,0,0,0-.324-.324h-12.35a.325.325,0,0,1-.325-.324v-6.309a.325.325,0,0,1,.325-.324h20.849a.325.325,0,0,1,.325.324V238.2q0,6.892-3.38,10.338c-2.258,2.3-5.557,3.446-9.929,3.446A16.39,16.39,0,0,1,1101.854,250.588Zm132.629-29.614H1223.3a.326.326,0,0,1-.326-.324v-6.406a.326.326,0,0,1,.326-.323h31.573a.325.325,0,0,1,.325.323v6.406a.325.325,0,0,1-.325.324H1243.7a.325.325,0,0,0-.324.324v29.719a.326.326,0,0,1-.326.324h-7.913a.325.325,0,0,1-.325-.324V221.3A.325.325,0,0,0,1234.484,220.974Zm-178.906,29.134a18.477,18.477,0,0,1-7.232-6.924,20.107,20.107,0,0,1,0-19.834,18.582,18.582,0,0,1,7.232-6.924,22.687,22.687,0,0,1,20.735,0,18.692,18.692,0,0,1,7.231,6.924,19.89,19.89,0,0,1,0,19.834,18.8,18.8,0,0,1-7.231,6.924,21.164,21.164,0,0,1-10.352,2.508A21.514,21.514,0,0,1,1055.577,250.108Zm16.3-6.39a10.9,10.9,0,0,0,4.144-4.255,13.463,13.463,0,0,0,0-12.392,11,11,0,0,0-4.144-4.255,12.263,12.263,0,0,0-11.83,0,10.9,10.9,0,0,0-4.144,4.255,13.449,13.449,0,0,0,0,12.392,11.007,11.007,0,0,0,4.144,4.255,11.583,11.583,0,0,0,5.915,1.521A11.7,11.7,0,0,0,1071.876,243.718Zm63.428,1.005v6.309a.325.325,0,0,0,.324.324h27.983a.326.326,0,0,0,.325-.324v-6.309a.326.326,0,0,0-.325-.324h-27.967A.328.328,0,0,0,1135.3,244.723Zm28.632-24.266v-6.212a.325.325,0,0,0-.325-.323h-27.983a.325.325,0,0,0-.324.323v6.212a.325.325,0,0,0,.324.324h27.983A.326.326,0,0,0,1163.936,220.456Zm-28.632,8.882v6.034a.325.325,0,0,0,.324.324h28.015a.325.325,0,0,0,.325-.324v-6.034a.325.325,0,0,0-.325-.323h-28.015a.325.325,0,0,0-.324.323Zm51.713,20.786a18.466,18.466,0,0,1-7.182-6.892,20.285,20.285,0,0,1,0-19.931,18.353,18.353,0,0,1,7.182-6.892,22.628,22.628,0,0,1,18.963-.776,17.453,17.453,0,0,1,6.322,4.675.328.328,0,0,1-.033.453l-5.021,4.692a.335.335,0,0,1-.472-.016,11.735,11.735,0,0,0-9.084-4.125,12.156,12.156,0,0,0-6.125,1.521,10.587,10.587,0,0,0-4.192,4.255,13.451,13.451,0,0,0,0,12.392,10.9,10.9,0,0,0,4.192,4.255,12.2,12.2,0,0,0,6.125,1.521,11.678,11.678,0,0,0,9.084-4.174.337.337,0,0,1,.472-.032l5.021,4.692a.307.307,0,0,1,.033.437,17.245,17.245,0,0,1-6.354,4.74,21.612,21.612,0,0,1-8.71,1.715A21.1,21.1,0,0,1,1187.017,250.124Zm127.627-17.445h7.166a.326.326,0,0,1,.326.323v14.706a.339.339,0,0,1-.13.259,22.432,22.432,0,0,1-6.841,3.43,26.63,26.63,0,0,1-7.98,1.23,21.281,21.281,0,0,1-10.35-2.491,18.659,18.659,0,0,1-7.215-6.892,20.283,20.283,0,0,1,0-19.931,18.143,18.143,0,0,1,7.262-6.892,21.927,21.927,0,0,1,10.466-2.491,22.8,22.8,0,0,1,8.823,1.65,17.564,17.564,0,0,1,6.452,4.578.345.345,0,0,1-.017.453l-5.037,4.708a.317.317,0,0,1-.456-.016,12.618,12.618,0,0,0-9.343-4,12.908,12.908,0,0,0-6.289,1.5,10.7,10.7,0,0,0-4.273,4.222,13.46,13.46,0,0,0,0,12.457,10.95,10.95,0,0,0,4.257,4.255,12.465,12.465,0,0,0,6.207,1.521,13.865,13.865,0,0,0,6.483-1.5.3.3,0,0,0,.179-.291V233.035A.312.312,0,0,1,1314.644,232.679Zm70.632-18.75h7.915a.326.326,0,0,1,.325.324v29.719a.325.325,0,0,0,.325.323h17.891a.325.325,0,0,1,.325.324v6.406a.325.325,0,0,1-.325.324h-26.455a.325.325,0,0,1-.325-.324V214.252A.325.325,0,0,1,1385.276,213.929Zm159.189,24.251v12.845a.326.326,0,0,1-.326.324h-7.913a.325.325,0,0,1-.325-.324V238.066a.268.268,0,0,0-.049-.162l-13.974-23.49a.323.323,0,0,1,.276-.485h8.336a.316.316,0,0,1,.277.162l9.506,16a.321.321,0,0,0,.552,0l9.506-16a.333.333,0,0,1,.275-.162h7.638a.323.323,0,0,1,.277.485l-14.041,23.6C1544.481,238.066,1544.465,238.131,1544.465,238.179Zm-186.642-24.251H1349.8a.322.322,0,0,0-.293.194L1333.3,250.9a.323.323,0,0,0,.293.453h8.059a.364.364,0,0,0,.309-.194l3.2-7.814,2.747-6.568,5.557-13.589a.321.321,0,0,1,.6,0l5.558,13.589,2.7,6.568,3.186,7.814a.3.3,0,0,0,.309.194h8.271a.323.323,0,0,0,.291-.453l-16.249-36.772A.364.364,0,0,0,1357.823,213.929Zm89.443,0h-8.027a.322.322,0,0,0-.293.194l-16.2,36.772a.322.322,0,0,0,.292.453h8.059a.365.365,0,0,0,.308-.194l3.2-7.814,2.745-6.568,5.557-13.589a.323.323,0,0,1,.6,0l5.557,13.589,2.7,6.568,3.185,7.814a.3.3,0,0,0,.309.194h8.271a.323.323,0,0,0,.292-.453l-16.25-36.772A.363.363,0,0,0,1447.265,213.929Zm41.214,5.678-3.884-5.533a.36.36,0,0,0-.261-.146h-8.92a.323.323,0,0,0-.26.518l8.043,11.373a.329.329,0,0,0,.519.016L1488.5,220A.412.412,0,0,0,1488.479,219.607Zm13.534,19.155-4.7,5.937a.338.338,0,0,0-.016.388l4.209,6.131a.36.36,0,0,0,.275.146h9.084a.324.324,0,0,0,.261-.518l-8.6-12.052A.32.32,0,0,0,1502.013,238.762ZM1497.706,232l12.529-17.553a.331.331,0,0,0-.261-.518h-8.449a.32.32,0,0,0-.277.146l-8.238,11.988c0,.016-.017.016-.017.016l-5.216,6.228-.017.016-13.307,18.507a.33.33,0,0,0,.26.518h9.019a.321.321,0,0,0,.277-.146l8.661-12.845.016-.016Z" transform="translate(-832.793 -185.572)" fill="#fff"/>
  </g>
</svg>
