<svg width="74" height="72" viewBox="0 0 74 72" fill="none" xmlns="http://www.w3.org/2000/svg">
<path fill-rule="evenodd" clip-rule="evenodd" d="M37 0C16.5561 0 0 16.5167 0 36.912C0 53.2484 10.5941 67.04 25.3002 71.9351C27.1502 72.2595 27.8439 71.1493 27.8439 70.1832C27.8439 69.3037 27.8006 66.3983 27.8006 63.3055C18.5072 65.0141 16.1008 61.0418 15.3564 58.9655C14.9373 57.9057 13.1379 54.6254 11.5625 53.7531C10.2689 53.061 8.41895 51.3524 11.5191 51.3091C14.4314 51.2659 16.5127 53.9838 17.2064 55.094C20.5379 60.6741 25.8566 59.1096 27.9813 58.1364C28.3064 55.7357 29.2748 54.1208 30.3371 53.198C22.1061 52.2752 13.4992 49.0886 13.4992 34.9727C13.4992 30.957 14.9301 27.6335 17.2932 25.0526C16.9246 24.1298 15.6311 20.3448 17.6617 15.2695C17.6617 15.2695 20.7619 14.3034 27.8367 19.0544C30.7996 18.2253 33.9432 17.8071 37.0867 17.8071C40.2303 17.8071 43.3738 18.2253 46.3367 19.0544C53.4115 14.2529 56.5117 15.2695 56.5117 15.2695C58.5496 20.3448 57.2488 24.1298 56.8803 25.0526C59.2361 27.6335 60.6742 30.9138 60.6742 34.9727C60.6742 49.1391 52.024 52.2752 43.793 53.198C45.1371 54.3515 46.2934 56.5647 46.2934 60.0252C46.2934 64.9637 46.25 68.9288 46.25 70.176C46.25 71.1421 46.9438 72.2956 48.7938 71.9279C63.4059 67.04 74 53.198 74 36.912C74 16.5167 57.4439 0 37 0Z" fill="white"/>
</svg>
