<svg xmlns="http://www.w3.org/2000/svg" width="1920.25" height="320.5" viewBox="0 0 1920.25 320.5">
  <g id="Group_1223" data-name="Group 1223" transform="translate(0.25 -1039.75)">
    <rect id="Rectangle_3348" data-name="Rectangle 3348" width="1920" height="320" transform="translate(0 1040)" fill="#fff" opacity="0"/>
    <g id="Group_1194" data-name="Group 1194">
      <path id="Rectangle_3128" data-name="Rectangle 3128" d="M-.25-.25h80.5v80.5H-.25Zm80,.5H.25v79.5h79.5Z" transform="translate(0 1040)"/>
      <path id="Rectangle_3136" data-name="Rectangle 3136" d="M-.25-.25h80.5v80.5H-.25Zm80,.5H.25v79.5h79.5Z" transform="translate(0 1120)"/>
      <path id="Rectangle_3139" data-name="Rectangle 3139" d="M-.25-.25h80.5v80.5H-.25Zm80,.5H.25v79.5h79.5Z" transform="translate(0 1200)"/>
      <path id="Rectangle_3141" data-name="Rectangle 3141" d="M-.25-.25h80.5v80.5H-.25Zm80,.5H.25v79.5h79.5Z" transform="translate(0 1280)"/>
      <path id="Rectangle_3129" data-name="Rectangle 3129" d="M-.25-.25h80.5v80.5H-.25Zm80,.5H.25v79.5h79.5Z" transform="translate(80 1040)"/>
      <path id="Rectangle_3137" data-name="Rectangle 3137" d="M-.25-.25h80.5v80.5H-.25Zm80,.5H.25v79.5h79.5Z" transform="translate(80 1120)"/>
      <path id="Rectangle_3140" data-name="Rectangle 3140" d="M-.25-.25h80.5v80.5H-.25Zm80,.5H.25v79.5h79.5Z" transform="translate(80 1200)"/>
      <path id="Rectangle_3130" data-name="Rectangle 3130" d="M-.25-.25h80.5v80.5H-.25Zm80,.5H.25v79.5h79.5Z" transform="translate(160 1040)"/>
      <path id="Rectangle_3138" data-name="Rectangle 3138" d="M-.25-.25h80.5v80.5H-.25Zm80,.5H.25v79.5h79.5Z" transform="translate(160 1120)"/>
      <path id="Rectangle_3131" data-name="Rectangle 3131" d="M-.25-.25h80.5v80.5H-.25Zm80,.5H.25v79.5h79.5Z" transform="translate(240 1040)"/>
      <path id="Rectangle_3132" data-name="Rectangle 3132" d="M-.25-.25h80.5v80.5H-.25Zm80,.5H.25v79.5h79.5Z" transform="translate(320 1040)"/>
      <path id="Rectangle_3133" data-name="Rectangle 3133" d="M-.25-.25h80.5v80.5H-.25Zm80,.5H.25v79.5h79.5Z" transform="translate(400 1040)"/>
      <path id="Rectangle_3134" data-name="Rectangle 3134" d="M-.25-.25h80.5v80.5H-.25Zm80,.5H.25v79.5h79.5Z" transform="translate(480 1040)"/>
      <path id="Rectangle_3135" data-name="Rectangle 3135" d="M-.25-.25h80.5v80.5H-.25Zm80,.5H.25v79.5h79.5Z" transform="translate(560 1040)"/>
    </g>
  </g>
</svg>
