<svg width="48" height="48" viewBox="0 0 48 48" fill="none" xmlns="http://www.w3.org/2000/svg">
<path d="M23.8 46.6C36.3921 46.6 46.6 36.3921 46.6 23.8C46.6 11.2079 36.3921 1 23.8 1C11.2079 1 1 11.2079 1 23.8C1 36.3921 11.2079 46.6 23.8 46.6Z" stroke="#DDFC76" stroke-width="1.5" stroke-miterlimit="10"/>
<path d="M12.5 31.9V12.6C12.5 12 13 11.5 13.6 11.5H34.6C35.2 11.5 35.7 12 35.7 12.6V32" stroke="#DDFC76" stroke-width="0.5" stroke-miterlimit="10" stroke-dasharray="1 1"/>
<path d="M31.7 30.0999H16.5C16 30.0999 15.6 29.6999 15.6 29.1999V15.2999C15.6 14.7999 16 14.3999 16.5 14.3999H31.6C32.1 14.3999 32.5 14.7999 32.5 15.2999V29.1999C32.5 29.6999 32.1 30.0999 31.7 30.0999Z" stroke="#DDFC76" stroke-width="0.5" stroke-miterlimit="10" stroke-dasharray="1 1"/>
<path d="M32.5 14.4L35.7 11.5" stroke="#DDFC76" stroke-width="0.5" stroke-miterlimit="10" stroke-dasharray="1 1"/>
<path d="M15.7 14.4001L12.9 11.8" stroke="#DDFC76" stroke-width="0.5" stroke-miterlimit="10" stroke-dasharray="1 1"/>
<path d="M15.7 30.1001L12.5 33.0001" stroke="#DDFC76" stroke-width="0.5" stroke-miterlimit="10" stroke-dasharray="1 1"/>
<path d="M32.5 30.1001L34.5 31.9001" stroke="#DDFC76" stroke-width="0.5" stroke-miterlimit="10" stroke-dasharray="1 1"/>
<path d="M32.4 24.3L29.9 22.5C29.6 22.3 29.1 22.4 28.9 22.7C28.7 23 28.8 23.5 29.1 23.7L31.7 25.5C31.7 25.5 31.7 25.5 31.8 25.5C31.8 25.5 31.8 25.5 31.7 25.5L29.1 27.3C28.8 27.5 28.7 28 28.9 28.3C29 28.5 29.3 28.6 29.5 28.6C29.6 28.6 29.8 28.6 29.9 28.5L32.4 26.7C32.8 26.4 33.1 26 33.1 25.5C33.1 25 32.8 24.5 32.4 24.3Z" fill="#DDFC76"/>
<path d="M25.9 24.0001C26.2 23.8001 26.2 23.4001 26 23.2001C25.6 22.7001 24.4 21.9001 22.7 22.8001C22.5 22.9001 22.3 23.0001 22.1 23.2001C21.6 23.6001 20.8 24.0001 20 23.1001C19.8 22.9001 19.4 22.8001 19.1 23.1001C18.9 23.3001 18.8 23.7001 19.1 24.0001C19.7 24.7001 20.4 24.9001 21 24.9001C21.7 24.9001 22.4 24.6001 22.9 24.2001C23 24.1001 23.2 24.0001 23.3 23.9001C24.4 23.3001 24.9 23.9001 25 24.0001C25.2 24.2001 25.6 24.2001 25.9 24.0001Z" fill="#DDFC76"/>
<path d="M27 21.7C26.6 21.8 26.4 22.2 26.5 22.6C26.5 22.6 27.6 26.6 25.3 29.3C25 29.6 25.1 30 25.4 30.3C25.5 30.4 25.7 30.5001 25.9 30.5001C26.1 30.5001 26.3 30.4 26.4 30.3C29.3 27 27.9 22.5 27.9 22.3C27.8 21.8 27.4 21.6 27 21.7Z" fill="#DDFC76"/>
<path d="M18.6 22.5C18.7 22.1 18.5 21.6999 18.1 21.5999C17.7 21.4999 17.3 21.6999 17.2 22.0999C17.1 22.2999 15.8 26.7999 18.7 30.0999C18.8 30.2999 19 30.2999 19.2 30.2999C19.4 30.2999 19.5 30.1999 19.7 30.0999C20 29.7999 20 29.3999 19.8 29.0999C17.5 26.4999 18.6 22.6 18.6 22.5Z" fill="#DDFC76"/>
<path d="M23.9 29.2H21.2C20.8 29.2 20.5 29.4999 20.5 29.8999C20.5 30.2999 20.8 30.5999 21.2 30.5999H23.9C24.3 30.5999 24.6 30.2999 24.6 29.8999C24.6 29.4999 24.3 29.2 23.9 29.2Z" fill="#DDFC76"/>
<path d="M22.6 21.2001C22.7 21.3001 22.8 21.3001 22.9 21.3001C23.1 21.3001 23.2 21.2001 23.3 21.1001C25 18.7001 23.4 16.2001 23.3 16.1001C23.1 15.9001 22.8 15.8001 22.6 16.0001C22.4 16.2001 22.3 16.5001 22.5 16.7001C22.6 16.8001 23.8 18.7001 22.5 20.6001C22.4 20.7001 22.4 21.1001 22.6 21.2001Z" fill="#DDFC76"/>
<path d="M21.6 18.8C21.7 18.8 21.8 18.8 21.9 18.7C22.1 18.5 22.2 18.2 22 18C21.9 17.9 20.7 16 22 14.1C22.2 13.9 22.1 13.6 21.9 13.4C21.7 13.2 21.4 13.3 21.2 13.5C19.5 15.9 21.1 18.4 21.2 18.5C21.3 18.7 21.4 18.8 21.6 18.8Z" fill="#DDFC76"/>
<path d="M28.5 34.2001H9.99998C9.89998 34.2001 9.79999 34.1001 9.79999 34.0001V32.0001C9.79999 31.9001 9.89998 31.8 9.99998 31.8H28.5V34.2001Z" fill="#DDFC76"/>
<path d="M37.4 32.2V33.7H10.2V32.2H37.4ZM37.7 31.7H9.99998C9.89998 31.7 9.79999 31.7999 9.79999 31.8999V33.8999C9.79999 33.9999 9.89998 34.0999 9.99998 34.0999H37.7C37.8 34.0999 37.9 33.9999 37.9 33.8999V31.8999C37.9 31.7999 37.8 31.7 37.7 31.7Z" fill="#DDFC76"/>
</svg>
