<svg xmlns="http://www.w3.org/2000/svg" viewBox="0 0 102.17 102.17"><defs><style>.cls-1{fill:#fff;}</style></defs><g id="Layer_2" data-name="Layer 2"><g id="Layer_2-2" data-name="Layer 2"><path class="cls-1" d="M51.09,9.2c13.64,0,15.25.06,20.64.3a28.28,28.28,0,0,1,9.48,1.76,16.88,16.88,0,0,1,9.7,9.7,28.28,28.28,0,0,1,1.76,9.48c.25,5.39.3,7,.3,20.65s0,15.25-.3,20.64a28.28,28.28,0,0,1-1.76,9.48,16.88,16.88,0,0,1-9.7,9.7,28.28,28.28,0,0,1-9.48,1.76c-5.39.25-7,.3-20.64.3s-15.26,0-20.65-.3A28.28,28.28,0,0,1,21,90.91a16.88,16.88,0,0,1-9.7-9.7A28.28,28.28,0,0,1,9.5,71.73c-.24-5.39-.3-7-.3-20.64s.06-15.26.3-20.65A28.28,28.28,0,0,1,11.26,21a16,16,0,0,1,3.82-5.88A16,16,0,0,1,21,11.26,28.28,28.28,0,0,1,30.44,9.5c5.39-.24,7-.3,20.65-.3m0-9.2C37.21,0,35.47.06,30,.31a37.67,37.67,0,0,0-12.4,2.37,25.09,25.09,0,0,0-9,5.89,25.09,25.09,0,0,0-5.89,9.05A37.67,37.67,0,0,0,.31,30C.06,35.47,0,37.21,0,51.09S.06,66.7.31,72.15a37.62,37.62,0,0,0,2.37,12.4,25.09,25.09,0,0,0,5.89,9,25.09,25.09,0,0,0,9.05,5.89A37.41,37.41,0,0,0,30,101.86c5.45.25,7.19.31,21.07.31s15.61-.06,21.06-.31a37.36,37.36,0,0,0,12.4-2.37A26.09,26.09,0,0,0,99.49,84.55a37.36,37.36,0,0,0,2.37-12.4c.25-5.45.31-7.19.31-21.06s-.06-15.62-.31-21.07a37.41,37.41,0,0,0-2.37-12.4,25.09,25.09,0,0,0-5.89-9,25.09,25.09,0,0,0-9-5.89A37.62,37.62,0,0,0,72.15.31C66.7.06,65,0,51.09,0Z"/><path class="cls-1" d="M51.09,24.85A26.24,26.24,0,1,0,77.32,51.09,26.24,26.24,0,0,0,51.09,24.85Zm0,43.26a17,17,0,1,1,17-17A17,17,0,0,1,51.09,68.11Z"/><circle class="cls-1" cx="78.36" cy="23.82" r="6.13"/></g></g></svg>