<svg xmlns="http://www.w3.org/2000/svg" width="1280.373" height="960.204" viewBox="0 0 1280.373 960.204">
  <g id="Group_1229" data-name="Group 1229" transform="translate(8953.25 1457.454)">
    <g id="Group_1228" data-name="Group 1228">
      <g id="Group_1227" data-name="Group 1227" transform="translate(-8953.127 -1031.489)">
        <path id="Rectangle_305" data-name="Rectangle 305" d="M-.25-.25H64.23V64.23H-.25Zm63.98.5H.25V63.73H63.73Z" transform="translate(0.127 342.048)" fill="#949494"/>
        <path id="Rectangle_307" data-name="Rectangle 307" d="M-.25-.25H64.23V64.23H-.25Zm63.98.5H.25V63.73H63.73Z" transform="translate(64.107 342.048)" fill="#949494"/>
        <path id="Rectangle_308" data-name="Rectangle 308" d="M-.25-.25H64.23V64.23H-.25Zm63.98.5H.25V63.73H63.73Z" transform="translate(128.087 342.048)" fill="#949494"/>
        <path id="Rectangle_309" data-name="Rectangle 309" d="M-.25-.25H64.23V64.23H-.25Zm63.98.5H.25V63.73H63.73Z" transform="translate(192.068 342.048)" fill="#949494"/>
        <path id="Rectangle_310" data-name="Rectangle 310" d="M-.25-.25H64.23V64.23H-.25Zm63.98.5H.25V63.73H63.73Z" transform="translate(256.049 342.048)" fill="#949494"/>
        <path id="Rectangle_311" data-name="Rectangle 311" d="M-.25-.25H64.23V64.23H-.25Zm63.98.5H.25V63.73H63.73Z" transform="translate(320.028 342.048)" fill="#949494"/>
        <path id="Rectangle_312" data-name="Rectangle 312" d="M-.25-.25H64.23V64.23H-.25Zm63.98.5H.25V63.73H63.73Z" transform="translate(384.009 342.048)" fill="#949494"/>
        <path id="Rectangle_313" data-name="Rectangle 313" d="M-.25-.25H64.23V64.23H-.25Zm63.98.5H.25V63.73H63.73Z" transform="translate(447.989 342.048)" fill="#949494"/>
        <path id="Rectangle_314" data-name="Rectangle 314" d="M-.25-.25H64.23V64.23H-.25Zm63.98.5H.25V63.73H63.73Z" transform="translate(511.969 342.048)" fill="#949494"/>
        <path id="Rectangle_315" data-name="Rectangle 315" d="M-.25-.25H64.23V64.23H-.25Zm63.98.5H.25V63.73H63.73Z" transform="translate(575.949 342.048)" fill="#949494"/>
        <path id="Rectangle_316" data-name="Rectangle 316" d="M-.25-.25H64.23V64.23H-.25Zm63.98.5H.25V63.73H63.73Z" transform="translate(639.931 342.048)" fill="#949494"/>
        <path id="Rectangle_317" data-name="Rectangle 317" d="M-.25-.25H64.23V64.23H-.25Zm63.98.5H.25V63.73H63.73Z" transform="translate(703.91 342.048)" fill="#949494"/>
        <path id="Rectangle_318" data-name="Rectangle 318" d="M-.25-.25H64.23V64.23H-.25Zm63.98.5H.25V63.73H63.73Z" transform="translate(767.891 342.048)" fill="#949494"/>
        <path id="Rectangle_319" data-name="Rectangle 319" d="M-.25-.25H64.23V64.23H-.25Zm63.98.5H.25V63.73H63.73Z" transform="translate(831.871 342.048)" fill="#949494"/>
        <path id="Rectangle_320" data-name="Rectangle 320" d="M-.25-.25H64.23V64.23H-.25Zm63.98.5H.25V63.73H63.73Z" transform="translate(895.851 342.048)" fill="#949494"/>
        <path id="Rectangle_321" data-name="Rectangle 321" d="M-.25-.25H64.23V64.23H-.25Zm63.98.5H.25V63.73H63.73Z" transform="translate(0.127 278.068)" fill="#949494"/>
        <path id="Rectangle_323" data-name="Rectangle 323" d="M-.25-.25H64.23V64.23H-.25Zm63.98.5H.25V63.73H63.73Z" transform="translate(64.107 278.068)" fill="#949494"/>
        <path id="Rectangle_324" data-name="Rectangle 324" d="M-.25-.25H64.23V64.23H-.25Zm63.98.5H.25V63.73H63.73Z" transform="translate(128.087 278.068)" fill="#949494"/>
        <path id="Rectangle_325" data-name="Rectangle 325" d="M-.25-.25H64.23V64.23H-.25Zm63.98.5H.25V63.73H63.73Z" transform="translate(192.068 278.068)" fill="#949494"/>
        <path id="Rectangle_326" data-name="Rectangle 326" d="M-.25-.25H64.23V64.23H-.25Zm63.98.5H.25V63.73H63.73Z" transform="translate(256.049 278.068)" fill="#949494"/>
        <path id="Rectangle_327" data-name="Rectangle 327" d="M-.25-.25H64.23V64.23H-.25Zm63.98.5H.25V63.73H63.73Z" transform="translate(320.028 278.068)" fill="#949494"/>
        <path id="Rectangle_328" data-name="Rectangle 328" d="M-.25-.25H64.23V64.23H-.25Zm63.98.5H.25V63.73H63.73Z" transform="translate(384.009 278.068)" fill="#949494"/>
        <path id="Rectangle_329" data-name="Rectangle 329" d="M-.25-.25H64.23V64.23H-.25Zm63.98.5H.25V63.73H63.73Z" transform="translate(447.989 278.068)" fill="#949494"/>
        <path id="Rectangle_330" data-name="Rectangle 330" d="M-.25-.25H64.23V64.23H-.25Zm63.98.5H.25V63.73H63.73Z" transform="translate(511.969 278.068)" fill="#949494"/>
        <path id="Rectangle_331" data-name="Rectangle 331" d="M-.25-.25H64.23V64.23H-.25Zm63.98.5H.25V63.73H63.73Z" transform="translate(575.949 278.068)" fill="#949494"/>
        <path id="Rectangle_332" data-name="Rectangle 332" d="M-.25-.25H64.23V64.23H-.25Zm63.98.5H.25V63.73H63.73Z" transform="translate(639.931 278.068)" fill="#949494"/>
        <path id="Rectangle_333" data-name="Rectangle 333" d="M-.25-.25H64.23V64.23H-.25Zm63.98.5H.25V63.73H63.73Z" transform="translate(703.91 278.068)" fill="#949494"/>
        <path id="Rectangle_334" data-name="Rectangle 334" d="M-.25-.25H64.23V64.23H-.25Zm63.98.5H.25V63.73H63.73Z" transform="translate(767.891 278.068)" fill="#949494"/>
        <path id="Rectangle_335" data-name="Rectangle 335" d="M-.25-.25H64.23V64.23H-.25Zm63.98.5H.25V63.73H63.73Z" transform="translate(831.871 278.068)" fill="#949494"/>
        <path id="Rectangle_336" data-name="Rectangle 336" d="M-.25-.25H64.23V64.23H-.25Zm63.98.5H.25V63.73H63.73Z" transform="translate(895.851 278.068)" fill="#949494"/>
        <path id="Rectangle_337" data-name="Rectangle 337" d="M-.25-.25H64.23V64.23H-.25Zm63.98.5H.25V63.73H63.73Z" transform="translate(0.127 214.087)" fill="#949494"/>
        <path id="Rectangle_339" data-name="Rectangle 339" d="M-.25-.25H64.23V64.23H-.25Zm63.98.5H.25V63.73H63.73Z" transform="translate(64.107 214.087)" fill="#949494"/>
        <path id="Rectangle_340" data-name="Rectangle 340" d="M-.25-.25H64.23V64.23H-.25Zm63.98.5H.25V63.73H63.73Z" transform="translate(128.087 214.087)" fill="#949494"/>
        <path id="Rectangle_341" data-name="Rectangle 341" d="M-.25-.25H64.23V64.23H-.25Zm63.98.5H.25V63.73H63.73Z" transform="translate(192.068 214.087)" fill="#949494"/>
        <path id="Rectangle_342" data-name="Rectangle 342" d="M-.25-.25H64.23V64.23H-.25Zm63.98.5H.25V63.73H63.73Z" transform="translate(256.049 214.087)" fill="#949494"/>
        <path id="Rectangle_343" data-name="Rectangle 343" d="M-.25-.25H64.23V64.23H-.25Zm63.98.5H.25V63.73H63.73Z" transform="translate(320.028 214.087)" fill="#949494"/>
        <path id="Rectangle_344" data-name="Rectangle 344" d="M-.25-.25H64.23V64.23H-.25Zm63.98.5H.25V63.73H63.73Z" transform="translate(384.009 214.087)" fill="#949494"/>
        <path id="Rectangle_345" data-name="Rectangle 345" d="M-.25-.25H64.23V64.23H-.25Zm63.98.5H.25V63.73H63.73Z" transform="translate(447.989 214.087)" fill="#949494"/>
        <path id="Rectangle_346" data-name="Rectangle 346" d="M-.25-.25H64.23V64.23H-.25Zm63.98.5H.25V63.73H63.73Z" transform="translate(511.969 214.087)" fill="#949494"/>
        <path id="Rectangle_347" data-name="Rectangle 347" d="M-.25-.25H64.23V64.23H-.25Zm63.98.5H.25V63.73H63.73Z" transform="translate(575.949 214.087)" fill="#949494"/>
        <path id="Rectangle_348" data-name="Rectangle 348" d="M-.25-.25H64.23V64.23H-.25Zm63.98.5H.25V63.73H63.73Z" transform="translate(639.931 214.087)" fill="#949494"/>
        <path id="Rectangle_349" data-name="Rectangle 349" d="M-.25-.25H64.23V64.23H-.25Zm63.98.5H.25V63.73H63.73Z" transform="translate(703.91 214.087)" fill="#949494"/>
        <path id="Rectangle_350" data-name="Rectangle 350" d="M-.25-.25H64.23V64.23H-.25Zm63.98.5H.25V63.73H63.73Z" transform="translate(767.891 214.087)" fill="#949494"/>
        <path id="Rectangle_351" data-name="Rectangle 351" d="M-.25-.25H64.23V64.23H-.25Zm63.98.5H.25V63.73H63.73Z" transform="translate(831.871 214.087)" fill="#949494"/>
        <path id="Rectangle_352" data-name="Rectangle 352" d="M-.25-.25H64.23V64.23H-.25Zm63.98.5H.25V63.73H63.73Z" transform="translate(895.851 214.087)" fill="#949494"/>
        <path id="Rectangle_353" data-name="Rectangle 353" d="M-.25-.25H64.23V64.23H-.25Zm63.98.5H.25V63.73H63.73Z" transform="translate(0.127 150.107)" fill="#949494"/>
        <path id="Rectangle_355" data-name="Rectangle 355" d="M-.25-.25H64.23V64.23H-.25Zm63.98.5H.25V63.73H63.73Z" transform="translate(64.107 150.107)" fill="#949494"/>
        <path id="Rectangle_356" data-name="Rectangle 356" d="M-.25-.25H64.23V64.23H-.25Zm63.98.5H.25V63.73H63.73Z" transform="translate(128.087 150.107)" fill="#949494"/>
        <path id="Rectangle_357" data-name="Rectangle 357" d="M-.25-.25H64.23V64.23H-.25Zm63.98.5H.25V63.73H63.73Z" transform="translate(192.068 150.107)" fill="#949494"/>
        <path id="Rectangle_358" data-name="Rectangle 358" d="M-.25-.25H64.23V64.23H-.25Zm63.98.5H.25V63.73H63.73Z" transform="translate(256.049 150.107)" fill="#949494"/>
        <path id="Rectangle_359" data-name="Rectangle 359" d="M-.25-.25H64.23V64.23H-.25Zm63.98.5H.25V63.73H63.73Z" transform="translate(320.028 150.107)" fill="#949494"/>
        <path id="Rectangle_360" data-name="Rectangle 360" d="M-.25-.25H64.23V64.23H-.25Zm63.98.5H.25V63.73H63.73Z" transform="translate(384.009 150.107)" fill="#949494"/>
        <path id="Rectangle_361" data-name="Rectangle 361" d="M-.25-.25H64.23V64.23H-.25Zm63.98.5H.25V63.73H63.73Z" transform="translate(447.989 150.107)" fill="#949494"/>
        <path id="Rectangle_362" data-name="Rectangle 362" d="M-.25-.25H64.23V64.23H-.25Zm63.98.5H.25V63.73H63.73Z" transform="translate(511.969 150.107)" fill="#949494"/>
        <path id="Rectangle_363" data-name="Rectangle 363" d="M-.25-.25H64.23V64.23H-.25Zm63.98.5H.25V63.73H63.73Z" transform="translate(575.949 150.107)" fill="#949494"/>
        <path id="Rectangle_364" data-name="Rectangle 364" d="M-.25-.25H64.23V64.23H-.25Zm63.98.5H.25V63.73H63.73Z" transform="translate(639.931 150.107)" fill="#949494"/>
        <path id="Rectangle_365" data-name="Rectangle 365" d="M-.25-.25H64.23V64.23H-.25Zm63.98.5H.25V63.73H63.73Z" transform="translate(703.91 150.107)" fill="#949494"/>
        <path id="Rectangle_366" data-name="Rectangle 366" d="M-.25-.25H64.23V64.23H-.25Zm63.98.5H.25V63.73H63.73Z" transform="translate(767.891 150.107)" fill="#949494"/>
        <path id="Rectangle_367" data-name="Rectangle 367" d="M-.25-.25H64.23V64.23H-.25Zm63.98.5H.25V63.73H63.73Z" transform="translate(831.871 150.107)" fill="#949494"/>
        <path id="Rectangle_368" data-name="Rectangle 368" d="M-.25-.25H64.23V64.23H-.25Zm63.98.5H.25V63.73H63.73Z" transform="translate(895.851 150.107)" fill="#949494"/>
        <path id="Rectangle_369" data-name="Rectangle 369" d="M-.25-.25H64.23V64.23H-.25Zm63.98.5H.25V63.73H63.73Z" transform="translate(0.127 86.127)" fill="#949494"/>
        <path id="Rectangle_370" data-name="Rectangle 370" d="M-.25-.25H64.23V64.23H-.25Zm63.98.5H.25V63.73H63.73Z" transform="translate(64.107 86.127)" fill="#949494"/>
        <path id="Rectangle_371" data-name="Rectangle 371" d="M-.25-.25H64.23V64.23H-.25Zm63.98.5H.25V63.73H63.73Z" transform="translate(128.087 86.127)" fill="#949494"/>
        <path id="Rectangle_372" data-name="Rectangle 372" d="M-.25-.25H64.23V64.23H-.25Zm63.98.5H.25V63.73H63.73Z" transform="translate(192.068 86.127)" fill="#949494"/>
        <path id="Rectangle_373" data-name="Rectangle 373" d="M-.25-.25H64.23V64.23H-.25Zm63.98.5H.25V63.73H63.73Z" transform="translate(256.049 86.127)" fill="#949494"/>
        <path id="Rectangle_374" data-name="Rectangle 374" d="M-.25-.25H64.23V64.23H-.25Zm63.98.5H.25V63.73H63.73Z" transform="translate(320.028 86.127)" fill="#949494"/>
        <path id="Rectangle_375" data-name="Rectangle 375" d="M-.25-.25H64.23V64.23H-.25Zm63.98.5H.25V63.73H63.73Z" transform="translate(384.009 86.127)" fill="#949494"/>
        <path id="Rectangle_376" data-name="Rectangle 376" d="M-.25-.25H64.23V64.23H-.25Zm63.98.5H.25V63.73H63.73Z" transform="translate(447.989 86.127)" fill="#949494"/>
        <path id="Rectangle_377" data-name="Rectangle 377" d="M-.25-.25H64.23V64.23H-.25Zm63.98.5H.25V63.73H63.73Z" transform="translate(511.969 86.127)" fill="#949494"/>
        <path id="Rectangle_378" data-name="Rectangle 378" d="M-.25-.25H64.23V64.23H-.25Zm63.98.5H.25V63.73H63.73Z" transform="translate(575.949 86.127)" fill="#949494"/>
        <path id="Rectangle_379" data-name="Rectangle 379" d="M-.25-.25H64.23V64.23H-.25Zm63.98.5H.25V63.73H63.73Z" transform="translate(639.931 86.127)" fill="#949494"/>
        <path id="Rectangle_380" data-name="Rectangle 380" d="M-.25-.25H64.23V64.23H-.25Zm63.98.5H.25V63.73H63.73Z" transform="translate(703.91 86.127)" fill="#949494"/>
        <path id="Rectangle_381" data-name="Rectangle 381" d="M-.25-.25H64.23V64.23H-.25Zm63.98.5H.25V63.73H63.73Z" transform="translate(767.891 86.127)" fill="#949494"/>
        <path id="Rectangle_382" data-name="Rectangle 382" d="M-.25-.25H64.23V64.23H-.25Zm63.98.5H.25V63.73H63.73Z" transform="translate(831.871 86.127)" fill="#949494"/>
        <path id="Rectangle_383" data-name="Rectangle 383" d="M-.25-.25H64.23V64.23H-.25Zm63.98.5H.25V63.73H63.73Z" transform="translate(895.851 86.127)" fill="#949494"/>
        <path id="Rectangle_415" data-name="Rectangle 415" d="M-.25-.25H64.23V64.23H-.25Zm63.98.5H.25V63.73H63.73Z" transform="translate(0.127 470.009)" fill="#949494"/>
        <path id="Rectangle_417" data-name="Rectangle 417" d="M-.25-.25H64.23V64.23H-.25Zm63.98.5H.25V63.73H63.73Z" transform="translate(64.107 470.009)" fill="#949494"/>
        <path id="Rectangle_418" data-name="Rectangle 418" d="M-.25-.25H64.23V64.23H-.25Zm63.98.5H.25V63.73H63.73Z" transform="translate(128.087 470.009)" fill="#949494"/>
        <path id="Rectangle_419" data-name="Rectangle 419" d="M-.25-.25H64.23V64.23H-.25Zm63.98.5H.25V63.73H63.73Z" transform="translate(192.068 470.009)" fill="#949494"/>
        <path id="Rectangle_420" data-name="Rectangle 420" d="M-.25-.25H64.23V64.23H-.25Zm63.98.5H.25V63.73H63.73Z" transform="translate(256.049 470.009)" fill="#949494"/>
        <path id="Rectangle_421" data-name="Rectangle 421" d="M-.25-.25H64.23V64.23H-.25Zm63.98.5H.25V63.73H63.73Z" transform="translate(320.028 470.009)" fill="#949494"/>
        <path id="Rectangle_422" data-name="Rectangle 422" d="M-.25-.25H64.23V64.23H-.25Zm63.98.5H.25V63.73H63.73Z" transform="translate(384.009 470.009)" fill="#949494"/>
        <path id="Rectangle_423" data-name="Rectangle 423" d="M-.25-.25H64.23V64.23H-.25Zm63.98.5H.25V63.73H63.73Z" transform="translate(447.989 470.009)" fill="#949494"/>
        <path id="Rectangle_424" data-name="Rectangle 424" d="M-.25-.25H64.23V64.23H-.25Zm63.98.5H.25V63.73H63.73Z" transform="translate(511.969 470.009)" fill="#949494"/>
        <path id="Rectangle_425" data-name="Rectangle 425" d="M-.25-.25H64.23V64.23H-.25Zm63.98.5H.25V63.73H63.73Z" transform="translate(575.949 470.009)" fill="#949494"/>
        <path id="Rectangle_426" data-name="Rectangle 426" d="M-.25-.25H64.23V64.23H-.25Zm63.98.5H.25V63.73H63.73Z" transform="translate(639.931 470.009)" fill="#949494"/>
        <path id="Rectangle_427" data-name="Rectangle 427" d="M-.25-.25H64.23V64.23H-.25Zm63.98.5H.25V63.73H63.73Z" transform="translate(703.91 470.009)" fill="#949494"/>
        <path id="Rectangle_428" data-name="Rectangle 428" d="M-.25-.25H64.23V64.23H-.25Zm63.98.5H.25V63.73H63.73Z" transform="translate(767.891 470.009)" fill="#949494"/>
        <path id="Rectangle_429" data-name="Rectangle 429" d="M-.25-.25H64.23V64.23H-.25Zm63.98.5H.25V63.73H63.73Z" transform="translate(831.871 470.009)" fill="#949494"/>
        <path id="Rectangle_430" data-name="Rectangle 430" d="M-.25-.25H64.23V64.23H-.25Zm63.98.5H.25V63.73H63.73Z" transform="translate(895.851 470.009)" fill="#949494"/>
        <path id="Rectangle_431" data-name="Rectangle 431" d="M-.25-.25H64.23V64.23H-.25Zm63.98.5H.25V63.73H63.73Z" transform="translate(0.127 406.028)" fill="#949494"/>
        <path id="Rectangle_433" data-name="Rectangle 433" d="M-.25-.25H64.23V64.23H-.25Zm63.98.5H.25V63.73H63.73Z" transform="translate(64.107 406.028)" fill="#949494"/>
        <path id="Rectangle_434" data-name="Rectangle 434" d="M-.25-.25H64.23V64.23H-.25Zm63.98.5H.25V63.73H63.73Z" transform="translate(128.087 406.028)" fill="#949494"/>
        <path id="Rectangle_435" data-name="Rectangle 435" d="M-.25-.25H64.23V64.23H-.25Zm63.98.5H.25V63.73H63.73Z" transform="translate(192.068 406.028)" fill="#949494"/>
        <path id="Rectangle_436" data-name="Rectangle 436" d="M-.25-.25H64.23V64.23H-.25Zm63.98.5H.25V63.73H63.73Z" transform="translate(256.049 406.028)" fill="#949494"/>
        <path id="Rectangle_437" data-name="Rectangle 437" d="M-.25-.25H64.23V64.23H-.25Zm63.98.5H.25V63.73H63.73Z" transform="translate(320.028 406.028)" fill="#949494"/>
        <path id="Rectangle_438" data-name="Rectangle 438" d="M-.25-.25H64.23V64.23H-.25Zm63.98.5H.25V63.73H63.73Z" transform="translate(384.009 406.028)" fill="#949494"/>
        <path id="Rectangle_439" data-name="Rectangle 439" d="M-.25-.25H64.23V64.23H-.25Zm63.98.5H.25V63.73H63.73Z" transform="translate(447.989 406.028)" fill="#949494"/>
        <path id="Rectangle_440" data-name="Rectangle 440" d="M-.25-.25H64.23V64.23H-.25Zm63.98.5H.25V63.73H63.73Z" transform="translate(511.969 406.028)" fill="#949494"/>
        <path id="Rectangle_441" data-name="Rectangle 441" d="M-.25-.25H64.23V64.23H-.25Zm63.98.5H.25V63.73H63.73Z" transform="translate(575.949 406.028)" fill="#949494"/>
        <path id="Rectangle_442" data-name="Rectangle 442" d="M-.25-.25H64.23V64.23H-.25Zm63.98.5H.25V63.73H63.73Z" transform="translate(639.931 406.028)" fill="#949494"/>
        <path id="Rectangle_443" data-name="Rectangle 443" d="M-.25-.25H64.23V64.23H-.25Zm63.98.5H.25V63.73H63.73Z" transform="translate(703.91 406.028)" fill="#949494"/>
        <path id="Rectangle_444" data-name="Rectangle 444" d="M-.25-.25H64.23V64.23H-.25Zm63.98.5H.25V63.73H63.73Z" transform="translate(767.891 406.028)" fill="#949494"/>
        <path id="Rectangle_445" data-name="Rectangle 445" d="M-.25-.25H64.23V64.23H-.25Zm63.98.5H.25V63.73H63.73Z" transform="translate(831.871 406.028)" fill="#949494"/>
        <path id="Rectangle_446" data-name="Rectangle 446" d="M-.25-.25H64.23V64.23H-.25Zm63.98.5H.25V63.73H63.73Z" transform="translate(895.851 406.028)" fill="#949494"/>
        <path id="Rectangle_305-2" data-name="Rectangle 305" d="M-.25-.25H64.23V64.23H-.25Zm63.98.5H.25V63.73H63.73Z" transform="translate(960.1 342.048)" fill="#949494"/>
        <path id="Rectangle_307-2" data-name="Rectangle 307" d="M-.25-.25H64.23V64.23H-.25Zm63.98.5H.25V63.73H63.73Z" transform="translate(1024.078 342.048)" fill="#949494"/>
        <path id="Rectangle_308-2" data-name="Rectangle 308" d="M-.25-.25H64.23V64.23H-.25Zm63.98.5H.25V63.73H63.73Z" transform="translate(1088.06 342.048)" fill="#949494"/>
        <path id="Rectangle_3177" data-name="Rectangle 3177" d="M-.25-.25H64.23V64.23H-.25Zm63.98.5H.25V63.73H63.73Z" transform="translate(1216.02 342.048)" fill="#949494"/>
        <path id="Rectangle_309-2" data-name="Rectangle 309" d="M-.25-.25H64.23V64.23H-.25Zm63.98.5H.25V63.73H63.73Z" transform="translate(1152.038 342.048)" fill="#949494"/>
        <path id="Rectangle_321-2" data-name="Rectangle 321" d="M-.25-.25H64.23V64.23H-.25Zm63.98.5H.25V63.73H63.73Z" transform="translate(960.1 278.068)" fill="#949494"/>
        <path id="Rectangle_323-2" data-name="Rectangle 323" d="M-.25-.25H64.23V64.23H-.25Zm63.98.5H.25V63.73H63.73Z" transform="translate(1024.078 278.068)" fill="#949494"/>
        <path id="Rectangle_324-2" data-name="Rectangle 324" d="M-.25-.25H64.23V64.23H-.25Zm63.98.5H.25V63.73H63.73Z" transform="translate(1088.06 278.068)" fill="#949494"/>
        <path id="Rectangle_3179" data-name="Rectangle 3179" d="M-.25-.25H64.23V64.23H-.25Zm63.98.5H.25V63.73H63.73Z" transform="translate(1216.02 278.068)" fill="#949494"/>
        <path id="Rectangle_325-2" data-name="Rectangle 325" d="M-.25-.25H64.23V64.23H-.25Zm63.98.5H.25V63.73H63.73Z" transform="translate(1152.038 278.068)" fill="#949494"/>
        <path id="Rectangle_337-2" data-name="Rectangle 337" d="M-.25-.25H64.23V64.23H-.25Zm63.98.5H.25V63.73H63.73Z" transform="translate(960.1 214.087)" fill="#949494"/>
        <path id="Rectangle_339-2" data-name="Rectangle 339" d="M-.25-.25H64.23V64.23H-.25Zm63.98.5H.25V63.73H63.73Z" transform="translate(1024.078 214.087)" fill="#949494"/>
        <path id="Rectangle_340-2" data-name="Rectangle 340" d="M-.25-.25H64.23V64.23H-.25Zm63.98.5H.25V63.73H63.73Z" transform="translate(1088.06 214.087)" fill="#949494"/>
        <path id="Rectangle_3183" data-name="Rectangle 3183" d="M-.25-.25H64.23V64.23H-.25Zm63.98.5H.25V63.73H63.73Z" transform="translate(1216.02 214.087)" fill="#949494"/>
        <path id="Rectangle_341-2" data-name="Rectangle 341" d="M-.25-.25H64.23V64.23H-.25Zm63.98.5H.25V63.73H63.73Z" transform="translate(1152.038 214.087)" fill="#949494"/>
        <path id="Rectangle_353-2" data-name="Rectangle 353" d="M-.25-.25H64.23V64.23H-.25Zm63.98.5H.25V63.73H63.73Z" transform="translate(960.1 150.107)" fill="#949494"/>
        <path id="Rectangle_355-2" data-name="Rectangle 355" d="M-.25-.25H64.23V64.23H-.25Zm63.98.5H.25V63.73H63.73Z" transform="translate(1024.078 150.107)" fill="#949494"/>
        <path id="Rectangle_356-2" data-name="Rectangle 356" d="M-.25-.25H64.23V64.23H-.25Zm63.98.5H.25V63.73H63.73Z" transform="translate(1088.06 150.107)" fill="#949494"/>
        <path id="Rectangle_3185" data-name="Rectangle 3185" d="M-.25-.25H64.23V64.23H-.25Zm63.98.5H.25V63.73H63.73Z" transform="translate(1216.02 150.107)" fill="#949494"/>
        <path id="Rectangle_357-2" data-name="Rectangle 357" d="M-.25-.25H64.23V64.23H-.25Zm63.98.5H.25V63.73H63.73Z" transform="translate(1152.038 150.107)" fill="#949494"/>
        <path id="Rectangle_369-2" data-name="Rectangle 369" d="M-.25-.25H64.23V64.23H-.25Zm63.98.5H.25V63.73H63.73Z" transform="translate(960.1 86.127)" fill="#949494"/>
        <path id="Rectangle_370-2" data-name="Rectangle 370" d="M-.25-.25H64.23V64.23H-.25Zm63.98.5H.25V63.73H63.73Z" transform="translate(1024.079 86.127)" fill="#949494"/>
        <path id="Rectangle_371-2" data-name="Rectangle 371" d="M-.25-.25H64.23V64.23H-.25Zm63.98.5H.25V63.73H63.73Z" transform="translate(1088.06 86.127)" fill="#949494"/>
        <path id="Rectangle_3187" data-name="Rectangle 3187" d="M-.25-.25H64.23V64.23H-.25Zm63.98.5H.25V63.73H63.73Z" transform="translate(1216.02 86.127)" fill="#949494"/>
        <path id="Rectangle_372-2" data-name="Rectangle 372" d="M-.25-.25H64.23V64.23H-.25Zm63.98.5H.25V63.73H63.73Z" transform="translate(1152.039 86.127)" fill="#949494"/>
        <path id="Rectangle_415-2" data-name="Rectangle 415" d="M-.25-.25H64.23V64.23H-.25Zm63.98.5H.25V63.73H63.73Z" transform="translate(960.1 470.009)" fill="#949494"/>
        <path id="Rectangle_417-2" data-name="Rectangle 417" d="M-.25-.25H64.23V64.23H-.25Zm63.98.5H.25V63.73H63.73Z" transform="translate(1024.078 470.009)" fill="#949494"/>
        <path id="Rectangle_418-2" data-name="Rectangle 418" d="M-.25-.25H64.23V64.23H-.25Zm63.98.5H.25V63.73H63.73Z" transform="translate(1088.06 470.009)" fill="#949494"/>
        <path id="Rectangle_3175" data-name="Rectangle 3175" d="M-.25-.25H64.23V64.23H-.25Zm63.98.5H.25V63.73H63.73Z" transform="translate(1216.02 470.009)" fill="#949494"/>
        <path id="Rectangle_419-2" data-name="Rectangle 419" d="M-.25-.25H64.23V64.23H-.25Zm63.98.5H.25V63.73H63.73Z" transform="translate(1152.038 470.009)" fill="#949494"/>
        <path id="Rectangle_431-2" data-name="Rectangle 431" d="M-.25-.25H64.23V64.23H-.25Zm63.98.5H.25V63.73H63.73Z" transform="translate(960.1 406.028)" fill="#949494"/>
        <path id="Rectangle_433-2" data-name="Rectangle 433" d="M-.25-.25H64.23V64.23H-.25Zm63.98.5H.25V63.73H63.73Z" transform="translate(1024.078 406.028)" fill="#949494"/>
        <path id="Rectangle_434-2" data-name="Rectangle 434" d="M-.25-.25H64.23V64.23H-.25Zm63.98.5H.25V63.73H63.73Z" transform="translate(1088.06 406.028)" fill="#949494"/>
        <path id="Rectangle_3181" data-name="Rectangle 3181" d="M-.25-.25H64.23V64.23H-.25Zm63.98.5H.25V63.73H63.73Z" transform="translate(1216.02 406.028)" fill="#949494"/>
        <path id="Rectangle_435-2" data-name="Rectangle 435" d="M-.25-.25H64.23V64.23H-.25Zm63.98.5H.25V63.73H63.73Z" transform="translate(1152.038 406.028)" fill="#949494"/>
      </g>
      <path id="Rectangle_305-3" data-name="Rectangle 305" d="M-.25-.25H64.23V64.23H-.25Zm63.98.5H.25V63.73H63.73Z" transform="translate(-8953 -1137.302)" fill="#949494"/>
      <path id="Rectangle_307-3" data-name="Rectangle 307" d="M-.25-.25H64.23V64.23H-.25Zm63.98.5H.25V63.73H63.73Z" transform="translate(-8889.02 -1137.302)" fill="#949494"/>
      <path id="Rectangle_308-3" data-name="Rectangle 308" d="M-.25-.25H64.23V64.23H-.25Zm63.98.5H.25V63.73H63.73Z" transform="translate(-8825.04 -1137.302)" fill="#949494"/>
      <path id="Rectangle_309-3" data-name="Rectangle 309" d="M-.25-.25H64.23V64.23H-.25Zm63.98.5H.25V63.73H63.73Z" transform="translate(-8761.059 -1137.302)" fill="#949494"/>
      <path id="Rectangle_310-2" data-name="Rectangle 310" d="M-.25-.25H64.23V64.23H-.25Zm63.98.5H.25V63.73H63.73Z" transform="translate(-8697.078 -1137.302)" fill="#949494"/>
      <path id="Rectangle_311-2" data-name="Rectangle 311" d="M-.25-.25H64.23V64.23H-.25Zm63.98.5H.25V63.73H63.73Z" transform="translate(-8633.099 -1137.302)" fill="#949494"/>
      <path id="Rectangle_312-2" data-name="Rectangle 312" d="M-.25-.25H64.23V64.23H-.25Zm63.98.5H.25V63.73H63.73Z" transform="translate(-8569.118 -1137.302)" fill="#949494"/>
      <path id="Rectangle_313-2" data-name="Rectangle 313" d="M-.25-.25H64.23V64.23H-.25Zm63.98.5H.25V63.73H63.73Z" transform="translate(-8505.138 -1137.302)" fill="#949494"/>
      <path id="Rectangle_314-2" data-name="Rectangle 314" d="M-.25-.25H64.23V64.23H-.25Zm63.98.5H.25V63.73H63.73Z" transform="translate(-8441.158 -1137.302)" fill="#949494"/>
      <path id="Rectangle_315-2" data-name="Rectangle 315" d="M-.25-.25H64.23V64.23H-.25Zm63.98.5H.25V63.73H63.73Z" transform="translate(-8377.178 -1137.302)" fill="#949494"/>
      <path id="Rectangle_316-2" data-name="Rectangle 316" d="M-.25-.25H64.23V64.23H-.25Zm63.98.5H.25V63.73H63.73Z" transform="translate(-8313.196 -1137.302)" fill="#949494"/>
      <path id="Rectangle_317-2" data-name="Rectangle 317" d="M-.25-.25H64.23V64.23H-.25Zm63.98.5H.25V63.73H63.73Z" transform="translate(-8249.217 -1137.302)" fill="#949494"/>
      <path id="Rectangle_318-2" data-name="Rectangle 318" d="M-.25-.25H64.23V64.23H-.25Zm63.98.5H.25V63.73H63.73Z" transform="translate(-8185.236 -1137.302)" fill="#949494"/>
      <path id="Rectangle_319-2" data-name="Rectangle 319" d="M-.25-.25H64.23V64.23H-.25Zm63.98.5H.25V63.73H63.73Z" transform="translate(-8121.256 -1137.302)" fill="#949494"/>
      <path id="Rectangle_320-2" data-name="Rectangle 320" d="M-.25-.25H64.23V64.23H-.25Zm63.98.5H.25V63.73H63.73Z" transform="translate(-8057.276 -1137.302)" fill="#949494"/>
      <path id="Rectangle_321-3" data-name="Rectangle 321" d="M-.25-.25H64.23V64.23H-.25Zm63.98.5H.25V63.73H63.73Z" transform="translate(-8953 -1201.283)" fill="#949494"/>
      <path id="Rectangle_323-3" data-name="Rectangle 323" d="M-.25-.25H64.23V64.23H-.25Zm63.98.5H.25V63.73H63.73Z" transform="translate(-8889.02 -1201.283)" fill="#949494"/>
      <path id="Rectangle_324-3" data-name="Rectangle 324" d="M-.25-.25H64.23V64.23H-.25Zm63.98.5H.25V63.73H63.73Z" transform="translate(-8825.04 -1201.283)" fill="#949494"/>
      <path id="Rectangle_325-3" data-name="Rectangle 325" d="M-.25-.25H64.23V64.23H-.25Zm63.98.5H.25V63.73H63.73Z" transform="translate(-8761.059 -1201.283)" fill="#949494"/>
      <path id="Rectangle_326-2" data-name="Rectangle 326" d="M-.25-.25H64.23V64.23H-.25Zm63.98.5H.25V63.73H63.73Z" transform="translate(-8697.078 -1201.283)" fill="#949494"/>
      <path id="Rectangle_327-2" data-name="Rectangle 327" d="M-.25-.25H64.23V64.23H-.25Zm63.98.5H.25V63.73H63.73Z" transform="translate(-8633.099 -1201.283)" fill="#949494"/>
      <path id="Rectangle_328-2" data-name="Rectangle 328" d="M-.25-.25H64.23V64.23H-.25Zm63.98.5H.25V63.73H63.73Z" transform="translate(-8569.118 -1201.283)" fill="#949494"/>
      <path id="Rectangle_329-2" data-name="Rectangle 329" d="M-.25-.25H64.23V64.23H-.25Zm63.98.5H.25V63.73H63.73Z" transform="translate(-8505.138 -1201.283)" fill="#949494"/>
      <path id="Rectangle_330-2" data-name="Rectangle 330" d="M-.25-.25H64.23V64.23H-.25Zm63.98.5H.25V63.73H63.73Z" transform="translate(-8441.158 -1201.283)" fill="#949494"/>
      <path id="Rectangle_331-2" data-name="Rectangle 331" d="M-.25-.25H64.23V64.23H-.25Zm63.98.5H.25V63.73H63.73Z" transform="translate(-8377.178 -1201.283)" fill="#949494"/>
      <path id="Rectangle_332-2" data-name="Rectangle 332" d="M-.25-.25H64.23V64.23H-.25Zm63.98.5H.25V63.73H63.73Z" transform="translate(-8313.196 -1201.283)" fill="#949494"/>
      <path id="Rectangle_333-2" data-name="Rectangle 333" d="M-.25-.25H64.23V64.23H-.25Zm63.98.5H.25V63.73H63.73Z" transform="translate(-8249.217 -1201.283)" fill="#949494"/>
      <path id="Rectangle_334-2" data-name="Rectangle 334" d="M-.25-.25H64.23V64.23H-.25Zm63.98.5H.25V63.73H63.73Z" transform="translate(-8185.236 -1201.283)" fill="#949494"/>
      <path id="Rectangle_335-2" data-name="Rectangle 335" d="M-.25-.25H64.23V64.23H-.25Zm63.98.5H.25V63.73H63.73Z" transform="translate(-8121.256 -1201.283)" fill="#949494"/>
      <path id="Rectangle_336-2" data-name="Rectangle 336" d="M-.25-.25H64.23V64.23H-.25Zm63.98.5H.25V63.73H63.73Z" transform="translate(-8057.276 -1201.283)" fill="#949494"/>
      <path id="Rectangle_337-3" data-name="Rectangle 337" d="M-.25-.25H64.23V64.23H-.25Zm63.98.5H.25V63.73H63.73Z" transform="translate(-8953 -1265.263)" fill="#949494"/>
      <path id="Rectangle_339-3" data-name="Rectangle 339" d="M-.25-.25H64.23V64.23H-.25Zm63.98.5H.25V63.73H63.73Z" transform="translate(-8889.02 -1265.263)" fill="#949494"/>
      <path id="Rectangle_340-3" data-name="Rectangle 340" d="M-.25-.25H64.23V64.23H-.25Zm63.98.5H.25V63.73H63.73Z" transform="translate(-8825.04 -1265.263)" fill="#949494"/>
      <path id="Rectangle_341-3" data-name="Rectangle 341" d="M-.25-.25H64.23V64.23H-.25Zm63.98.5H.25V63.73H63.73Z" transform="translate(-8761.059 -1265.263)" fill="#949494"/>
      <path id="Rectangle_342-2" data-name="Rectangle 342" d="M-.25-.25H64.23V64.23H-.25Zm63.98.5H.25V63.73H63.73Z" transform="translate(-8697.078 -1265.263)" fill="#949494"/>
      <path id="Rectangle_343-2" data-name="Rectangle 343" d="M-.25-.25H64.23V64.23H-.25Zm63.98.5H.25V63.73H63.73Z" transform="translate(-8633.099 -1265.263)" fill="#949494"/>
      <path id="Rectangle_344-2" data-name="Rectangle 344" d="M-.25-.25H64.23V64.23H-.25Zm63.98.5H.25V63.73H63.73Z" transform="translate(-8569.118 -1265.263)" fill="#949494"/>
      <path id="Rectangle_345-2" data-name="Rectangle 345" d="M-.25-.25H64.23V64.23H-.25Zm63.98.5H.25V63.73H63.73Z" transform="translate(-8505.138 -1265.263)" fill="#949494"/>
      <path id="Rectangle_346-2" data-name="Rectangle 346" d="M-.25-.25H64.23V64.23H-.25Zm63.98.5H.25V63.73H63.73Z" transform="translate(-8441.158 -1265.263)" fill="#949494"/>
      <path id="Rectangle_347-2" data-name="Rectangle 347" d="M-.25-.25H64.23V64.23H-.25Zm63.98.5H.25V63.73H63.73Z" transform="translate(-8377.178 -1265.263)" fill="#949494"/>
      <path id="Rectangle_348-2" data-name="Rectangle 348" d="M-.25-.25H64.23V64.23H-.25Zm63.98.5H.25V63.73H63.73Z" transform="translate(-8313.196 -1265.263)" fill="#949494"/>
      <path id="Rectangle_349-2" data-name="Rectangle 349" d="M-.25-.25H64.23V64.23H-.25Zm63.98.5H.25V63.73H63.73Z" transform="translate(-8249.217 -1265.263)" fill="#949494"/>
      <path id="Rectangle_350-2" data-name="Rectangle 350" d="M-.25-.25H64.23V64.23H-.25Zm63.98.5H.25V63.73H63.73Z" transform="translate(-8185.236 -1265.263)" fill="#949494"/>
      <path id="Rectangle_351-2" data-name="Rectangle 351" d="M-.25-.25H64.23V64.23H-.25Zm63.98.5H.25V63.73H63.73Z" transform="translate(-8121.256 -1265.263)" fill="#949494"/>
      <path id="Rectangle_352-2" data-name="Rectangle 352" d="M-.25-.25H64.23V64.23H-.25Zm63.98.5H.25V63.73H63.73Z" transform="translate(-8057.276 -1265.263)" fill="#949494"/>
      <path id="Rectangle_353-3" data-name="Rectangle 353" d="M-.25-.25H64.23V64.23H-.25Zm63.98.5H.25V63.73H63.73Z" transform="translate(-8953 -1329.243)" fill="#949494"/>
      <path id="Rectangle_355-3" data-name="Rectangle 355" d="M-.25-.25H64.23V64.23H-.25Zm63.98.5H.25V63.73H63.73Z" transform="translate(-8889.02 -1329.243)" fill="#949494"/>
      <path id="Rectangle_356-3" data-name="Rectangle 356" d="M-.25-.25H64.23V64.23H-.25Zm63.98.5H.25V63.73H63.73Z" transform="translate(-8825.04 -1329.243)" fill="#949494"/>
      <path id="Rectangle_357-3" data-name="Rectangle 357" d="M-.25-.25H64.23V64.23H-.25Zm63.98.5H.25V63.73H63.73Z" transform="translate(-8761.059 -1329.243)" fill="#949494"/>
      <path id="Rectangle_358-2" data-name="Rectangle 358" d="M-.25-.25H64.23V64.23H-.25Zm63.98.5H.25V63.73H63.73Z" transform="translate(-8697.078 -1329.243)" fill="#949494"/>
      <path id="Rectangle_359-2" data-name="Rectangle 359" d="M-.25-.25H64.23V64.23H-.25Zm63.98.5H.25V63.73H63.73Z" transform="translate(-8633.099 -1329.243)" fill="#949494"/>
      <path id="Rectangle_360-2" data-name="Rectangle 360" d="M-.25-.25H64.23V64.23H-.25Zm63.98.5H.25V63.73H63.73Z" transform="translate(-8569.118 -1329.243)" fill="#949494"/>
      <path id="Rectangle_361-2" data-name="Rectangle 361" d="M-.25-.25H64.23V64.23H-.25Zm63.98.5H.25V63.73H63.73Z" transform="translate(-8505.138 -1329.243)" fill="#949494"/>
      <path id="Rectangle_362-2" data-name="Rectangle 362" d="M-.25-.25H64.23V64.23H-.25Zm63.98.5H.25V63.73H63.73Z" transform="translate(-8441.158 -1329.243)" fill="#949494"/>
      <path id="Rectangle_363-2" data-name="Rectangle 363" d="M-.25-.25H64.23V64.23H-.25Zm63.98.5H.25V63.73H63.73Z" transform="translate(-8377.178 -1329.243)" fill="#949494"/>
      <path id="Rectangle_364-2" data-name="Rectangle 364" d="M-.25-.25H64.23V64.23H-.25Zm63.98.5H.25V63.73H63.73Z" transform="translate(-8313.196 -1329.243)" fill="#949494"/>
      <path id="Rectangle_365-2" data-name="Rectangle 365" d="M-.25-.25H64.23V64.23H-.25Zm63.98.5H.25V63.73H63.73Z" transform="translate(-8249.217 -1329.243)" fill="#949494"/>
      <path id="Rectangle_366-2" data-name="Rectangle 366" d="M-.25-.25H64.23V64.23H-.25Zm63.98.5H.25V63.73H63.73Z" transform="translate(-8185.236 -1329.243)" fill="#949494"/>
      <path id="Rectangle_367-2" data-name="Rectangle 367" d="M-.25-.25H64.23V64.23H-.25Zm63.98.5H.25V63.73H63.73Z" transform="translate(-8121.256 -1329.243)" fill="#949494"/>
      <path id="Rectangle_368-2" data-name="Rectangle 368" d="M-.25-.25H64.23V64.23H-.25Zm63.98.5H.25V63.73H63.73Z" transform="translate(-8057.276 -1329.243)" fill="#949494"/>
      <path id="Rectangle_369-3" data-name="Rectangle 369" d="M-.25-.25H64.23V64.23H-.25Zm63.98.5H.25V63.73H63.73Z" transform="translate(-8953 -1393.224)" fill="#949494"/>
      <path id="Rectangle_3351" data-name="Rectangle 3351" d="M-.25-.25H64.23V64.23H-.25Zm63.98.5H.25V63.73H63.73Z" transform="translate(-8953 -1457.204)" fill="#949494"/>
      <path id="Rectangle_370-3" data-name="Rectangle 370" d="M-.25-.25H64.23V64.23H-.25Zm63.98.5H.25V63.73H63.73Z" transform="translate(-8889.02 -1393.224)" fill="#949494"/>
      <path id="Rectangle_3352" data-name="Rectangle 3352" d="M-.25-.25H64.23V64.23H-.25Zm63.98.5H.25V63.73H63.73Z" transform="translate(-8889.02 -1457.204)" fill="#949494"/>
      <path id="Rectangle_371-3" data-name="Rectangle 371" d="M-.25-.25H64.23V64.23H-.25Zm63.98.5H.25V63.73H63.73Z" transform="translate(-8825.04 -1393.224)" fill="#949494"/>
      <path id="Rectangle_3353" data-name="Rectangle 3353" d="M-.25-.25H64.23V64.23H-.25Zm63.98.5H.25V63.73H63.73Z" transform="translate(-8825.04 -1457.204)" fill="#949494"/>
      <path id="Rectangle_372-3" data-name="Rectangle 372" d="M-.25-.25H64.23V64.23H-.25Zm63.98.5H.25V63.73H63.73Z" transform="translate(-8761.059 -1393.224)" fill="#949494"/>
      <path id="Rectangle_3354" data-name="Rectangle 3354" d="M-.25-.25H64.23V64.23H-.25Zm63.98.5H.25V63.73H63.73Z" transform="translate(-8761.059 -1457.204)" fill="#949494"/>
      <path id="Rectangle_373-2" data-name="Rectangle 373" d="M-.25-.25H64.23V64.23H-.25Zm63.98.5H.25V63.73H63.73Z" transform="translate(-8697.078 -1393.224)" fill="#949494"/>
      <path id="Rectangle_3355" data-name="Rectangle 3355" d="M-.25-.25H64.23V64.23H-.25Zm63.98.5H.25V63.73H63.73Z" transform="translate(-8697.078 -1457.204)" fill="#949494"/>
      <path id="Rectangle_374-2" data-name="Rectangle 374" d="M-.25-.25H64.23V64.23H-.25Zm63.98.5H.25V63.73H63.73Z" transform="translate(-8633.099 -1393.224)" fill="#949494"/>
      <path id="Rectangle_3356" data-name="Rectangle 3356" d="M-.25-.25H64.23V64.23H-.25Zm63.98.5H.25V63.73H63.73Z" transform="translate(-8633.099 -1457.204)" fill="#949494"/>
      <path id="Rectangle_375-2" data-name="Rectangle 375" d="M-.25-.25H64.23V64.23H-.25Zm63.98.5H.25V63.73H63.73Z" transform="translate(-8569.118 -1393.224)" fill="#949494"/>
      <path id="Rectangle_3357" data-name="Rectangle 3357" d="M-.25-.25H64.23V64.23H-.25Zm63.98.5H.25V63.73H63.73Z" transform="translate(-8569.118 -1457.204)" fill="#949494"/>
      <path id="Rectangle_376-2" data-name="Rectangle 376" d="M-.25-.25H64.23V64.23H-.25Zm63.98.5H.25V63.73H63.73Z" transform="translate(-8505.138 -1393.224)" fill="#949494"/>
      <path id="Rectangle_3358" data-name="Rectangle 3358" d="M-.25-.25H64.23V64.23H-.25Zm63.98.5H.25V63.73H63.73Z" transform="translate(-8505.138 -1457.204)" fill="#949494"/>
      <path id="Rectangle_377-2" data-name="Rectangle 377" d="M-.25-.25H64.23V64.23H-.25Zm63.98.5H.25V63.73H63.73Z" transform="translate(-8441.158 -1393.224)" fill="#949494"/>
      <path id="Rectangle_3359" data-name="Rectangle 3359" d="M-.25-.25H64.23V64.23H-.25Zm63.98.5H.25V63.73H63.73Z" transform="translate(-8441.158 -1457.204)" fill="#949494"/>
      <path id="Rectangle_378-2" data-name="Rectangle 378" d="M-.25-.25H64.23V64.23H-.25Zm63.98.5H.25V63.73H63.73Z" transform="translate(-8377.178 -1393.224)" fill="#949494"/>
      <path id="Rectangle_3360" data-name="Rectangle 3360" d="M-.25-.25H64.23V64.23H-.25Zm63.98.5H.25V63.73H63.73Z" transform="translate(-8377.178 -1457.204)" fill="#949494"/>
      <path id="Rectangle_379-2" data-name="Rectangle 379" d="M-.25-.25H64.23V64.23H-.25Zm63.98.5H.25V63.73H63.73Z" transform="translate(-8313.196 -1393.224)" fill="#949494"/>
      <path id="Rectangle_3361" data-name="Rectangle 3361" d="M-.25-.25H64.23V64.23H-.25Zm63.98.5H.25V63.73H63.73Z" transform="translate(-8313.196 -1457.204)" fill="#949494"/>
      <path id="Rectangle_380-2" data-name="Rectangle 380" d="M-.25-.25H64.23V64.23H-.25Zm63.98.5H.25V63.73H63.73Z" transform="translate(-8249.217 -1393.224)" fill="#949494"/>
      <path id="Rectangle_3362" data-name="Rectangle 3362" d="M-.25-.25H64.23V64.23H-.25Zm63.98.5H.25V63.73H63.73Z" transform="translate(-8249.217 -1457.204)" fill="#949494"/>
      <path id="Rectangle_381-2" data-name="Rectangle 381" d="M-.25-.25H64.23V64.23H-.25Zm63.98.5H.25V63.73H63.73Z" transform="translate(-8185.236 -1393.224)" fill="#949494"/>
      <path id="Rectangle_3363" data-name="Rectangle 3363" d="M-.25-.25H64.23V64.23H-.25Zm63.98.5H.25V63.73H63.73Z" transform="translate(-8185.236 -1457.204)" fill="#949494"/>
      <path id="Rectangle_382-2" data-name="Rectangle 382" d="M-.25-.25H64.23V64.23H-.25Zm63.98.5H.25V63.73H63.73Z" transform="translate(-8121.256 -1393.224)" fill="#949494"/>
      <path id="Rectangle_3364" data-name="Rectangle 3364" d="M-.25-.25H64.23V64.23H-.25Zm63.98.5H.25V63.73H63.73Z" transform="translate(-8121.256 -1457.204)" fill="#949494"/>
      <path id="Rectangle_383-2" data-name="Rectangle 383" d="M-.25-.25H64.23V64.23H-.25Zm63.98.5H.25V63.73H63.73Z" transform="translate(-8057.276 -1393.224)" fill="#949494"/>
      <path id="Rectangle_3365" data-name="Rectangle 3365" d="M-.25-.25H64.23V64.23H-.25Zm63.98.5H.25V63.73H63.73Z" transform="translate(-8057.276 -1457.204)" fill="#949494"/>
      <path id="Rectangle_415-3" data-name="Rectangle 415" d="M-.25-.25H64.23V64.23H-.25Zm63.98.5H.25V63.73H63.73Z" transform="translate(-8953 -1009.342)" fill="#949494"/>
      <path id="Rectangle_417-3" data-name="Rectangle 417" d="M-.25-.25H64.23V64.23H-.25Zm63.98.5H.25V63.73H63.73Z" transform="translate(-8889.02 -1009.342)" fill="#949494"/>
      <path id="Rectangle_418-3" data-name="Rectangle 418" d="M-.25-.25H64.23V64.23H-.25Zm63.98.5H.25V63.73H63.73Z" transform="translate(-8825.04 -1009.342)" fill="#949494"/>
      <path id="Rectangle_419-3" data-name="Rectangle 419" d="M-.25-.25H64.23V64.23H-.25Zm63.98.5H.25V63.73H63.73Z" transform="translate(-8761.059 -1009.342)" fill="#949494"/>
      <path id="Rectangle_420-2" data-name="Rectangle 420" d="M-.25-.25H64.23V64.23H-.25Zm63.98.5H.25V63.73H63.73Z" transform="translate(-8697.078 -1009.342)" fill="#949494"/>
      <path id="Rectangle_421-2" data-name="Rectangle 421" d="M-.25-.25H64.23V64.23H-.25Zm63.98.5H.25V63.73H63.73Z" transform="translate(-8633.099 -1009.342)" fill="#949494"/>
      <path id="Rectangle_422-2" data-name="Rectangle 422" d="M-.25-.25H64.23V64.23H-.25Zm63.98.5H.25V63.73H63.73Z" transform="translate(-8569.118 -1009.342)" fill="#949494"/>
      <path id="Rectangle_423-2" data-name="Rectangle 423" d="M-.25-.25H64.23V64.23H-.25Zm63.98.5H.25V63.73H63.73Z" transform="translate(-8505.138 -1009.342)" fill="#949494"/>
      <path id="Rectangle_424-2" data-name="Rectangle 424" d="M-.25-.25H64.23V64.23H-.25Zm63.98.5H.25V63.73H63.73Z" transform="translate(-8441.158 -1009.342)" fill="#949494"/>
      <path id="Rectangle_425-2" data-name="Rectangle 425" d="M-.25-.25H64.23V64.23H-.25Zm63.98.5H.25V63.73H63.73Z" transform="translate(-8377.178 -1009.342)" fill="#949494"/>
      <path id="Rectangle_426-2" data-name="Rectangle 426" d="M-.25-.25H64.23V64.23H-.25Zm63.98.5H.25V63.73H63.73Z" transform="translate(-8313.196 -1009.342)" fill="#949494"/>
      <path id="Rectangle_427-2" data-name="Rectangle 427" d="M-.25-.25H64.23V64.23H-.25Zm63.98.5H.25V63.73H63.73Z" transform="translate(-8249.217 -1009.342)" fill="#949494"/>
      <path id="Rectangle_428-2" data-name="Rectangle 428" d="M-.25-.25H64.23V64.23H-.25Zm63.98.5H.25V63.73H63.73Z" transform="translate(-8185.236 -1009.342)" fill="#949494"/>
      <path id="Rectangle_429-2" data-name="Rectangle 429" d="M-.25-.25H64.23V64.23H-.25Zm63.98.5H.25V63.73H63.73Z" transform="translate(-8121.256 -1009.342)" fill="#949494"/>
      <path id="Rectangle_430-2" data-name="Rectangle 430" d="M-.25-.25H64.23V64.23H-.25Zm63.98.5H.25V63.73H63.73Z" transform="translate(-8057.276 -1009.342)" fill="#949494"/>
      <path id="Rectangle_431-3" data-name="Rectangle 431" d="M-.25-.25H64.23V64.23H-.25Zm63.98.5H.25V63.73H63.73Z" transform="translate(-8953 -1073.322)" fill="#949494"/>
      <path id="Rectangle_433-3" data-name="Rectangle 433" d="M-.25-.25H64.23V64.23H-.25Zm63.98.5H.25V63.73H63.73Z" transform="translate(-8889.02 -1073.322)" fill="#949494"/>
      <path id="Rectangle_434-3" data-name="Rectangle 434" d="M-.25-.25H64.23V64.23H-.25Zm63.98.5H.25V63.73H63.73Z" transform="translate(-8825.04 -1073.322)" fill="#949494"/>
      <path id="Rectangle_435-3" data-name="Rectangle 435" d="M-.25-.25H64.23V64.23H-.25Zm63.98.5H.25V63.73H63.73Z" transform="translate(-8761.059 -1073.322)" fill="#949494"/>
      <path id="Rectangle_436-2" data-name="Rectangle 436" d="M-.25-.25H64.23V64.23H-.25Zm63.98.5H.25V63.73H63.73Z" transform="translate(-8697.078 -1073.322)" fill="#949494"/>
      <path id="Rectangle_437-2" data-name="Rectangle 437" d="M-.25-.25H64.23V64.23H-.25Zm63.98.5H.25V63.73H63.73Z" transform="translate(-8633.099 -1073.322)" fill="#949494"/>
      <path id="Rectangle_438-2" data-name="Rectangle 438" d="M-.25-.25H64.23V64.23H-.25Zm63.98.5H.25V63.73H63.73Z" transform="translate(-8569.118 -1073.322)" fill="#949494"/>
      <path id="Rectangle_439-2" data-name="Rectangle 439" d="M-.25-.25H64.23V64.23H-.25Zm63.98.5H.25V63.73H63.73Z" transform="translate(-8505.138 -1073.322)" fill="#949494"/>
      <path id="Rectangle_440-2" data-name="Rectangle 440" d="M-.25-.25H64.23V64.23H-.25Zm63.98.5H.25V63.73H63.73Z" transform="translate(-8441.158 -1073.322)" fill="#949494"/>
      <path id="Rectangle_441-2" data-name="Rectangle 441" d="M-.25-.25H64.23V64.23H-.25Zm63.98.5H.25V63.73H63.73Z" transform="translate(-8377.178 -1073.322)" fill="#949494"/>
      <path id="Rectangle_442-2" data-name="Rectangle 442" d="M-.25-.25H64.23V64.23H-.25Zm63.98.5H.25V63.73H63.73Z" transform="translate(-8313.196 -1073.322)" fill="#949494"/>
      <path id="Rectangle_443-2" data-name="Rectangle 443" d="M-.25-.25H64.23V64.23H-.25Zm63.98.5H.25V63.73H63.73Z" transform="translate(-8249.217 -1073.322)" fill="#949494"/>
      <path id="Rectangle_444-2" data-name="Rectangle 444" d="M-.25-.25H64.23V64.23H-.25Zm63.98.5H.25V63.73H63.73Z" transform="translate(-8185.236 -1073.322)" fill="#949494"/>
      <path id="Rectangle_445-2" data-name="Rectangle 445" d="M-.25-.25H64.23V64.23H-.25Zm63.98.5H.25V63.73H63.73Z" transform="translate(-8121.256 -1073.322)" fill="#949494"/>
      <path id="Rectangle_446-2" data-name="Rectangle 446" d="M-.25-.25H64.23V64.23H-.25Zm63.98.5H.25V63.73H63.73Z" transform="translate(-8057.276 -1073.322)" fill="#949494"/>
      <path id="Rectangle_305-4" data-name="Rectangle 305" d="M-.25-.25H64.23V64.23H-.25Zm63.98.5H.25V63.73H63.73Z" transform="translate(-7993.027 -1137.302)" fill="#949494"/>
      <path id="Rectangle_307-4" data-name="Rectangle 307" d="M-.25-.25H64.23V64.23H-.25Zm63.98.5H.25V63.73H63.73Z" transform="translate(-7929.049 -1137.302)" fill="#949494"/>
      <path id="Rectangle_308-4" data-name="Rectangle 308" d="M-.25-.25H64.23V64.23H-.25Zm63.98.5H.25V63.73H63.73Z" transform="translate(-7865.067 -1137.302)" fill="#949494"/>
      <path id="Rectangle_3177-2" data-name="Rectangle 3177" d="M-.25-.25H64.23V64.23H-.25Zm63.98.5H.25V63.73H63.73Z" transform="translate(-7737.107 -1137.302)" fill="#949494"/>
      <path id="Rectangle_309-4" data-name="Rectangle 309" d="M-.25-.25H64.23V64.23H-.25Zm63.98.5H.25V63.73H63.73Z" transform="translate(-7801.089 -1137.302)" fill="#949494"/>
      <path id="Rectangle_321-4" data-name="Rectangle 321" d="M-.25-.25H64.23V64.23H-.25Zm63.98.5H.25V63.73H63.73Z" transform="translate(-7993.027 -1201.283)" fill="#949494"/>
      <path id="Rectangle_323-4" data-name="Rectangle 323" d="M-.25-.25H64.23V64.23H-.25Zm63.98.5H.25V63.73H63.73Z" transform="translate(-7929.049 -1201.283)" fill="#949494"/>
      <path id="Rectangle_324-4" data-name="Rectangle 324" d="M-.25-.25H64.23V64.23H-.25Zm63.98.5H.25V63.73H63.73Z" transform="translate(-7865.067 -1201.283)" fill="#949494"/>
      <path id="Rectangle_3179-2" data-name="Rectangle 3179" d="M-.25-.25H64.23V64.23H-.25Zm63.98.5H.25V63.73H63.73Z" transform="translate(-7737.107 -1201.283)" fill="#949494"/>
      <path id="Rectangle_325-4" data-name="Rectangle 325" d="M-.25-.25H64.23V64.23H-.25Zm63.98.5H.25V63.73H63.73Z" transform="translate(-7801.089 -1201.283)" fill="#949494"/>
      <path id="Rectangle_337-4" data-name="Rectangle 337" d="M-.25-.25H64.23V64.23H-.25Zm63.98.5H.25V63.73H63.73Z" transform="translate(-7993.027 -1265.263)" fill="#949494"/>
      <path id="Rectangle_339-4" data-name="Rectangle 339" d="M-.25-.25H64.23V64.23H-.25Zm63.98.5H.25V63.73H63.73Z" transform="translate(-7929.049 -1265.263)" fill="#949494"/>
      <path id="Rectangle_340-4" data-name="Rectangle 340" d="M-.25-.25H64.23V64.23H-.25Zm63.98.5H.25V63.73H63.73Z" transform="translate(-7865.067 -1265.263)" fill="#949494"/>
      <path id="Rectangle_3183-2" data-name="Rectangle 3183" d="M-.25-.25H64.23V64.23H-.25Zm63.98.5H.25V63.73H63.73Z" transform="translate(-7737.107 -1265.263)" fill="#949494"/>
      <path id="Rectangle_341-4" data-name="Rectangle 341" d="M-.25-.25H64.23V64.23H-.25Zm63.98.5H.25V63.73H63.73Z" transform="translate(-7801.089 -1265.263)" fill="#949494"/>
      <path id="Rectangle_353-4" data-name="Rectangle 353" d="M-.25-.25H64.23V64.23H-.25Zm63.98.5H.25V63.73H63.73Z" transform="translate(-7993.027 -1329.243)" fill="#949494"/>
      <path id="Rectangle_355-4" data-name="Rectangle 355" d="M-.25-.25H64.23V64.23H-.25Zm63.98.5H.25V63.73H63.73Z" transform="translate(-7929.049 -1329.243)" fill="#949494"/>
      <path id="Rectangle_356-4" data-name="Rectangle 356" d="M-.25-.25H64.23V64.23H-.25Zm63.98.5H.25V63.73H63.73Z" transform="translate(-7865.067 -1329.243)" fill="#949494"/>
      <path id="Rectangle_3185-2" data-name="Rectangle 3185" d="M-.25-.25H64.23V64.23H-.25Zm63.98.5H.25V63.73H63.73Z" transform="translate(-7737.107 -1329.243)" fill="#949494"/>
      <path id="Rectangle_357-4" data-name="Rectangle 357" d="M-.25-.25H64.23V64.23H-.25Zm63.98.5H.25V63.73H63.73Z" transform="translate(-7801.089 -1329.243)" fill="#949494"/>
      <path id="Rectangle_369-4" data-name="Rectangle 369" d="M-.25-.25H64.23V64.23H-.25Zm63.98.5H.25V63.73H63.73Z" transform="translate(-7993.027 -1393.224)" fill="#949494"/>
      <path id="Rectangle_3366" data-name="Rectangle 3366" d="M-.25-.25H64.23V64.23H-.25Zm63.98.5H.25V63.73H63.73Z" transform="translate(-7993.027 -1457.204)" fill="#949494"/>
      <path id="Rectangle_370-4" data-name="Rectangle 370" d="M-.25-.25H64.23V64.23H-.25Zm63.98.5H.25V63.73H63.73Z" transform="translate(-7929.048 -1393.224)" fill="#949494"/>
      <path id="Rectangle_3367" data-name="Rectangle 3367" d="M-.25-.25H64.23V64.23H-.25Zm63.98.5H.25V63.73H63.73Z" transform="translate(-7929.048 -1457.204)" fill="#949494"/>
      <path id="Rectangle_371-4" data-name="Rectangle 371" d="M-.25-.25H64.23V64.23H-.25Zm63.98.5H.25V63.73H63.73Z" transform="translate(-7865.067 -1393.224)" fill="#949494"/>
      <path id="Rectangle_3368" data-name="Rectangle 3368" d="M-.25-.25H64.23V64.23H-.25Zm63.98.5H.25V63.73H63.73Z" transform="translate(-7865.067 -1457.204)" fill="#949494"/>
      <path id="Rectangle_3187-2" data-name="Rectangle 3187" d="M-.25-.25H64.23V64.23H-.25Zm63.98.5H.25V63.73H63.73Z" transform="translate(-7737.107 -1393.224)" fill="#949494"/>
      <path id="Rectangle_3369" data-name="Rectangle 3369" d="M-.25-.25H64.23V64.23H-.25Zm63.98.5H.25V63.73H63.73Z" transform="translate(-7737.107 -1457.204)" fill="#949494"/>
      <path id="Rectangle_372-4" data-name="Rectangle 372" d="M-.25-.25H64.23V64.23H-.25Zm63.98.5H.25V63.73H63.73Z" transform="translate(-7801.088 -1393.224)" fill="#949494"/>
      <path id="Rectangle_3370" data-name="Rectangle 3370" d="M-.25-.25H64.23V64.23H-.25Zm63.98.5H.25V63.73H63.73Z" transform="translate(-7801.088 -1457.204)" fill="#949494"/>
      <path id="Rectangle_415-4" data-name="Rectangle 415" d="M-.25-.25H64.23V64.23H-.25Zm63.98.5H.25V63.73H63.73Z" transform="translate(-7993.027 -1009.342)" fill="#949494"/>
      <path id="Rectangle_417-4" data-name="Rectangle 417" d="M-.25-.25H64.23V64.23H-.25Zm63.98.5H.25V63.73H63.73Z" transform="translate(-7929.049 -1009.342)" fill="#949494"/>
      <path id="Rectangle_418-4" data-name="Rectangle 418" d="M-.25-.25H64.23V64.23H-.25Zm63.98.5H.25V63.73H63.73Z" transform="translate(-7865.067 -1009.342)" fill="#949494"/>
      <path id="Rectangle_3175-2" data-name="Rectangle 3175" d="M-.25-.25H64.23V64.23H-.25Zm63.98.5H.25V63.73H63.73Z" transform="translate(-7737.107 -1009.342)" fill="#949494"/>
      <path id="Rectangle_419-4" data-name="Rectangle 419" d="M-.25-.25H64.23V64.23H-.25Zm63.98.5H.25V63.73H63.73Z" transform="translate(-7801.089 -1009.342)" fill="#949494"/>
      <path id="Rectangle_431-4" data-name="Rectangle 431" d="M-.25-.25H64.23V64.23H-.25Zm63.98.5H.25V63.73H63.73Z" transform="translate(-7993.027 -1073.322)" fill="#949494"/>
      <path id="Rectangle_433-4" data-name="Rectangle 433" d="M-.25-.25H64.23V64.23H-.25Zm63.98.5H.25V63.73H63.73Z" transform="translate(-7929.049 -1073.322)" fill="#949494"/>
      <path id="Rectangle_434-4" data-name="Rectangle 434" d="M-.25-.25H64.23V64.23H-.25Zm63.98.5H.25V63.73H63.73Z" transform="translate(-7865.067 -1073.322)" fill="#949494"/>
      <path id="Rectangle_3181-2" data-name="Rectangle 3181" d="M-.25-.25H64.23V64.23H-.25Zm63.98.5H.25V63.73H63.73Z" transform="translate(-7737.107 -1073.322)" fill="#949494"/>
      <path id="Rectangle_435-4" data-name="Rectangle 435" d="M-.25-.25H64.23V64.23H-.25Zm63.98.5H.25V63.73H63.73Z" transform="translate(-7801.089 -1073.322)" fill="#949494"/>
    </g>
  </g>
</svg>
