<?xml version="1.0" encoding="UTF-8"?><svg id="Layer_2" xmlns="http://www.w3.org/2000/svg" viewBox="0 0 90.77 90.77"><defs><style>.cls-1{fill:#1a1a1a;}.cls-2{fill:#70c8b5;}</style></defs><g id="Layer_1-2"><g><g><path class="cls-2" d="M50.08,20.83c0,.3,.1,.55,.31,.76,.21,.21,.46,.31,.76,.31h.98c.3,0,.55-.11,.76-.31,.21-.21,.31-.46,.31-.76v-.98c0-.3-.1-.55-.31-.76-.21-.21-.46-.31-.76-.31h-.98c-.3,0-.55,.1-.76,.31-.21,.21-.31,.46-.31,.76v.98Z"/><path class="cls-2" d="M34.74,59.78c-.21,.21-.31,.46-.31,.76v.98c0,.3,.1,.55,.31,.76,.21,.21,.46,.31,.76,.31h.98c.3,0,.55-.11,.76-.31,.21-.21,.31-.46,.31-.76v-.98c0-.3-.1-.55-.31-.76-.08-.08-.16-.14-.25-.19h-2c-.09,.05-.17,.11-.25,.19Z"/><path class="cls-2" d="M34.43,63.67c0-.3-.1-.55-.31-.76-.21-.21-.46-.31-.76-.31h-.98c-.3,0-.55,.1-.76,.31-.21,.21-.31,.46-.31,.76v.98c0,.3,.1,.55,.31,.76,.21,.21,.46,.31,.76,.31h.98c.3,0,.55-.11,.76-.31,.21-.21,.31-.46,.31-.76v-.98Z"/><path class="cls-2" d="M29.24,3.13h.98c.3,0,.55-.11,.76-.31,.21-.21,.31-.46,.31-.76v-.98c0-.3-.1-.55-.31-.76-.21-.21-.46-.31-.76-.31h-.98c-.3,0-.55,.1-.76,.31-.21,.21-.31,.46-.31,.76v.98c0,.3,.1,.55,.31,.76,.21,.21,.46,.31,.76,.31Z"/><path class="cls-2" d="M32.37,71.99h.98c.3,0,.55-.11,.76-.31,.21-.21,.31-.46,.31-.76v-.98c0-.3-.1-.55-.31-.76-.21-.21-.46-.31-.76-.31h-.98c-.3,0-.55,.1-.76,.31-.21,.21-.31,.46-.31,.76v.98c0,.3,.1,.55,.31,.76,.21,.21,.46,.31,.76,.31Z"/><path class="cls-2" d="M51.15,15.65h.98c.3,0,.55-.11,.76-.31,.21-.21,.31-.46,.31-.76v-.98c0-.3-.1-.55-.31-.76-.21-.21-.46-.31-.76-.31h-.98c-.3,0-.55,.1-.76,.31-.21,.21-.31,.46-.31,.76v.98c0,.3,.1,.55,.31,.76,.21,.21,.46,.31,.76,.31Z"/><path class="cls-2" d="M38.63,12.52h5.18v9.39h-2.05c-.3,0-.55,.1-.76,.31s-.31,.46-.31,.76v.98c0,.3,.1,.55,.31,.76s.46,.31,.76,.31h5.18v3.13h-5.18c-.3,0-.55,.1-.76,.31s-.31,.46-.31,.76v.98c0,.3,.1,.55,.31,.76s.46,.31,.76,.31h10.37c.3,0,.55-.1,.76-.31s.31-.46,.31-.76v-.98c0-.3-.1-.55-.31-.76s-.46-.31-.76-.31h-2.05v-5.18c0-.3-.1-.55-.31-.76s-.46-.31-.76-.31h-2.05v-3.13h2.05c.3,0,.55-.1,.76-.31s.31-.46,.31-.76v-.98c0-.3-.1-.55-.31-.76s-.46-.31-.76-.31h-2.05v-5.18c0-.3-.1-.55-.31-.76s-.46-.31-.76-.31h-2.05v-1h0s0-.06,0-.07v-.98c0-.3-.1-.55-.31-.76s-.46-.31-.76-.31h-.98c-.3,0-.55,.1-.76,.31s-.31,.46-.31,.76v.98s0,.04,0,.07h0v1h-2.05c-.3,0-.55,.1-.76,.31s-.31,.46-.31,.76v.98c0,.3,.1,.55,.31,.76s.46,.31,.76,.31Z"/><path class="cls-2" d="M48.02,9.39h4.11c.3,0,.55-.1,.76-.31s.31-.46,.31-.76v-.98c0-.3-.1-.55-.31-.76s-.46-.31-.76-.31h-4.11c-.3,0-.55,.1-.76,.31s-.31,.46-.31,.76v.98c0,.3,.1,.55,.31,.76s.46,.31,.76,.31Z"/><path class="cls-2" d="M31.3,5.18c0,.3,.1,.55,.31,.76,.21,.21,.46,.31,.76,.31h.98c.3,0,.55-.11,.76-.31,.21-.21,.31-.46,.31-.76v-.98c0-.3-.1-.55-.31-.76-.21-.21-.46-.31-.76-.31h-.98c-.3,0-.55,.1-.76,.31-.21,.21-.31,.46-.31,.76v.98Z"/><path class="cls-2" d="M54.28,3.13h2.05v1h0s0,.06,0,.07v.98c0,.3,.1,.55,.31,.76s.46,.31,.76,.31h.98c.3,0,.55-.1,.76-.31s.31-.46,.31-.76v-.98s0-.04,0-.07h0V1.08c0-.3-.1-.55-.31-.76s-.46-.31-.76-.31h-4.11c-.3,0-.55,.1-.76,.31s-.31,.46-.31,.76v.98c0,.3,.1,.55,.31,.76s.46,.31,.76,.31Z"/><path class="cls-2" d="M48.02,3.13h.98c.3,0,.55-.11,.76-.31,.21-.21,.31-.46,.31-.76v-.98c0-.3-.1-.55-.31-.76-.21-.21-.46-.31-.76-.31h-.98c-.3,0-.55,.1-.76,.31-.21,.21-.31,.46-.31,.76v.98c0,.3,.1,.55,.31,.76,.21,.21,.46,.31,.76,.31Z"/><circle class="cls-2" cx="79.72" cy="10.86" r="4.6"/><path class="cls-2" d="M29.24,50.08h.98c.3,0,.55-.11,.76-.31,.21-.21,.31-.46,.31-.76v-.98c0-.3-.1-.55-.31-.76-.21-.21-.46-.31-.76-.31h-.98c-.3,0-.55,.1-.76,.31-.21,.21-.31,.46-.31,.76v.98c0,.3,.1,.55,.31,.76,.21,.21,.46,.31,.76,.31Z"/><path class="cls-2" d="M59.47,11.44s0,.04,0,.07h0v4.13h-5.18c-.3,0-.55,.1-.76,.31s-.31,.46-.31,.76v.98c0,.3,.1,.55,.31,.76s.46,.31,.76,.31h2.05v1h0s0,.06,0,.07v.98c0,.3,.1,.55,.31,.76s.46,.31,.76,.31h.98c.3,0,.55-.1,.76-.31s.31-.46,.31-.76v-.98s0-.04,0-.07h0v-1h3.13v1h0s0,.06,0,.07v.98c0,.3,.1,.55,.31,.76s.46,.31,.76,.31h.98c.3,0,.55-.1,.76-.31s.31-.46,.31-.76v-.98s0-.04,0-.07h0v-6.19c0-.3-.1-.55-.31-.76s-.46-.31-.76-.31h-2.05v-1h0s0-.06,0-.07v-.98c0-.3-.1-.55-.31-.76s-.46-.31-.76-.31h-.98c-.3,0-.55,.1-.76,.31s-.31,.46-.31,.76v.98Z"/><path class="cls-2" d="M63.67,9.39h.98c.3,0,.55-.1,.76-.31s.31-.46,.31-.76v-.98s0-.04,0-.07h0v-2.01h0s0-.06,0-.07v-.98c0-.3-.1-.55-.31-.76s-.46-.31-.76-.31h-.98c-.3,0-.55,.1-.76,.31s-.31,.46-.31,.76v.98s0,.04,0,.07h0v2.01h0s0,.06,0,.07v.98c0,.3,.1,.55,.31,.76s.46,.31,.76,.31Z"/><path class="cls-2" d="M62.6,37.56h-2.05c-.3,0-.55,.1-.76,.31-.08,.08-.14,.16-.19,.25v8.82h1.93c.3,0,.55-.1,.76-.31s.31-.46,.31-.76v-5.18h5.18c.3,0,.55-.1,.76-.31s.31-.46,.31-.76v-.98c0-.3-.1-.55-.31-.76s-.46-.31-.76-.31h-2.05v-1h0s0-.06,0-.07v-.98c0-.3-.1-.55-.31-.76s-.46-.31-.76-.31h-.98c-.3,0-.55,.1-.76,.31s-.31,.46-.31,.76v.98s0,.04,0,.07h0v1Z"/><path class="cls-2" d="M86.56,31.3h-.98c-.3,0-.55,.1-.76,.31-.21,.21-.31,.46-.31,.76v.98c0,.3,.1,.55,.31,.76,.21,.21,.46,.31,.76,.31h.98c.3,0,.55-.11,.76-.31,.21-.21,.31-.46,.31-.76v-.98c0-.3-.1-.55-.31-.76-.21-.21-.46-.31-.76-.31Z"/><path class="cls-2" d="M62.91,56.02c.21,.21,.46,.31,.76,.31h4.11c.3,0,.55-.1,.76-.31s.31-.46,.31-.76v-4.11c0-.3-.1-.55-.31-.76s-.46-.31-.76-.31h-2.05v-1h0s0-.06,0-.07v-.98c0-.3-.1-.55-.31-.76s-.46-.31-.76-.31h-.98c-.3,0-.55,.1-.76,.31s-.31,.46-.31,.76v.98s0,.04,0,.07h0v1h-3v3.13h3v2.05c0,.3,.1,.55,.31,.76Z"/><path class="cls-2" d="M79.81,21.69c5.93,0,10.74-4.81,10.74-10.74S85.74,.21,79.81,.21s-10.74,4.81-10.74,10.74,4.81,10.74,10.74,10.74Zm0-18.26c4.15,0,7.52,3.37,7.52,7.52s-3.37,7.52-7.52,7.52-7.52-3.37-7.52-7.52,3.37-7.52,7.52-7.52Z"/><path class="cls-2" d="M39.61,21.91c.3,0,.55-.11,.76-.31,.21-.21,.31-.46,.31-.76v-.98c0-.3-.1-.55-.31-.76-.21-.21-.46-.31-.76-.31h-.98c-.3,0-.55,.1-.76,.31-.21,.21-.31,.46-.31,.76v.98c0,.3,.1,.55,.31,.76,.21,.21,.46,.31,.76,.31h.98Z"/><path class="cls-2" d="M51.15,62.6c-.3,0-.55,.1-.76,.31-.21,.21-.31,.46-.31,.76v.98c0,.3,.1,.55,.31,.76,.21,.21,.46,.31,.76,.31h.98c.3,0,.55-.11,.76-.31,.21-.21,.31-.46,.31-.76v-.98c0-.3-.1-.55-.31-.76-.21-.21-.46-.31-.76-.31h-.98Z"/><path class="cls-2" d="M30.22,71.99h-.98c-.3,0-.55,.1-.76,.31-.21,.21-.31,.46-.31,.76v.98c0,.3,.1,.55,.31,.76,.21,.21,.46,.31,.76,.31h.98c.3,0,.55-.11,.76-.31,.21-.21,.31-.46,.31-.76v-.98c0-.3-.1-.55-.31-.76-.21-.21-.46-.31-.76-.31Z"/><path class="cls-2" d="M27.09,34.43c.3,0,.55-.11,.76-.31,.21-.21,.31-.46,.31-.76v-.98c0-.3-.1-.55-.31-.76-.21-.21-.46-.31-.76-.31h-.98c-.3,0-.55,.1-.76,.31-.21,.21-.31,.46-.31,.76v.98c0,.3,.1,.55,.31,.76,.21,.21,.46,.31,.76,.31h.98Z"/><path class="cls-2" d="M22.99,40.69c-.3,0-.55,.1-.76,.31s-.31,.46-.31,.76v2.05h-2.05c-.3,0-.55,.1-.76,.31s-.31,.46-.31,.76v.98c0,.3,.1,.55,.31,.76s.46,.31,.76,.31h4.11c.3,0,.55-.1,.76-.31s.31-.46,.31-.76v-2.05h6.26v-6.26h-2.05c-.3,0-.55,.1-.76,.31s-.31,.46-.31,.76v2.05h-5.18Z"/><path class="cls-2" d="M31.3,66.8c0-.3-.1-.55-.31-.76s-.46-.31-.76-.31h-2.05v-1h0s0-.06,0-.07v-.98c0-.3-.1-.55-.31-.76s-.46-.31-.76-.31h-.98c-.3,0-.55,.1-.76,.31s-.31,.46-.31,.76v.98s0,.04,0,.07h0v5.13h0s0,.06,0,.07v.98c0,.3,.1,.55,.31,.76s.46,.31,.76,.31h.98c.3,0,.55-.1,.76-.31s.31-.46,.31-.76v-.98s0-.04,0-.07h0v-1h2.05c.3,0,.55-.1,.76-.31s.31-.46,.31-.76v-.98Z"/><path class="cls-2" d="M40.69,62.6h-2.05c-.3,0-.55,.1-.76,.31s-.31,.46-.31,.76v2.05h-2.05c-.3,0-.55,.1-.76,.31s-.31,.46-.31,.76v.98c0,.3,.1,.55,.31,.76s.46,.31,.76,.31h2.05v2.05c0,.3,.1,.55,.31,.76s.46,.31,.76,.31h4.11c.3,0,.55-.1,.76-.31s.31-.46,.31-.76v-8.31h5.18c.3,0,.55-.1,.76-.31s.31-.46,.31-.76v-1.93h-9.39v3Z"/><path class="cls-2" d="M54.28,12.52h.98c.3,0,.55-.11,.76-.31,.21-.21,.31-.46,.31-.76v-.98c0-.3-.1-.55-.31-.76-.21-.21-.46-.31-.76-.31h-.98c-.3,0-.55,.1-.76,.31-.21,.21-.31,.46-.31,.76v.98c0,.3,.1,.55,.31,.76,.21,.21,.46,.31,.76,.31Z"/><path class="cls-2" d="M74.04,87.64h-5.18v-2.05c0-.3-.1-.55-.31-.76s-.46-.31-.76-.31h-2.05v-1h0s0-.06,0-.07v-.98c0-.3-.1-.55-.31-.76s-.46-.31-.76-.31h-.98c-.3,0-.55,.1-.76,.31s-.31,.46-.31,.76v.98s0,.04,0,.07h0v4.13h-3.13v-1h0s0-.06,0-.07v-.98c0-.3-.1-.55-.31-.76s-.46-.31-.76-.31h-.98c-.3,0-.55,.1-.76,.31s-.31,.46-.31,.76v.98s0,.04,0,.07h0v1h-3.13v-2.05c0-.3-.1-.55-.31-.76s-.46-.31-.76-.31h-10.37c-.3,0-.55,.1-.76,.31s-.31,.46-.31,.76v.98c0,.3,.1,.55,.31,.76s.46,.31,.76,.31h8.31v2.05c0,.3,.1,.55,.31,.76s.46,.31,.76,.31h22.89c.3,0,.55-.1,.76-.31s.31-.46,.31-.76v-.98c0-.3-.1-.55-.31-.76s-.46-.31-.76-.31Z"/><path class="cls-2" d="M26.11,15.65h.98c.3,0,.55-.11,.76-.31,.21-.21,.31-.46,.31-.76v-.98c0-.3-.1-.55-.31-.76-.21-.21-.46-.31-.76-.31h-.98c-.3,0-.55,.1-.76,.31-.21,.21-.31,.46-.31,.76v.98c0,.3,.1,.55,.31,.76,.21,.21,.46,.31,.76,.31Z"/><path class="cls-2" d="M27.09,56.34c.3,0,.55-.1,.76-.31s.31-.46,.31-.76v-.98c0-.3-.1-.55-.31-.76s-.46-.31-.76-.31h-2.05v-2.05c0-.3-.1-.55-.31-.76s-.46-.31-.76-.31h-4.11c-.3,0-.55,.1-.76,.31s-.31,.46-.31,.76v.98c0,.3,.1,.55,.31,.76s.46,.31,.76,.31h2.05v2.05c0,.3,.1,.55,.31,.76s.46,.31,.76,.31h4.11Z"/><path class="cls-2" d="M39.61,87.64h-.98c-.3,0-.55,.1-.76,.31-.21,.21-.31,.46-.31,.76v.98c0,.3,.1,.55,.31,.76,.21,.21,.46,.31,.76,.31h.98c.3,0,.55-.11,.76-.31,.21-.21,.31-.46,.31-.76v-.98c0-.3-.1-.55-.31-.76-.21-.21-.46-.31-.76-.31Z"/><path class="cls-2" d="M31.3,85.58s0-.04,0-.07h0v-6.19c0-.3-.1-.55-.31-.76s-.46-.31-.76-.31h-4.11c-.3,0-.55,.1-.76,.31s-.31,.46-.31,.76v4.11c0,.3,.1,.55,.31,.76s.46,.31,.76,.31h2.05v1h0s0,.06,0,.07v.98c0,.3,.1,.55,.31,.76s.46,.31,.76,.31h.98c.3,0,.55-.1,.76-.31s.31-.46,.31-.76v-.98Z"/><path class="cls-2" d="M39.61,81.38c.3,0,.55-.1,.76-.31s.31-.46,.31-.76v-.98c0-.3-.1-.55-.31-.76s-.46-.31-.76-.31h-2.05v-2.05c0-.3-.1-.55-.31-.76s-.46-.31-.76-.31h-4.11c-.3,0-.55,.1-.76,.31s-.31,.46-.31,.76v.98c0,.3,.1,.55,.31,.76s.46,.31,.76,.31h2.05v2.05c0,.3,.1,.55,.31,.76s.46,.31,.76,.31h4.11Z"/><path class="cls-2" d="M33.35,87.64h-.98c-.3,0-.55,.1-.76,.31-.21,.21-.31,.46-.31,.76v.98c0,.3,.1,.55,.31,.76,.21,.21,.46,.31,.76,.31h.98c.3,0,.55-.11,.76-.31,.21-.21,.31-.46,.31-.76v-.98c0-.3-.1-.55-.31-.76-.21-.21-.46-.31-.76-.31Z"/><path class="cls-2" d="M74.04,84.51c.3,0,.55-.11,.76-.31,.21-.21,.31-.46,.31-.76v-.98c0-.3-.1-.55-.31-.76-.21-.21-.46-.31-.76-.31h-.98c-.3,0-.55,.1-.76,.31-.21,.21-.31,.46-.31,.76v.98c0,.3,.1,.55,.31,.76,.21,.21,.46,.31,.76,.31h.98Z"/><path class="cls-2" d="M89.69,34.43h-.98c-.3,0-.55,.1-.76,.31s-.31,.46-.31,.76v.98s0,.04,0,.07h0v1h-8.31c-.3,0-.55,.1-.76,.31s-.31,.46-.31,.76v5.18h-3.13v-6.26h2.05c.3,0,.55-.1,.76-.31s.31-.46,.31-.76v-.98c0-.3-.1-.55-.31-.76s-.46-.31-.76-.31h-2.05v-3.13h3.13v1h0s0,.06,0,.07v.98c0,.3,.1,.55,.31,.76s.46,.31,.76,.31h.98c.3,0,.55-.1,.76-.31s.31-.46,.31-.76v-.98s0-.04,0-.07h0v-1h2.05c.3,0,.55-.1,.76-.31s.31-.46,.31-.76v-.98c0-.3-.1-.55-.31-.76s-.46-.31-.76-.31h-5.18v-1h0s0-.06,0-.07v-.98c0-.3-.1-.55-.31-.76s-.46-.31-.76-.31h-.98c-.3,0-.55,.1-.76,.31s-.31,.46-.31,.76v.98s0,.04,0,.07h0v1h-3.13v-2.05c0-.3-.1-.55-.31-.76s-.46-.31-.76-.31h-4.11c-.3,0-.55,.1-.76,.31s-.31,.46-.31,.76v2.05h-3.13v-2.05c0-.3-.1-.55-.31-.76s-.46-.31-.76-.31h-4.11c-.3,0-.55,.1-.76,.31s-.31,.46-.31,.76v5.18h12.52v2.05c0,.3,.1,.55,.31,.76s.46,.31,.76,.31h2.05v6.26h-2.05c-.3,0-.55,.1-.76,.31s-.31,.46-.31,.76v.98c0,.3,.1,.55,.31,.76s.46,.31,.76,.31h2.05v2.05c0,.3,.1,.55,.31,.76s.46,.31,.76,.31h2.05v3.13h-2.05c-.3,0-.55,.1-.76,.31s-.31,.46-.31,.76v5.18h-2.05c-.3,0-.55,.1-.76,.31s-.31,.46-.31,.76v2.05h-8.31c-.3,0-.55,.1-.76,.31s-.31,.46-.31,.76v2.05h-2.05c-.3,0-.55,.1-.76,.31s-.31,.46-.31,.76v2.05h-2.05c-.3,0-.55,.1-.76,.31s-.31,.46-.31,.76v2.05h-2.05c-.3,0-.55,.1-.76,.31s-.31,.46-.31,.76v2.05h-5.18c-.3,0-.55,.1-.76,.31s-.31,.46-.31,.76v2.05h-2.05c-.3,0-.55,.1-.76,.31s-.31,.46-.31,.76v.98c0,.3,.1,.55,.31,.76s.46,.31,.76,.31h11.44v4.13h0s0,.06,0,.07v.98c0,.3,.1,.55,.31,.76s.46,.31,.76,.31h.98c.3,0,.55-.1,.76-.31s.31-.46,.31-.76v-.98s0-.04,0-.07h0v-13.52h2.05c.3,0,.55-.1,.76-.31s.31-.46,.31-.76v-2.05h3.13v3.13h-2.05c-.3,0-.55,.1-.76,.31s-.31,.46-.31,.76v.98c0,.3,.1,.55,.31,.76s.46,.31,.76,.31h2.05v5.18c0,.3,.1,.55,.31,.76s.46,.31,.76,.31h11.44v2.05c0,.3,.1,.55,.31,.76s.46,.31,.76,.31h10.37c.3,0,.55-.1,.76-.31s.31-.46,.31-.76v-.98c0-.3-.1-.55-.31-.76s-.46-.31-.76-.31h-2.05v-2.05c0-.3-.1-.55-.31-.76s-.46-.31-.76-.31h-5.18v-6.26h2.05c.3,0,.55-.1,.76-.31s.31-.46,.31-.76v-2.05h3.13v3.13h-2.05c-.3,0-.55,.1-.76,.31s-.31,.46-.31,.76v.98c0,.3,.1,.55,.31,.76s.46,.31,.76,.31h2.05v2.05c0,.3,.1,.55,.31,.76s.46,.31,.76,.31h2.05v1h0s0,.06,0,.07v.98c0,.3,.1,.55,.31,.76s.46,.31,.76,.31h.98c.3,0,.55-.1,.76-.31s.31-.46,.31-.76v-.98s0-.04,0-.07h0v-3.06c0-.3-.1-.55-.31-.76s-.46-.31-.76-.31h-2.05v-3.13h2.05c.3,0,.55-.1,.76-.31s.31-.46,.31-.76v-7.24c0-.3-.1-.55-.31-.76s-.46-.31-.76-.31h-10.37c-.3,0-.55,.1-.76,.31s-.31,.46-.31,.76v2.05h-3.13v-3.13h2.05c.3,0,.55-.1,.76-.31s.31-.46,.31-.76v-.98c0-.3-.1-.55-.31-.76s-.46-.31-.76-.31h-2.05v-3.13h5.18c.3,0,.55-.1,.76-.31s.31-.46,.31-.76v-8.31h2.05c.3,0,.55-.1,.76-.31s.31-.46,.31-.76v-2.05h3.13v4.13h0s0,.06,0,.07v.98c0,.3,.1,.55,.31,.76s.46,.31,.76,.31h.98c.3,0,.55-.1,.76-.31s.31-.46,.31-.76v-.98s0-.04,0-.07h0v-8.26h0s0-.06,0-.07v-.98c0-.3-.1-.55-.31-.76s-.46-.31-.76-.31Zm-14.57,34.43v6.26h-9.39v-9.39h9.39v3.13Z"/><path class="cls-2" d="M70.91,68.86h-.98c-.3,0-.55,.1-.76,.31-.21,.21-.31,.46-.31,.76v.98c0,.3,.1,.55,.31,.76,.21,.21,.46,.31,.76,.31h.98c.3,0,.55-.11,.76-.31,.21-.21,.31-.46,.31-.76v-.98c0-.3-.1-.55-.31-.76-.21-.21-.46-.31-.76-.31Z"/><path class="cls-2" d="M90.45,28.48c-.21-.21-.46-.31-.76-.31h-.98c-.3,0-.55,.1-.76,.31-.21,.21-.31,.46-.31,.76v.98c0,.3,.1,.55,.31,.76,.21,.21,.46,.31,.76,.31h.98c.3,0,.55-.11,.76-.31,.21-.21,.31-.46,.31-.76v-.98c0-.3-.1-.55-.31-.76Z"/><path class="cls-2" d="M86.56,84.51h-.98c-.3,0-.55,.1-.76,.31s-.31,.46-.31,.76v.98s0,.04,0,.07h0v2.01h0s0,.06,0,.07v.98c0,.3,.1,.55,.31,.76s.46,.31,.76,.31h.98c.3,0,.55-.1,.76-.31s.31-.46,.31-.76v-.98s0-.04,0-.07h0v-2.01h0s0-.06,0-.07v-.98c0-.3-.1-.55-.31-.76s-.46-.31-.76-.31Z"/><path class="cls-2" d="M80.3,84.51h-4.11c-.3,0-.55,.1-.76,.31s-.31,.46-.31,.76v.98c0,.3,.1,.55,.31,.76s.46,.31,.76,.31h4.11c.3,0,.55-.1,.76-.31s.31-.46,.31-.76v-.98c0-.3-.1-.55-.31-.76s-.46-.31-.76-.31Z"/><path class="cls-2" d="M89.69,81.38h-.98c-.3,0-.55,.1-.76,.31-.21,.21-.31,.46-.31,.76v.98c0,.3,.1,.55,.31,.76,.21,.21,.46,.31,.76,.31h.98c.3,0,.55-.11,.76-.31,.21-.21,.31-.46,.31-.76v-.98c0-.3-.1-.55-.31-.76-.21-.21-.46-.31-.76-.31Z"/><path class="cls-2" d="M61.52,81.38c.3,0,.55-.11,.76-.31,.21-.21,.31-.46,.31-.76v-.98c0-.3-.1-.55-.31-.76-.21-.21-.46-.31-.76-.31h-.98c-.3,0-.55,.1-.76,.31-.21,.21-.31,.46-.31,.76v.98c0,.3,.1,.55,.31,.76,.21,.21,.46,.31,.76,.31h.98Z"/><path class="cls-2" d="M20.83,56.34h-5.18v-4.13h0s0-.06,0-.07v-.98c0-.3-.1-.55-.31-.76s-.46-.31-.76-.31h-.98c-.3,0-.55,.1-.76,.31s-.31,.46-.31,.76v.98s0,.04,0,.07h0v1h-2.05c-.3,0-.55,.1-.76,.31s-.31,.46-.31,.76v.98c0,.3,.1,.55,.31,.76s.46,.31,.76,.31h2.05v2.05c0,.3,.1,.55,.31,.76s.46,.31,.76,.31h7.24c.3,0,.55-.1,.76-.31s.31-.46,.31-.76v-.98c0-.3-.1-.55-.31-.76s-.46-.31-.76-.31Z"/><path class="cls-2" d="M10.95,21.69c5.93,0,10.74-4.81,10.74-10.74S16.89,.21,10.95,.21,.21,5.02,.21,10.95s4.81,10.74,10.74,10.74Zm0-18.26c4.15,0,7.52,3.37,7.52,7.52s-3.37,7.52-7.52,7.52-7.52-3.37-7.52-7.52S6.81,3.44,10.95,3.44Z"/><path class="cls-2" d="M16.73,46.95c-.3,0-.55,.1-.76,.31-.21,.21-.31,.46-.31,.76v.98c0,.3,.1,.55,.31,.76,.21,.21,.46,.31,.76,.31h.98c.3,0,.55-.11,.76-.31,.21-.21,.31-.46,.31-.76v-.98c0-.3-.1-.55-.31-.76-.21-.21-.46-.31-.76-.31h-.98Z"/><circle class="cls-2" cx="10.86" cy="10.86" r="4.6"/><path class="cls-2" d="M10.47,62.6h.98c.3,0,.55-.11,.76-.31,.21-.21,.31-.46,.31-.76v-.98c0-.3-.1-.55-.31-.76-.21-.21-.46-.31-.76-.31h-.98c-.3,0-.55,.1-.76,.31-.21,.21-.31,.46-.31,.76v.98c0,.3,.1,.55,.31,.76,.21,.21,.46,.31,.76,.31Z"/><path class="cls-2" d="M19.09,25.35c-.21,.21-.31,.46-.31,.76v.98c0,.3,.1,.55,.31,.76s.46,.31,.76,.31h8.31v2.05c0,.3,.1,.55,.31,.76s.46,.31,.76,.31h4.11c.3,0,.55-.1,.76-.31s.31-.46,.31-.76v-2.05h2.05c.3,0,.55-.1,.76-.31s.31-.46,.31-.76v-4.11c0-.3-.1-.55-.31-.76s-.46-.31-.76-.31h-2.05v-3.13h2.05c.3,0,.55-.1,.76-.31s.31-.46,.31-.76v-.98c0-.3-.1-.55-.31-.76s-.46-.31-.76-.31h-2.05v-5.18c0-.3-.1-.55-.31-.76s-.46-.31-.76-.31h-2.05v-1h0s0-.06,0-.07v-.98c0-.3-.1-.55-.31-.76s-.46-.31-.76-.31h-.98c-.3,0-.55,.1-.76,.31s-.31,.46-.31,.76v.98s0,.04,0,.07h0v3.06c0,.3,.1,.55,.31,.76s.46,.31,.76,.31h2.05v3.13h-2.05c-.3,0-.55,.1-.76,.31s-.31,.46-.31,.76v.98c0,.3,.1,.55,.31,.76s.46,.31,.76,.31h2.05v6.26h-3.13v-4.13h0s0-.06,0-.07v-.98c0-.3-.1-.55-.31-.76s-.46-.31-.76-.31h-.98c-.3,0-.55,.1-.76,.31s-.31,.46-.31,.76v.98s0,.04,0,.07h0v4.13h-5.18c-.3,0-.55,.1-.76,.31Z"/><path class="cls-2" d="M1.08,40.69H3.13v2.05c0,.3,.1,.55,.31,.76s.46,.31,.76,.31h5.18v3.13H4.21c-.3,0-.55,.1-.76,.31s-.31,.46-.31,.76v.98c0,.3,.1,.55,.31,.76s.46,.31,.76,.31h2.05v1h0s0,.06,0,.07v.98c0,.3,.1,.55,.31,.76s.46,.31,.76,.31h.98c.3,0,.55-.1,.76-.31s.31-.46,.31-.76v-.98s0-.04,0-.07h0v-1h2.05c.3,0,.55-.1,.76-.31s.31-.46,.31-.76v-2.05h2.05c.3,0,.55-.1,.76-.31s.31-.46,.31-.76v-.98c0-.3-.1-.55-.31-.76s-.46-.31-.76-.31h-2.05v-9.39h3.13v5.18c0,.3,.1,.55,.31,.76s.46,.31,.76,.31h4.11c.3,0,.55-.1,.76-.31s.31-.46,.31-.76v-.98c0-.3-.1-.55-.31-.76s-.46-.31-.76-.31h-2.05v-3.13h2.05c.3,0,.55-.1,.76-.31s.31-.46,.31-.76v-.98c0-.3-.1-.55-.31-.76s-.46-.31-.76-.31h-2.05v-2.05c0-.3-.1-.55-.31-.76s-.46-.31-.76-.31h-5.18v-2.05c0-.3-.1-.55-.31-.76s-.46-.31-.76-.31H7.34c-.3,0-.55,.1-.76,.31s-.31,.46-.31,.76v4.11c0,.3,.1,.55,.31,.76s.46,.31,.76,.31h2.05v3.13h-3.13v-1h0s0-.06,0-.07v-.98c0-.3-.1-.55-.31-.76s-.46-.31-.76-.31h-.98c-.3,0-.55,.1-.76,.31s-.31,.46-.31,.76v.98s0,.04,0,.07h0v4.13H1.08c-.3,0-.55,.1-.76,.31s-.31,.46-.31,.76v.98c0,.3,.1,.55,.31,.76s.46,.31,.76,.31Z"/><path class="cls-2" d="M10.95,69.07c-5.93,0-10.74,4.81-10.74,10.74s4.81,10.74,10.74,10.74,10.74-4.81,10.74-10.74-4.81-10.74-10.74-10.74Zm0,18.26c-4.15,0-7.52-3.37-7.52-7.52s3.37-7.52,7.52-7.52,7.52,3.37,7.52,7.52-3.37,7.52-7.52,7.52Z"/><path class="cls-2" d="M20.83,62.6h-4.11c-.3,0-.55,.1-.76,.31s-.31,.46-.31,.76v.98c0,.3,.1,.55,.31,.76s.46,.31,.76,.31h4.11c.3,0,.55-.1,.76-.31s.31-.46,.31-.76v-.98c0-.3-.1-.55-.31-.76s-.46-.31-.76-.31Z"/><circle class="cls-2" cx="10.86" cy="79.72" r="4.6"/><path class="cls-2" d="M1.08,59.47h.98c.3,0,.55-.11,.76-.31,.21-.21,.31-.46,.31-.76v-.98c0-.3-.1-.55-.31-.76-.21-.21-.46-.31-.76-.31h-.98c-.3,0-.55,.1-.76,.31-.21,.21-.31,.46-.31,.76v.98c0,.3,.1,.55,.31,.76,.21,.21,.46,.31,.76,.31Z"/><path class="cls-2" d="M1.08,53.21h.98c.3,0,.55-.11,.76-.31,.21-.21,.31-.46,.31-.76v-.98c0-.3-.1-.55-.31-.76-.21-.21-.46-.31-.76-.31h-.98c-.3,0-.55,.1-.76,.31-.21,.21-.31,.46-.31,.76v.98c0,.3,.1,.55,.31,.76,.21,.21,.46,.31,.76,.31Z"/><path class="cls-2" d="M8.31,62.6H4.21c-.3,0-.55,.1-.76,.31s-.31,.46-.31,.76v.98c0,.3,.1,.55,.31,.76s.46,.31,.76,.31h4.11c.3,0,.55-.1,.76-.31s.31-.46,.31-.76v-.98c0-.3-.1-.55-.31-.76s-.46-.31-.76-.31Z"/></g><g><rect class="cls-2" x="33.49" y="33.91" width="23.72" height="23.72" rx="1.05" ry="1.05"/><g><path class="cls-1" d="M52.34,47.3c-.07,.06-.09,.07-.11,.09-.73,.51-1.46,1.01-2.19,1.52-.28,.19-.38,.56-.22,.81,.19,.29,.51,.36,.82,.18,.22-.13,.42-.28,.63-.42,.62-.43,1.26-.84,1.86-1.3,.63-.48,.59-1.29-.01-1.74-.81-.6-1.65-1.15-2.47-1.72-.24-.16-.59-.11-.77,.09-.21,.24-.17,.64,.1,.84,.57,.41,1.14,.8,1.71,1.2,.21,.15,.42,.3,.65,.46h0Zm-12.92-.44c.02,.17,.08,.5,.11,.83,.07,.71,.25,1.4,.53,2.06,.25,.6,.59,1.14,1.03,1.62,.15,.16,.34,.24,.58,.17,.46-.13,.53-.67,.23-1.01-.77-.87-1.12-1.92-1.24-3.05-.1-.95-.01-1.89,.22-2.82,.07-.29-.11-.61-.39-.7-.28-.08-.65,.11-.72,.4-.18,.77-.32,1.54-.35,2.49h0Zm9.89-.52c-.07-.44-.17-1.17-.29-1.9-.06-.35-.41-.55-.72-.47-.29,.08-.48,.42-.42,.71,.1,.56,.22,1.13,.26,1.7,.03,.47,0,.96-.08,1.43-.07,.46-.2,.92-.36,1.36-.18,.54-.52,1-.87,1.44-.22,.27-.18,.61,.08,.82,.24,.2,.58,.17,.81-.09,.55-.62,.95-1.34,1.21-2.12,.28-.84,.38-1.71,.4-2.89h0Zm-1.9-.74l.05-.02c-.08-.14-.13-.3-.23-.41-.25-.26-.56-.43-.9-.54-.53-.17-1.05-.19-1.55,.1-.38,.22-.74,.46-1.1,.7-.33,.21-.67,.35-1.05,.14-.21-.12-.39-.27-.58-.42-.28-.22-.63-.17-.81,.13-.13,.22-.09,.45,.12,.67,.43,.43,.94,.7,1.54,.79,.21,.03,.44,0,.65-.05,.48-.11,.84-.43,1.25-.68,.24-.15,.49-.3,.76-.36,.37-.08,.69,.1,.96,.35,.16,.15,.35,.21,.55,.12,.21-.09,.37-.24,.35-.5h0Zm-4.94-6.61c-.03,.77,.22,1.51,.62,2.18,.14,.24,.42,.33,.63,.2,.18-.11,.23-.39,.11-.63-.15-.31-.31-.62-.42-.95-.16-.51-.17-1.03,0-1.54,.1-.31,.26-.6,.41-.89,.11-.23,.06-.44-.17-.62-.15-.12-.27-.12-.49,.09-.07,.07-.12,.15-.17,.23-.35,.6-.57,1.24-.54,1.92h0Zm3.29,2.23c-.06-.36-.08-.73-.19-1.07-.12-.37-.31-.73-.52-1.06-.16-.27-.49-.26-.68-.02-.13,.16-.11,.34,0,.52,.37,.58,.57,1.21,.5,1.91-.06,.52-.24,1.01-.52,1.46-.13,.22-.07,.49,.12,.62,.19,.12,.46,.05,.6-.18,.41-.67,.66-1.38,.68-2.18h0Zm-1.43,9.3c-.37,0-.74,0-1.11,0-.38,0-.63,.24-.63,.58,0,.34,.26,.59,.62,.6,.75,0,1.5,0,2.25,0,.35,0,.63-.27,.63-.6,0-.28-.27-.6-.64-.58-.37,.02-.74,0-1.11,0h0Z"/><path class="cls-1" d="M39.42,46.86c.03-.95,.17-1.73,.35-2.49,.07-.29,.43-.48,.72-.4,.29,.09,.47,.41,.39,.7-.23,.93-.32,1.87-.22,2.82,.12,1.13,.47,2.18,1.24,3.05,.3,.34,.23,.88-.23,1.01-.23,.06-.43-.01-.58-.17-.44-.48-.77-1.02-1.03-1.62-.28-.66-.46-1.34-.53-2.06-.03-.33-.09-.66-.11-.83h0Z"/><path class="cls-1" d="M49.31,46.34c-.02,1.18-.12,2.05-.4,2.89-.26,.78-.66,1.5-1.21,2.12-.23,.26-.57,.29-.81,.09-.25-.21-.3-.55-.08-.82,.36-.44,.69-.91,.87-1.44,.15-.44,.28-.9,.36-1.36,.07-.47,.12-.96,.08-1.43-.04-.57-.16-1.14-.26-1.7-.05-.29,.13-.63,.42-.71,.31-.08,.66,.12,.72,.47,.13,.73,.23,1.46,.29,1.9h0Z"/><path class="cls-1" d="M47.42,45.6c.02,.26-.14,.41-.35,.5-.2,.08-.39,.03-.55-.12-.27-.25-.59-.44-.96-.35-.27,.06-.52,.22-.76,.36-.41,.25-.77,.57-1.25,.68-.21,.05-.44,.08-.65,.05-.6-.09-1.12-.36-1.54-.79-.21-.22-.25-.45-.12-.67,.18-.3,.53-.35,.81-.13,.19,.15,.37,.3,.58,.42,.38,.22,.72,.08,1.05-.14,.37-.24,.73-.48,1.1-.7,.49-.28,1.02-.27,1.55-.1,.34,.11,.65,.29,.9,.54,.1,.11,.16,.27,.23,.41l-.05,.02h0Z"/><path class="cls-1" d="M42.47,38.99c-.02-.68,.19-1.32,.54-1.92,.05-.08,.1-.16,.17-.23,.22-.21,.34-.22,.49-.09,.23,.19,.28,.4,.17,.62-.15,.29-.31,.58-.41,.89-.17,.51-.17,1.03,0,1.54,.1,.33,.27,.64,.42,.95,.11,.23,.07,.52-.11,.63-.21,.12-.49,.04-.63-.2-.4-.67-.65-1.41-.62-2.18h0Z"/><path class="cls-1" d="M45.76,41.22c-.02,.8-.27,1.51-.68,2.18-.14,.23-.41,.3-.6,.18-.19-.13-.26-.4-.12-.62,.28-.45,.46-.93,.52-1.46,.08-.7-.13-1.33-.5-1.91-.11-.17-.13-.35,0-.52,.18-.24,.52-.25,.68,.02,.2,.34,.39,.69,.52,1.06,.11,.34,.13,.71,.19,1.07h0Z"/><path class="cls-1" d="M44.33,50.52c.37,0,.74,.01,1.11,0,.37-.02,.64,.3,.64,.58,0,.32-.28,.59-.63,.6-.75,0-1.5,0-2.25,0-.36,0-.62-.26-.62-.6,0-.34,.26-.58,.63-.58,.37,0,.74,0,1.11,0h0Z"/></g></g></g></g></svg>