<?xml version="1.0" encoding="UTF-8"?><svg id="Layer_2" xmlns="http://www.w3.org/2000/svg" viewBox="0 0 370.33 41.59"><defs><style>.cls-1{fill:#949494;}</style></defs><g id="Layer_1-2"><g><path id="Rectangle_1100" class="cls-1" d="M0,0H41.59V41.59H0V0ZM41.09,.5H.5V41.09H41.09V.5Z"/><path id="Rectangle_1102" class="cls-1" d="M41.09,0h41.59V41.59H41.09V0Zm41.09,.5H41.59V41.09h40.59V.5Z"/><path id="Rectangle_1103" class="cls-1" d="M82.19,0h41.59V41.59h-41.59V0Zm41.09,.5h-40.59V41.09h40.59V.5Z"/><path id="Rectangle_1104" class="cls-1" d="M123.28,0h41.59V41.59h-41.59V0Zm41.09,.5h-40.59V41.09h40.59V.5Z"/><path id="Rectangle_1105" class="cls-1" d="M164.37,0h41.59V41.59h-41.59V0Zm41.09,.5h-40.59V41.09h40.59V.5Z"/><path id="Rectangle_1106" class="cls-1" d="M205.46,0h41.59V41.59h-41.59V0Zm41.09,.5h-40.59V41.09h40.59V.5Z"/><path id="Rectangle_1107" class="cls-1" d="M246.55,0h41.59V41.59h-41.59V0Zm41.09,.5h-40.59V41.09h40.59V.5Z"/><path id="Rectangle_1108" class="cls-1" d="M287.65,0h41.59V41.59h-41.59V0Zm41.09,.5h-40.59V41.09h40.59V.5Z"/><path id="Rectangle_1109" class="cls-1" d="M328.74,0h41.59V41.59h-41.59V0Zm41.09,.5h-40.59V41.09h40.59V.5Z"/></g></g></svg>