<svg width="34" height="34" viewBox="0 0 34 34" fill="none" xmlns="http://www.w3.org/2000/svg">
<path d="M21.7048 16.5609L18.5683 19.6974L18.6937 19.8229C19.0701 20.0738 19.321 20.3248 19.572 20.7011C19.6974 21.0775 19.8229 21.3284 19.8229 21.8303C19.8229 22.3321 19.6974 22.5831 19.572 22.9594C19.321 23.3358 19.0701 23.5867 18.6937 23.8377C18.3174 24.0886 17.941 24.214 17.4391 24.3395V20.8266L16.1845 22.0812V24.214C15.8081 24.0886 15.4318 23.8377 15.1808 23.5867C15.0554 23.4613 15.0554 23.4613 14.9299 23.3358L13.6753 24.5904C14.3026 24.8414 15.1808 24.9668 16.0591 25.0923V25.9705C16.0591 26.2214 16.1845 26.3469 16.4354 26.3469H16.8118C17.0627 26.3469 17.1882 26.2214 17.1882 25.9705V25.0923C18.4428 25.0923 19.4465 24.8414 20.3247 24.5904C21.0775 24.3395 21.7048 23.8377 22.2067 23.4613C22.7085 22.9594 22.9594 22.4576 23.2103 21.9557C23.3358 21.4539 23.4613 20.8266 23.4613 20.3248C23.4613 19.4465 23.3358 18.8192 22.9594 18.1919C22.834 17.4391 22.3321 16.9373 21.7048 16.5609Z" fill="#DDFC76"/>
<path d="M12.6716 17.0627C12.7971 17.1882 13.048 17.3136 13.1734 17.4391L17.4391 13.1734V9.66048C17.8155 9.78594 18.1919 9.91141 18.3173 10.1623C18.5683 10.4133 18.6937 10.6642 18.8192 10.9151C18.9447 11.166 18.9447 11.2915 19.0701 11.5424L20.8266 9.78594C20.5756 9.66048 20.3247 9.53502 19.9483 9.40956C19.1956 9.15864 18.4428 9.03318 17.3137 9.03318V8.15495C17.3137 7.90403 17.1882 7.77856 16.9373 7.77856H16.5609C16.31 7.77856 16.1845 7.90403 16.1845 8.15495V9.03318C15.4317 9.03318 14.679 9.2841 14.0517 9.53502C13.4244 9.78594 12.797 10.1623 12.4207 10.5387C11.9188 10.9151 11.5424 11.4169 11.2915 11.9188C11.0406 12.4206 10.9151 13.0479 10.9151 13.6752C10.9151 14.428 11.0406 15.0553 11.417 15.5572C11.7934 16.059 12.1697 16.6863 12.6716 17.0627ZM14.3026 11.0406C14.428 10.6642 14.679 10.4133 15.0554 10.1623C15.4317 9.91141 15.8081 9.66048 16.1845 9.66048V14.1771C15.8081 14.0516 15.5572 13.8007 15.3063 13.6752C15.0554 13.5498 14.8044 13.2989 14.5535 13.0479C14.3026 12.797 14.1771 12.5461 14.1771 12.1697C14.1771 11.7933 14.0517 11.4169 14.3026 11.0406Z" fill="#DDFC76"/>
<path d="M5.64575 28.7307L28.4797 5.89673" stroke="#DDFC76" stroke-width="1.5" stroke-miterlimit="10"/>
<path d="M16.9373 32.9963C25.8064 32.9963 32.9963 25.8064 32.9963 16.9372C32.9963 8.06805 25.8064 0.878174 16.9373 0.878174C8.06811 0.878174 0.878235 8.06805 0.878235 16.9372C0.878235 25.8064 8.06811 32.9963 16.9373 32.9963Z" stroke="#DDFC76" stroke-width="1.5" stroke-miterlimit="10"/>
</svg>
