<svg width="34" height="34" viewBox="0 0 34 34" fill="none" xmlns="http://www.w3.org/2000/svg">
<path d="M16.9373 32.9963C25.8064 32.9963 32.9963 25.8064 32.9963 16.9372C32.9963 8.06805 25.8064 0.878174 16.9373 0.878174C8.06811 0.878174 0.878235 8.06805 0.878235 16.9372C0.878235 25.8064 8.06811 32.9963 16.9373 32.9963Z" stroke="#DDFC76" stroke-width="1.5" stroke-miterlimit="10"/>
<path d="M26.4723 22.9594H10.0369C9.40959 22.9594 8.78229 22.4576 8.78229 21.7048V12.5461C8.78229 11.9188 9.28413 11.2915 10.0369 11.2915H26.4723C27.0996 11.2915 27.7269 11.7933 27.7269 12.5461V21.7048C27.7269 22.4576 27.0996 22.9594 26.4723 22.9594Z" stroke="#DDFC76" stroke-miterlimit="10"/>
<path d="M8.28045 19.4465H6.64945C6.52399 19.4465 6.39853 19.3211 6.39853 19.1956V14.5535C6.39853 14.4281 6.52399 14.3026 6.64945 14.3026H8.28045V19.4465Z" fill="#DDFC76"/>
<path d="M25.2177 20.5757H22.834C22.7085 20.5757 22.7085 20.4502 22.7085 20.4502V13.8008C22.7085 13.6753 22.834 13.6753 22.834 13.6753H25.2177C25.3432 13.6753 25.3432 13.8008 25.3432 13.8008V20.3247C25.3432 20.4502 25.3432 20.5757 25.2177 20.5757Z" fill="#DDFC76"/>
</svg>
