<svg width="84" height="75" viewBox="0 0 84 75" fill="none" xmlns="http://www.w3.org/2000/svg">
<g clip-path="url(#clip0_11_47)">
<path d="M84 38.1548C84 33.105 79.8933 28.9903 74.8533 28.9903C72.3333 28.9903 70.0933 30.0189 68.5067 31.6087C62.2533 27.0264 53.5733 24.1274 43.96 23.7533L48.16 4.02143L61.88 6.92043C62.0667 10.3805 64.8667 13.186 68.4133 13.186C72.0533 13.186 74.9467 10.287 74.9467 6.63988C74.9467 2.99275 72.0533 0.09375 68.4133 0.09375C65.8 0.09375 63.6533 1.59001 62.5333 3.74088L47.1333 0.374299C46.6667 0.280782 46.2933 0.374299 45.92 0.561331C45.5467 0.84188 45.2667 1.21594 45.1733 1.59001L40.5067 23.5663C30.7067 23.8469 21.9333 26.7459 15.5867 31.3282C13.9067 29.7384 11.6667 28.8032 9.23999 28.8032C4.19999 28.8032 0.0933228 32.9179 0.0933228 37.9678C0.0933228 41.7085 2.33332 44.888 5.50666 46.3843C5.31999 47.3194 5.31999 48.2546 5.31999 49.1898C5.31999 63.3107 21.7467 74.8132 42.0933 74.8132C62.3467 74.8132 78.8667 63.3107 78.8667 49.1898C78.8667 48.2546 78.7733 47.3194 78.68 46.3843C81.6667 45.075 84 41.8955 84 38.1548ZM21 44.701C21 41.0538 23.9867 38.1548 27.5333 38.1548C31.1733 38.1548 34.0667 41.1474 34.0667 44.701C34.0667 48.3481 31.08 51.2471 27.5333 51.2471C23.8933 51.2471 21 48.3481 21 44.701ZM57.5867 62.095C53.1067 66.5838 44.52 66.9578 42 66.9578C39.48 66.9578 30.8933 66.5838 26.4133 62.095C25.76 61.4404 25.76 60.3182 26.4133 59.6636C27.0667 59.009 28.1867 59.009 28.84 59.6636C31.64 62.4691 37.7067 63.4977 42 63.4977C46.2933 63.4977 52.36 62.4691 55.16 59.6636C55.8133 59.009 56.9333 59.009 57.5867 59.6636C58.24 60.3182 58.24 61.4404 57.5867 62.095ZM56.3733 51.2471C52.7333 51.2471 49.84 48.2546 49.84 44.701C49.84 41.0538 52.8267 38.1548 56.3733 38.1548C60.0133 38.1548 62.9067 41.1474 62.9067 44.701C63 48.3481 60.0133 51.2471 56.3733 51.2471Z" fill="white"/>
</g>
<defs>
<clipPath id="clip0_11_47">
<rect width="84" height="75" fill="white"/>
</clipPath>
</defs>
</svg>
