<svg width="138" height="51" viewBox="0 0 138 51" fill="none" xmlns="http://www.w3.org/2000/svg">
<path d="M124.019 46.8754C123.894 46.2472 123.768 45.4935 123.768 44.8653C123.643 40.594 123.643 36.3226 123.517 32.0513C123.392 28.0312 121.385 25.2673 117.622 24.1367C113.734 23.006 109.971 23.006 106.083 24.3879C104.578 24.8905 103.198 25.7699 102.445 27.2774C101.693 28.6593 101.818 30.1668 102.696 31.2975C103.951 32.805 105.707 32.805 107.337 32.4281C108.591 32.1769 109.344 31.0462 109.469 29.5387C109.595 28.6593 109.72 27.7799 109.846 26.9005C110.097 25.6442 110.849 24.8905 112.103 24.8905C113.232 24.8905 113.859 25.5186 114.11 26.9005C114.236 28.408 114.236 30.0412 114.361 31.5488C114.612 34.1869 108.341 34.9407 106.71 35.5689C104.452 36.3226 102.445 37.4533 101.066 39.4633C98.6827 42.8553 99.5607 47.5035 102.947 49.2623C106.835 51.2724 112.605 50.5186 114.988 45.7447C115.741 47.5035 116.87 48.7598 118.626 49.2623C119.504 49.5136 120.507 49.6392 121.385 49.7648C122.388 49.8905 125.9 50.2673 124.772 48.5085C124.521 47.6292 124.144 47.2523 124.019 46.8754ZM114.361 42.2271C114.361 43.6091 112.981 44.7397 111.602 44.6141C110.222 44.4885 109.344 43.6091 109.219 42.1015C109.093 40.9709 109.469 39.8402 110.097 38.9608C111.225 37.4533 112.605 36.4483 114.361 35.4432C114.361 37.7045 114.486 39.9658 114.361 42.2271Z" fill="white"/>
<path d="M92.6622 24.388C89.4011 22.8804 86.0146 22.8804 82.7535 24.1367C77.6109 26.1468 74.977 30.0412 74.6007 35.4432C74.2244 40.0915 75.7295 44.1116 79.3669 47.1267C82.628 49.7648 86.5163 50.393 90.5299 49.6392C93.2893 49.1367 95.6724 47.6292 97.4284 45.3679C97.4284 45.3679 97.4284 45.2422 97.5539 45.2422C97.8047 44.7397 97.4284 44.1116 96.8013 43.9859C96.6759 43.9859 96.6759 43.9859 96.5504 43.9859C95.9233 43.9859 95.2962 44.2372 94.669 44.3628C90.6554 45.1166 87.018 43.7347 85.262 40.0915C84.5094 38.7096 84.0077 37.8302 83.3806 35.0664C84.1331 35.0664 84.384 35.0664 84.7603 35.0664C88.7739 35.0664 92.7876 35.0664 96.8013 35.0664C98.0556 35.0664 98.3064 34.8151 98.3064 33.5588C98.3064 29.4131 96.5504 26.1468 92.6622 24.388ZM90.1537 31.2975C90.1537 32.1769 89.6519 32.6794 88.774 32.6794C87.018 32.6794 85.262 32.6794 83.3806 32.6794C83.3806 30.4181 83.6314 28.1568 84.8857 26.1468C86.14 24.0111 88.1468 24.1367 89.2757 26.2724C90.1536 27.9055 90.2791 29.5387 90.1537 31.2975Z" fill="white"/>
<path d="M72.9701 46.1215C71.9667 46.1215 70.8379 46.8753 70.4616 45.1165C70.3362 44.7396 70.4616 44.3627 70.4616 43.9859C70.4616 38.3326 70.4616 32.6793 70.4616 27.0261C70.4616 26.7748 70.4616 26.3979 70.4616 26.1467C71.3396 26.1467 71.9667 26.1467 72.7193 26.1467C73.4718 26.1467 73.7227 25.6442 73.7227 25.016C73.7227 24.3879 73.4718 23.8854 72.7193 23.8854C71.9667 23.8854 71.2141 23.8854 70.4616 23.8854C70.4616 22.2522 70.4616 20.619 70.4616 19.1115C70.4616 17.8552 69.3327 18.1065 68.5802 18.609L60.8037 23.2572C59.8003 23.8854 59.5494 24.2622 59.5494 25.016C59.5494 26.1467 60.1766 26.1467 61.0545 26.1467C61.0545 26.6492 61.0545 27.0261 61.0545 27.2773C61.0545 32.6793 61.0545 38.0813 61.0545 43.4834C61.0545 46.8753 62.4342 48.8854 65.4445 49.6391C67.3259 50.1416 69.3327 50.1416 71.2141 49.3879C71.9667 49.1366 74.6007 47.5035 73.8481 46.4984C73.4718 46.1215 73.221 46.1215 72.9701 46.1215Z" fill="white"/>
<path d="M132.548 39.0864C129.663 39.0864 127.155 41.599 127.155 44.6141C127.155 47.5035 129.663 50.0161 132.548 50.0161C135.558 50.0161 137.941 47.5035 137.941 44.6141C138.067 41.4734 135.558 39.0864 132.548 39.0864Z" fill="#7EC9C0"/>
<path d="M44.1219 31.2975L36.8471 26.2724C35.9691 25.6442 34.7149 25.8955 34.0877 26.7749C33.4606 27.6543 33.7114 28.9106 34.5894 29.5387L41.8642 34.6895L41.9896 34.8151C41.9896 34.8151 41.9896 34.8151 41.9896 34.9407C41.9896 34.9407 41.9896 34.9407 41.9896 35.0664L41.8642 35.192L34.5894 40.3427C33.7114 40.9709 33.4606 42.2272 34.0877 43.1066C34.464 43.6091 35.0911 43.986 35.7183 43.986C36.0946 43.986 36.4708 43.8603 36.8471 43.6091L44.1219 38.5839C45.3762 37.8302 46.1287 36.5739 46.1287 35.0664C46.1287 33.3076 45.3762 32.0513 44.1219 31.2975Z" fill="white"/>
<path d="M25.4332 30.5438C26.1858 29.9156 26.3112 28.9106 25.8095 28.1568C24.6807 26.6493 21.1687 24.388 16.5279 27.0262C16.0262 27.2774 15.3991 27.7799 14.8974 28.1568C13.3922 29.4131 11.1346 30.4181 9.0023 28.0312C8.37516 27.2774 7.24632 27.2774 6.49375 27.9056C5.74119 28.5337 5.74119 29.6644 6.36833 30.4181C8.12431 32.3026 10.0057 33.0563 11.7617 33.0563C13.7685 33.0563 15.6499 32.1769 17.0296 30.9206C17.4059 30.5438 17.7822 30.2925 18.1585 30.1669C21.1687 28.4081 22.6739 30.0412 23.0501 30.4181C23.6773 31.0463 24.6807 31.1719 25.4332 30.5438Z" fill="#008E95"/>
<path d="M28.8198 23.8854C27.6909 24.2623 27.1892 25.2674 27.4401 26.398C27.4401 26.5236 30.7012 37.8302 24.0535 45.4935C23.301 46.3729 23.4264 47.6292 24.3044 48.3829C24.6807 48.7598 25.1824 48.8855 25.6841 48.8855C26.1858 48.8855 26.8129 48.6342 27.1892 48.1317C35.342 38.7096 31.5792 25.7699 31.4537 25.2674C31.0775 24.1367 29.9486 23.5086 28.8198 23.8854Z" fill="white"/>
<path d="M4.86321 26.398C5.23949 25.2674 4.61235 24.2623 3.48351 23.8854C2.35467 23.5086 1.35125 24.1367 0.974967 25.2674C0.84954 25.7699 -2.91327 38.7096 5.23949 48.1317C5.61577 48.6342 6.24291 48.8855 6.74461 48.8855C7.24632 48.8855 7.74803 48.7598 8.12431 48.3829C9.0023 47.6292 9.0023 46.3729 8.37517 45.4935C1.6021 37.8302 4.86321 26.5236 4.86321 26.398Z" fill="white"/>
<path d="M19.9145 45.2422H12.2634C11.1346 45.2422 10.2566 46.1216 10.2566 47.2522C10.2566 48.3829 11.1346 49.2623 12.2634 49.2623H20.0399C21.1687 49.2623 22.0467 48.3829 22.0467 47.2522C21.9213 46.1216 21.0433 45.2422 19.9145 45.2422Z" fill="white"/>
<path d="M16.2771 22.6291C16.5279 22.7547 16.7788 22.8803 17.1551 22.8803C17.6568 22.8803 18.0331 22.6291 18.2839 22.2522C23.301 15.3427 18.5348 8.18185 18.2839 7.93059C17.9076 7.17682 16.9042 7.05119 16.2771 7.5537C15.6499 8.05622 15.3991 8.93561 15.9008 9.56376C16.0262 9.81501 19.6636 15.3427 15.9008 20.619C15.5245 21.2472 15.6499 22.1266 16.2771 22.6291Z" fill="#7EC9C0"/>
<path d="M13.2668 15.594C13.5177 15.594 13.7685 15.4683 14.0194 15.3427C14.6465 14.8402 14.8974 13.9608 14.3957 13.3327C14.2702 13.0814 10.6329 7.55376 14.3957 2.27737C14.8974 1.64923 14.7719 0.769836 14.0194 0.267323C13.5177 -0.23519 12.6397 0.0160667 12.138 0.644207C7.12089 7.55376 11.8871 14.7146 12.138 14.9658C12.3888 15.3427 12.8905 15.594 13.2668 15.594Z" fill="#7EC9C0"/>
</svg>
