<svg width="473" height="665" viewBox="0 0 473 665" fill="none" xmlns="http://www.w3.org/2000/svg">
<path d="M574.383 549.921C583.348 548.722 592.314 547.524 602.55 540.367C616.198 530.824 622.151 516.522 622.55 501.034C641.252 209.118 389.536 96.1331 378.429 93.7591C355.344 79.4803 329.319 92.6069 320.825 118.825C306.777 143.856 318.355 171.25 344.852 183.143C352.546 187.903 545.716 275.914 533.296 497.531C530.355 524.936 548.757 547.558 574.383 549.921Z" fill="#23282C"/>
<path d="M377.854 401.035C384.678 396.264 389.36 387.92 394.043 379.576C402.537 353.358 394.371 323.579 370.016 315.259C362.321 310.499 169.153 222.488 181.573 0.873157C184.514 -26.532 166.112 -49.1543 137.075 -49.1311C111.45 -51.4935 91.8488 -27.6493 92.32 -2.62975C73.6188 289.284 325.332 402.268 333.027 407.028C349.687 410.589 364.206 410.577 377.854 401.035Z" fill="#23282C"/>
</svg>
