<svg width="579" height="833" viewBox="0 0 579 833" fill="none" xmlns="http://www.w3.org/2000/svg">
<path d="M439.383 717.419C448.348 716.221 457.314 715.022 467.55 707.865C481.198 698.323 487.151 684.021 487.55 668.532C506.252 376.616 254.536 263.631 243.429 261.257C220.344 246.979 194.319 260.105 185.825 286.324C171.777 311.355 183.355 338.749 209.852 350.642C217.546 355.401 410.716 443.413 398.296 665.029C395.355 692.434 413.757 715.057 439.383 717.419Z" fill="#23282C"/>
<path d="M242.854 568.533C249.678 563.762 254.36 555.418 259.043 547.075C267.537 520.856 259.371 491.077 235.016 482.757C227.321 477.997 34.1533 389.986 46.5732 168.372C49.514 140.966 31.1123 118.344 2.07498 118.367C-23.5504 116.005 -43.1512 139.849 -42.6801 164.869C-61.3813 456.783 190.332 569.767 198.027 574.526C214.687 578.087 229.206 578.076 242.854 568.533Z" fill="#23282C"/>
</svg>
