<svg xmlns="http://www.w3.org/2000/svg" xmlns:xlink="http://www.w3.org/1999/xlink" viewBox="0 0 137.95 50.3"><defs><style>.cls-1{fill:none;}.cls-2{clip-path:url(#clip-path);}.cls-3{fill:#fff;}.cls-4{fill:#7ec9c0;}.cls-5{fill:#008e95;}</style><clipPath id="clip-path" transform="translate(-0.03 0.02)"><rect class="cls-1" width="138.1" height="50"/></clipPath></defs><g id="Layer_2" data-name="Layer 2"><g id="Layer_1-2" data-name="Layer 1"><g class="cls-2"><path class="cls-3" d="M124.05,46.86a10.62,10.62,0,0,1-.25-2c-.13-4.27-.13-8.54-.25-12.81-.13-4-2.14-6.79-5.9-7.92a18.17,18.17,0,0,0-11.54.25,6,6,0,0,0-3.64,2.89,3.62,3.62,0,0,0,.25,4c1.26,1.51,3,1.51,4.65,1.13a2.9,2.9,0,0,0,2.13-2.89c.12-.88.25-1.76.37-2.64a2.21,2.21,0,0,1,2.26-2c1.13,0,1.76.63,2,2s.12,3.15.25,4.65c.25,2.64-6,3.39-7.65,4a10.56,10.56,0,0,0-5.65,3.9c-2.38,3.39-1.5,8,1.89,9.8,3.88,2,9.65,1.25,12-3.52a5.64,5.64,0,0,0,3.63,3.52,22.57,22.57,0,0,0,2.76.5c1,.12,4.52.5,3.39-1.26A11.29,11.29,0,0,0,124.05,46.86Zm-9.66-4.65a2.56,2.56,0,0,1-2.76,2.39,2.49,2.49,0,0,1-2.38-2.51,4.64,4.64,0,0,1,.87-3.15,13.09,13.09,0,0,1,4.27-3.51C114.39,37.69,114.51,40,114.39,42.21Z" transform="translate(-0.03 0.02)"/><path class="cls-3" d="M92.69,24.37a12.35,12.35,0,0,0-9.91-.25c-5.14,2-7.77,5.91-8.15,11.31A13,13,0,0,0,79.4,47.11a13.17,13.17,0,0,0,11.16,2.51,11.23,11.23,0,0,0,6.9-4.27.12.12,0,0,1,.12-.12A.93.93,0,0,0,96.83,44h-.25a9.5,9.5,0,0,0-1.88.38c-4,.75-7.65-.63-9.41-4.27a15.86,15.86,0,0,1-1.88-5H96.83c1.25,0,1.5-.25,1.5-1.51C98.33,29.4,96.58,26.13,92.69,24.37Zm-2.51,6.91a1.25,1.25,0,0,1-1.38,1.38H83.41a12,12,0,0,1,1.5-6.53c1.26-2.13,3.27-2,4.39.13A8.7,8.7,0,0,1,90.18,31.28Z" transform="translate(-0.03 0.02)"/><path class="cls-3" d="M73,46.11c-1,0-2.13.75-2.51-1a3.3,3.3,0,0,1,0-1.13V26.13h2.26c.75,0,1-.5,1-1.13s-.25-1.13-1-1.13H70.49V19.1c0-1.26-1.13-1-1.88-.51l-7.78,4.65c-1,.63-1.25,1-1.25,1.76,0,1.13.63,1.13,1.5,1.13V43.47c0,3.39,1.38,5.4,4.39,6.15a9,9,0,0,0,5.77-.25c.76-.25,3.39-1.88,2.64-2.89A1.06,1.06,0,0,0,73,46.11Z" transform="translate(-0.03 0.02)"/><path class="cls-4" d="M132.58,39.07a5.47,5.47,0,0,0,0,10.93A5.43,5.43,0,0,0,138,44.6,5.31,5.31,0,0,0,132.58,39.07Z" transform="translate(-0.03 0.02)"/><path class="cls-3" d="M44.15,31.28l-7.27-5a2,2,0,0,0-2.26,3.26l7.27,5.15.13.13v.25l-.13.13-7.27,5.15a2,2,0,0,0-.5,2.76,2.14,2.14,0,0,0,1.63.88,2.06,2.06,0,0,0,1.13-.38l7.27-5a4,4,0,0,0,2-3.52A4.15,4.15,0,0,0,44.15,31.28Z" transform="translate(-0.03 0.02)"/><path class="cls-5" d="M25.46,30.53a1.79,1.79,0,0,0,.38-2.39c-1.13-1.51-4.64-3.77-9.28-1.13a11.67,11.67,0,0,0-1.63,1.13C13.42,29.4,11.16,30.4,9,28A1.77,1.77,0,1,0,6.4,30.4,7.31,7.31,0,0,0,11.79,33a7.94,7.94,0,0,0,5.27-2.14,3,3,0,0,1,1.13-.75c3-1.76,4.51-.12,4.89.25A1.73,1.73,0,0,0,25.46,30.53Z" transform="translate(-0.03 0.02)"/><path class="cls-3" d="M28.85,23.87a2,2,0,0,0-1.38,2.51c0,.13,3.26,11.43-3.39,19.1a2,2,0,0,0,.25,2.89,1.92,1.92,0,0,0,1.38.5,2,2,0,0,0,1.51-.75c8.15-9.43,4.39-22.37,4.26-22.87A2.06,2.06,0,0,0,28.85,23.87Z" transform="translate(-0.03 0.02)"/><path class="cls-3" d="M4.89,26.38a1.94,1.94,0,0,0-1.38-2.51A1.94,1.94,0,0,0,1,25.25c-.12.5-3.88,13.44,4.27,22.87a2,2,0,0,0,1.5.75,1.9,1.9,0,0,0,1.38-.5,2.14,2.14,0,0,0,.25-2.89C1.63,37.81,4.89,26.51,4.89,26.38Z" transform="translate(-0.03 0.02)"/><path class="cls-3" d="M19.94,45.23H12.29a2,2,0,1,0,0,4h7.78a2,2,0,0,0,2-2A2.19,2.19,0,0,0,19.94,45.23Z" transform="translate(-0.03 0.02)"/><path class="cls-4" d="M16.31,22.61a1.75,1.75,0,0,0,.87.25,1.32,1.32,0,0,0,1.13-.62c5-6.91.25-14.07,0-14.33a1.32,1.32,0,0,0-2-.37,1.44,1.44,0,0,0-.38,2c.12.25,3.76,5.78,0,11.05A1.56,1.56,0,0,0,16.31,22.61Z" transform="translate(-0.03 0.02)"/><path class="cls-4" d="M13.3,15.58a1.85,1.85,0,0,0,.75-.25,1.43,1.43,0,0,0,.37-2c-.12-.25-3.76-5.78,0-11.06a1.34,1.34,0,0,0-.37-2,1.31,1.31,0,0,0-1.88.38c-5,6.91-.25,14.07,0,14.32A1.48,1.48,0,0,0,13.3,15.58Z" transform="translate(-0.03 0.02)"/></g></g></g></svg>