<?xml version="1.0" encoding="utf-8"?>
<!-- Generator: Adobe Illustrator 25.1.0, SVG Export Plug-In . SVG Version: 6.00 Build 0)  -->
<svg version="1.1" id="Layer_1" xmlns="http://www.w3.org/2000/svg" xmlns:xlink="http://www.w3.org/1999/xlink" x="0px" y="0px"
	 viewBox="0 0 139 50" style="enable-background:new 0 0 139 50;" xml:space="preserve">
<style type="text/css">
	.st0{clip-path:url(#SVGID_2_);fill:#FFFFFF;}
	.st1{clip-path:url(#SVGID_2_);fill:#7EC9C0;}
	.st2{clip-path:url(#SVGID_2_);fill:#008E95;}
</style>
<g>
	<g>
		<defs>
			<rect id="SVGID_1_" x="0.5" width="138.1" height="50"/>
		</defs>
		<clipPath id="SVGID_2_">
			<use xlink:href="#SVGID_1_"  style="overflow:visible;"/>
		</clipPath>
		<path class="st0" d="M124.5,46.9c-0.1-0.6-0.2-1.4-0.2-2c-0.1-4.3-0.1-8.5-0.3-12.8c-0.1-4-2.1-6.8-5.9-7.9
			c-3.9-1.1-7.7-1.1-11.5,0.3c-1.5,0.5-2.9,1.4-3.6,2.9c-0.8,1.4-0.6,2.9,0.3,4c1.3,1.5,3,1.5,4.6,1.1c1.3-0.3,2-1.4,2.1-2.9
			c0.1-0.9,0.3-1.8,0.4-2.6c0.3-1.3,1-2,2.3-2c1.1,0,1.8,0.6,2,2c0.1,1.5,0.1,3.1,0.3,4.6c0.2,2.6-6,3.4-7.7,4
			c-2.3,0.8-4.3,1.9-5.6,3.9c-2.4,3.4-1.5,8,1.9,9.8c3.9,2,9.7,1.3,12-3.5c0.8,1.8,1.9,3,3.6,3.5c0.9,0.3,1.9,0.4,2.8,0.5
			c1,0.1,4.5,0.5,3.4-1.3C125,47.6,124.6,47.2,124.5,46.9z M114.8,42.2c0,1.4-1.4,2.5-2.8,2.4c-1.4-0.1-2.3-1-2.4-2.5
			c-0.1-1.1,0.3-2.3,0.9-3.1c1.1-1.5,2.5-2.5,4.3-3.5C114.8,37.7,115,39.9,114.8,42.2z"/>
		<path class="st0" d="M93.1,24.4c-3.3-1.5-6.6-1.5-9.9-0.3c-5.1,2-7.8,5.9-8.2,11.3c-0.4,4.6,1.1,8.7,4.8,11.7
			c3.3,2.6,7.1,3.3,11.2,2.5c2.8-0.5,5.1-2,6.9-4.3c0,0,0-0.1,0.1-0.1c0.3-0.5-0.1-1.1-0.8-1.3c-0.1,0-0.1,0-0.3,0
			c-0.6,0-1.3,0.3-1.9,0.4c-4,0.8-7.7-0.6-9.4-4.3c-0.8-1.4-1.3-2.3-1.9-5c0.8,0,1,0,1.4,0c4,0,8,0,12,0c1.3,0,1.5-0.3,1.5-1.5
			C98.8,29.4,97,26.1,93.1,24.4z M90.6,31.3c0,0.9-0.5,1.4-1.4,1.4c-1.8,0-3.5,0-5.4,0c0-2.3,0.3-4.5,1.5-6.5c1.3-2.1,3.3-2,4.4,0.1
			C90.6,27.9,90.8,29.5,90.6,31.3z"/>
		<path class="st0" d="M73.5,46.1c-1,0-2.1,0.8-2.5-1c-0.1-0.4,0-0.8,0-1.1c0-5.7,0-11.3,0-17c0-0.3,0-0.6,0-0.9c0.9,0,1.5,0,2.3,0
			c0.8,0,1-0.5,1-1.1c0-0.6-0.3-1.1-1-1.1c-0.8,0-1.5,0-2.3,0c0-1.6,0-3.3,0-4.8c0-1.3-1.1-1-1.9-0.5l-7.8,4.6c-1,0.6-1.3,1-1.3,1.8
			c0,1.1,0.6,1.1,1.5,1.1c0,0.5,0,0.9,0,1.1c0,5.4,0,10.8,0,16.2c0,3.4,1.4,5.4,4.4,6.2c1.9,0.5,3.9,0.5,5.8-0.3
			c0.8-0.3,3.4-1.9,2.6-2.9C74,46.1,73.7,46.1,73.5,46.1z"/>
		<path class="st1" d="M133,39.1c-2.9,0-5.4,2.5-5.4,5.5c0,2.9,2.5,5.4,5.4,5.4c3,0,5.4-2.5,5.4-5.4C138.5,41.5,136,39.1,133,39.1z"
			/>
		<path class="st0" d="M44.6,31.3l-7.3-5c-0.9-0.6-2.1-0.4-2.8,0.5c-0.6,0.9-0.4,2.1,0.5,2.8l7.3,5.2l0.1,0.1c0,0,0,0,0,0.1
			c0,0,0,0,0,0.1l-0.1,0.1l-7.3,5.2c-0.9,0.6-1.1,1.9-0.5,2.8c0.4,0.5,1,0.9,1.6,0.9c0.4,0,0.8-0.1,1.1-0.4l7.3-5c1.3-0.8,2-2,2-3.5
			C46.6,33.3,45.9,32,44.6,31.3z"/>
		<path class="st2" d="M25.9,30.5c0.8-0.6,0.9-1.6,0.4-2.4c-1.1-1.5-4.6-3.8-9.3-1.1c-0.5,0.3-1.1,0.8-1.6,1.1
			c-1.5,1.3-3.8,2.3-5.9-0.1c-0.6-0.8-1.8-0.8-2.5-0.1c-0.8,0.6-0.8,1.8-0.1,2.5c1.8,1.9,3.6,2.6,5.4,2.6c2,0,3.9-0.9,5.3-2.1
			c0.4-0.4,0.8-0.6,1.1-0.8c3-1.8,4.5-0.1,4.9,0.3C24.2,31,25.2,31.2,25.9,30.5z"/>
		<path class="st0" d="M29.3,23.9c-1.1,0.4-1.6,1.4-1.4,2.5c0,0.1,3.3,11.4-3.4,19.1c-0.8,0.9-0.6,2.1,0.3,2.9
			c0.4,0.4,0.9,0.5,1.4,0.5c0.5,0,1.1-0.3,1.5-0.8c8.2-9.4,4.4-22.4,4.3-22.9C31.6,24.1,30.4,23.5,29.3,23.9z"/>
		<path class="st0" d="M5.3,26.4c0.4-1.1-0.3-2.1-1.4-2.5c-1.1-0.4-2.1,0.3-2.5,1.4c-0.1,0.5-3.9,13.4,4.3,22.9
			c0.4,0.5,1,0.8,1.5,0.8s1-0.1,1.4-0.5c0.9-0.8,0.9-2,0.3-2.9C2.1,37.8,5.3,26.5,5.3,26.4z"/>
		<path class="st0" d="M20.4,45.2h-7.7c-1.1,0-2,0.9-2,2c0,1.1,0.9,2,2,2h7.8c1.1,0,2-0.9,2-2C22.4,46.1,21.5,45.2,20.4,45.2z"/>
		<path class="st1" d="M16.8,22.6c0.3,0.1,0.5,0.3,0.9,0.3c0.5,0,0.9-0.3,1.1-0.6c5-6.9,0.3-14.1,0-14.3c-0.4-0.8-1.4-0.9-2-0.4
			c-0.6,0.5-0.9,1.4-0.4,2c0.1,0.3,3.8,5.8,0,11.1C16,21.2,16.1,22.1,16.8,22.6z"/>
		<path class="st1" d="M13.7,15.6c0.3,0,0.5-0.1,0.8-0.3c0.6-0.5,0.9-1.4,0.4-2c-0.1-0.3-3.8-5.8,0-11.1c0.5-0.6,0.4-1.5-0.4-2
			C14-0.3,13.1,0,12.6,0.6c-5,6.9-0.3,14.1,0,14.3C12.9,15.3,13.4,15.6,13.7,15.6z"/>
	</g>
</g>
</svg>
