<svg width="299" height="434" viewBox="0 0 299 434" fill="none" xmlns="http://www.w3.org/2000/svg">
<path d="M225.641 373.217C230.31 372.593 234.978 371.969 240.309 368.242C247.416 363.273 250.516 355.826 250.724 347.76C260.462 195.748 129.384 136.912 123.6 135.676C111.579 128.24 98.0268 135.076 93.6035 148.729C86.2883 161.764 92.3174 176.029 106.115 182.222C110.122 184.7 210.713 230.531 204.246 345.936C202.714 360.207 212.297 371.987 225.641 373.217Z" fill="#7EC9C0"/>
<path d="M123.301 295.687C126.854 293.202 129.292 288.857 131.731 284.512C136.154 270.859 131.902 255.352 119.219 251.02C115.212 248.541 14.6221 202.71 21.0896 87.3065C22.621 73.0356 13.0385 61.2552 -2.08239 61.2673C-15.4265 60.0371 -25.6335 72.4537 -25.3881 85.4824C-35.1266 237.494 95.9507 296.329 99.9577 298.807C108.633 300.662 116.194 300.656 123.301 295.687Z" fill="#7EC9C0"/>
</svg>
