<svg width="299" height="434" viewBox="0 0 299 434" fill="none" xmlns="http://www.w3.org/2000/svg">
<path d="M298.641 373.218C303.31 372.594 307.979 371.969 313.309 368.243C320.416 363.274 323.516 355.826 323.724 347.76C333.463 195.748 202.384 136.912 196.6 135.676C184.579 128.241 171.027 135.076 166.604 148.729C159.289 161.764 165.318 176.029 179.115 182.222C183.122 184.7 283.713 230.532 277.246 345.936C275.714 360.207 285.297 371.988 298.641 373.218Z" fill="#7EC9C0"/>
<path d="M196.301 295.687C199.854 293.202 202.292 288.857 204.731 284.512C209.154 270.86 204.902 255.353 192.219 251.02C188.212 248.541 87.622 202.71 94.0895 87.3067C95.6209 73.0358 86.0384 61.2555 70.9176 61.2676C57.5734 60.0374 47.3665 72.454 47.6118 85.4826C37.8734 237.494 168.951 296.329 172.958 298.808C181.633 300.662 189.194 300.656 196.301 295.687Z" fill="#7EC9C0"/>
</svg>
