<?xml version="1.0" encoding="UTF-8"?><svg id="Layer_1" xmlns="http://www.w3.org/2000/svg" viewBox="0 0 563.29 614.46"><defs><style>.cls-1{fill:#23282c;}</style></defs><path class="cls-1" d="M509.65,614.46c9.54-.75,19.08-1.49,30.07-8.12,14.66-8.83,21.23-22.8,21.92-38.23,24.92-290.19-240.4-415.47-252.16-418.4-24.26-15.4-55.79-1.4-65.26,24.32-9.47,25.72-1.32,55.83,24.4,65.35,8.09,5.13,211.67,102.58,194.65,322.97,.07,24.98,19.21,48.46,46.38,52.1Z"/><path class="cls-1" d="M297.84,461.93c7.33-4.42,12.44-12.5,17.56-20.59,9.47-25.72,1.32-55.83-24.4-65.35-8.09-5.13-211.68-102.58-194.65-322.97C99.96,25.84,80.81,2.35,49.98,.92,26.47-4.92,5.25,17.87,1.65,45.06-23.27,335.25,242.05,460.53,253.81,463.45c13.96,6.59,33.05,5.1,44.04-1.52Z"/></svg>