<svg xmlns="http://www.w3.org/2000/svg" viewBox="0 0 161.97 58.5"><defs><style>.cls-1{fill:#7dc7be;}</style></defs><g id="Layer_2" data-name="Layer 2"><g id="Layer_1-2" data-name="Layer 1"><path class="cls-1" d="M145.61,54.83a10.32,10.32,0,0,1-.27-2.42c-.09-5-.13-10-.23-15-.09-4.65-2.47-8-6.9-9.24a21.93,21.93,0,0,0-13.5.27,7.36,7.36,0,0,0-4.32,3.42,4.09,4.09,0,0,0,.34,4.68c1.5,1.74,3.46,1.76,5.48,1.27,1.49-.37,2.3-1.6,2.49-3.46.11-1.05.24-2.11.42-3.15a2.46,2.46,0,0,1,2.59-2.32c1.27,0,2.11.7,2.3,2.3.21,1.79.12,3.61.3,5.4.32,3.16-7,3.93-9,4.67a12.7,12.7,0,0,0-6.63,4.58c-2.74,4-1.7,9.44,2.29,11.44,4.53,2.29,11.35,1.42,14.1-4.16a6.48,6.48,0,0,0,4.33,4.08,16.8,16.8,0,0,0,3.23.56c1.23.1,5.27.59,3.92-1.53A5.49,5.49,0,0,1,145.61,54.83Zm-11.39-5.38A3.09,3.09,0,0,1,131,52.24a2.91,2.91,0,0,1-2.78-2.93,5.49,5.49,0,0,1,1.05-3.7,14.8,14.8,0,0,1,5-4.19C134.24,44.21,134.32,46.83,134.22,49.45Z"/><path class="cls-1" d="M108.73,28.54a14.69,14.69,0,0,0-11.61-.31c-6,2.3-9.13,6.9-9.58,13.21-.4,5.43,1.28,10.17,5.65,13.65a15.61,15.61,0,0,0,13.15,3,13,13,0,0,0,8.07-4.94.51.51,0,0,0,.09-.16,1,1,0,0,0-.86-1.45h-.25c-.74.07-1.45.32-2.18.46-4.77.9-8.92-.78-11.11-5.07a19.12,19.12,0,0,1-2.2-5.86h15.85c1.5,0,1.75-.23,1.72-1.74C115.4,34.38,113.27,30.62,108.73,28.54Zm-2.88,8.1a1.57,1.57,0,0,1-1.57,1.67c-2,0-4.1,0-6.3,0a13.71,13.71,0,0,1,1.7-7.65c1.52-2.49,3.8-2.38,5.13.2A10.51,10.51,0,0,1,105.85,36.64Z"/><path class="cls-1" d="M85.64,53.94c-1.12-.06-2.55.83-3-1.24a6.72,6.72,0,0,1-.07-1.27V31.62c0-.33,0-.67.05-1.06,1,0,1.83,0,2.68,0s1.11-.56,1.12-1.32-.24-1.3-1.16-1.26-1.74,0-2.69,0c0-2,0-3.77,0-5.57-.06-1.47-1.26-1.13-2.16-.66l-9.18,5.44c-1.15.79-1.47,1.2-1.5,2.1,0,1.27.75,1.34,1.82,1.28V32c0,6.32,0,12.64,0,19,0,4,1.65,6.32,5.14,7.18a10.56,10.56,0,0,0,6.8-.33c.83-.36,4-2.24,3-3.41A1.18,1.18,0,0,0,85.64,53.94Z"/><path class="cls-1" d="M155.57,45.72a6.36,6.36,0,0,0,0,12.72A6.4,6.4,0,0,0,162,52.09,6.47,6.47,0,0,0,155.57,45.72Z"/><path class="cls-1" d="M51.85,36.62,43.37,30.7a2.37,2.37,0,1,0-2.71,3.88l8.55,6,.19.11s0,0,0,.08,0,.06,0,.08l-.19.11-8.55,6A2.37,2.37,0,0,0,42,51.23a2.33,2.33,0,0,0,1.35-.43l8.48-5.92a4.83,4.83,0,0,0,0-8.26Z"/><path class="cls-1" d="M29.93,35.83A2,2,0,0,0,30.34,33c-1.36-1.84-5.4-4.48-10.93-1.35A13.39,13.39,0,0,0,17.46,33c-1.74,1.46-4.36,2.62-6.94-.19a2,2,0,0,0-3,2.75,8.44,8.44,0,0,0,6.3,3,10,10,0,0,0,6.24-2.49,8.37,8.37,0,0,1,1.34-1c3.58-2,5.36-.15,5.69.25A2,2,0,0,0,29.93,35.83Z"/><path class="cls-1" d="M33.88,27.94a2.39,2.39,0,0,0-1.6,2.95c0,.13,3.83,13.34-4,22.35a2.37,2.37,0,0,0,3.58,3.11c9.57-11,5.17-26.18,5-26.82A2.38,2.38,0,0,0,33.88,27.94Z"/><path class="cls-1" d="M5.72,30.89a2.37,2.37,0,0,0-4.54-1.36c-.2.64-4.6,15.81,5,26.82a2.36,2.36,0,0,0,1.79.81,2.34,2.34,0,0,0,1.55-.58,2.36,2.36,0,0,0,.24-3.34C1.89,44.23,5.68,31,5.72,30.89Z"/><path class="cls-1" d="M23.42,53H14.35a2.37,2.37,0,0,0,0,4.74h9.07a2.37,2.37,0,1,0,0-4.74Z"/><path class="cls-1" d="M19.12,26.43a1.73,1.73,0,0,0,1,.31,1.68,1.68,0,0,0,1.37-.7c5.82-8.12.27-16.47,0-16.82a1.69,1.69,0,0,0-2.8,1.9c.18.28,4.45,6.78,0,13A1.7,1.7,0,0,0,19.12,26.43Z"/><path class="cls-1" d="M15.65,18.26a1.66,1.66,0,0,0,1-.29,1.7,1.7,0,0,0,.46-2.35c-.19-.27-4.45-6.77,0-12.94a1.69,1.69,0,0,0-2.75-2c-5.82,8.11-.26,16.46,0,16.81A1.67,1.67,0,0,0,15.65,18.26Z"/></g></g></svg>