<svg xmlns="http://www.w3.org/2000/svg" viewBox="0 0 1025 1025"><defs><style>.cls-1{fill:#7dc7be;}</style></defs><g id="Layer_2" data-name="Layer 2"><g id="Layer_1-2" data-name="Layer 1"><path class="cls-1" d="M225,8.59V0H208.59a8.32,8.32,0,0,0-6.08,2.51A8.32,8.32,0,0,0,200,8.59V25h25Z"/><rect class="cls-1" x="225" width="25" height="25"/><path class="cls-1" d="M266.41,0H250V25h16.41A8.57,8.57,0,0,0,275,16.41V8.59a8.32,8.32,0,0,0-2.51-6.08A8.32,8.32,0,0,0,266.41,0Z"/><path class="cls-1" d="M325,16.41A8.57,8.57,0,0,1,316.41,25h-7.82A8.57,8.57,0,0,1,300,16.41V8.59a8.32,8.32,0,0,1,2.51-6.08A8.32,8.32,0,0,1,308.59,0h7.82a8.32,8.32,0,0,1,6.08,2.51A8.32,8.32,0,0,1,325,8.59Z"/><path class="cls-1" d="M425,8.59a8.32,8.32,0,0,0-2.51-6.08A8.32,8.32,0,0,0,416.41,0h-7.82a8.32,8.32,0,0,0-6.08,2.51A8.32,8.32,0,0,0,400,8.59v7.82c0,.13,0,.32.05.58H400v8h25V17H425c0-.26.05-.45.05-.58Z"/><path class="cls-1" d="M550,16.41A8.57,8.57,0,0,1,541.41,25h-7.82A8.57,8.57,0,0,1,525,16.41V8.59a8.32,8.32,0,0,1,2.51-6.08A8.32,8.32,0,0,1,533.59,0h7.82a8.32,8.32,0,0,1,6.08,2.51A8.32,8.32,0,0,1,550,8.59Z"/><path class="cls-1" d="M600,8.59a8.32,8.32,0,0,0-2.51-6.08A8.32,8.32,0,0,0,591.41,0h-7.82a8.32,8.32,0,0,0-6.08,2.51A8.32,8.32,0,0,0,575,8.59v7.82c0,.13,0,.32,0,.58h0v8h25V17h0c0-.26,0-.45,0-.58Z"/><path class="cls-1" d="M650,8.59V0H633.59a8.32,8.32,0,0,0-6.08,2.51A8.32,8.32,0,0,0,625,8.59V25h25Z"/><rect class="cls-1" x="650" width="25" height="25"/><path class="cls-1" d="M700,8.59a8.32,8.32,0,0,0-2.51-6.08A8.32,8.32,0,0,0,691.41,0H675V25h25Z"/><path class="cls-1" d="M775,8.59V0H758.59a8.32,8.32,0,0,0-6.08,2.51A8.32,8.32,0,0,0,750,8.59v7.82A8.57,8.57,0,0,0,758.59,25H775Z"/><path class="cls-1" d="M791.41,0H775V25h16.41A8.57,8.57,0,0,0,800,16.41V8.59a8.32,8.32,0,0,0-2.51-6.08A8.32,8.32,0,0,0,791.41,0Z"/><path class="cls-1" d="M225,33H225V25H200v8h.05c0,.26-.05.45-.05.58v7.82A8.57,8.57,0,0,0,208.59,50h7.82A8.57,8.57,0,0,0,225,41.41V33.59C225,33.46,225,33.27,225,33Z"/><path class="cls-1" d="M300,33.59A8.57,8.57,0,0,0,291.41,25h-7.82A8.57,8.57,0,0,0,275,33.59v7.82c0,.13,0,.32.05.58H275v8h25V42H300c0-.26.05-.45.05-.58Z"/><path class="cls-1" d="M350,33.59V25H333.59A8.57,8.57,0,0,0,325,33.59V50h25Z"/><path class="cls-1" d="M375,33.59A8.57,8.57,0,0,0,366.41,25H350V50h25Z"/><rect class="cls-1" x="400" y="25" width="25" height="25"/><path class="cls-1" d="M500,33.59V25H483.59A8.57,8.57,0,0,0,475,33.59V50h25Z"/><path class="cls-1" d="M525,33.59A8.57,8.57,0,0,0,516.41,25H500V50h25Z"/><path class="cls-1" d="M575,33.59V25H558.59A8.57,8.57,0,0,0,550,33.59v7.82A8.57,8.57,0,0,0,558.59,50H575Z"/><rect class="cls-1" x="575" y="25" width="25" height="25"/><rect class="cls-1" x="600" y="25" width="25" height="25"/><rect class="cls-1" x="625" y="25" width="25" height="25"/><rect class="cls-1" x="650" y="25" width="25" height="25"/><rect class="cls-1" x="675" y="25" width="25" height="25"/><path class="cls-1" d="M750,33.59A8.57,8.57,0,0,0,741.41,25h-7.82A8.57,8.57,0,0,0,725,33.59v7.82c0,.13,0,.32,0,.58h0v8h25V42h0c0-.26,0-.45,0-.58Z"/><path class="cls-1" d="M250,58.59V50H233.59A8.57,8.57,0,0,0,225,58.59V75h25Z"/><rect class="cls-1" x="250" y="50" width="25" height="25"/><rect class="cls-1" x="275" y="50" width="25" height="25"/><rect class="cls-1" x="325" y="50" width="25" height="25"/><rect class="cls-1" x="350" y="50" width="25" height="25"/><rect class="cls-1" x="400" y="50" width="25" height="25"/><rect class="cls-1" x="425" y="50" width="25" height="25"/><rect class="cls-1" x="450" y="50" width="25" height="25"/><rect class="cls-1" x="475" y="50" width="25" height="25"/><rect class="cls-1" x="500" y="50" width="25" height="25"/><path class="cls-1" d="M600,58h0V50H575v8h0c0,.26,0,.45,0,.58v7.82A8.57,8.57,0,0,0,583.59,75h7.82A8.57,8.57,0,0,0,600,66.41V58.59C600,58.46,600,58.27,600,58Z"/><rect class="cls-1" x="625" y="50" width="25" height="25"/><path class="cls-1" d="M700,58h0V50H675v8h0c0,.26,0,.45,0,.58v7.82A8.57,8.57,0,0,0,683.59,75h7.82A8.57,8.57,0,0,0,700,66.41V58.59C700,58.46,700,58.27,700,58Z"/><rect class="cls-1" x="725" y="50" width="25" height="25"/><path class="cls-1" d="M825,66.41A8.57,8.57,0,0,1,816.41,75h-7.82A8.57,8.57,0,0,1,800,66.41V58.59A8.57,8.57,0,0,1,808.59,50h7.82A8.57,8.57,0,0,1,825,58.59Z"/><path class="cls-1" d="M225,83.59V75H208.59A8.57,8.57,0,0,0,200,83.59V100h25Z"/><path class="cls-1" d="M250,75H225v25h16.41A8.57,8.57,0,0,0,250,91.41Z"/><rect class="cls-1" x="275" y="75" width="25" height="25"/><rect class="cls-1" x="300" y="75" width="25" height="25"/><rect class="cls-1" x="325" y="75" width="25" height="25"/><rect class="cls-1" x="350" y="75" width="25" height="25"/><rect class="cls-1" x="375" y="75" width="25" height="25"/><rect class="cls-1" x="400" y="75" width="25" height="25"/><rect class="cls-1" x="500" y="75" width="25" height="25"/><rect class="cls-1" x="525" y="75" width="25" height="25"/><path class="cls-1" d="M575,83.59A8.57,8.57,0,0,0,566.41,75H550v25h25Z"/><rect class="cls-1" x="625" y="75" width="25" height="25"/><path class="cls-1" d="M675,83.59A8.57,8.57,0,0,0,666.41,75H650v25h25Z"/><path class="cls-1" d="M725,83.59V75H708.59A8.57,8.57,0,0,0,700,83.59V100h25Z"/><path class="cls-1" d="M750,75H725v25h16.41A8.57,8.57,0,0,0,750,91.41Z"/><rect class="cls-1" x="200" y="100" width="25" height="25"/><path class="cls-1" d="M300,100H275v16.41a8.57,8.57,0,0,0,8.59,8.59H300Z"/><rect class="cls-1" x="300" y="100" width="25" height="25"/><rect class="cls-1" x="325" y="100" width="25" height="25"/><path class="cls-1" d="M400,100H375v16.41a8.57,8.57,0,0,0,8.59,8.59H400Z"/><rect class="cls-1" x="400" y="100" width="25" height="25"/><rect class="cls-1" x="425" y="100" width="25" height="25"/><rect class="cls-1" x="450" y="100" width="25" height="25"/><rect class="cls-1" x="475" y="100" width="25" height="25"/><path class="cls-1" d="M525,100H500v25h16.41a8.57,8.57,0,0,0,8.59-8.59Z"/><rect class="cls-1" x="550" y="100" width="25" height="25"/><rect class="cls-1" x="575" y="100" width="25" height="25"/><rect class="cls-1" x="600" y="100" width="25" height="25"/><rect class="cls-1" x="625" y="100" width="25" height="25"/><rect class="cls-1" x="650" y="100" width="25" height="25"/><rect class="cls-1" x="675" y="100" width="25" height="25"/><rect class="cls-1" x="700" y="100" width="25" height="25"/><path class="cls-1" d="M825,116.41a8.57,8.57,0,0,1-8.59,8.59h-7.82a8.57,8.57,0,0,1-8.59-8.59v-7.82a8.57,8.57,0,0,1,8.59-8.59h7.82a8.57,8.57,0,0,1,8.59,8.59Z"/><rect class="cls-1" x="200" y="125" width="25" height="25"/><path class="cls-1" d="M275,133.59a8.57,8.57,0,0,0-8.59-8.59h-7.82a8.57,8.57,0,0,0-8.59,8.59v7.82c0,.13,0,.32.05.58H250v8h25v-8H275c0-.26.05-.45.05-.58Z"/><path class="cls-1" d="M350,133H350v-8H325v8h.05c0,.26-.05.45-.05.58v7.82a8.57,8.57,0,0,0,8.59,8.59h7.82a8.57,8.57,0,0,0,8.59-8.59v-7.82C350,133.46,350,133.27,350,133Z"/><path class="cls-1" d="M450,133H450v-8H425v8h.05c0,.26-.05.45-.05.58v7.82a8.57,8.57,0,0,0,8.59,8.59h7.82a8.57,8.57,0,0,0,8.59-8.59v-7.82C450,133.46,450,133.27,450,133Z"/><rect class="cls-1" x="550" y="125" width="25" height="25"/><rect class="cls-1" x="575" y="125" width="25" height="25"/><rect class="cls-1" x="600" y="125" width="25" height="25"/><rect class="cls-1" x="625" y="125" width="25" height="25"/><rect class="cls-1" x="650" y="125" width="25" height="25"/><rect class="cls-1" x="675" y="125" width="25" height="25"/><rect class="cls-1" x="700" y="125" width="25" height="25"/><rect class="cls-1" x="725" y="125" width="25" height="25"/><rect class="cls-1" x="750" y="125" width="25" height="25"/><path class="cls-1" d="M791.41,125H775v25h16.41a8.57,8.57,0,0,0,8.59-8.59v-7.82a8.57,8.57,0,0,0-8.59-8.59Z"/><path class="cls-1" d="M225,158H225v-8H200v8h.05c0,.26-.05.45-.05.58v7.82a8.57,8.57,0,0,0,8.59,8.59h7.82a8.57,8.57,0,0,0,8.59-8.59v-7.82C225,158.46,225,158.27,225,158Z"/><rect class="cls-1" x="250" y="150" width="25" height="25"/><path class="cls-1" d="M325,158.59a8.57,8.57,0,0,0-8.59-8.59h-7.82a8.57,8.57,0,0,0-8.59,8.59v7.82c0,.13,0,.32.05.58H300v8h25v-8H325c0-.26.05-.45.05-.58Z"/><path class="cls-1" d="M375,166.41a8.57,8.57,0,0,1-8.59,8.59h-7.82a8.57,8.57,0,0,1-8.59-8.59v-7.82a8.57,8.57,0,0,1,8.59-8.59h7.82a8.57,8.57,0,0,1,8.59,8.59Z"/><path class="cls-1" d="M425,158.59a8.57,8.57,0,0,0-8.59-8.59h-7.82a8.57,8.57,0,0,0-8.59,8.59v7.82c0,.13,0,.32.05.58H400v8h25v-8H425c0-.26.05-.45.05-.58Z"/><path class="cls-1" d="M475,158.59a8.57,8.57,0,0,0-8.59-8.59h-7.82a8.57,8.57,0,0,0-8.59,8.59v7.82c0,.13,0,.32.05.58H450v8h25v-8H475c0-.26.05-.45.05-.58Z"/><path class="cls-1" d="M525,158.59a8.57,8.57,0,0,0-8.59-8.59h-7.82a8.57,8.57,0,0,0-8.59,8.59v7.82c0,.13,0,.32.05.58H500v8h25v-8h0c0-.26,0-.45,0-.58Z"/><rect class="cls-1" x="550" y="150" width="25" height="25"/><path class="cls-1" d="M625,158h0v-8H600v8h0c0,.26,0,.45,0,.58v7.82a8.57,8.57,0,0,0,8.59,8.59h7.82a8.57,8.57,0,0,0,8.59-8.59v-7.82C625,158.46,625,158.27,625,158Z"/><path class="cls-1" d="M675,158h0v-8H650v8h0c0,.26,0,.45,0,.58v7.82a8.57,8.57,0,0,0,8.59,8.59h7.82a8.57,8.57,0,0,0,8.59-8.59v-7.82C675,158.46,675,158.27,675,158Z"/><path class="cls-1" d="M725,158h0v-8H700v8h0c0,.26,0,.45,0,.58v7.82a8.57,8.57,0,0,0,8.59,8.59h7.82a8.57,8.57,0,0,0,8.59-8.59v-7.82C725,158.46,725,158.27,725,158Z"/><rect class="cls-1" x="750" y="150" width="25" height="25"/><path class="cls-1" d="M825,166.41a8.57,8.57,0,0,1-8.59,8.59h-7.82a8.57,8.57,0,0,1-8.59-8.59v-7.82a8.57,8.57,0,0,1,8.59-8.59h7.82a8.57,8.57,0,0,1,8.59,8.59Z"/><path class="cls-1" d="M250,183.59V175H233.59a8.57,8.57,0,0,0-8.59,8.59V200h25Z"/><rect class="cls-1" x="250" y="175" width="25" height="25"/><rect class="cls-1" x="275" y="175" width="25" height="25"/><path class="cls-1" d="M325,175H300v25h16.41a8.57,8.57,0,0,0,8.59-8.59Z"/><path class="cls-1" d="M400,183.59V175H383.59a8.57,8.57,0,0,0-8.59,8.59v7.82a8.57,8.57,0,0,0,8.59,8.59H400Z"/><path class="cls-1" d="M425,175H400v25h16.41a8.57,8.57,0,0,0,8.59-8.59Z"/><path class="cls-1" d="M475,175H450v16.41a8.57,8.57,0,0,0,8.59,8.59H475Z"/><rect class="cls-1" x="475" y="175" width="25" height="25"/><path class="cls-1" d="M525,175H500v25h16.41a8.57,8.57,0,0,0,8.59-8.59Z"/><rect class="cls-1" x="550" y="175" width="25" height="25"/><path class="cls-1" d="M700,183.59a8.57,8.57,0,0,0-8.59-8.59h-7.82a8.57,8.57,0,0,0-8.59,8.59v7.82c0,.13,0,.32,0,.58h0v8h25v-8h0c0-.26,0-.45,0-.58Z"/><path class="cls-1" d="M750,183.59V175H733.59a8.57,8.57,0,0,0-8.59,8.59v7.82a8.57,8.57,0,0,0,8.59,8.59H750Z"/><rect class="cls-1" x="750" y="175" width="25" height="25"/><path class="cls-1" d="M791.41,175H775v25h16.41a8.57,8.57,0,0,0,8.59-8.59v-7.82a8.57,8.57,0,0,0-8.59-8.59Z"/><path class="cls-1" d="M100,216.41A8.57,8.57,0,0,1,91.41,225H83.59A8.57,8.57,0,0,1,75,216.41v-7.82A8.57,8.57,0,0,1,83.59,200h7.82a8.57,8.57,0,0,1,8.59,8.59Z"/><path class="cls-1" d="M175,216.41a8.57,8.57,0,0,1-8.59,8.59h-7.82a8.57,8.57,0,0,1-8.59-8.59v-7.82a8.57,8.57,0,0,1,8.59-8.59h7.82a8.57,8.57,0,0,1,8.59,8.59Z"/><rect class="cls-1" x="225" y="200" width="25" height="25"/><path class="cls-1" d="M350,208.59V200H333.59a8.57,8.57,0,0,0-8.59,8.59V225h25Z"/><path class="cls-1" d="M375,208.59a8.57,8.57,0,0,0-8.59-8.59H350v25h25Z"/><path class="cls-1" d="M450,208.59a8.57,8.57,0,0,0-8.59-8.59h-7.82a8.57,8.57,0,0,0-8.59,8.59v7.82c0,.13,0,.32.05.58H425v8h25v-8H450c0-.26.05-.45.05-.58Z"/><rect class="cls-1" x="550" y="200" width="25" height="25"/><path class="cls-1" d="M625,208.59V200H608.59a8.57,8.57,0,0,0-8.59,8.59v7.82a8.57,8.57,0,0,0,8.59,8.59H625Z"/><path class="cls-1" d="M641.41,200H625v25h16.41a8.57,8.57,0,0,0,8.59-8.59v-7.82a8.57,8.57,0,0,0-8.59-8.59Z"/><path class="cls-1" d="M700,200H675v16.41a8.57,8.57,0,0,0,8.59,8.59H700Z"/><path class="cls-1" d="M725,208.59a8.57,8.57,0,0,0-8.59-8.59H700v25h25Z"/><path class="cls-1" d="M900,208.59V200H883.59a8.57,8.57,0,0,0-8.59,8.59v7.82a8.57,8.57,0,0,0,8.59,8.59H900Z"/><rect class="cls-1" x="900" y="200" width="25" height="25"/><path class="cls-1" d="M950,208.59a8.57,8.57,0,0,0-8.59-8.59H925v25h25Z"/><path class="cls-1" d="M1000,208.59V200H983.59a8.57,8.57,0,0,0-8.59,8.59V225h25Z"/><path class="cls-1" d="M1025,208.59a8.57,8.57,0,0,0-8.59-8.59H1000v25h25Z"/><path class="cls-1" d="M25,241.41A8.57,8.57,0,0,1,16.41,250H8.59a8.32,8.32,0,0,1-6.08-2.51A8.32,8.32,0,0,1,0,241.41v-7.82a8.32,8.32,0,0,1,2.51-6.08A8.32,8.32,0,0,1,8.59,225h7.82A8.57,8.57,0,0,1,25,233.59Z"/><path class="cls-1" d="M75,241.41A8.57,8.57,0,0,1,66.41,250H58.59A8.57,8.57,0,0,1,50,241.41v-7.82A8.57,8.57,0,0,1,58.59,225h7.82A8.57,8.57,0,0,1,75,233.59Z"/><path class="cls-1" d="M150,241.41a8.57,8.57,0,0,1-8.59,8.59h-7.82a8.57,8.57,0,0,1-8.59-8.59v-7.82a8.57,8.57,0,0,1,8.59-8.59h7.82a8.57,8.57,0,0,1,8.59,8.59Z"/><rect class="cls-1" x="225" y="225" width="25" height="25"/><path class="cls-1" d="M300,233.59V225H283.59a8.57,8.57,0,0,0-8.59,8.59v7.82a8.57,8.57,0,0,0,8.59,8.59H300Z"/><rect class="cls-1" x="300" y="225" width="25" height="25"/><rect class="cls-1" x="325" y="225" width="25" height="25"/><rect class="cls-1" x="350" y="225" width="25" height="25"/><path class="cls-1" d="M425,233.59V225H408.59a8.57,8.57,0,0,0-8.59,8.59V250h25Z"/><rect class="cls-1" x="425" y="225" width="25" height="25"/><rect class="cls-1" x="550" y="225" width="25" height="25"/><path class="cls-1" d="M591.41,225H575v25h16.41a8.57,8.57,0,0,0,8.59-8.59v-7.82a8.57,8.57,0,0,0-8.59-8.59Z"/><path class="cls-1" d="M675,233.59a8.57,8.57,0,0,0-8.59-8.59h-7.82a8.57,8.57,0,0,0-8.59,8.59v7.82c0,.13,0,.32,0,.58h0v8h25v-8h0c0-.26,0-.45,0-.58Z"/><rect class="cls-1" x="700" y="225" width="25" height="25"/><path class="cls-1" d="M825,241.41a8.57,8.57,0,0,1-8.59,8.59h-7.82a8.57,8.57,0,0,1-8.59-8.59v-7.82a8.57,8.57,0,0,1,8.59-8.59h7.82a8.57,8.57,0,0,1,8.59,8.59Z"/><path class="cls-1" d="M875,241.41a8.57,8.57,0,0,1-8.59,8.59h-7.82a8.57,8.57,0,0,1-8.59-8.59v-7.82a8.57,8.57,0,0,1,8.59-8.59h7.82a8.57,8.57,0,0,1,8.59,8.59Z"/><rect class="cls-1" x="925" y="225" width="25" height="25"/><rect class="cls-1" x="950" y="225" width="25" height="25"/><rect class="cls-1" x="975" y="225" width="25" height="25"/><path class="cls-1" d="M1025,225h-25v25h16.41a8.57,8.57,0,0,0,8.59-8.59Z"/><path class="cls-1" d="M50,258.59A8.57,8.57,0,0,0,41.41,250H33.59A8.57,8.57,0,0,0,25,258.59v7.82c0,.13,0,.32.05.58H25v8H50v-8h0c0-.26,0-.45,0-.58Z"/><path class="cls-1" d="M175,266.41a8.57,8.57,0,0,1-8.59,8.59h-7.82a8.57,8.57,0,0,1-8.59-8.59v-7.82a8.57,8.57,0,0,1,8.59-8.59h7.82a8.57,8.57,0,0,1,8.59,8.59Z"/><path class="cls-1" d="M225,258.59V250H208.59a8.57,8.57,0,0,0-8.59,8.59v7.82a8.57,8.57,0,0,0,8.59,8.59H225Z"/><path class="cls-1" d="M250,250H225v25h16.41a8.57,8.57,0,0,0,8.59-8.59Z"/><path class="cls-1" d="M375,250H350v16.41a8.57,8.57,0,0,0,8.59,8.59H375Z"/><rect class="cls-1" x="375" y="250" width="25" height="25"/><rect class="cls-1" x="400" y="250" width="25" height="25"/><rect class="cls-1" x="425" y="250" width="25" height="25"/><path class="cls-1" d="M500,258.59V250H483.59a8.57,8.57,0,0,0-8.59,8.59v7.82a8.57,8.57,0,0,0,8.59,8.59H500Z"/><rect class="cls-1" x="500" y="250" width="25" height="25"/><rect class="cls-1" x="525" y="250" width="25" height="25"/><rect class="cls-1" x="550" y="250" width="25" height="25"/><path class="cls-1" d="M675,258h0v-8H650v8h0c0,.26,0,.45,0,.58v7.82a8.57,8.57,0,0,0,8.59,8.59h7.82a8.57,8.57,0,0,0,8.59-8.59v-7.82C675,258.46,675,258.27,675,258Z"/><rect class="cls-1" x="700" y="250" width="25" height="25"/><path class="cls-1" d="M741.41,250H725v25h16.41a8.57,8.57,0,0,0,8.59-8.59v-7.82a8.57,8.57,0,0,0-8.59-8.59Z"/><path class="cls-1" d="M800,266.41a8.57,8.57,0,0,1-8.59,8.59h-7.82a8.57,8.57,0,0,1-8.59-8.59v-7.82a8.57,8.57,0,0,1,8.59-8.59h7.82a8.57,8.57,0,0,1,8.59,8.59Z"/><path class="cls-1" d="M850,266.41a8.57,8.57,0,0,1-8.59,8.59h-7.82a8.57,8.57,0,0,1-8.59-8.59v-7.82a8.57,8.57,0,0,1,8.59-8.59h7.82a8.57,8.57,0,0,1,8.59,8.59Z"/><path class="cls-1" d="M950,250H925v16.41a8.57,8.57,0,0,0,8.59,8.59H950Z"/><rect class="cls-1" x="950" y="250" width="25" height="25"/><path class="cls-1" d="M25,283.59V275H8.59a8.32,8.32,0,0,0-6.08,2.51A8.32,8.32,0,0,0,0,283.59v7.82a8.32,8.32,0,0,0,2.51,6.08A8.32,8.32,0,0,0,8.59,300H25Z"/><rect class="cls-1" x="25" y="275" width="25" height="25"/><rect class="cls-1" x="50" y="275" width="25" height="25"/><rect class="cls-1" x="75" y="275" width="25" height="25"/><path class="cls-1" d="M116.41,275H100v25h16.41a8.57,8.57,0,0,0,8.59-8.59v-7.82a8.57,8.57,0,0,0-8.59-8.59Z"/><path class="cls-1" d="M200,291.41a8.57,8.57,0,0,1-8.59,8.59h-7.82a8.57,8.57,0,0,1-8.59-8.59v-7.82a8.57,8.57,0,0,1,8.59-8.59h7.82a8.57,8.57,0,0,1,8.59,8.59Z"/><path class="cls-1" d="M275,291.41a8.57,8.57,0,0,1-8.59,8.59h-7.82a8.57,8.57,0,0,1-8.59-8.59v-7.82a8.57,8.57,0,0,1,8.59-8.59h7.82a8.57,8.57,0,0,1,8.59,8.59Z"/><path class="cls-1" d="M325,291.41a8.57,8.57,0,0,1-8.59,8.59h-7.82a8.57,8.57,0,0,1-8.59-8.59v-7.82a8.57,8.57,0,0,1,8.59-8.59h7.82a8.57,8.57,0,0,1,8.59,8.59Z"/><path class="cls-1" d="M400,275H375v16.41a8.57,8.57,0,0,0,8.59,8.59H400Z"/><rect class="cls-1" x="400" y="275" width="25" height="25"/><rect class="cls-1" x="425" y="275" width="25" height="25"/><path class="cls-1" d="M550,275H525v16.41a8.57,8.57,0,0,0,8.59,8.59H550Z"/><rect class="cls-1" x="550" y="275" width="25" height="25"/><path class="cls-1" d="M700,283.59V275H683.59a8.57,8.57,0,0,0-8.59,8.59v7.82a8.57,8.57,0,0,0,8.59,8.59H700Z"/><path class="cls-1" d="M725,275H700v25h16.41a8.57,8.57,0,0,0,8.59-8.59Z"/><path class="cls-1" d="M775,291.41a8.57,8.57,0,0,1-8.59,8.59h-7.82a8.57,8.57,0,0,1-8.59-8.59v-7.82a8.57,8.57,0,0,1,8.59-8.59h7.82a8.57,8.57,0,0,1,8.59,8.59Z"/><path class="cls-1" d="M875,283.59V275H858.59a8.57,8.57,0,0,0-8.59,8.59V300h25Z"/><rect class="cls-1" x="875" y="275" width="25" height="25"/><path class="cls-1" d="M916.41,275H900v25h16.41a8.57,8.57,0,0,0,8.59-8.59v-7.82a8.57,8.57,0,0,0-8.59-8.59Z"/><path class="cls-1" d="M975,283h0v-8H950v8h0c0,.26,0,.45,0,.58v7.82a8.57,8.57,0,0,0,8.59,8.59h7.82a8.57,8.57,0,0,0,8.59-8.59v-7.82C975,283.46,975,283.27,975,283Z"/><path class="cls-1" d="M1025,283.59a8.57,8.57,0,0,0-8.59-8.59h-7.82a8.57,8.57,0,0,0-8.59,8.59v7.82c0,.13,0,.32,0,.58h0v8h25v-8h0c0-.26,0-.45,0-.58Z"/><rect class="cls-1" x="75" y="300" width="25" height="25"/><path class="cls-1" d="M175,316.41a8.57,8.57,0,0,1-8.59,8.59h-7.82a8.57,8.57,0,0,1-8.59-8.59v-7.82a8.57,8.57,0,0,1,8.59-8.59h7.82a8.57,8.57,0,0,1,8.59,8.59Z"/><path class="cls-1" d="M225,316.41a8.57,8.57,0,0,1-8.59,8.59h-7.82a8.57,8.57,0,0,1-8.59-8.59v-7.82a8.57,8.57,0,0,1,8.59-8.59h7.82a8.57,8.57,0,0,1,8.59,8.59Z"/><path class="cls-1" d="M350,316.41a8.57,8.57,0,0,1-8.59,8.59h-7.82a8.57,8.57,0,0,1-8.59-8.59v-7.82a8.57,8.57,0,0,1,8.59-8.59h7.82a8.57,8.57,0,0,1,8.59,8.59Z"/><path class="cls-1" d="M450,300H425v16.41a8.57,8.57,0,0,0,8.59,8.59H450Z"/><path class="cls-1" d="M466.41,300H450v25h16.41a8.57,8.57,0,0,0,8.59-8.59v-7.82a8.57,8.57,0,0,0-8.59-8.59Z"/><path class="cls-1" d="M575,308h0v-8H550v8h0c0,.26,0,.45,0,.58v7.82a8.57,8.57,0,0,0,8.59,8.59h7.82a8.57,8.57,0,0,0,8.59-8.59v-7.82C575,308.46,575,308.27,575,308Z"/><path class="cls-1" d="M625,316.41a8.57,8.57,0,0,1-8.59,8.59h-7.82a8.57,8.57,0,0,1-8.59-8.59v-7.82a8.57,8.57,0,0,1,8.59-8.59h7.82a8.57,8.57,0,0,1,8.59,8.59Z"/><path class="cls-1" d="M750,316.41a8.57,8.57,0,0,1-8.59,8.59h-7.82a8.57,8.57,0,0,1-8.59-8.59v-7.82a8.57,8.57,0,0,1,8.59-8.59h7.82a8.57,8.57,0,0,1,8.59,8.59Z"/><path class="cls-1" d="M800,308.59V300H783.59a8.57,8.57,0,0,0-8.59,8.59v7.82a8.57,8.57,0,0,0,8.59,8.59H800Z"/><path class="cls-1" d="M825,308.59a8.57,8.57,0,0,0-8.59-8.59H800v25h25Z"/><rect class="cls-1" x="850" y="300" width="25" height="25"/><path class="cls-1" d="M950,316.41a8.57,8.57,0,0,1-8.59,8.59h-7.82a8.57,8.57,0,0,1-8.59-8.59v-7.82a8.57,8.57,0,0,1,8.59-8.59h7.82a8.57,8.57,0,0,1,8.59,8.59Z"/><path class="cls-1" d="M1025,308h0v-8h-25v8h0c0,.26,0,.45,0,.58v7.82a8.57,8.57,0,0,0,8.59,8.59h7.82a8.57,8.57,0,0,0,8.59-8.59v-7.82C1025,308.46,1025,308.27,1025,308Z"/><path class="cls-1" d="M25,333.59V325H8.59a8.32,8.32,0,0,0-6.08,2.51A8.32,8.32,0,0,0,0,333.59v7.82a8.32,8.32,0,0,0,2.51,6.08A8.32,8.32,0,0,0,8.59,350H25Z"/><path class="cls-1" d="M41.41,325H25v25H41.41A8.57,8.57,0,0,0,50,341.41v-7.82A8.57,8.57,0,0,0,41.41,325Z"/><rect class="cls-1" x="75" y="325" width="25" height="25"/><path class="cls-1" d="M200,333.59a8.57,8.57,0,0,0-8.59-8.59h-7.82a8.57,8.57,0,0,0-8.59,8.59v7.82c0,.13,0,.32.05.58H175v8h25v-8H200c0-.26.05-.45.05-.58Z"/><path class="cls-1" d="M400,333.59V325H383.59a8.57,8.57,0,0,0-8.59,8.59V350h25Z"/><path class="cls-1" d="M416.41,325H400v25h16.41a8.57,8.57,0,0,0,8.59-8.59v-7.82a8.57,8.57,0,0,0-8.59-8.59Z"/><path class="cls-1" d="M525,341.41a8.57,8.57,0,0,1-8.59,8.59h-7.82a8.57,8.57,0,0,1-8.59-8.59v-7.82a8.57,8.57,0,0,1,8.59-8.59h7.82a8.57,8.57,0,0,1,8.59,8.59Z"/><path class="cls-1" d="M600,341.41a8.57,8.57,0,0,1-8.59,8.59h-7.82a8.57,8.57,0,0,1-8.59-8.59v-7.82a8.57,8.57,0,0,1,8.59-8.59h7.82a8.57,8.57,0,0,1,8.59,8.59Z"/><path class="cls-1" d="M700,333.59V325H683.59a8.57,8.57,0,0,0-8.59,8.59v7.82a8.57,8.57,0,0,0,8.59,8.59H700Z"/><path class="cls-1" d="M716.41,325H700v25h16.41a8.57,8.57,0,0,0,8.59-8.59v-7.82a8.57,8.57,0,0,0-8.59-8.59Z"/><path class="cls-1" d="M775,341.41a8.57,8.57,0,0,1-8.59,8.59h-7.82a8.57,8.57,0,0,1-8.59-8.59v-7.82a8.57,8.57,0,0,1,8.59-8.59h7.82a8.57,8.57,0,0,1,8.59,8.59Z"/><path class="cls-1" d="M825,325H800v16.41a8.57,8.57,0,0,0,8.59,8.59H825Z"/><rect class="cls-1" x="825" y="325" width="25" height="25"/><rect class="cls-1" x="850" y="325" width="25" height="25"/><rect class="cls-1" x="75" y="350" width="25" height="25"/><path class="cls-1" d="M150,358.59V350H133.59a8.57,8.57,0,0,0-8.59,8.59v7.82a8.57,8.57,0,0,0,8.59,8.59H150Z"/><rect class="cls-1" x="150" y="350" width="25" height="25"/><rect class="cls-1" x="175" y="350" width="25" height="25"/><path class="cls-1" d="M216.41,350H200v25h16.41a8.57,8.57,0,0,0,8.59-8.59v-7.82a8.57,8.57,0,0,0-8.59-8.59Z"/><path class="cls-1" d="M275,366.41a8.57,8.57,0,0,1-8.59,8.59h-7.82a8.57,8.57,0,0,1-8.59-8.59v-7.82a8.57,8.57,0,0,1,8.59-8.59h7.82a8.57,8.57,0,0,1,8.59,8.59Z"/><path class="cls-1" d="M325,358.59V350H308.59a8.57,8.57,0,0,0-8.59,8.59V375h25Z"/><rect class="cls-1" x="325" y="350" width="25" height="25"/><rect class="cls-1" x="350" y="350" width="25" height="25"/><path class="cls-1" d="M400,350H375v25h16.41a8.57,8.57,0,0,0,8.59-8.59Z"/><path class="cls-1" d="M475,358.59V350H458.59a8.57,8.57,0,0,0-8.59,8.59v7.82a8.57,8.57,0,0,0,8.59,8.59H475Z"/><path class="cls-1" d="M491.41,350H475v25h16.41a8.57,8.57,0,0,0,8.59-8.59v-7.82a8.57,8.57,0,0,0-8.59-8.59Z"/><path class="cls-1" d="M575,366.41a8.57,8.57,0,0,1-8.59,8.59h-7.82a8.57,8.57,0,0,1-8.59-8.59v-7.82a8.57,8.57,0,0,1,8.59-8.59h7.82a8.57,8.57,0,0,1,8.59,8.59Z"/><path class="cls-1" d="M625,366.41a8.57,8.57,0,0,1-8.59,8.59h-7.82a8.57,8.57,0,0,1-8.59-8.59v-7.82a8.57,8.57,0,0,1,8.59-8.59h7.82a8.57,8.57,0,0,1,8.59,8.59Z"/><path class="cls-1" d="M750,358.59a8.57,8.57,0,0,0-8.59-8.59h-7.82a8.57,8.57,0,0,0-8.59,8.59v7.82c0,.13,0,.32,0,.58h0v8h25v-8h0c0-.26,0-.45,0-.58Z"/><path class="cls-1" d="M800,366.41a8.57,8.57,0,0,1-8.59,8.59h-7.82a8.57,8.57,0,0,1-8.59-8.59v-7.82a8.57,8.57,0,0,1,8.59-8.59h7.82a8.57,8.57,0,0,1,8.59,8.59Z"/><rect class="cls-1" x="850" y="350" width="25" height="25"/><path class="cls-1" d="M950,358.59V350H933.59a8.57,8.57,0,0,0-8.59,8.59v7.82a8.57,8.57,0,0,0,8.59,8.59H950Z"/><rect class="cls-1" x="950" y="350" width="25" height="25"/><rect class="cls-1" x="975" y="350" width="25" height="25"/><path class="cls-1" d="M1016.41,350H1000v25h16.41a8.57,8.57,0,0,0,8.59-8.59v-7.82a8.57,8.57,0,0,0-8.59-8.59Z"/><path class="cls-1" d="M25,383.59A8.57,8.57,0,0,0,16.41,375H8.59a8.32,8.32,0,0,0-6.08,2.51A8.32,8.32,0,0,0,0,383.59v7.82c0,.13,0,.32.05.58H0v8H25v-8H25c0-.26.05-.45.05-.58Z"/><path class="cls-1" d="M75,383.59V375H58.59A8.57,8.57,0,0,0,50,383.59v7.82A8.57,8.57,0,0,0,58.59,400H75Z"/><rect class="cls-1" x="75" y="375" width="25" height="25"/><path class="cls-1" d="M116.41,375H100v25h16.41a8.57,8.57,0,0,0,8.59-8.59v-7.82a8.57,8.57,0,0,0-8.59-8.59Z"/><rect class="cls-1" x="175" y="375" width="25" height="25"/><path class="cls-1" d="M300,383.59V375H283.59a8.57,8.57,0,0,0-8.59,8.59V400h25Z"/><rect class="cls-1" x="300" y="375" width="25" height="25"/><rect class="cls-1" x="325" y="375" width="25" height="25"/><path class="cls-1" d="M375,375H350v25h16.41a8.57,8.57,0,0,0,8.59-8.59Z"/><path class="cls-1" d="M425,391.41a8.57,8.57,0,0,1-8.59,8.59h-7.82a8.57,8.57,0,0,1-8.59-8.59v-7.82a8.57,8.57,0,0,1,8.59-8.59h7.82a8.57,8.57,0,0,1,8.59,8.59Z"/><path class="cls-1" d="M525,383.59V375H508.59a8.57,8.57,0,0,0-8.59,8.59v7.82a8.57,8.57,0,0,0,8.59,8.59H525Z"/><path class="cls-1" d="M541.41,375H525v25h16.41a8.57,8.57,0,0,0,8.59-8.59v-7.82a8.57,8.57,0,0,0-8.59-8.59Z"/><path class="cls-1" d="M485.23,412.76v-8.59H468.82a8.57,8.57,0,0,0-8.59,8.59v7.81a8.59,8.59,0,0,0,8.59,8.6h16.41Z"/><path class="cls-1" d="M501.63,404.17h-16.4v25h16.4a8.6,8.6,0,0,0,8.6-8.6v-7.81a8.59,8.59,0,0,0-8.6-8.59Z"/><path class="cls-1" d="M600,391.41a8.57,8.57,0,0,1-8.59,8.59h-7.82a8.57,8.57,0,0,1-8.59-8.59v-7.82a8.57,8.57,0,0,1,8.59-8.59h7.82a8.57,8.57,0,0,1,8.59,8.59Z"/><path class="cls-1" d="M583.76,420.63a8.59,8.59,0,0,1-8.59,8.6h-7.81a8.6,8.6,0,0,1-8.6-8.6v-7.81a8.59,8.59,0,0,1,8.6-8.59h7.81a8.57,8.57,0,0,1,8.59,8.59Z"/><path class="cls-1" d="M650,391.41a8.57,8.57,0,0,1-8.59,8.59h-7.82a8.57,8.57,0,0,1-8.59-8.59v-7.82a8.57,8.57,0,0,1,8.59-8.59h7.82a8.57,8.57,0,0,1,8.59,8.59Z"/><path class="cls-1" d="M700,391.41a8.57,8.57,0,0,1-8.59,8.59h-7.82a8.57,8.57,0,0,1-8.59-8.59v-7.82a8.57,8.57,0,0,1,8.59-8.59h7.82a8.57,8.57,0,0,1,8.59,8.59Z"/><rect class="cls-1" x="725" y="375" width="25" height="25"/><path class="cls-1" d="M825,383.59a8.57,8.57,0,0,0-8.59-8.59h-7.82a8.57,8.57,0,0,0-8.59,8.59v7.82c0,.13,0,.32,0,.58h0v8h25v-8h0c0-.26,0-.45,0-.58Z"/><path class="cls-1" d="M875,383h0v-8H850v8h0c0,.26,0,.45,0,.58v7.82a8.57,8.57,0,0,0,8.59,8.59h7.82a8.57,8.57,0,0,0,8.59-8.59v-7.82C875,383.46,875,383.27,875,383Z"/><path class="cls-1" d="M925,391.41a8.57,8.57,0,0,1-8.59,8.59h-7.82a8.57,8.57,0,0,1-8.59-8.59v-7.82a8.57,8.57,0,0,1,8.59-8.59h7.82a8.57,8.57,0,0,1,8.59,8.59Z"/><path class="cls-1" d="M25,408H25v-8H0v8H.05c0,.26,0,.45,0,.58v7.82a8.32,8.32,0,0,0,2.51,6.08A8.32,8.32,0,0,0,8.59,425h7.82A8.57,8.57,0,0,0,25,416.41v-7.82C25,408.46,25,408.27,25,408Z"/><path class="cls-1" d="M150,408.59V400H133.59a8.57,8.57,0,0,0-8.59,8.59v7.82a8.57,8.57,0,0,0,8.59,8.59H150Z"/><rect class="cls-1" x="150" y="400" width="25" height="25"/><path class="cls-1" d="M200,400H175v25h16.41a8.57,8.57,0,0,0,8.59-8.59Z"/><path class="cls-1" d="M275,408.59V400H258.59a8.57,8.57,0,0,0-8.59,8.59v7.82a8.57,8.57,0,0,0,8.59,8.59H275Z"/><path class="cls-1" d="M300,400H275v25h16.41a8.57,8.57,0,0,0,8.59-8.59Z"/><rect class="cls-1" x="725" y="400" width="25" height="25"/><path class="cls-1" d="M825,408h0v-8H800v8h0c0,.26,0,.45,0,.58v7.82a8.57,8.57,0,0,0,8.59,8.59h7.82a8.57,8.57,0,0,0,8.59-8.59v-7.82C825,408.46,825,408.27,825,408Z"/><path class="cls-1" d="M900,408.59a8.57,8.57,0,0,0-8.59-8.59h-7.82a8.57,8.57,0,0,0-8.59,8.59v7.82c0,.13,0,.32,0,.58h0v8h25v-8h0c0-.26,0-.45,0-.58Z"/><path class="cls-1" d="M950,408.59a8.57,8.57,0,0,0-8.59-8.59h-7.82a8.57,8.57,0,0,0-8.59,8.59v7.82c0,.13,0,.32,0,.58h0v8h25v-8h0c0-.26,0-.45,0-.58Z"/><path class="cls-1" d="M1025,408.59a8.57,8.57,0,0,0-8.59-8.59h-7.82a8.57,8.57,0,0,0-8.59,8.59v7.82c0,.13,0,.32,0,.58h0v8h25v-8h0c0-.26,0-.45,0-.58Z"/><path class="cls-1" d="M75,441.41A8.57,8.57,0,0,1,66.41,450H58.59A8.57,8.57,0,0,1,50,441.41v-7.82A8.57,8.57,0,0,1,58.59,425h7.82A8.57,8.57,0,0,1,75,433.59Z"/><path class="cls-1" d="M125,441.41a8.57,8.57,0,0,1-8.59,8.59h-7.82a8.57,8.57,0,0,1-8.59-8.59v-7.82a8.57,8.57,0,0,1,8.59-8.59h7.82a8.57,8.57,0,0,1,8.59,8.59Z"/><path class="cls-1" d="M250,433.59a8.57,8.57,0,0,0-8.59-8.59h-7.82a8.57,8.57,0,0,0-8.59,8.59v7.82c0,.13,0,.32.05.58H225v8h25v-8H250c0-.26.05-.45.05-.58Z"/><rect class="cls-1" x="725" y="425" width="25" height="25"/><path class="cls-1" d="M875,433.59V425H858.59a8.57,8.57,0,0,0-8.59,8.59V450h25Z"/><path class="cls-1" d="M900,425H875v25h16.41a8.57,8.57,0,0,0,8.59-8.59Z"/><path class="cls-1" d="M950,433h0v-8H925v8h0c0,.26,0,.45,0,.58v7.82a8.57,8.57,0,0,0,8.59,8.59h7.82a8.57,8.57,0,0,0,8.59-8.59v-7.82C950,433.46,950,433.27,950,433Z"/><path class="cls-1" d="M1000,433.59V425H983.59a8.57,8.57,0,0,0-8.59,8.59V450h25Z"/><rect class="cls-1" x="1000" y="425" width="25" height="25"/><path class="cls-1" d="M50,458.59A8.57,8.57,0,0,0,41.41,450H33.59A8.57,8.57,0,0,0,25,458.59v7.82c0,.13,0,.32.05.58H25v8H50v-8h0c0-.26,0-.45,0-.58Z"/><path class="cls-1" d="M100,466.41A8.57,8.57,0,0,1,91.41,475H83.59A8.57,8.57,0,0,1,75,466.41v-7.82A8.57,8.57,0,0,1,83.59,450h7.82a8.57,8.57,0,0,1,8.59,8.59Z"/><path class="cls-1" d="M175,466.41a8.57,8.57,0,0,1-8.59,8.59h-7.82a8.57,8.57,0,0,1-8.59-8.59v-7.82a8.57,8.57,0,0,1,8.59-8.59h7.82a8.57,8.57,0,0,1,8.59,8.59Z"/><path class="cls-1" d="M225,458.59V450H208.59a8.57,8.57,0,0,0-8.59,8.59v7.82a8.57,8.57,0,0,0,8.59,8.59H225Z"/><path class="cls-1" d="M250,450H225v25h16.41a8.57,8.57,0,0,0,8.59-8.59Z"/><path class="cls-1" d="M300,466.41a8.57,8.57,0,0,1-8.59,8.59h-7.82a8.57,8.57,0,0,1-8.59-8.59v-7.82a8.57,8.57,0,0,1,8.59-8.59h7.82a8.57,8.57,0,0,1,8.59,8.59Z"/><path class="cls-1" d="M750,458h0v-8H725v8h0c0,.26,0,.45,0,.58v7.82a8.57,8.57,0,0,0,8.59,8.59h7.82a8.57,8.57,0,0,0,8.59-8.59v-7.82C750,458.46,750,458.27,750,458Z"/><rect class="cls-1" x="850" y="450" width="25" height="25"/><path class="cls-1" d="M925,466.41a8.57,8.57,0,0,1-8.59,8.59h-7.82a8.57,8.57,0,0,1-8.59-8.59v-7.82a8.57,8.57,0,0,1,8.59-8.59h7.82a8.57,8.57,0,0,1,8.59,8.59Z"/><rect class="cls-1" x="975" y="450" width="25" height="25"/><path class="cls-1" d="M1025,450h-25v25h16.41a8.57,8.57,0,0,0,8.59-8.59Z"/><path class="cls-1" d="M25,483.59V475H8.59a8.32,8.32,0,0,0-6.08,2.51A8.32,8.32,0,0,0,0,483.59V500H25Z"/><rect class="cls-1" x="25" y="475" width="25" height="25"/><path class="cls-1" d="M75,483.59A8.57,8.57,0,0,0,66.41,475H50v25H75Z"/><path class="cls-1" d="M150,491.41a8.57,8.57,0,0,1-8.59,8.59h-7.82a8.57,8.57,0,0,1-8.59-8.59v-7.82a8.57,8.57,0,0,1,8.59-8.59h7.82a8.57,8.57,0,0,1,8.59,8.59Z"/><rect class="cls-1" x="850" y="475" width="25" height="25"/><path class="cls-1" d="M891.41,475H875v25h16.41a8.57,8.57,0,0,0,8.59-8.59v-7.82a8.57,8.57,0,0,0-8.59-8.59Z"/><rect class="cls-1" x="975" y="475" width="25" height="25"/><rect class="cls-1" y="500" width="25" height="25"/><rect class="cls-1" x="25" y="500" width="25" height="25"/><path class="cls-1" d="M75,500H50v25H66.41A8.57,8.57,0,0,0,75,516.41Z"/><path class="cls-1" d="M175,516.41a8.57,8.57,0,0,1-8.59,8.59h-7.82a8.57,8.57,0,0,1-8.59-8.59v-7.82a8.57,8.57,0,0,1,8.59-8.59h7.82a8.57,8.57,0,0,1,8.59,8.59Z"/><path class="cls-1" d="M250,516.41a8.57,8.57,0,0,1-8.59,8.59h-7.82a8.57,8.57,0,0,1-8.59-8.59v-7.82a8.57,8.57,0,0,1,8.59-8.59h7.82a8.57,8.57,0,0,1,8.59,8.59Z"/><path class="cls-1" d="M750,516.41a8.57,8.57,0,0,1-8.59,8.59h-7.82a8.57,8.57,0,0,1-8.59-8.59v-7.82a8.57,8.57,0,0,1,8.59-8.59h7.82a8.57,8.57,0,0,1,8.59,8.59Z"/><path class="cls-1" d="M825,508.59V500H808.59a8.57,8.57,0,0,0-8.59,8.59V525h25Z"/><rect class="cls-1" x="825" y="500" width="25" height="25"/><rect class="cls-1" x="850" y="500" width="25" height="25"/><path class="cls-1" d="M975,508.59V500H958.59a8.57,8.57,0,0,0-8.59,8.59V525h25Z"/><rect class="cls-1" x="975" y="500" width="25" height="25"/><rect class="cls-1" y="525" width="25" height="25"/><rect class="cls-1" x="25" y="525" width="25" height="25"/><path class="cls-1" d="M125,541.41a8.57,8.57,0,0,1-8.59,8.59h-7.82a8.57,8.57,0,0,1-8.59-8.59v-7.82a8.57,8.57,0,0,1,8.59-8.59h7.82a8.57,8.57,0,0,1,8.59,8.59Z"/><path class="cls-1" d="M300,533.59a8.57,8.57,0,0,0-8.59-8.59h-7.82a8.57,8.57,0,0,0-8.59,8.59v7.82c0,.13,0,.32.05.58H275v8h25v-8H300c0-.26.05-.45.05-.58Z"/><rect class="cls-1" x="800" y="525" width="25" height="25"/><path class="cls-1" d="M875,533h0v-8H850v8h0c0,.26,0,.45,0,.58v7.82a8.57,8.57,0,0,0,8.59,8.59h7.82a8.57,8.57,0,0,0,8.59-8.59v-7.82C875,533.46,875,533.27,875,533Z"/><path class="cls-1" d="M975,525H950v16.41a8.57,8.57,0,0,0,8.59,8.59H975Z"/><rect class="cls-1" x="975" y="525" width="25" height="25"/><path class="cls-1" d="M1016.41,525H1000v25h16.41a8.57,8.57,0,0,0,8.59-8.59v-7.82a8.57,8.57,0,0,0-8.59-8.59Z"/><path class="cls-1" d="M25,550H0v16.41a8.32,8.32,0,0,0,2.51,6.08A8.32,8.32,0,0,0,8.59,575H25Z"/><rect class="cls-1" x="25" y="550" width="25" height="25"/><path class="cls-1" d="M175,558.59V550H158.59a8.57,8.57,0,0,0-8.59,8.59v7.82a8.57,8.57,0,0,0,8.59,8.59H175Z"/><rect class="cls-1" x="175" y="550" width="25" height="25"/><path class="cls-1" d="M216.41,550H200v25h16.41a8.57,8.57,0,0,0,8.59-8.59v-7.82a8.57,8.57,0,0,0-8.59-8.59Z"/><path class="cls-1" d="M275,558.59V550H258.59a8.57,8.57,0,0,0-8.59,8.59v7.82a8.57,8.57,0,0,0,8.59,8.59H275Z"/><rect class="cls-1" x="275" y="550" width="25" height="25"/><path class="cls-1" d="M775,558.59V550H758.59a8.57,8.57,0,0,0-8.59,8.59V575h25Z"/><rect class="cls-1" x="775" y="550" width="25" height="25"/><rect class="cls-1" x="800" y="550" width="25" height="25"/><path class="cls-1" d="M900,558.59V550H883.59a8.57,8.57,0,0,0-8.59,8.59V575h25Z"/><path class="cls-1" d="M916.41,550H900v25h16.41a8.57,8.57,0,0,0,8.59-8.59v-7.82a8.57,8.57,0,0,0-8.59-8.59Z"/><path class="cls-1" d="M1000,558h0v-8H975v8h0c0,.26,0,.45,0,.58v7.82a8.57,8.57,0,0,0,8.59,8.59h7.82a8.57,8.57,0,0,0,8.59-8.59v-7.82C1000,558.46,1000,558.27,1000,558Z"/><path class="cls-1" d="M50,583h0v-8H25v8h.05c0,.26-.05.45-.05.58v7.82A8.57,8.57,0,0,0,33.59,600h7.82A8.57,8.57,0,0,0,50,591.41v-7.82C50,583.46,50,583.27,50,583Z"/><path class="cls-1" d="M100,583.59V575H83.59A8.57,8.57,0,0,0,75,583.59V600h25Z"/><path class="cls-1" d="M125,583.59a8.57,8.57,0,0,0-8.59-8.59H100v25h25Z"/><path class="cls-1" d="M300,583H300v-8H275v8h.05c0,.26-.05.45-.05.58v7.82a8.57,8.57,0,0,0,8.59,8.59h7.82a8.57,8.57,0,0,0,8.59-8.59v-7.82C300,583.46,300,583.27,300,583Z"/><path class="cls-1" d="M775,575H750v16.41a8.57,8.57,0,0,0,8.59,8.59H775Z"/><rect class="cls-1" x="775" y="575" width="25" height="25"/><rect class="cls-1" x="800" y="575" width="25" height="25"/><path class="cls-1" d="M875,583.59V575H858.59a8.57,8.57,0,0,0-8.59,8.59V600h25Z"/><path class="cls-1" d="M900,575H875v25h16.41a8.57,8.57,0,0,0,8.59-8.59Z"/><path class="cls-1" d="M975,591.41a8.57,8.57,0,0,1-8.59,8.59h-7.82a8.57,8.57,0,0,1-8.59-8.59v-7.82a8.57,8.57,0,0,1,8.59-8.59h7.82a8.57,8.57,0,0,1,8.59,8.59Z"/><path class="cls-1" d="M75,608.59V600H58.59A8.57,8.57,0,0,0,50,608.59V625H75Z"/><rect class="cls-1" x="75" y="600" width="25" height="25"/><rect class="cls-1" x="100" y="600" width="25" height="25"/><path class="cls-1" d="M175,608.59V600H158.59a8.57,8.57,0,0,0-8.59,8.59v7.82a8.57,8.57,0,0,0,8.59,8.59H175Z"/><rect class="cls-1" x="175" y="600" width="25" height="25"/><path class="cls-1" d="M225,608.59a8.57,8.57,0,0,0-8.59-8.59H200v25h25Z"/><path class="cls-1" d="M750,608.59a8.57,8.57,0,0,0-8.59-8.59h-7.82a8.57,8.57,0,0,0-8.59,8.59v7.82c0,.13,0,.32,0,.58h0v8h25v-8h0c0-.26,0-.45,0-.58Z"/><path class="cls-1" d="M825,600H800v16.41a8.57,8.57,0,0,0,8.59,8.59H825Z"/><rect class="cls-1" x="825" y="600" width="25" height="25"/><path class="cls-1" d="M875,600H850v25h16.41a8.57,8.57,0,0,0,8.59-8.59Z"/><path class="cls-1" d="M1025,616.41a8.57,8.57,0,0,1-8.59,8.59h-7.82a8.57,8.57,0,0,1-8.59-8.59v-7.82a8.57,8.57,0,0,1,8.59-8.59h7.82a8.57,8.57,0,0,1,8.59,8.59Z"/><path class="cls-1" d="M75,625H50v16.41A8.57,8.57,0,0,0,58.59,650H75Z"/><rect class="cls-1" x="75" y="625" width="25" height="25"/><rect class="cls-1" x="100" y="625" width="25" height="25"/><path class="cls-1" d="M141.41,625H125v25h16.41a8.57,8.57,0,0,0,8.59-8.59v-7.82a8.57,8.57,0,0,0-8.59-8.59Z"/><path class="cls-1" d="M225,633H225v-8H200v8h.05c0,.26-.05.45-.05.58v7.82a8.57,8.57,0,0,0,8.59,8.59h7.82a8.57,8.57,0,0,0,8.59-8.59v-7.82C225,633.46,225,633.27,225,633Z"/><path class="cls-1" d="M425,633.59a8.57,8.57,0,0,0-8.59-8.59h-7.82a8.57,8.57,0,0,0-8.59,8.59v7.82c0,.13,0,.32.05.58H400v8h25v-8H425c0-.26.05-.45.05-.58Z"/><path class="cls-1" d="M475,633.59V625H458.59a8.57,8.57,0,0,0-8.59,8.59v7.82a8.57,8.57,0,0,0,8.59,8.59H475Z"/><path class="cls-1" d="M491.41,625H475v25h16.41a8.57,8.57,0,0,0,8.59-8.59v-7.82a8.57,8.57,0,0,0-8.59-8.59Z"/><rect class="cls-1" x="725" y="625" width="25" height="25"/><rect class="cls-1" x="750" y="625" width="25" height="25"/><path class="cls-1" d="M791.41,625H775v25h16.41a8.57,8.57,0,0,0,8.59-8.59v-7.82a8.57,8.57,0,0,0-8.59-8.59Z"/><path class="cls-1" d="M950,641.41a8.57,8.57,0,0,1-8.59,8.59h-7.82a8.57,8.57,0,0,1-8.59-8.59v-7.82a8.57,8.57,0,0,1,8.59-8.59h7.82a8.57,8.57,0,0,1,8.59,8.59Z"/><path class="cls-1" d="M100,658h0v-8H75v8h0c0,.26,0,.45,0,.58v7.82A8.57,8.57,0,0,0,83.59,675h7.82a8.57,8.57,0,0,0,8.59-8.59v-7.82C100,658.46,100,658.27,100,658Z"/><path class="cls-1" d="M175,666.41a8.57,8.57,0,0,1-8.59,8.59h-7.82a8.57,8.57,0,0,1-8.59-8.59v-7.82a8.57,8.57,0,0,1,8.59-8.59h7.82a8.57,8.57,0,0,1,8.59,8.59Z"/><path class="cls-1" d="M250,666.41a8.57,8.57,0,0,1-8.59,8.59h-7.82a8.57,8.57,0,0,1-8.59-8.59v-7.82a8.57,8.57,0,0,1,8.59-8.59h7.82a8.57,8.57,0,0,1,8.59,8.59Z"/><path class="cls-1" d="M300,658.59V650H283.59a8.57,8.57,0,0,0-8.59,8.59v7.82a8.57,8.57,0,0,0,8.59,8.59H300Z"/><path class="cls-1" d="M325,658.59a8.57,8.57,0,0,0-8.59-8.59H300v25h25Z"/><path class="cls-1" d="M375,658.59a8.57,8.57,0,0,0-8.59-8.59h-7.82a8.57,8.57,0,0,0-8.59,8.59v7.82c0,.13,0,.32.05.58H350v8h25v-8H375c0-.26.05-.45.05-.58Z"/><path class="cls-1" d="M425,658H425v-8H400v8h.05c0,.26-.05.45-.05.58v7.82a8.57,8.57,0,0,0,8.59,8.59h7.82a8.57,8.57,0,0,0,8.59-8.59v-7.82C425,658.46,425,658.27,425,658Z"/><path class="cls-1" d="M650,658.59a8.57,8.57,0,0,0-8.59-8.59h-7.82a8.57,8.57,0,0,0-8.59,8.59v7.82c0,.13,0,.32,0,.58h0v8h25v-8h0c0-.26,0-.45,0-.58Z"/><path class="cls-1" d="M725,658.59V650H708.59a8.57,8.57,0,0,0-8.59,8.59v7.82a8.57,8.57,0,0,0,8.59,8.59H725Z"/><rect class="cls-1" x="725" y="650" width="25" height="25"/><path class="cls-1" d="M825,658.59V650H808.59a8.57,8.57,0,0,0-8.59,8.59V675h25Z"/><path class="cls-1" d="M850,658.59a8.57,8.57,0,0,0-8.59-8.59H825v25h25Z"/><path class="cls-1" d="M925,658.59a8.57,8.57,0,0,0-8.59-8.59h-7.82a8.57,8.57,0,0,0-8.59,8.59v7.82c0,.13,0,.32,0,.58h0v8h25v-8h0c0-.26,0-.45,0-.58Z"/><path class="cls-1" d="M1000,658.59V650H983.59a8.57,8.57,0,0,0-8.59,8.59V675h25Z"/><path class="cls-1" d="M1025,658.59a8.57,8.57,0,0,0-8.59-8.59H1000v25h25Z"/><path class="cls-1" d="M25,683.59V675H8.59a8.32,8.32,0,0,0-6.08,2.51A8.32,8.32,0,0,0,0,683.59v7.82a8.32,8.32,0,0,0,2.51,6.08A8.32,8.32,0,0,0,8.59,700H25Z"/><path class="cls-1" d="M41.41,675H25v25H41.41A8.57,8.57,0,0,0,50,691.41v-7.82A8.57,8.57,0,0,0,41.41,675Z"/><path class="cls-1" d="M150,683.59a8.57,8.57,0,0,0-8.59-8.59h-7.82a8.57,8.57,0,0,0-8.59,8.59v7.82c0,.13,0,.32,0,.58h0v8h25v-8H150c0-.26.05-.45.05-.58Z"/><path class="cls-1" d="M200,683.59a8.57,8.57,0,0,0-8.59-8.59h-7.82a8.57,8.57,0,0,0-8.59,8.59v7.82c0,.13,0,.32.05.58H175v8h25v-8H200c0-.26.05-.45.05-.58Z"/><path class="cls-1" d="M275,683.59a8.57,8.57,0,0,0-8.59-8.59h-7.82a8.57,8.57,0,0,0-8.59,8.59v7.82c0,.13,0,.32.05.58H250v8h25v-8H275c0-.26.05-.45.05-.58Z"/><path class="cls-1" d="M325,683H325v-8H300v8h.05c0,.26-.05.45-.05.58v7.82a8.57,8.57,0,0,0,8.59,8.59h7.82a8.57,8.57,0,0,0,8.59-8.59v-7.82C325,683.46,325,683.27,325,683Z"/><rect class="cls-1" x="350" y="675" width="25" height="25"/><path class="cls-1" d="M391.41,675H375v25h16.41a8.57,8.57,0,0,0,8.59-8.59v-7.82a8.57,8.57,0,0,0-8.59-8.59Z"/><path class="cls-1" d="M500,683.59V675H483.59a8.57,8.57,0,0,0-8.59,8.59v7.82a8.57,8.57,0,0,0,8.59,8.59H500Z"/><rect class="cls-1" x="500" y="675" width="25" height="25"/><path class="cls-1" d="M550,683.59a8.57,8.57,0,0,0-8.59-8.59H525v25h25Z"/><rect class="cls-1" x="625" y="675" width="25" height="25"/><path class="cls-1" d="M700,683.59a8.57,8.57,0,0,0-8.59-8.59h-7.82a8.57,8.57,0,0,0-8.59,8.59v7.82c0,.13,0,.32,0,.58h0v8h25v-8h0c0-.26,0-.45,0-.58Z"/><rect class="cls-1" x="725" y="675" width="25" height="25"/><path class="cls-1" d="M825,675H800v16.41a8.57,8.57,0,0,0,8.59,8.59H825Z"/><rect class="cls-1" x="825" y="675" width="25" height="25"/><rect class="cls-1" x="850" y="675" width="25" height="25"/><rect class="cls-1" x="875" y="675" width="25" height="25"/><path class="cls-1" d="M925,675H900v25h16.41a8.57,8.57,0,0,0,8.59-8.59Z"/><rect class="cls-1" x="975" y="675" width="25" height="25"/><rect class="cls-1" x="1000" y="675" width="25" height="25"/><path class="cls-1" d="M75,708.59V700H58.59A8.57,8.57,0,0,0,50,708.59V725H75Z"/><path class="cls-1" d="M100,708.59A8.57,8.57,0,0,0,91.41,700H75v25h25Z"/><rect class="cls-1" x="125" y="700" width="25" height="25"/><rect class="cls-1" x="150" y="700" width="25" height="25"/><path class="cls-1" d="M200,700H175v25h16.41a8.57,8.57,0,0,0,8.59-8.59Z"/><path class="cls-1" d="M250,708.59V700H233.59a8.57,8.57,0,0,0-8.59,8.59v7.82a8.57,8.57,0,0,0,8.59,8.59H250Z"/><rect class="cls-1" x="250" y="700" width="25" height="25"/><rect class="cls-1" x="350" y="700" width="25" height="25"/><path class="cls-1" d="M425,716.41a8.57,8.57,0,0,1-8.59,8.59h-7.82a8.57,8.57,0,0,1-8.59-8.59v-7.82a8.57,8.57,0,0,1,8.59-8.59h7.82a8.57,8.57,0,0,1,8.59,8.59Z"/><path class="cls-1" d="M475,708.59a8.57,8.57,0,0,0-8.59-8.59h-7.82a8.57,8.57,0,0,0-8.59,8.59v7.82c0,.13,0,.32.05.58H450v8h25v-8H475c0-.26.05-.45.05-.58Z"/><rect class="cls-1" x="525" y="700" width="25" height="25"/><path class="cls-1" d="M566.41,700H550v25h16.41a8.57,8.57,0,0,0,8.59-8.59v-7.82a8.57,8.57,0,0,0-8.59-8.59Z"/><rect class="cls-1" x="625" y="700" width="25" height="25"/><rect class="cls-1" x="650" y="700" width="25" height="25"/><rect class="cls-1" x="675" y="700" width="25" height="25"/><path class="cls-1" d="M750,708h0v-8H725v8h0c0,.26,0,.45,0,.58v7.82a8.57,8.57,0,0,0,8.59,8.59h7.82a8.57,8.57,0,0,0,8.59-8.59v-7.82C750,708.46,750,708.27,750,708Z"/><rect class="cls-1" x="825" y="700" width="25" height="25"/><path class="cls-1" d="M875,700H850v25h16.41a8.57,8.57,0,0,0,8.59-8.59Z"/><path class="cls-1" d="M1000,700H975v16.41a8.57,8.57,0,0,0,8.59,8.59H1000Z"/><rect class="cls-1" x="1000" y="700" width="25" height="25"/><path class="cls-1" d="M50,733.59V725H33.59A8.57,8.57,0,0,0,25,733.59v7.82A8.57,8.57,0,0,0,33.59,750H50Z"/><rect class="cls-1" x="50" y="725" width="25" height="25"/><rect class="cls-1" x="75" y="725" width="25" height="25"/><rect class="cls-1" x="100" y="725" width="25" height="25"/><rect class="cls-1" x="125" y="725" width="25" height="25"/><path class="cls-1" d="M275,725H250v16.41a8.57,8.57,0,0,0,8.59,8.59H275Z"/><rect class="cls-1" x="275" y="725" width="25" height="25"/><path class="cls-1" d="M325,733.59a8.57,8.57,0,0,0-8.59-8.59H300v25h25Z"/><path class="cls-1" d="M375,725H350v16.41a8.57,8.57,0,0,0,8.59,8.59H375Z"/><path class="cls-1" d="M391.41,725H375v25h16.41a8.57,8.57,0,0,0,8.59-8.59v-7.82a8.57,8.57,0,0,0-8.59-8.59Z"/><path class="cls-1" d="M475,725H450v16.41a8.57,8.57,0,0,0,8.59,8.59H475Z"/><path class="cls-1" d="M491.41,725H475v25h16.41a8.57,8.57,0,0,0,8.59-8.59v-7.82a8.57,8.57,0,0,0-8.59-8.59Z"/><path class="cls-1" d="M550,733h0v-8H525v8h0c0,.26,0,.45,0,.58v7.82a8.57,8.57,0,0,0,8.59,8.59h7.82a8.57,8.57,0,0,0,8.59-8.59v-7.82C550,733.46,550,733.27,550,733Z"/><path class="cls-1" d="M650,733h0v-8H625v8h0c0,.26,0,.45,0,.58v7.82a8.57,8.57,0,0,0,8.59,8.59h7.82a8.57,8.57,0,0,0,8.59-8.59v-7.82C650,733.46,650,733.27,650,733Z"/><rect class="cls-1" x="675" y="725" width="25" height="25"/><path class="cls-1" d="M725,733.59a8.57,8.57,0,0,0-8.59-8.59H700v25h25Z"/><path class="cls-1" d="M800,733.59V725H783.59a8.57,8.57,0,0,0-8.59,8.59v7.82a8.57,8.57,0,0,0,8.59,8.59H800Z"/><rect class="cls-1" x="800" y="725" width="25" height="25"/><path class="cls-1" d="M850,725H825v25h16.41a8.57,8.57,0,0,0,8.59-8.59Z"/><rect class="cls-1" x="1000" y="725" width="25" height="25"/><path class="cls-1" d="M25,766.41A8.57,8.57,0,0,1,16.41,775H8.59a8.32,8.32,0,0,1-6.08-2.51A8.32,8.32,0,0,1,0,766.41v-7.82a8.32,8.32,0,0,1,2.51-6.08A8.32,8.32,0,0,1,8.59,750h7.82A8.57,8.57,0,0,1,25,758.59Z"/><rect class="cls-1" x="75" y="750" width="25" height="25"/><rect class="cls-1" x="125" y="750" width="25" height="25"/><rect class="cls-1" x="150" y="750" width="25" height="25"/><rect class="cls-1" x="175" y="750" width="25" height="25"/><rect class="cls-1" x="200" y="750" width="25" height="25"/><path class="cls-1" d="M241.41,750H225v25h16.41a8.57,8.57,0,0,0,8.59-8.59v-7.82a8.57,8.57,0,0,0-8.59-8.59Z"/><rect class="cls-1" x="275" y="750" width="25" height="25"/><path class="cls-1" d="M325,750H300v25h16.41a8.57,8.57,0,0,0,8.59-8.59Z"/><path class="cls-1" d="M450,766.41a8.57,8.57,0,0,1-8.59,8.59h-7.82a8.57,8.57,0,0,1-8.59-8.59v-7.82a8.57,8.57,0,0,1,8.59-8.59h7.82a8.57,8.57,0,0,1,8.59,8.59Z"/><path class="cls-1" d="M575,758.59V750H558.59a8.57,8.57,0,0,0-8.59,8.59v7.82a8.57,8.57,0,0,0,8.59,8.59H575Z"/><rect class="cls-1" x="575" y="750" width="25" height="25"/><path class="cls-1" d="M625,758.59a8.57,8.57,0,0,0-8.59-8.59H600v25h25Z"/><path class="cls-1" d="M675,758.59V750H658.59a8.57,8.57,0,0,0-8.59,8.59V775h25Z"/><rect class="cls-1" x="675" y="750" width="25" height="25"/><path class="cls-1" d="M725,750H700v25h16.41a8.57,8.57,0,0,0,8.59-8.59Z"/><path class="cls-1" d="M775,758.59a8.57,8.57,0,0,0-8.59-8.59h-7.82a8.57,8.57,0,0,0-8.59,8.59v7.82c0,.13,0,.32,0,.58h0v8h25v-8h0c0-.26,0-.45,0-.58Z"/><path class="cls-1" d="M900,758.59V750H883.59a8.57,8.57,0,0,0-8.59,8.59v7.82a8.57,8.57,0,0,0,8.59,8.59H900Z"/><rect class="cls-1" x="900" y="750" width="25" height="25"/><path class="cls-1" d="M950,758.59a8.57,8.57,0,0,0-8.59-8.59H925v25h25Z"/><path class="cls-1" d="M1000,758.59V750H983.59a8.57,8.57,0,0,0-8.59,8.59V775h25Z"/><rect class="cls-1" x="1000" y="750" width="25" height="25"/><path class="cls-1" d="M75,783.59V775H58.59A8.57,8.57,0,0,0,50,783.59V800H75Z"/><rect class="cls-1" x="75" y="775" width="25" height="25"/><rect class="cls-1" x="100" y="775" width="25" height="25"/><path class="cls-1" d="M150,775H125v25h16.41a8.57,8.57,0,0,0,8.59-8.59Z"/><path class="cls-1" d="M200,783H200v-8H175v8h.05c0,.26-.05.45-.05.58v7.82a8.57,8.57,0,0,0,8.59,8.59h7.82a8.57,8.57,0,0,0,8.59-8.59v-7.82C200,783.46,200,783.27,200,783Z"/><path class="cls-1" d="M275,783.59V775H258.59a8.57,8.57,0,0,0-8.59,8.59V800h25Z"/><path class="cls-1" d="M300,775H275v25h16.41a8.57,8.57,0,0,0,8.59-8.59Z"/><path class="cls-1" d="M350,783.59V775H333.59a8.57,8.57,0,0,0-8.59,8.59V800h25Z"/><rect class="cls-1" x="350" y="775" width="25" height="25"/><path class="cls-1" d="M400,783.59a8.57,8.57,0,0,0-8.59-8.59H375v25h25Z"/><path class="cls-1" d="M500,783.59V775H483.59a8.57,8.57,0,0,0-8.59,8.59v7.82a8.57,8.57,0,0,0,8.59,8.59H500Z"/><rect class="cls-1" x="500" y="775" width="25" height="25"/><path class="cls-1" d="M550,783.59a8.57,8.57,0,0,0-8.59-8.59H525v25h25Z"/><rect class="cls-1" x="575" y="775" width="25" height="25"/><rect class="cls-1" x="600" y="775" width="25" height="25"/><rect class="cls-1" x="650" y="775" width="25" height="25"/><path class="cls-1" d="M750,783.59V775H733.59a8.57,8.57,0,0,0-8.59,8.59v7.82a8.57,8.57,0,0,0,8.59,8.59H750Z"/><path class="cls-1" d="M775,775H750v25h16.41a8.57,8.57,0,0,0,8.59-8.59Z"/><path class="cls-1" d="M850,783.59a8.57,8.57,0,0,0-8.59-8.59h-7.82a8.57,8.57,0,0,0-8.59,8.59v7.82c0,.13,0,.32,0,.58h0v8h25v-8h0c0-.26,0-.45,0-.58Z"/><rect class="cls-1" x="900" y="775" width="25" height="25"/><path class="cls-1" d="M950,775H925v25h16.41a8.57,8.57,0,0,0,8.59-8.59Z"/><path class="cls-1" d="M1000,775H975v16.41a8.57,8.57,0,0,0,8.59,8.59H1000Z"/><path class="cls-1" d="M1025,775h-25v25h16.41a8.57,8.57,0,0,0,8.59-8.59Z"/><path class="cls-1" d="M25,816.41A8.57,8.57,0,0,1,16.41,825H8.59a8.32,8.32,0,0,1-6.08-2.51A8.32,8.32,0,0,1,0,816.41v-7.82a8.32,8.32,0,0,1,2.51-6.08A8.32,8.32,0,0,1,8.59,800h7.82A8.57,8.57,0,0,1,25,808.59Z"/><path class="cls-1" d="M75,808h0v-8H50v8h0c0,.26,0,.45,0,.58v7.82A8.57,8.57,0,0,0,58.59,825h7.82A8.57,8.57,0,0,0,75,816.41v-7.82C75,808.46,75,808.27,75,808Z"/><path class="cls-1" d="M175,816.41a8.57,8.57,0,0,1-8.59,8.59h-7.82a8.57,8.57,0,0,1-8.59-8.59v-7.82a8.57,8.57,0,0,1,8.59-8.59h7.82a8.57,8.57,0,0,1,8.59,8.59Z"/><path class="cls-1" d="M250,808.59V800H233.59a8.57,8.57,0,0,0-8.59,8.59v7.82a8.57,8.57,0,0,0,8.59,8.59H250Z"/><rect class="cls-1" x="250" y="800" width="25" height="25"/><path class="cls-1" d="M350,808H350v-8H325v8h.05c0,.26-.05.45-.05.58v7.82a8.57,8.57,0,0,0,8.59,8.59h7.82a8.57,8.57,0,0,0,8.59-8.59v-7.82C350,808.46,350,808.27,350,808Z"/><rect class="cls-1" x="375" y="800" width="25" height="25"/><path class="cls-1" d="M425,808.59a8.57,8.57,0,0,0-8.59-8.59H400v25h25Z"/><rect class="cls-1" x="500" y="800" width="25" height="25"/><rect class="cls-1" x="525" y="800" width="25" height="25"/><rect class="cls-1" x="575" y="800" width="25" height="25"/><path class="cls-1" d="M625,800H600v25h16.41a8.57,8.57,0,0,0,8.59-8.59Z"/><rect class="cls-1" x="650" y="800" width="25" height="25"/><rect class="cls-1" x="675" y="800" width="25" height="25"/><path class="cls-1" d="M725,808.59a8.57,8.57,0,0,0-8.59-8.59H700v25h25Z"/><path class="cls-1" d="M825,808.59V800H808.59a8.57,8.57,0,0,0-8.59,8.59V825h25Z"/><rect class="cls-1" x="825" y="800" width="25" height="25"/><rect class="cls-1" x="850" y="800" width="25" height="25"/><rect class="cls-1" x="875" y="800" width="25" height="25"/><rect class="cls-1" x="900" y="800" width="25" height="25"/><path class="cls-1" d="M975,808.59a8.57,8.57,0,0,0-8.59-8.59h-7.82a8.57,8.57,0,0,0-8.59,8.59v7.82c0,.13,0,.32,0,.58h0v8h25v-8h0c0-.26,0-.45,0-.58Z"/><path class="cls-1" d="M225,841.41a8.57,8.57,0,0,1-8.59,8.59h-7.82a8.57,8.57,0,0,1-8.59-8.59v-7.82a8.57,8.57,0,0,1,8.59-8.59h7.82a8.57,8.57,0,0,1,8.59,8.59Z"/><path class="cls-1" d="M275,833H275v-8H250v8h.05c0,.26-.05.45-.05.58v7.82a8.57,8.57,0,0,0,8.59,8.59h7.82a8.57,8.57,0,0,0,8.59-8.59v-7.82C275,833.46,275,833.27,275,833Z"/><path class="cls-1" d="M375,833.59V825H358.59a8.57,8.57,0,0,0-8.59,8.59V850h25Z"/><rect class="cls-1" x="375" y="825" width="25" height="25"/><rect class="cls-1" x="400" y="825" width="25" height="25"/><path class="cls-1" d="M475,833.59a8.57,8.57,0,0,0-8.59-8.59h-7.82a8.57,8.57,0,0,0-8.59,8.59v7.82c0,.13,0,.32.05.58H450v8h25v-8H475c0-.26.05-.45.05-.58Z"/><rect class="cls-1" x="500" y="825" width="25" height="25"/><rect class="cls-1" x="525" y="825" width="25" height="25"/><rect class="cls-1" x="575" y="825" width="25" height="25"/><rect class="cls-1" x="650" y="825" width="25" height="25"/><path class="cls-1" d="M725,825H700v16.41a8.57,8.57,0,0,0,8.59,8.59H725Z"/><rect class="cls-1" x="725" y="825" width="25" height="25"/><rect class="cls-1" x="750" y="825" width="25" height="25"/><rect class="cls-1" x="775" y="825" width="25" height="25"/><rect class="cls-1" x="800" y="825" width="25" height="25"/><rect class="cls-1" x="900" y="825" width="25" height="25"/><path class="cls-1" d="M975,825H950v16.41a8.57,8.57,0,0,0,8.59,8.59H975Z"/><rect class="cls-1" x="975" y="825" width="25" height="25"/><path class="cls-1" d="M1016.41,825H1000v25h16.41a8.57,8.57,0,0,0,8.59-8.59v-7.82a8.57,8.57,0,0,0-8.59-8.59Z"/><path class="cls-1" d="M350,858.59V850H333.59a8.57,8.57,0,0,0-8.59,8.59v7.82a8.57,8.57,0,0,0,8.59,8.59H350Z"/><rect class="cls-1" x="350" y="850" width="25" height="25"/><rect class="cls-1" x="375" y="850" width="25" height="25"/><path class="cls-1" d="M425,850H400v25h16.41a8.57,8.57,0,0,0,8.59-8.59Z"/><path class="cls-1" d="M475,858H475v-8H450v8h.05c0,.26-.05.45-.05.58v7.82a8.57,8.57,0,0,0,8.59,8.59h7.82a8.57,8.57,0,0,0,8.59-8.59v-7.82C475,858.46,475,858.27,475,858Z"/><path class="cls-1" d="M525,850H500v16.41a8.57,8.57,0,0,0,8.59,8.59H525Z"/><rect class="cls-1" x="525" y="850" width="25" height="25"/><rect class="cls-1" x="550" y="850" width="25" height="25"/><rect class="cls-1" x="575" y="850" width="25" height="25"/><path class="cls-1" d="M675,858h0v-8H650v8h0c0,.26,0,.45,0,.58v7.82a8.57,8.57,0,0,0,8.59,8.59h7.82a8.57,8.57,0,0,0,8.59-8.59v-7.82C675,858.46,675,858.27,675,858Z"/><rect class="cls-1" x="750" y="850" width="25" height="25"/><rect class="cls-1" x="800" y="850" width="25" height="25"/><path class="cls-1" d="M875,866.41a8.57,8.57,0,0,1-8.59,8.59h-7.82a8.57,8.57,0,0,1-8.59-8.59v-7.82a8.57,8.57,0,0,1,8.59-8.59h7.82a8.57,8.57,0,0,1,8.59,8.59Z"/><rect class="cls-1" x="900" y="850" width="25" height="25"/><path class="cls-1" d="M275,883.59a8.57,8.57,0,0,0-8.59-8.59h-7.82a8.57,8.57,0,0,0-8.59,8.59v7.82c0,.13,0,.32.05.58H250v8h25v-8H275c0-.26.05-.45.05-.58Z"/><path class="cls-1" d="M375,875H350v16.41a8.57,8.57,0,0,0,8.59,8.59H375Z"/><path class="cls-1" d="M400,875H375v25h16.41a8.57,8.57,0,0,0,8.59-8.59Z"/><path class="cls-1" d="M550,883h0v-8H525v8h0c0,.26,0,.45,0,.58v7.82a8.57,8.57,0,0,0,8.59,8.59h7.82a8.57,8.57,0,0,0,8.59-8.59v-7.82C550,883.46,550,883.27,550,883Z"/><path class="cls-1" d="M600,883h0v-8H575v8h0c0,.26,0,.45,0,.58v7.82a8.57,8.57,0,0,0,8.59,8.59h7.82a8.57,8.57,0,0,0,8.59-8.59v-7.82C600,883.46,600,883.27,600,883Z"/><path class="cls-1" d="M700,883.59V875H683.59a8.57,8.57,0,0,0-8.59,8.59v7.82a8.57,8.57,0,0,0,8.59,8.59H700Z"/><path class="cls-1" d="M725,883.59a8.57,8.57,0,0,0-8.59-8.59H700v25h25Z"/><rect class="cls-1" x="750" y="875" width="25" height="25"/><rect class="cls-1" x="800" y="875" width="25" height="25"/><rect class="cls-1" x="900" y="875" width="25" height="25"/><path class="cls-1" d="M975,883.59V875H958.59a8.57,8.57,0,0,0-8.59,8.59v7.82a8.57,8.57,0,0,0,8.59,8.59H975Z"/><rect class="cls-1" x="975" y="875" width="25" height="25"/><path class="cls-1" d="M1025,883.59a8.57,8.57,0,0,0-8.59-8.59H1000v25h25Z"/><path class="cls-1" d="M275,908H275v-8H250v8h.05c0,.26-.05.45-.05.58v7.82a8.57,8.57,0,0,0,8.59,8.59h7.82a8.57,8.57,0,0,0,8.59-8.59v-7.82C275,908.46,275,908.27,275,908Z"/><path class="cls-1" d="M350,908.59a8.57,8.57,0,0,0-8.59-8.59h-7.82a8.57,8.57,0,0,0-8.59,8.59v7.82c0,.13,0,.32.05.58H325v8h25v-8H350c0-.26.05-.45.05-.58Z"/><path class="cls-1" d="M450,908.59a8.57,8.57,0,0,0-8.59-8.59h-7.82a8.57,8.57,0,0,0-8.59,8.59v7.82c0,.13,0,.32.05.58H425v8h25v-8H450c0-.26.05-.45.05-.58Z"/><path class="cls-1" d="M500,908.59V900H483.59a8.57,8.57,0,0,0-8.59,8.59V925h25Z"/><path class="cls-1" d="M525,908.59a8.57,8.57,0,0,0-8.59-8.59H500v25h25Z"/><path class="cls-1" d="M650,916.41a8.57,8.57,0,0,1-8.59,8.59h-7.82a8.57,8.57,0,0,1-8.59-8.59v-7.82a8.57,8.57,0,0,1,8.59-8.59h7.82a8.57,8.57,0,0,1,8.59,8.59Z"/><path class="cls-1" d="M725,908h0v-8H700v8h0c0,.26,0,.45,0,.58v7.82a8.57,8.57,0,0,0,8.59,8.59h7.82a8.57,8.57,0,0,0,8.59-8.59v-7.82C725,908.46,725,908.27,725,908Z"/><rect class="cls-1" x="750" y="900" width="25" height="25"/><path class="cls-1" d="M825,900H800v16.41a8.57,8.57,0,0,0,8.59,8.59H825Z"/><rect class="cls-1" x="825" y="900" width="25" height="25"/><rect class="cls-1" x="850" y="900" width="25" height="25"/><rect class="cls-1" x="875" y="900" width="25" height="25"/><rect class="cls-1" x="900" y="900" width="25" height="25"/><path class="cls-1" d="M1025,908h0v-8h-25v8h0c0,.26,0,.45,0,.58v7.82a8.57,8.57,0,0,0,8.59,8.59h7.82a8.57,8.57,0,0,0,8.59-8.59v-7.82C1025,908.46,1025,908.27,1025,908Z"/><path class="cls-1" d="M225,933.59V925H208.59a8.57,8.57,0,0,0-8.59,8.59v7.82a8.57,8.57,0,0,0,8.59,8.59H225Z"/><path class="cls-1" d="M241.41,925H225v25h16.41a8.57,8.57,0,0,0,8.59-8.59v-7.82a8.57,8.57,0,0,0-8.59-8.59Z"/><path class="cls-1" d="M325,933.59V925H308.59a8.57,8.57,0,0,0-8.59,8.59V950h25Z"/><rect class="cls-1" x="325" y="925" width="25" height="25"/><rect class="cls-1" x="350" y="925" width="25" height="25"/><path class="cls-1" d="M400,933.59a8.57,8.57,0,0,0-8.59-8.59H375v25h25Z"/><rect class="cls-1" x="425" y="925" width="25" height="25"/><path class="cls-1" d="M500,925H475v16.41a8.57,8.57,0,0,0,8.59,8.59H500Z"/><rect class="cls-1" x="500" y="925" width="25" height="25"/><path class="cls-1" d="M625,933.59a8.57,8.57,0,0,0-8.59-8.59h-7.82a8.57,8.57,0,0,0-8.59,8.59v7.82c0,.13,0,.32,0,.58h0v8h25v-8h0c0-.26,0-.45,0-.58Z"/><path class="cls-1" d="M675,933.59a8.57,8.57,0,0,0-8.59-8.59h-7.82a8.57,8.57,0,0,0-8.59,8.59v7.82c0,.13,0,.32,0,.58h0v8h25v-8h0c0-.26,0-.45,0-.58Z"/><path class="cls-1" d="M750,933.59V925H733.59a8.57,8.57,0,0,0-8.59,8.59V950h25Z"/><path class="cls-1" d="M775,925H750v25h16.41a8.57,8.57,0,0,0,8.59-8.59Z"/><path class="cls-1" d="M850,925H825v16.41a8.57,8.57,0,0,0,8.59,8.59H850Z"/><path class="cls-1" d="M875,925H850v25h16.41a8.57,8.57,0,0,0,8.59-8.59Z"/><rect class="cls-1" x="900" y="925" width="25" height="25"/><rect class="cls-1" x="925" y="925" width="25" height="25"/><path class="cls-1" d="M975,933.59a8.57,8.57,0,0,0-8.59-8.59H950v25h25Z"/><path class="cls-1" d="M300,958.59V950H283.59a8.57,8.57,0,0,0-8.59,8.59v7.82a8.57,8.57,0,0,0,8.59,8.59H300Z"/><rect class="cls-1" x="300" y="950" width="25" height="25"/><path class="cls-1" d="M350,950H325v25h16.41a8.57,8.57,0,0,0,8.59-8.59Z"/><path class="cls-1" d="M400,958H400v-8H375v8h.05c0,.26-.05.45-.05.58v7.82a8.57,8.57,0,0,0,8.59,8.59h7.82a8.57,8.57,0,0,0,8.59-8.59v-7.82C400,958.46,400,958.27,400,958Z"/><rect class="cls-1" x="425" y="950" width="25" height="25"/><rect class="cls-1" x="500" y="950" width="25" height="25"/><path class="cls-1" d="M550,958.59a8.57,8.57,0,0,0-8.59-8.59H525v25h25Z"/><path class="cls-1" d="M625,958h0v-8H600v8h0c0,.26,0,.45,0,.58v7.82a8.57,8.57,0,0,0,8.59,8.59h7.82a8.57,8.57,0,0,0,8.59-8.59v-7.82C625,958.46,625,958.27,625,958Z"/><path class="cls-1" d="M675,958h0v-8H650v8h0c0,.26,0,.45,0,.58v7.82a8.57,8.57,0,0,0,8.59,8.59h7.82a8.57,8.57,0,0,0,8.59-8.59v-7.82C675,958.46,675,958.27,675,958Z"/><rect class="cls-1" x="725" y="950" width="25" height="25"/><path class="cls-1" d="M800,966.41a8.57,8.57,0,0,1-8.59,8.59h-7.82a8.57,8.57,0,0,1-8.59-8.59v-7.82a8.57,8.57,0,0,1,8.59-8.59h7.82a8.57,8.57,0,0,1,8.59,8.59Z"/><path class="cls-1" d="M925,958h0v-8H900v8h0c0,.26,0,.45,0,.58v7.82a8.57,8.57,0,0,0,8.59,8.59h7.82a8.57,8.57,0,0,0,8.59-8.59v-7.82C925,958.46,925,958.27,925,958Z"/><path class="cls-1" d="M975,958h0v-8H950v8h0c0,.26,0,.45,0,.58v7.82a8.57,8.57,0,0,0,8.59,8.59h7.82a8.57,8.57,0,0,0,8.59-8.59v-7.82C975,958.46,975,958.27,975,958Z"/><path class="cls-1" d="M1025,966.41a8.57,8.57,0,0,1-8.59,8.59h-7.82a8.57,8.57,0,0,1-8.59-8.59v-7.82a8.57,8.57,0,0,1,8.59-8.59h7.82a8.57,8.57,0,0,1,8.59,8.59Z"/><path class="cls-1" d="M275,983.59a8.57,8.57,0,0,0-8.59-8.59h-7.82a8.57,8.57,0,0,0-8.59,8.59v7.82c0,.13,0,.32.05.58H250v8h25v-8H275c0-.26.05-.45.05-.58Z"/><path class="cls-1" d="M325,983H325v-8H300v8h.05c0,.26-.05.45-.05.58v7.82a8.57,8.57,0,0,0,8.59,8.59h7.82a8.57,8.57,0,0,0,8.59-8.59v-7.82C325,983.46,325,983.27,325,983Z"/><path class="cls-1" d="M375,983.59a8.57,8.57,0,0,0-8.59-8.59h-7.82a8.57,8.57,0,0,0-8.59,8.59v7.82c0,.13,0,.32.05.58H350v8h25v-8H375c0-.26.05-.45.05-.58Z"/><path class="cls-1" d="M425,983.59V975H408.59a8.57,8.57,0,0,0-8.59,8.59v7.82a8.57,8.57,0,0,0,8.59,8.59H425Z"/><path class="cls-1" d="M450,975H425v25h16.41a8.57,8.57,0,0,0,8.59-8.59Z"/><path class="cls-1" d="M500,983.59V975H483.59a8.57,8.57,0,0,0-8.59,8.59v7.82a8.57,8.57,0,0,0,8.59,8.59H500Z"/><rect class="cls-1" x="500" y="975" width="25" height="25"/><path class="cls-1" d="M550,975H525v25h16.41a8.57,8.57,0,0,0,8.59-8.59Z"/><path class="cls-1" d="M600,991.41a8.57,8.57,0,0,1-8.59,8.59h-7.82a8.57,8.57,0,0,1-8.59-8.59v-7.82a8.57,8.57,0,0,1,8.59-8.59h7.82a8.57,8.57,0,0,1,8.59,8.59Z"/><path class="cls-1" d="M700,983.59V975H683.59a8.57,8.57,0,0,0-8.59,8.59v7.82a8.57,8.57,0,0,0,8.59,8.59H700Z"/><rect class="cls-1" x="700" y="975" width="25" height="25"/><rect class="cls-1" x="725" y="975" width="25" height="25"/><path class="cls-1" d="M825,983.59V975H808.59a8.57,8.57,0,0,0-8.59,8.59V1000h25Z"/><path class="cls-1" d="M841.41,975H825v25h16.41a8.57,8.57,0,0,0,8.59-8.59v-7.82a8.57,8.57,0,0,0-8.59-8.59Z"/><path class="cls-1" d="M900,983.59a8.57,8.57,0,0,0-8.59-8.59h-7.82a8.57,8.57,0,0,0-8.59,8.59v7.82c0,.13,0,.32,0,.58h0v8h25v-8h0c0-.26,0-.45,0-.58Z"/><path class="cls-1" d="M1000,983.59a8.57,8.57,0,0,0-8.59-8.59h-7.82a8.57,8.57,0,0,0-8.59,8.59v7.82c0,.13,0,.32,0,.58h0v8h25v-8h0c0-.26,0-.45,0-.58Z"/><path class="cls-1" d="M275,1000H250v16.41a8.57,8.57,0,0,0,8.59,8.59H275Z"/><path class="cls-1" d="M291.41,1000H275v25h16.41a8.57,8.57,0,0,0,8.59-8.59v-7.82a8.57,8.57,0,0,0-8.59-8.59Z"/><path class="cls-1" d="M375,1000H350v16.41a8.57,8.57,0,0,0,8.59,8.59H375Z"/><path class="cls-1" d="M391.41,1000H375v25h16.41a8.57,8.57,0,0,0,8.59-8.59v-7.82a8.57,8.57,0,0,0-8.59-8.59Z"/><path class="cls-1" d="M575,1016.41a8.57,8.57,0,0,1-8.59,8.59h-7.82a8.57,8.57,0,0,1-8.59-8.59v-7.82a8.57,8.57,0,0,1,8.59-8.59h7.82a8.57,8.57,0,0,1,8.59,8.59Z"/><path class="cls-1" d="M750,1008h0v-8H725v8h0c0,.26,0,.45,0,.58v7.82a8.57,8.57,0,0,0,8.59,8.59h7.82a8.57,8.57,0,0,0,8.59-8.59v-7.82C750,1008.46,750,1008.27,750,1008Z"/><path class="cls-1" d="M825,1008h0v-8H800v8h0c0,.26,0,.45,0,.58v7.82a8.57,8.57,0,0,0,8.59,8.59h7.82a8.57,8.57,0,0,0,8.59-8.59v-7.82C825,1008.46,825,1008.27,825,1008Z"/><path class="cls-1" d="M900,1000H875v16.41a8.57,8.57,0,0,0,8.59,8.59H900Z"/><rect class="cls-1" x="900" y="1000" width="25" height="25"/><path class="cls-1" d="M941.41,1000H925v25h16.41a8.57,8.57,0,0,0,8.59-8.59v-7.82a8.57,8.57,0,0,0-8.59-8.59Z"/><path class="cls-1" d="M1000,1008h0v-8H975v8h0c0,.26,0,.45,0,.58v7.82a8.57,8.57,0,0,0,8.59,8.59h7.82a8.57,8.57,0,0,0,8.59-8.59v-7.82C1000,1008.46,1000,1008.27,1000,1008Z"/><path class="cls-1" d="M87.5,1.72A85.78,85.78,0,1,0,173.28,87.5,85.77,85.77,0,0,0,87.5,1.72Zm0,145.83A60.05,60.05,0,1,1,147.55,87.5,60.12,60.12,0,0,1,87.5,147.55Z"/><path class="cls-1" d="M937.5,1.72a85.78,85.78,0,1,0,85.78,85.78A85.77,85.77,0,0,0,937.5,1.72Zm0,145.83a60.05,60.05,0,1,1,60-60.05A60.12,60.12,0,0,1,937.5,147.55Z"/><path class="cls-1" d="M87.5,851.72a85.78,85.78,0,1,0,85.78,85.78A85.77,85.77,0,0,0,87.5,851.72Zm0,145.83a60,60,0,1,1,60.05-60A60.12,60.12,0,0,1,87.5,997.55Z"/><circle class="cls-1" cx="86.76" cy="86.76" r="36.76"/><circle class="cls-1" cx="936.76" cy="86.76" r="36.76"/><circle class="cls-1" cx="86.76" cy="936.76" r="36.76"/><path class="cls-1" d="M660.4,569a23,23,0,0,1-.59-5.45c-.2-11.27-.3-22.54-.52-33.81-.2-10.47-5.56-17.92-15.54-20.82a49.38,49.38,0,0,0-30.41.62c-4.1,1.41-7.6,3.75-9.73,7.71a9.26,9.26,0,0,0,.75,10.54c3.4,3.91,7.81,4,12.35,2.85,3.36-.83,5.19-3.59,5.62-7.78.25-2.38.53-4.76.93-7.11.59-3.45,2.6-5.17,5.84-5.22,2.86,0,4.76,1.58,5.18,5.18.47,4,.28,8.13.68,12.17.71,7.12-15.74,8.86-20.38,10.51-5.86,2.09-11.29,5-14.93,10.32-6.18,9.09-3.83,21.25,5.14,25.77,10.22,5.15,25.58,3.2,31.77-9.38,2,4.68,5,7.91,9.75,9.2a38.92,38.92,0,0,0,7.28,1.26c2.77.23,11.88,1.33,8.82-3.45C661.74,571,660.7,570.1,660.4,569Zm-25.65-12.12c-.15,3.65-3.71,6.47-7.24,6.29s-6-2.76-6.26-6.6a12.45,12.45,0,0,1,2.35-8.34c2.82-4,6.65-6.79,11.21-9.43C634.81,545.06,635,551,634.75,556.85Z"/><path class="cls-1" d="M577.34,509.77a33,33,0,0,0-26.15-.71c-13.54,5.17-20.55,15.53-21.58,29.75-.89,12.24,2.88,22.91,12.74,30.76,8.72,6.94,18.8,8.75,29.61,6.73a29.12,29.12,0,0,0,18.18-11.12,1.71,1.71,0,0,0,.21-.35,2.36,2.36,0,0,0-2-3.26,2.62,2.62,0,0,0-.56,0c-1.65.16-3.26.71-4.91,1-10.74,2-20.09-1.76-25-11.4a43.77,43.77,0,0,1-5-13.21h35.7c3.39,0,3.94-.51,3.89-3.93C592.37,522.92,587.56,514.45,577.34,509.77ZM570.87,528c-.16,2.16-1.27,3.72-3.56,3.77-4.61.1-9.22,0-14.18,0-.13-6.09.63-11.95,3.84-17.21,3.42-5.61,8.55-5.37,11.55.43A24,24,0,0,1,570.87,528Z"/><path class="cls-1" d="M525.34,567c-2.54-.14-5.75,1.86-6.68-2.79a14.43,14.43,0,0,1-.16-2.87q0-22.3,0-44.61c0-.76.07-1.52.12-2.4,2.2,0,4.11,0,6,0,2.11.05,2.5-1.26,2.53-3s-.55-2.93-2.61-2.85-3.94,0-6.08,0c0-4.43.1-8.5-.07-12.56-.13-3.31-2.82-2.55-4.85-1.48l-20.68,12.24c-2.58,1.78-3.3,2.72-3.37,4.74-.1,2.86,1.69,3,4.09,2.88v3.14c0,14.23,0,28.46,0,42.69,0,9,3.73,14.25,11.6,16.17,5.12,1.25,10.42,1.39,15.3-.73,1.87-.81,9.07-5.06,6.86-7.69A2.65,2.65,0,0,0,525.34,567Z"/><path class="cls-1" d="M682.85,548.45a14.33,14.33,0,0,0,0,28.65,14.33,14.33,0,1,0,0-28.65Z"/><path class="cls-1" d="M449.23,528l-19.09-13.33a5.34,5.34,0,1,0-6.11,8.75l19.26,13.45a4.78,4.78,0,0,0,.42.26.17.17,0,0,1,.1.18.16.16,0,0,1-.1.17l-.42.26L424,551.15a5.34,5.34,0,0,0,6.11,8.75l19.09-13.33a10.88,10.88,0,0,0,0-18.62Z"/><path class="cls-1" d="M399.85,526.17a4.57,4.57,0,0,0,.94-6.4c-3.07-4.13-12.18-10.08-24.64-3a30.54,30.54,0,0,0-4.39,3.09c-3.92,3.29-9.82,5.89-15.63-.42a4.57,4.57,0,0,0-6.73,6.19c4.53,4.93,9.46,6.85,14.18,6.85,5.22,0,10.18-2.35,14.06-5.61a19.91,19.91,0,0,1,3-2.13c8.08-4.58,12.09-.35,12.83.58A4.57,4.57,0,0,0,399.85,526.17Z"/><path class="cls-1" d="M408.75,508.42a5.33,5.33,0,0,0-3.59,6.63c.09.3,8.61,30.05-9,50.34a5.33,5.33,0,1,0,8.05,7c21.56-24.78,11.64-59,11.21-60.4A5.33,5.33,0,0,0,408.75,508.42Z"/><path class="cls-1" d="M345.32,515.05A5.34,5.34,0,0,0,335.09,512c-.43,1.44-10.35,35.62,11.21,60.4a5.33,5.33,0,1,0,8.05-7C336.71,545.1,345.23,515.35,345.32,515.05Z"/><path class="cls-1" d="M385.2,564.89H364.77a5.34,5.34,0,1,0,0,10.68H385.2a5.34,5.34,0,0,0,0-10.68Z"/><path class="cls-1" d="M375.51,505a3.82,3.82,0,0,0,5.32-.88c13.11-18.28.59-37.08.05-37.87a3.81,3.81,0,0,0-6.3,4.28c.41.62,10,15.25.06,29.15A3.81,3.81,0,0,0,375.51,505Z"/><path class="cls-1" d="M367.7,486.6a3.8,3.8,0,0,0,3.16-5.94c-.41-.62-10-15.25-.06-29.15a3.81,3.81,0,1,0-6.19-4.44c-13.11,18.28-.6,37.08-.06,37.87A3.8,3.8,0,0,0,367.7,486.6Z"/></g></g></svg>