<svg width="460" height="478" viewBox="0 0 460 478" fill="none" xmlns="http://www.w3.org/2000/svg">
<g opacity="0.6" clip-path="url(#clip0_150_158)">
<path d="M367.022 251.975C396.857 251.975 421.042 246.526 421.042 239.805C421.042 233.083 396.857 227.634 367.022 227.634C337.188 227.634 313.003 233.083 313.003 239.805C313.003 246.526 337.188 251.975 367.022 251.975Z" stroke="white" stroke-width="3" stroke-miterlimit="10"/>
<path d="M413.059 231.78C413.059 236.882 392.462 240.974 367.022 240.974C341.583 240.974 320.986 236.829 320.986 231.78" stroke="white" stroke-width="3" stroke-miterlimit="10"/>
<path d="M321.039 231.78C321.039 226.678 341.636 222.586 367.076 222.586C392.515 222.586 413.112 226.731 413.112 231.78" stroke="white" stroke-width="2" stroke-miterlimit="10"/>
<path d="M320.72 66.2312C330.353 62.7768 347.49 60.4384 366.969 60.4384C387.193 60.4384 404.81 62.9362 414.23 66.6032" stroke="white" stroke-miterlimit="10" stroke-dasharray="3 3"/>
<path d="M414.23 66.6564C418.86 68.4633 421.521 70.5892 421.521 72.8213C421.521 79.6239 397.092 85.151 366.969 85.151C336.846 85.151 312.417 79.5708 312.417 72.7681C312.417 70.3766 315.451 68.1445 320.773 66.2312" stroke="white" stroke-width="3" stroke-miterlimit="10"/>
<path d="M414.549 71.3863C414.549 76.01 393.527 79.7833 367.555 79.7833C341.583 79.7833 320.56 76.01 320.56 71.3863" stroke="white" stroke-width="3" stroke-miterlimit="10"/>
<path d="M320.507 71.3863C320.507 66.7627 341.529 62.9893 367.501 62.9893C393.473 62.9893 414.496 66.7627 414.496 71.3863" stroke="white" stroke-miterlimit="10" stroke-dasharray="3 3"/>
<path d="M367.555 91.1565C391.304 91.1565 410.557 87.516 410.557 83.0252C410.557 78.5344 391.304 74.894 367.555 74.894C343.805 74.894 324.552 78.5344 324.552 83.0252C324.552 87.516 343.805 91.1565 367.555 91.1565Z" stroke="white" stroke-width="2" stroke-miterlimit="10" stroke-dasharray="3 3"/>
<path d="M421.042 239.114C424.022 240.868 425.619 242.781 425.619 244.8C425.619 252.879 399.381 259.415 367.076 259.415C334.77 259.415 308.532 252.879 308.532 244.8C308.532 243.047 309.756 241.346 312.045 239.805" stroke="white" stroke-width="2" stroke-miterlimit="10" stroke-dasharray="3 3"/>
<path d="M367.555 233.64C391.304 233.64 410.557 229.999 410.557 225.509C410.557 221.018 391.304 217.377 367.555 217.377C343.805 217.377 324.552 221.018 324.552 225.509C324.552 229.999 343.805 233.64 367.555 233.64Z" stroke="white" stroke-width="2" stroke-miterlimit="10" stroke-dasharray="3 3"/>
<path d="M312.417 72.6618V192.505C312.417 199.892 311.672 207.28 310.022 214.454C308.639 220.566 308 230.026 313.056 240.496" stroke="white" stroke-width="3" stroke-miterlimit="10"/>
<path d="M414.283 70.6954V186.553C414.283 193.674 415.028 200.849 416.678 207.811C418.062 213.71 418.7 222.851 413.644 233.002" stroke="white" stroke-width="3" stroke-miterlimit="10"/>
<path d="M320.401 70.6954V186.553C320.401 193.674 319.655 200.849 318.006 207.811C316.622 213.71 315.983 222.851 321.039 233.002" stroke="white" stroke-width="3" stroke-miterlimit="10"/>
<path d="M331.151 229.973C326.84 221.363 327.373 213.604 328.597 208.608C329.98 202.709 330.619 196.65 330.619 190.539V95.9928C330.619 93.9732 332.429 92.432 334.451 92.804C336.261 93.1229 338.496 93.4949 340.625 93.7606C342.754 94.0264 344.297 95.8333 344.297 97.9591V192.558C344.297 198.617 343.658 204.675 342.275 210.628C341.104 215.623 340.571 223.436 344.829 231.992" fill="url(#paint0_linear_150_158)"/>
<path d="M324.499 83.3972V187.191C324.499 193.568 323.86 199.999 322.37 206.217C321.092 211.478 320.56 219.716 325.084 228.75" stroke="white" stroke-width="2" stroke-miterlimit="10" stroke-dasharray="3 3"/>
<path d="M410.611 83.3972V187.191C410.611 193.568 411.249 199.999 412.739 206.217C414.017 211.478 414.549 219.716 410.025 228.75" stroke="white" stroke-width="2" stroke-miterlimit="10" stroke-dasharray="3 3"/>
<path d="M421.734 72.6618V192.505C421.734 199.892 422.479 207.28 424.129 214.454C425.513 220.566 426.151 230.026 421.095 240.496" stroke="white" stroke-width="3" stroke-miterlimit="10"/>
<path d="M382.137 155.622C383.042 156.472 383.894 157.323 384.585 158.067" stroke="white" stroke-width="3" stroke-miterlimit="10"/>
<path d="M386.395 159.821C386.714 160.086 386.98 160.299 387.193 160.458C389.056 161.681 395.975 168.536 396.294 179.644C396.613 190.751 389.695 198.245 380.434 201.54C371.174 204.835 360.689 206.642 357.762 204.941C354.835 203.241 354.782 200.69 352.972 199.467C351.162 198.245 348.129 197.023 347.064 193.993C346 190.964 345.042 188.838 343.765 188.094C342.487 187.35 340.199 185.49 340.146 182.673C340.146 182.673 340.146 173.213 342.807 166.304C345.468 159.395 350.63 154.506 355.952 151.796C361.275 149.085 368.672 147.385 374.846 150.361C375.165 150.52 375.431 150.68 375.751 150.839" stroke="white" stroke-width="3" stroke-miterlimit="10"/>
<path d="M376.762 158.598C376.762 158.545 376.762 158.545 376.762 158.492C376.868 158.067 377.241 157.376 378.199 157.907C378.199 157.907 378.305 157.96 378.305 158.014C378.625 158.864 378.997 159.661 379.37 160.458C379.796 161.309 380.275 162.159 380.86 162.85L381.073 163.116C381.126 163.169 381.233 163.275 381.286 163.328C381.339 163.381 381.445 163.434 381.499 163.488C381.605 163.541 381.605 163.594 381.765 163.647C382.191 163.86 382.616 164.072 383.095 164.285L384.479 164.923C384.479 164.923 385.064 165.241 385.81 165.667C386.555 166.145 387.459 166.783 388.151 167.42C388.737 167.952 389.003 168.377 389.109 168.643C389.216 168.908 389.216 169.015 389.109 169.015C388.896 169.015 388.311 168.536 387.566 168.111C387.619 168.164 386.714 167.633 385.703 167.155C384.692 166.676 383.628 166.304 383.628 166.304L382.457 165.773C381.978 165.56 381.499 165.348 381.073 165.082C380.541 164.763 380.008 164.338 379.689 163.913C378.944 163.062 378.412 162.106 377.933 161.202C377.454 160.352 377.081 159.502 376.762 158.598Z" fill="white"/>
<path d="M380.168 163.488C380.168 163.488 386.768 155.303 389.482 153.709C389.482 153.709 390.599 153.496 391.345 154.825C392.09 156.154 386.182 158.705 381.339 164.338" stroke="white" stroke-width="3" stroke-miterlimit="10"/>
<path d="M380.807 160.139C380.807 160.139 383.787 155.037 382.457 149.298C381.126 143.558 378.997 138.934 375.91 135.852C372.824 132.769 368.087 131.441 368.087 131.441C368.087 131.441 372.345 139.891 373.249 143.133C374.207 146.375 377.401 156.419 380.807 160.139Z" stroke="white" stroke-width="3" stroke-miterlimit="10"/>
<path d="M380.807 160.139C380.807 160.139 381.552 141.751 368.087 131.441" stroke="white" stroke-miterlimit="10"/>
<path d="M380.328 186.872C379.636 186.021 378.305 187.137 379.05 187.988C379.742 188.785 381.02 187.722 380.328 186.872Z" fill="white"/>
<path d="M383.095 187.35C382.563 186.712 381.605 187.563 382.137 188.2C382.616 188.785 383.627 187.988 383.095 187.35Z" fill="white"/>
<path d="M381.445 189.37C381.073 188.944 380.434 189.529 380.807 189.901C381.179 190.326 381.818 189.795 381.445 189.37Z" fill="white"/>
<path d="M379.317 189.901C378.944 189.476 378.305 190.06 378.678 190.432C378.997 190.858 379.636 190.326 379.317 189.901Z" fill="white"/>
<path d="M382.936 190.326C382.563 189.901 381.924 190.486 382.297 190.858C382.616 191.283 383.255 190.751 382.936 190.326Z" fill="white"/>
<path d="M349.3 171.459C348.927 171.034 348.289 171.619 348.661 171.991C348.98 172.416 349.619 171.885 349.3 171.459Z" fill="white"/>
<path d="M347.756 172.735C347.384 172.31 346.745 172.894 347.118 173.266C347.49 173.692 348.129 173.16 347.756 172.735Z" fill="white"/>
<path d="M349.14 173.32C348.768 172.894 348.129 173.479 348.501 173.851C348.821 174.276 349.513 173.745 349.14 173.32Z" fill="white"/>
<path d="M346.532 174.914C346.16 174.489 345.521 175.073 345.894 175.445C346.266 175.871 346.905 175.286 346.532 174.914Z" fill="white"/>
<path d="M391.93 174.754C391.557 174.329 390.919 174.914 391.291 175.286C391.611 175.764 392.249 175.18 391.93 174.754Z" fill="white"/>
<path d="M393.314 176.189C392.941 175.764 392.303 176.349 392.675 176.721C393.048 177.146 393.686 176.615 393.314 176.189Z" fill="white"/>
<path d="M390.227 176.88C389.854 176.455 389.216 177.04 389.588 177.412C389.908 177.837 390.599 177.305 390.227 176.88Z" fill="white"/>
<path d="M391.93 177.359C391.557 176.933 390.919 177.518 391.291 177.89C391.664 178.315 392.303 177.784 391.93 177.359Z" fill="white"/>
<path d="M391.345 178.953C390.972 178.528 390.333 179.112 390.706 179.484C391.078 179.91 391.717 179.378 391.345 178.953Z" fill="white"/>
<path d="M392.569 180.122C392.196 179.697 391.557 180.282 391.93 180.654C392.249 181.079 392.888 180.547 392.569 180.122Z" fill="white"/>
<path d="M359.199 201.221C358.826 200.796 358.188 201.38 358.56 201.752C358.933 202.178 359.571 201.646 359.199 201.221Z" fill="white"/>
<path d="M361.594 202.709C361.221 202.284 360.583 202.869 360.955 203.241C361.328 203.719 361.966 203.134 361.594 202.709Z" fill="white"/>
<path d="M362.658 202.39C362.286 201.965 361.647 202.55 362.02 202.922C362.392 203.347 363.031 202.762 362.658 202.39Z" fill="white"/>
<path d="M366.597 201.221C366.224 200.796 365.585 201.38 365.958 201.752C366.277 202.178 366.916 201.646 366.597 201.221Z" fill="white"/>
<path d="M361.168 200.955C360.796 200.53 360.157 201.115 360.529 201.487C360.849 201.912 361.487 201.327 361.168 200.955Z" fill="white"/>
<path d="M364.521 201.327C364.148 200.902 363.51 201.487 363.882 201.859C364.202 202.284 364.84 201.752 364.521 201.327Z" fill="white"/>
<path d="M320.454 71.3332C320.294 70.6954 320.241 70.0577 320.188 69.42C320.134 68.1445 320.347 66.9753 320.826 65.8592C319.922 64.3711 319.389 62.6173 319.283 60.7572C319.176 58.472 320.028 56.3993 321.412 54.6986C321.252 54.0077 321.146 53.3168 321.092 52.5728C320.88 48.268 324.126 44.4415 328.118 43.2192C328.011 42.6877 327.958 42.2094 327.905 41.678C327.692 36.3634 332.588 31.846 337.751 31.846C338.496 31.846 339.241 31.9523 339.986 32.1118C341.689 29.0293 345.148 26.8503 348.714 26.8503C351.003 26.8503 353.025 27.6475 354.675 28.923C356.378 27.6475 358.454 26.8503 360.583 26.8503C363.031 26.8503 365.16 27.7007 366.81 29.1356C368.459 27.9664 370.429 27.2755 372.451 27.2755C375.538 27.2755 378.199 28.7104 379.955 30.8894C381.179 30.358 382.51 30.0391 383.84 30.0391C386.342 30.0391 388.524 30.9426 390.227 32.4838C391.983 30.9957 394.272 30.0391 396.613 30.0391C402.148 30.0391 406.193 34.5565 406.459 39.871C406.513 40.9339 406.353 41.9968 405.98 42.9535C409.493 44.3352 411.941 47.6834 412.314 51.6162C415.028 53.37 416.784 56.4524 416.944 59.9069C417.05 62.4047 416.039 64.69 414.389 66.4438C414.549 67.1347 414.655 67.8256 414.709 68.5165C414.709 68.5165 415.613 71.5458 413.591 72.8213" stroke="white" stroke-width="3" stroke-miterlimit="10"/>
<path d="M421.308 106.144C421.308 106.144 423.118 102.158 426.151 102.051C428.12 101.998 436.05 102.317 441.213 102.53C444.087 102.636 446.535 104.709 447.174 107.578C448.185 112.468 449.569 121.609 450.367 137.34C451.697 164.338 448.93 168.111 446.003 170.769C443.076 173.426 430.515 180.707 427.109 180.813C423.703 180.919 422.373 179.112 422 177.199" stroke="white" stroke-width="3" stroke-miterlimit="10"/>
<path d="M422.053 90.7845C422.053 90.7845 422.958 93.8669 425.938 93.8669C427.908 93.8669 439.244 94.0795 446.641 94.1858C450.686 94.2389 454.092 97.1088 454.891 101.095C455.955 106.409 457.286 115.391 458.403 129.74C460.585 157.535 458.297 172.948 451.165 181.132C444.034 189.316 426.258 196.066 426.258 196.066C426.258 196.066 422.373 198.139 422.266 200.318" stroke="white" stroke-width="3" stroke-miterlimit="10"/>
</g>
<path d="M350.61 239.107C338.046 227.415 298.529 231.169 298.529 231.169L299.066 200.49C299.066 200.49 301.106 178.606 296.381 167.45C291.656 156.294 232.917 144.923 232.917 144.923L299.603 22.7415L237.105 1.82361L162.795 140.632C162.795 140.632 138.848 136.234 71.1959 145.031C3.65107 153.827 1.82553 173.35 1.82553 173.35C1.82553 173.35 2.14768 221.837 2.36245 237.391C2.57722 252.945 5.26184 289.096 14.3895 313.982C23.5172 338.869 44.5646 359.894 55.0883 380.276C65.6119 400.765 74.9544 434.877 74.9544 434.877L76.1356 443.673C61.5313 450.646 62.3904 458.906 72.5919 465.02C82.7935 471.135 110.284 475.855 145.399 476.713C180.513 477.571 225.508 470.276 235.172 461.266C244.837 452.255 223.145 441.957 223.145 441.957C223.145 441.957 224.648 437.881 225.508 433.482C226.367 429.084 236.353 399.263 242.152 387.034C247.951 374.805 267.924 345.198 267.924 345.198C267.924 345.198 271.146 345.198 276.086 345.735C281.025 346.271 300.999 346.056 314.959 342.517C329.026 338.977 350.61 321.17 359.094 293.172C367.899 265.174 363.174 250.8 350.61 239.107ZM341.59 282.659C340.087 292.528 333.644 302.397 323.12 315.699C312.489 329 279.951 327.284 279.951 327.284C279.951 327.284 283.603 319.131 284.676 316.664C285.75 314.197 291.334 297.141 292.838 287.808C294.341 278.476 296.811 250.049 296.811 250.049C296.811 250.049 301.965 250.049 308.945 249.834C315.818 249.62 321.831 246.402 334.395 251.765C346.959 257.129 343.094 272.79 341.59 282.659Z" fill="#2E3032"/>
<path d="M281.347 233.744C295.737 173.565 -14.6043 185.15 19.3292 234.816C16.752 259.274 27.5978 307.761 42.4169 336.939C46.7123 337.904 51.2224 337.689 55.6252 335.973C56.0547 339.728 60.6723 342.409 64.6455 340.908C74.2027 361.504 105.129 364.293 118.982 345.842C128.969 364.722 157.963 367.189 171.708 350.24C173.211 355.496 182.554 355.389 184.057 350.24C197.802 354.745 213.91 346.915 219.924 333.935C225.293 337.582 232.702 339.298 239.467 337.904C242.045 342.195 245.696 345.306 249.776 347.129C255.36 338.011 261.374 328.25 267.817 317.201C276.3 300.574 281.347 233.744 281.347 233.744ZM228.192 246.294C227.011 246.08 225.83 245.973 224.541 245.865C226.044 245.651 227.548 245.436 229.051 245.007C228.729 245.436 228.514 245.865 228.192 246.294Z" fill="#42717D"/>
<path d="M120.056 364.722C106.955 364.722 106.955 385.103 120.056 385.103C133.157 385.103 133.157 364.722 120.056 364.722Z" fill="#42717D"/>
<path d="M181.265 360.109C172.245 360.109 172.245 374.054 181.265 374.054C190.285 374.054 190.285 360.109 181.265 360.109Z" fill="#42717D"/>
<path d="M95.8944 383.28C89.0218 383.28 89.0218 394.007 95.8944 394.007C102.767 394.007 102.767 383.28 95.8944 383.28Z" fill="#42717D"/>
<path d="M165.802 396.688C161.614 396.688 161.614 403.125 165.802 403.125C169.882 403.125 169.882 396.688 165.802 396.688Z" fill="#42717D"/>
<path d="M220.138 354.424C215.95 354.424 215.95 360.86 220.138 360.86C224.219 360.86 224.219 354.424 220.138 354.424Z" fill="#42717D"/>
<path d="M151.09 252.302C223.148 252.302 281.562 238.902 281.562 222.373C281.562 205.844 223.148 192.444 151.09 192.444C79.0322 192.444 20.6178 205.844 20.6178 222.373C20.6178 238.902 79.0322 252.302 151.09 252.302Z" fill="#688D97"/>
<path d="M150.231 247.582C190.263 247.582 222.716 239.033 222.716 228.487C222.716 217.942 190.263 209.393 150.231 209.393C110.199 209.393 77.7464 217.942 77.7464 228.487C77.7464 239.033 110.199 247.582 150.231 247.582Z" fill="#42717D"/>
<path d="M71.3033 229.453C71.3033 219.262 101.801 210.895 140.137 210.359C138.956 210.359 137.774 210.359 136.593 210.359C96.5387 210.359 64.1086 218.94 64.1086 229.453C64.1086 239.965 96.5387 248.547 136.593 248.547C137.774 248.547 138.956 248.547 140.137 248.547C101.801 248.118 71.3033 239.751 71.3033 229.453Z" fill="#42717D"/>
<path d="M230.877 229.453C230.877 239.644 200.38 248.011 162.043 248.547C163.224 248.547 164.406 248.547 165.587 248.547C205.641 248.547 238.071 239.965 238.071 229.453C238.071 218.94 205.641 210.359 165.587 210.359C164.406 210.359 163.224 210.359 162.043 210.359C200.38 210.895 230.877 219.262 230.877 229.453Z" fill="#42717D"/>
<path d="M150.875 240.395C184.799 240.395 212.299 234.679 212.299 227.629C212.299 220.579 184.799 214.864 150.875 214.864C116.952 214.864 89.4513 220.579 89.4513 227.629C89.4513 234.679 116.952 240.395 150.875 240.395Z" fill="#688D97"/>
<path d="M238.071 2.78906L113.935 235.353C127.465 237.713 155.171 241.038 183.842 235.782L298.851 22.956L238.071 2.78906Z" fill="#BAC7C8"/>
<path d="M203.494 224.733C203.494 230.311 179.762 234.816 150.338 234.816C120.915 234.816 97.183 230.311 97.183 224.733C97.183 220.978 108.136 217.653 124.244 215.937C126.284 215.722 118.767 223.982 120.915 223.875C126.928 223.446 171.171 225.377 189.104 224.411C192.433 224.197 189.534 217.975 192.111 218.618C199.306 220.228 203.494 222.373 203.494 224.733Z" fill="#42717D"/>
<path d="M299.388 22.5269L159.359 281.372L98.6864 263.243L237.427 1.93088L299.388 22.5269Z" stroke="white" stroke-width="3" stroke-miterlimit="10"/>
<path d="M146.258 247.26C147.654 246.616 148.942 245.758 149.587 244.471C150.231 243.184 149.909 242.325 148.942 241.896C146.365 241.038 143.68 246.831 139.6 245.436C137.345 244.685 136.808 242.755 137.989 240.609C138.848 239 140.244 238.249 141.748 237.82C142.07 238.356 142.284 238.678 142.607 239.215C141.318 239.751 140.566 240.287 139.922 241.36C139.278 242.433 139.6 243.398 140.566 243.72C142.821 244.471 145.506 238.785 149.694 240.18C151.949 240.931 152.593 242.969 151.305 245.436C150.553 246.831 148.942 248.118 147.332 248.762C146.902 248.011 146.687 247.796 146.258 247.26ZM134.66 240.287C134.982 239.751 135.09 239.536 135.304 239C136.808 239.536 137.56 239.751 139.063 240.287C138.741 240.824 138.633 241.038 138.419 241.575C136.915 241.038 136.164 240.716 134.66 240.287ZM150.983 244.149C152.701 244.685 153.452 245.007 155.171 245.544C154.848 246.08 154.741 246.294 154.526 246.831C152.808 246.294 152.056 245.973 150.338 245.436C150.553 244.9 150.66 244.685 150.983 244.149Z" fill="white"/>
<path d="M160.218 227.522C159.788 226.986 159.573 226.771 159.144 226.235C160.647 225.484 161.828 224.518 162.688 223.017C163.439 221.622 163.117 220.764 162.258 220.549C161.506 220.335 160.755 220.442 158.929 222.48C156.996 224.626 155.385 225.377 153.775 224.84C151.949 224.197 151.305 222.373 152.593 220.013C153.345 218.619 154.848 217.546 156.03 216.902C156.459 217.439 156.567 217.653 156.996 218.189C155.815 218.833 154.848 219.691 154.204 220.764C153.452 222.051 153.882 222.802 154.634 223.017C155.493 223.338 156.244 222.695 157.64 221.193C160.003 218.618 161.292 218.189 163.117 218.726C164.943 219.369 165.694 221.3 164.298 223.875C163.439 225.484 161.828 226.771 160.218 227.522Z" fill="#2E3032"/>
<path d="M151.734 211.324C152.164 210.573 152.379 210.251 152.701 209.5C154.419 210.037 155.278 210.359 156.996 210.895C157.963 211.324 158.5 211.431 159.466 211.86C159.466 211.86 159.466 211.86 159.466 211.753C158.822 210.573 158.392 209.179 159.144 207.891C160.325 205.853 162.365 205.424 165.265 206.39C168.057 207.355 169.345 207.784 172.137 208.75C171.708 209.5 171.6 209.822 171.171 210.573C168.486 209.715 167.198 209.286 164.62 208.32C162.688 207.677 161.506 207.891 160.755 209.179C160.218 210.144 160.432 211.002 161.184 212.289C164.298 213.362 165.802 213.791 168.808 214.864C168.379 215.615 168.272 215.937 167.842 216.688C161.399 214.649 158.177 213.469 151.734 211.324Z" fill="#2E3032"/>
<path d="M173.319 192.23C172.674 192.015 172.352 191.908 171.708 191.693C170.956 188.154 170.527 186.437 169.775 183.005C170.634 183.326 171.064 183.434 171.923 183.755C172.46 186.437 172.782 187.832 173.319 190.513H173.426C176.325 189.012 177.721 188.261 180.621 186.759C181.48 187.081 181.909 187.188 182.768 187.51C179.01 189.333 177.077 190.299 173.319 192.23Z" fill="#2E3032"/>
<path d="M180.513 180.108C176.218 178.606 173.641 175.925 172.567 172.599C173.211 172.385 173.533 172.17 174.178 171.956C175.466 175.174 177.721 177.212 181.372 178.499C185.024 179.786 188.567 179.679 192.326 178.177C192.54 178.714 192.648 179.035 192.863 179.572C189.104 181.181 184.809 181.503 180.513 180.108Z" fill="#2E3032"/>
<path d="M185.99 171.741C182.339 170.454 181.48 167.45 182.983 164.768C183.735 163.374 185.024 162.516 186.312 162.087C186.634 162.623 186.849 162.945 187.279 163.481C186.205 163.91 185.346 164.554 184.916 165.412C183.842 167.343 184.701 169.167 187.064 169.917C189.426 170.668 191.681 169.917 192.648 168.094C193.185 167.021 193.077 165.948 192.755 164.983C193.507 164.876 193.829 164.768 194.581 164.661C195.118 166.056 195.01 167.45 194.366 168.737C192.863 171.634 189.641 173.028 185.99 171.741Z" fill="#2E3032"/>
<path d="M193.185 161.443C190.5 160.478 189.104 160.048 186.42 159.083C186.849 158.332 187.064 158.01 187.386 157.259C189.963 158.118 191.252 158.547 193.829 159.512C195.655 160.156 196.836 159.941 197.588 158.654C198.124 157.689 197.91 156.938 197.158 155.543C194.151 154.47 192.755 154.041 189.748 152.969C190.178 152.218 190.393 151.896 190.715 151.145C195.01 152.647 197.158 153.398 201.561 154.899C201.239 155.543 201.024 155.758 200.702 156.401C199.95 156.187 199.52 156.079 198.769 155.972C198.769 155.972 198.769 155.972 198.769 156.079C199.52 157.367 199.843 158.654 199.091 160.048C198.124 161.979 195.977 162.408 193.185 161.443Z" fill="#2E3032"/>
<path d="M193.077 147.069C193.4 146.425 193.614 146.21 193.936 145.567C195.01 145.889 195.44 145.996 196.514 146.318C195.225 144.816 195.01 143.1 195.869 141.491C196.299 140.847 196.621 140.311 197.265 139.882C197.91 140.311 198.232 140.525 198.876 140.954C198.339 141.491 198.017 141.812 197.695 142.456C197.051 143.743 197.158 145.245 198.769 146.961C201.239 147.82 202.42 148.249 204.89 149.107C204.46 149.858 204.353 150.18 203.923 150.93C199.52 149.321 197.373 148.57 193.077 147.069Z" fill="#2E3032"/>
<path d="M207.037 136.878C202.957 135.483 201.024 134.732 196.943 133.338C196.299 134.518 195.977 135.162 195.225 136.342C194.473 136.127 194.151 136.02 193.507 135.698C194.581 133.767 195.118 132.802 196.192 130.871C200.916 132.587 203.386 133.338 208.111 135.054C209.615 135.591 210.581 135.054 211.118 134.089C211.333 133.66 211.547 133.016 211.547 132.373C212.299 132.373 212.621 132.48 213.373 132.48C213.266 133.445 213.266 134.089 212.621 135.162C211.655 137.2 209.615 137.843 207.037 136.878Z" fill="#2E3032"/>
<path d="M217.991 115.746C216.058 115.102 215.199 114.78 213.266 114.136C212.729 115.102 212.514 115.638 211.977 116.604C211.333 116.389 211.011 116.282 210.366 116.067C210.903 115.102 211.118 114.566 211.655 113.493C210.366 112.956 209.722 112.635 208.433 112.098C208.756 111.455 208.97 111.24 209.292 110.596C210.688 111.026 211.333 111.347 212.621 111.776C213.588 110.06 214.017 109.309 214.876 107.593C215.521 107.807 215.95 107.915 216.595 108.237C215.628 109.953 215.199 110.704 214.34 112.42C216.272 113.064 217.132 113.386 219.064 114.029C220.89 114.673 222.071 114.458 222.93 112.849C223.36 112.098 223.467 111.347 223.575 110.704C224.326 110.811 224.648 110.811 225.4 110.918C225.293 111.776 225.078 112.849 224.541 113.922C222.93 116.389 220.675 116.711 217.991 115.746Z" fill="#2E3032"/>
<path d="M221.534 106.949C218.098 105.769 217.239 102.873 218.528 100.513C219.924 97.9385 222.823 97.1876 225.722 98.1531C226.152 98.2603 226.581 98.4749 226.796 98.6894C225.185 101.586 224.434 103.088 222.823 105.984C222.179 105.769 221.856 105.662 221.212 105.448C222.608 102.98 223.252 101.8 224.541 99.333C224.648 99.5476 224.756 99.6549 224.863 99.8694C222.608 99.0112 220.89 99.5476 220.138 101.049C219.279 102.551 219.924 104.375 222.501 105.233C225.078 106.198 227.118 105.233 228.192 103.302C228.729 102.337 228.836 101.371 228.622 100.406C229.266 100.298 229.695 100.298 230.34 100.298C230.555 101.478 230.447 102.873 229.695 104.16C228.299 106.735 225.078 108.129 221.534 106.949Z" fill="#2E3032"/>
<path d="M230.125 96.7585C227.763 95.9004 227.548 93.7549 229.588 89.1423C228.3 88.7132 226.904 88.9278 226.044 90.5368C225.508 91.6095 225.508 92.8968 225.615 93.9695C224.863 94.0768 224.541 94.0768 223.789 94.184C223.575 92.8968 223.682 91.1804 224.541 89.6786C225.83 87.2114 228.192 86.5678 230.984 87.5332C233.561 88.3914 234.743 88.9277 237.32 89.7859C236.998 90.4295 236.783 90.6441 236.461 91.2877C235.924 91.1804 235.602 91.0732 235.065 90.9659C235.065 90.9659 235.065 90.9659 235.065 91.0732C235.387 92.3604 235.494 93.8622 234.85 95.0422C233.884 96.544 231.951 97.4022 230.125 96.7585ZM233.454 90.4295C232.488 90.1077 231.951 89.8932 230.984 89.5714C229.373 93.1113 229.696 94.5058 230.877 94.9349C231.951 95.2567 232.81 94.7204 233.347 93.755C233.884 92.7895 233.776 91.7168 233.454 90.4295Z" fill="#2E3032"/>
<path d="M238.394 83.886C237.212 83.4569 236.783 82.4915 237.32 81.526C237.857 80.5606 239.038 80.2388 240.219 80.5606C241.4 80.9897 241.83 81.9551 241.293 82.9206C240.756 83.886 239.575 84.2078 238.394 83.886Z" fill="#2E3032"/>
<path d="M240.971 71.228C238.286 71.7644 236.998 71.9789 234.313 72.5153C234.743 71.7644 234.957 71.3353 235.387 70.5844C236.568 70.3698 237.105 70.2626 238.179 70.048C238.931 69.9408 239.79 69.8335 240.541 69.7262C240.541 69.7262 240.541 69.7262 240.541 69.6189C240.112 69.0826 239.682 68.5462 239.253 68.0099C238.716 67.259 238.394 66.8299 237.749 66.079C238.179 65.3281 238.394 64.899 238.823 64.1481C240.219 66.079 240.971 67.1517 242.367 69.0826C245.159 68.5462 246.555 68.2244 249.347 67.6881C248.917 68.439 248.703 68.868 248.273 69.6189C247.092 69.8335 246.447 69.9408 245.266 70.2626C244.515 70.3698 243.548 70.5844 242.796 70.6917C242.796 70.6917 242.796 70.6917 242.796 70.7989C243.226 71.3353 243.655 71.8716 244.085 72.5153C244.729 73.3734 244.944 73.8025 245.588 74.5534C245.159 75.3043 244.944 75.7334 244.515 76.4843C243.119 74.3389 242.367 73.2662 240.971 71.228Z" fill="#2E3032"/>
<path d="M254.716 66.8299C254.179 66.4008 253.857 66.2936 253.213 65.8645C253.427 65.6499 253.642 65.4354 253.75 65.1136C254.394 63.9336 253.964 62.9681 252.998 62.11C252.783 61.8954 252.676 61.7882 252.461 61.5736C247.414 61.6809 244.944 61.7882 239.897 61.8954C240.327 61.1445 240.541 60.8227 240.864 60.0718C243.441 60.0718 244.729 60.0718 247.307 60.0718C248.38 60.0718 249.669 60.0718 250.958 60.1791C250.958 60.1791 250.958 60.1791 250.958 60.0718C250.099 59.4282 249.239 58.6773 248.38 58.0337C246.662 56.5319 245.696 55.781 243.978 54.3865C244.407 53.7428 244.515 53.3137 244.944 52.6701C248.488 55.781 250.313 57.2828 253.857 60.3936C255.683 61.8954 256.542 63.5045 255.468 65.5426C255.36 66.1863 255.038 66.5081 254.716 66.8299Z" fill="#2E3032"/>
<path d="M255.36 54.0647C253.535 50.7392 252.676 49.0229 250.958 45.6975C249.884 47.7357 249.347 48.7011 248.166 50.7392C247.521 50.5247 247.199 50.4174 246.447 50.0956C248.166 47.092 248.917 45.5902 250.635 42.4794C251.065 42.6939 251.28 42.6939 251.709 42.9085C253.427 46.2339 254.287 47.9502 256.112 51.2756C257.401 48.9156 258.045 47.7357 259.334 45.483C259.978 45.6975 260.3 45.8048 261.052 46.1266C259.226 49.452 258.26 51.1683 256.434 54.4937C256.112 54.2792 255.897 54.1719 255.36 54.0647Z" fill="#2E3032"/>
<path d="M265.669 43.6593C264.595 40.4412 262.448 38.4031 259.011 37.1158C255.575 35.8286 252.246 35.9358 248.595 37.4376C248.38 36.9013 248.273 36.5795 248.166 36.0431C251.817 34.434 255.897 34.0049 259.871 35.5067C263.844 37.0085 266.314 39.6903 267.28 42.9084C266.636 43.2303 266.314 43.3375 265.669 43.6593Z" fill="#2E3032"/>
<path d="M232.38 146.103C272.435 152.11 298.959 162.408 298.959 174.101C298.959 192.659 232.38 207.677 150.338 207.677C68.2966 207.677 1.61076 192.659 1.61076 174.101C1.61076 155.543 68.1892 140.525 150.231 140.525C154.634 140.525 158.929 140.525 163.224 140.632" stroke="white" stroke-width="3" stroke-miterlimit="10"/>
<path d="M205.427 195.662C250.206 200.382 281.24 210.68 281.24 222.588C281.24 239 222.501 252.194 149.909 252.194C77.3169 252.194 18.6849 238.893 18.6849 222.48C18.6849 207.248 69.7999 194.59 135.519 192.981" stroke="white" stroke-width="2" stroke-miterlimit="10" stroke-dasharray="3 3"/>
<path d="M192.218 219.155C199.843 221.193 204.46 223.768 204.46 226.557C204.46 232.993 179.869 238.249 149.587 238.249C119.304 238.249 94.7131 232.993 94.7131 226.557C94.7131 222.051 106.418 218.189 123.707 216.151" stroke="white" stroke-miterlimit="10"/>
<path d="M150.231 446.462C182.672 446.462 208.97 440.507 208.97 433.161C208.97 425.814 182.672 419.859 150.231 419.859C117.79 419.859 91.4916 425.814 91.4916 433.161C91.4916 440.507 117.79 446.462 150.231 446.462Z" stroke="white" stroke-width="2" stroke-miterlimit="10" stroke-dasharray="3 3"/>
<path d="M150.231 460.837C190.263 460.837 222.716 453.488 222.716 444.424C222.716 435.36 190.263 428.012 150.231 428.012C110.199 428.012 77.7464 435.36 77.7464 444.424C77.7464 453.488 110.199 460.837 150.231 460.837Z" stroke="white" stroke-width="3" stroke-miterlimit="10"/>
<path d="M229.159 152.325C260.193 156.616 280.274 163.374 280.274 170.99C280.274 183.863 222.93 194.268 152.271 194.268C81.6123 194.268 24.2689 183.863 24.2689 170.99C24.2689 158.118 81.6123 147.712 152.271 147.712C154.526 147.712 156.889 147.712 159.144 147.712" stroke="white" stroke-width="3" stroke-miterlimit="10"/>
<path d="M77.7464 444.424C77.7464 444.424 68.8335 410.205 62.6052 396.796C22.0138 308.404 1.61076 353.136 1.61076 174.101" stroke="white" stroke-width="3" stroke-miterlimit="10"/>
<path d="M91.4916 432.839C88.3775 421.683 83.4378 405.163 79.5719 396.796C42.9538 317.201 22.7655 345.52 19.1144 221.515" stroke="white" stroke-width="2" stroke-miterlimit="10" stroke-dasharray="3 3"/>
<path d="M209.185 432.839C212.299 421.683 217.239 405.163 221.105 396.796C257.723 317.201 277.911 345.52 281.562 221.515" stroke="white" stroke-width="2" stroke-miterlimit="10" stroke-dasharray="3 3"/>
<path d="M222.716 444.424C222.716 444.424 231.628 410.205 237.857 396.796C274.797 316.45 294.985 346.057 298.422 217.975C298.744 205.102 298.959 190.513 298.959 174.101" stroke="white" stroke-width="3" stroke-miterlimit="10"/>
<path d="M297.348 230.74H326.342C336.973 230.74 347.174 235.353 354.154 243.291C361.134 251.229 364.463 261.849 363.067 272.361C360.275 294.245 352.973 311.837 341.483 324.495C328.06 339.191 309.697 346.593 286.717 346.593C281.884 346.593 276.837 346.271 271.575 345.627L267.817 344.877" stroke="white" stroke-width="3" stroke-miterlimit="10"/>
<path d="M279.951 327.07C282.207 327.177 284.462 327.284 286.502 327.284C319.791 327.284 339.013 308.083 343.953 269.894C344.597 264.852 343.094 259.918 339.657 256.056C336.328 252.194 331.389 250.049 326.342 250.049H297.348" stroke="white" stroke-width="3" stroke-miterlimit="10"/>
<path d="M223.038 443.137C232.38 446.57 237.857 450.753 237.857 455.259C237.857 467.273 198.984 476.927 151.09 476.927C103.197 476.927 64.3233 467.273 64.3233 455.259C64.3233 451.289 68.7261 447.428 76.3504 444.21" stroke="white" stroke-width="2" stroke-miterlimit="10" stroke-dasharray="3 3"/>
<path d="M194.581 216.688C207.36 219.477 215.413 223.446 215.413 227.844C215.413 236.211 186.42 242.969 150.66 242.969C114.901 242.969 85.9076 236.211 85.9076 227.844C85.9076 221.622 101.693 216.366 124.244 214.006" stroke="white" stroke-miterlimit="10"/>
<path d="M199.52 284.268C193.292 284.268 193.292 293.923 199.52 293.923C205.749 293.923 205.749 284.268 199.52 284.268Z" fill="#688D97"/>
<path d="M95.2501 293.816C89.0218 293.816 89.0218 303.47 95.2501 303.47C101.478 303.47 101.478 293.816 95.2501 293.816Z" fill="#688D97"/>
<path d="M171.171 321.384C164.943 321.384 164.943 331.039 171.171 331.039C177.399 331.039 177.399 321.384 171.171 321.384Z" fill="#688D97"/>
<path d="M43.9203 255.091C37.692 255.091 37.692 264.745 43.9203 264.745C50.1486 264.745 50.1486 255.091 43.9203 255.091Z" fill="#688D97"/>
<path d="M223.252 256.378C213.588 256.378 213.588 271.396 223.252 271.396C232.917 271.396 232.917 256.378 223.252 256.378Z" fill="#688D97"/>
<path d="M246.125 302.504C239.897 302.504 239.897 312.159 246.125 312.159C252.354 312.159 252.354 302.504 246.125 302.504Z" fill="#688D97"/>
<path d="M35.4369 211.539C33.1818 211.11 31.1415 212.826 31.1415 215.079C31.571 229.667 33.3966 276.438 40.0544 299.501C47.8935 327.07 67.1153 345.091 72.6993 356.355C78.1759 367.296 87.3036 385.103 95.1427 413.423C95.5722 414.925 96.9682 415.997 98.579 415.997H112.002C114.472 415.997 116.19 413.423 115.331 411.17C108.995 395.616 89.1292 346.7 78.3907 328.25C57.9876 293.279 54.8735 256.271 56.2695 218.94C56.3769 217.224 55.1956 215.722 53.4775 215.293L35.4369 211.539Z" fill="url(#paint1_linear_150_158)"/>
<defs>
<linearGradient id="paint0_linear_150_158" x1="336.272" y1="232.072" x2="336.272" y2="92.7712" gradientUnits="userSpaceOnUse">
<stop stop-color="white" stop-opacity="0"/>
<stop offset="1" stop-color="white" stop-opacity="0.6"/>
</linearGradient>
<linearGradient id="paint1_linear_150_158" x1="73.3605" y1="415.996" x2="73.3605" y2="211.428" gradientUnits="userSpaceOnUse">
<stop stop-color="white" stop-opacity="0"/>
<stop offset="1" stop-color="white" stop-opacity="0.6"/>
</linearGradient>
<clipPath id="clip0_150_158">
<rect width="152" height="234" fill="white" transform="translate(308 26)"/>
</clipPath>
</defs>
</svg>
