<svg xmlns="http://www.w3.org/2000/svg" xmlns:xlink="http://www.w3.org/1999/xlink" viewBox="0 0 663.8 547.72"><defs><style>.cls-1,.cls-11,.cls-13,.cls-14,.cls-2,.cls-3,.cls-4,.cls-5,.cls-7{fill:none;}.cls-1,.cls-2,.cls-3,.cls-4,.cls-5{stroke:#aaa;}.cls-1,.cls-11,.cls-13,.cls-14,.cls-2,.cls-3,.cls-4,.cls-5{stroke-miterlimit:10;}.cls-2{stroke-dasharray:4.06 4.06;}.cls-3{stroke-dasharray:4;}.cls-11,.cls-4,.cls-5{stroke-width:3px;}.cls-5{stroke-dasharray:1.23;}.cls-6{fill:#2e3032;}.cls-8{fill:#42717d;}.cls-9{fill:#688d97;}.cls-10{fill:#bac7c8;}.cls-11,.cls-13,.cls-14{stroke:#fff;}.cls-12{fill:#fff;}.cls-13{stroke-width:2px;stroke-dasharray:3;}.cls-15{fill:url(#linear-gradient);}.cls-16{fill:url(#linear-gradient-2);}</style><linearGradient id="linear-gradient" x1="83.73" y1="476.81" x2="83.73" y2="242.13" gradientUnits="userSpaceOnUse"><stop offset="0" stop-color="#fff" stop-opacity="0"/><stop offset="1" stop-color="#fff" stop-opacity="0.6"/></linearGradient><linearGradient id="linear-gradient-2" x1="513.26" y1="230.26" x2="622.28" y2="230.26" xlink:href="#linear-gradient"/></defs><g id="Layer_2" data-name="Layer 2"><g id="Layer_4" data-name="Layer 4"><path class="cls-1" d="M592.61,336.41l-2,.24"/><path class="cls-2" d="M586.58,336.94q-1.37.06-2.73.06a64.19,64.19,0,0,1-34.49-118.52"/><path class="cls-1" d="M551.1,217.42q.85-.51,1.74-1"/><path class="cls-3" d="M610.34,331.34a64.39,64.39,0,0,1-17.73,5.07"/><path class="cls-4" d="M583.85,208.53a64.2,64.2,0,0,1,26.49,122.81"/><path class="cls-3" d="M552.84,216.43a64.46,64.46,0,0,1,31-7.9"/><ellipse class="cls-4" cx="451.1" cy="309.13" rx="97.85" ry="97.46"/><line class="cls-4" x1="444.9" y1="211.8" x2="583.85" y2="208.53"/><line class="cls-4" x1="492.61" y1="398.07" x2="611.69" y2="330.71"/><circle class="cls-4" cx="450.91" cy="309.24" r="89.72"/><circle class="cls-3" cx="454.93" cy="306.54" r="85.41"/><path class="cls-4" d="M576.34,215.26a59.47,59.47,0,0,1,7.23-.45,58.09,58.09,0,1,1-8.44.61"/><path class="cls-5" d="M575.13,215.42l1.21-.16"/><path class="cls-4" d="M556.05,274.66h30.78l45.68-13.9H615.63s-1.49-5.95,13.9-6.95a317,317,0,0,1,32.77,0v21.35l-72.49,27.31-29.29.49S564.49,287.08,556.05,274.66Z"/><path class="cls-4" d="M559,279.12h29.64s4.3,9.64,1.13,23.35"/><polyline class="cls-4" points="632.51 260.76 643.07 257.92 616.18 259.03"/><path class="cls-4" d="M423.57,359.76c-83.3,0-150.84,16.17-150.84,36.12,0,4.06,2.82,8,8,11.62-31.71,5.27-53.66,16.63-53.66,29.8,0,18.19,41.85,32.93,93.48,32.93S414,455.49,414,437.3a12.55,12.55,0,0,0-1.26-5.4q5.37.09,10.82.09c83.31,0,150.84-16.17,150.84-36.11S506.88,359.76,423.57,359.76Z"/><line class="cls-3" x1="578.07" y1="215.4" x2="486.8" y2="217.88"/><line class="cls-3" x1="526.33" y1="370.91" x2="592.23" y2="336.34"/><path class="cls-6" d="M401.44,273.92c-14.42-13.41-59.68-9.05-59.68-9.05l.67-35.2s2.35-25.15-3-37.89S266.66,166,266.66,166L343.1,25.82,271.35,1.69,186.2,160.94s-27.5-5-104.94,5S1.8,198.49,1.8,198.49s.33,55.65.67,73.42,3.35,59.34,13.74,87.84,34.54,52.64,46.61,76.11,22.8,62.69,22.8,62.69L87,508.61c-16.77,8-15.76,17.44-4,24.48s43.25,12.4,83.49,13.41,91.86-7.38,102.92-17.77S255.6,506.6,255.6,506.6a79.85,79.85,0,0,0,2.68-9.72c1-5,12.4-39.23,19.11-53.31s29.5-47.94,29.5-47.94a89.09,89.09,0,0,1,9.39.67c5.7.67,28.5.33,44.59-3.69s40.9-24.48,50.63-56.66S415.86,287.33,401.44,273.92Zm-10.26,49.9c-1.7,11.32-9.06,22.64-21.23,37.93s-49.53,13.3-49.53,13.3,4.25-9.34,5.38-12.17,7.64-22.36,9.34-33.11,4.53-43.31,4.53-43.31,5.94,0,13.86-.28,14.72-4,29.16,2.26S392.88,312.5,391.18,323.82Z"/><path class="cls-7" d="M261.19,282.08c.32-.5.64-1,1-1.47a38.71,38.71,0,0,1-5.12.93A37.15,37.15,0,0,1,261.19,282.08Z"/><path class="cls-7" d="M274.14,387.33a30.27,30.27,0,0,1-22.44-4.61c-7,14.81-25.37,23.8-41.16,18.65-1.69,6-12.41,6-14.14.05-15.66,19.47-48.89,16.69-60.37-5-15.81,21.14-51.3,17.89-62.25-5.69-4.57,1.76-9.8-1.4-10.32-5.66a25.53,25.53,0,0,1-15.19,1.07c4.87,9.64,10.11,17.44,15.46,22.21,16.8,19.93,36.45,74.79,36.45,74.79l139.6,9.6c11.53-37.89,26.51-62.66,46.19-94.79A26.18,26.18,0,0,1,274.14,387.33Zm-164.6,64.28c-7.93,0-7.91-12.3,0-12.3S117.46,451.61,109.54,451.61Zm27.68-10.27c-15.07,0-15-23.39,0-23.39S152.27,441.34,137.22,441.34ZM189.62,462c-4.76,0-4.75-7.39,0-7.39S194.37,462,189.62,462Zm17.79-33.26c-10.31,0-10.29-16,0-16S217.71,428.75,207.41,428.75Zm44.49-15.19c-4.76,0-4.75-7.38,0-7.38S256.65,413.56,251.9,413.56Z"/><path class="cls-8" d="M322.13,267.69c16.46-69.06-339.15-55.8-300.26,1.24-2.95,28.05,9.48,83.72,26.4,117.2a25.53,25.53,0,0,0,15.19-1.07c.52,4.26,5.75,7.42,10.32,5.66,11,23.58,46.44,26.83,62.25,5.69,11.48,21.7,44.71,24.48,60.37,5,1.73,6,12.45,5.95,14.14-.05,15.79,5.15,34.17-3.84,41.16-18.65a30.27,30.27,0,0,0,22.44,4.61A26.18,26.18,0,0,0,286,397.94c6.38-10.42,13.26-21.62,20.68-34.29C316.24,344.46,322.12,267.69,322.13,267.69Zm-60.94,14.39a37.15,37.15,0,0,0-4.14-.54,38.71,38.71,0,0,0,5.12-.93C261.83,281.09,261.51,281.58,261.19,282.08Z"/><path class="cls-8" d="M137.22,418c-15,0-15.07,23.39,0,23.39S152.29,418,137.22,418Z"/><path class="cls-8" d="M207.41,412.75c-10.29,0-10.31,16,0,16S217.72,412.75,207.41,412.75Z"/><path class="cls-8" d="M109.54,439.31c-7.91,0-7.93,12.3,0,12.3S117.48,439.31,109.54,439.31Z"/><path class="cls-8" d="M189.62,454.62c-4.75,0-4.76,7.39,0,7.39S194.38,454.62,189.62,454.62Z"/><path class="cls-8" d="M251.9,406.18c-4.75,0-4.76,7.38,0,7.38S256.66,406.18,251.9,406.18Z"/><ellipse class="cls-9" cx="172.79" cy="254.63" rx="149.56" ry="34.4"/><ellipse class="cls-8" cx="171.88" cy="261.73" rx="83.03" ry="21.93"/><path class="cls-8" d="M81.36,262.85c0-11.75,35-21.34,78.92-21.91l-4.12,0c-45.86,0-83,9.82-83,21.93s37.17,21.93,83,21.93l4.12,0C116.33,284.19,81.36,274.6,81.36,262.85Z"/><path class="cls-8" d="M264.24,262.85c0,11.75-35,21.34-78.92,21.91l4.12,0c45.86,0,83-9.82,83-21.93s-37.17-21.93-83-21.93l-4.12,0C229.27,241.51,264.24,251.1,264.24,262.85Z"/><ellipse class="cls-9" cx="172.54" cy="260.75" rx="70.37" ry="14.66"/><path class="cls-10" d="M272.52,2.83,130.25,269.56c15.49,2.68,47.31,6.51,80.11.49L342.18,25.87Z"/><path class="cls-8" d="M232.87,257.37c0,6.41-27.25,11.6-60.86,11.6s-60.86-5.19-60.86-11.6c0-4.34,12.52-8.13,31-10.12,2.37-.25-6.31,9.29-3.76,9.1,6.94-.53,57.6,1.67,78.11.58,3.8-.2.49-7.42,3.45-6.7C228.07,252.2,232.87,254.68,232.87,257.37Z"/><polygon class="cls-11" points="342.73 25.4 182.34 322.39 112.74 301.6 271.69 1.82 342.73 25.4"/><path class="cls-12" d="M167.25,283.2A8.16,8.16,0,0,0,171.1,280c.8-1.45.43-2.5-.77-2.9-3-1-6,5.61-10.66,4.05-2.53-.84-3.18-3.1-1.81-5.59a6.81,6.81,0,0,1,4.25-3.23l.95,1.58a5.61,5.61,0,0,0-3.12,2.52c-.7,1.27-.39,2.29.79,2.69,2.64.88,5.71-5.72,10.52-4.1,2.55.85,3.37,3.22,1.86,6a9.34,9.34,0,0,1-4.56,3.8Zm-13.25-8,.8-1.44,4.33,1.44-.8,1.45Zm18.63,4.52,4.77,1.6-.78,1.45-4.78-1.6Z"/><path class="cls-6" d="M183.3,260.59l-1.19-1.49a8.87,8.87,0,0,0,4-3.75c.85-1.55.48-2.56-.48-2.88s-1.71-.08-3.76,2.25-4,3.3-6,2.65c-2.13-.72-2.89-2.78-1.34-5.58a9.52,9.52,0,0,1,4-3.61c.43.61.65.91,1.09,1.52a7.44,7.44,0,0,0-3.17,2.93c-.82,1.51-.39,2.34.48,2.64s1.84-.35,3.46-2.15c2.71-3,4.24-3.46,6.24-2.78s3,2.95,1.36,5.94A11.06,11.06,0,0,1,183.3,260.59Z"/><path class="cls-6" d="M173.53,242c.45-.83.68-1.24,1.14-2.06l4.9,1.65,2.79,1.09,0-.06a4.38,4.38,0,0,1-.32-4.46c1.31-2.36,3.72-2.82,7-1.7l7.87,2.67c-.45.82-.67,1.24-1.13,2.06l-7.53-2.55c-2.22-.75-3.57-.51-4.4,1-.6,1.1-.33,2.07.44,3.57l8.77,3L192,248.28Z"/><path class="cls-6" d="M198.32,220.15l-1.91-.65c-.88-4-1.32-6-2.18-10l2.41.83c.65,3.09,1,4.64,1.65,7.73l.1,0,8.27-4.34,2.42.83Z"/><path class="cls-6" d="M206.51,206.16c-4.92-1.68-7.89-4.77-9.14-8.57l1.86-.72c1.42,3.69,4,6,8.27,7.5a17.35,17.35,0,0,0,12.57-.35c.25.62.37.94.61,1.56A19.39,19.39,0,0,1,206.51,206.16Z"/><path class="cls-6" d="M212.8,196.61c-4.18-1.44-5.13-4.89-3.43-8a6.8,6.8,0,0,1,3.83-3.1l1.06,1.55a5.19,5.19,0,0,0-2.75,2.18c-1.2,2.18-.24,4.3,2.45,5.22s5.25,0,6.42-2.09a4.27,4.27,0,0,0,.18-3.52l2.12-.32a5.54,5.54,0,0,1-.3,4.72C220.64,196.46,217,198,212.8,196.61Z"/><path class="cls-6" d="M221.06,184.75l-7.72-2.66c.45-.82.68-1.24,1.14-2.06l7.38,2.54c2.14.75,3.49.51,4.32-1,.58-1.06.42-2-.49-3.55l-8.49-2.93,1.14-2.07,12.39,4.29L229.8,179l-2.15-.55-.05.08A4.32,4.32,0,0,1,228,183C226.67,185.42,224.3,185.87,221.06,184.75Z"/><path class="cls-6" d="M220.92,168.32l.94-1.7,3,.8,0,0a4.7,4.7,0,0,1-.74-5.51,4.76,4.76,0,0,1,1.6-1.81l1.88,1.19a6,6,0,0,0-1.41,1.72c-.8,1.45-.67,3.17,1.21,5.15l7,2.44-1.13,2.06Z"/><path class="cls-6" d="M236.89,156.64l-11.55-4-1.92,3.48-2-.7,3.07-5.55,13.69,4.77c1.7.6,2.83,0,3.44-1.07a4.25,4.25,0,0,0,.47-2l2.13.15a6.11,6.11,0,0,1-.81,3C242.16,157,239.85,157.67,236.89,156.64Z"/><path class="cls-6" d="M249.52,132.35l-5.39-1.89-1.53,2.79-1.86-.65c.58-1.17.87-1.75,1.46-2.92l-3.72-1.63,1-1.71,3.86,1.35c1.05-1.91,1.58-2.86,2.63-4.78l2,.7-2.63,4.78,5.39,1.89c2.09.74,3.44.48,4.44-1.35a6.24,6.24,0,0,0,.75-2.5l2,.22a8.89,8.89,0,0,1-1.05,3.46C255.19,133.14,252.58,133.42,249.52,132.35Z"/><path class="cls-6" d="M253.53,122.22c-4-1.4-5-4.73-3.49-7.44,1.64-3,4.9-3.84,8.28-2.65a12.51,12.51,0,0,1,1.29.57L255,121l-1.81-.64,3.86-7.05.36.66c-2.62-.92-4.52-.33-5.47,1.39s-.2,3.78,2.66,4.79,5.3,0,6.49-2.17a5.08,5.08,0,0,0,.55-3.34l2-.17a6.62,6.62,0,0,1-.72,4.45C261.25,122,257.57,123.64,253.53,122.22Z"/><path class="cls-6" d="M263.34,110.58c-2.71-1-2.92-3.5-.57-8.77a3.2,3.2,0,0,0-4.08,1.59,6.45,6.45,0,0,0-.52,3.91l-2.08.2a8.39,8.39,0,0,1,.81-5.18c1.54-2.79,4.24-3.57,7.42-2.44l7.25,2.57-.93,1.71-1.65-.39,0,.06a6.1,6.1,0,0,1-.25,4.54A4.41,4.41,0,0,1,263.34,110.58Zm3.83-7.22-2.82-1c-1.84,4.1-1.54,5.62-.09,6.13a2.3,2.3,0,0,0,2.8-1.39A4.67,4.67,0,0,0,267.17,103.36Z"/><path class="cls-6" d="M272.84,95.76a1.85,1.85,0,0,1-1.27-2.69,2.7,2.7,0,0,1,3.31-1,1.86,1.86,0,0,1,1.28,2.69A2.69,2.69,0,0,1,272.84,95.76Z"/><path class="cls-6" d="M275.74,81.24l-7.66,1.42,1.24-2.25,3.23-.59c.85-.1,1.79-.26,2.65-.43l.05-.08c-.46-.58-1-1.23-1.46-1.8l-1.66-2.2,1.19-2.18,4.05,5.65,8-1.65-1.23,2.26-3.42.69c-.89.18-1.93.35-2.84.52l0,.09c.49.63,1,1.28,1.52,1.94L281.09,85,279.9,87.2C278.23,84.82,277.4,83.62,275.74,81.24Z"/><path class="cls-6" d="M291.55,76.26l-1.68-1.08a3.61,3.61,0,0,0,.65-.82,2.57,2.57,0,0,0-.85-3.42l-.67-.56-14.37.38,1.14-2.07,7.42,0c1.28,0,2.74,0,4.13.07l.05-.09c-1-.74-2-1.57-2.91-2.29l-5.07-4.22c.44-.79.66-1.18,1.09-2L290.72,69c2.07,1.71,3.12,3.55,1.83,5.93A5.25,5.25,0,0,1,291.55,76.26Z"/><path class="cls-6" d="M292.34,61.58c-2-3.84-3-5.76-5.07-9.6-1.26,2.3-1.89,3.46-3.16,5.76l-1.93-.7c1.92-3.47,2.87-5.21,4.78-8.68l1.28.46c2,3.84,3,5.76,5,9.6,1.46-2.67,2.18-4,3.64-6.67l1.94.7L293.63,62Z"/><path class="cls-6" d="M304.11,49.64c-1.27-3.69-3.67-6-7.66-7.47a15.78,15.78,0,0,0-12,.38L284,41a17.71,17.71,0,0,1,13.47-.61c4.61,1.67,7.35,4.75,8.45,8.54Z"/><path class="cls-11" d="M265.94,167.23c46,6.89,76.26,18.69,76.26,32.1,0,21.26-76.27,38.49-170.35,38.49S1.5,220.59,1.5,199.33s76.27-38.5,170.35-38.5q7.53,0,14.89.14"/><path class="cls-13" d="M235.13,224c51.31,5.42,86.87,17.18,86.87,30.83,0,18.78-67.37,34-150.48,34S21,273.65,21,254.87c0-17.52,58.6-31.94,133.91-33.8"/><path class="cls-14" d="M219.89,251c8.75,2.32,14,5.27,14,8.48,0,7.43-28.15,13.46-62.87,13.46s-62.87-6-62.87-13.46c0-5.15,13.47-9.62,33.27-11.89"/><ellipse class="cls-13" cx="171.79" cy="496.55" rx="67.29" ry="15.21"/><ellipse class="cls-11" cx="171.85" cy="509.43" rx="83.06" ry="18.77"/><path class="cls-11" d="M262.25,174.28c35.57,4.88,58.57,12.64,58.57,21.39,0,14.77-65.68,26.74-146.69,26.74s-146.7-12-146.7-26.74,65.68-26.75,146.7-26.75q3.94,0,7.85,0"/><path class="cls-11" d="M88.79,509.43s-10.22-39.2-17.33-54.66c-46.64-101.43-70-50.06-70-255.44"/><path class="cls-13" d="M104.56,496.12c-3.62-12.84-9.26-31.71-13.7-41.35C48.89,363.49,25.8,396,21.6,253.68"/><path class="cls-13" d="M239.33,496.12c3.62-12.84,9.26-31.71,13.7-41.35,42-91.28,65.06-58.81,69.26-201.09"/><path class="cls-11" d="M254.87,509.43s10.22-39.2,17.33-54.66c42.37-92.15,65.5-58.19,69.38-205.17.39-14.82.58-31.47.58-50.27"/><path class="cls-11" d="M340.41,264.28h33.25a42.43,42.43,0,0,1,42.13,47.78c-3.22,25.13-11.56,45.24-24.77,59.77-15.36,16.88-36.41,25.38-62.75,25.38a139.23,139.23,0,0,1-17.4-1.14l-4.32-.89"/><path class="cls-11" d="M320.42,374.76c2.59.19,5.12.28,7.57.28,38.1,0,60.22-22.08,65.83-65.8A19.89,19.89,0,0,0,389,293.35a20.36,20.36,0,0,0-15.29-6.92H340.41"/><path class="cls-13" d="M255.26,507.94c10.72,4,17,8.76,17,13.91,0,13.73-44.51,24.87-99.43,24.87s-99.42-11.14-99.42-24.87c0-4.62,5-8.94,13.78-12.64"/><path class="cls-14" d="M222.63,248.21c14.68,3.18,23.88,7.73,23.88,12.79,0,9.61-33.24,17.4-74.25,17.4S98,270.61,98,261c0-7.09,18-13.18,44-15.9"/><path class="cls-9" d="M228.36,325.74c-7.13,0-7.14,11.08,0,11.08S235.5,325.74,228.36,325.74Z"/><path class="cls-9" d="M108.86,336.6c-7.12,0-7.14,11.08,0,11.08S116,336.6,108.86,336.6Z"/><path class="cls-9" d="M195.77,368.29c-7.13,0-7.14,11.07,0,11.07S202.91,368.29,195.77,368.29Z"/><path class="cls-9" d="M50,292.25c-7.12,0-7.14,11.07,0,11.07S57.16,292.25,50,292.25Z"/><path class="cls-9" d="M255.51,293.7c-11.08,0-11.1,17.22,0,17.22S266.62,293.7,255.51,293.7Z"/><path class="cls-9" d="M281.77,346.56c-7.13,0-7.14,11.08,0,11.08S288.91,346.56,281.77,346.56Z"/><path class="cls-15" d="M40.26,242.22a4.05,4.05,0,0,0-4.9,4.08c.5,16.79,2.64,70.39,10.2,96.86,9,31.64,31,52.3,37.45,65.22,6.26,12.53,16.78,33,25.66,65.43a4.07,4.07,0,0,0,3.92,3H128a4,4,0,0,0,3.77-5.55c-7.18-17.88-30-74-42.34-95.17C66.12,336,62.52,293.5,64.14,250.75a4.06,4.06,0,0,0-3.21-4.13Z"/><path class="cls-16" d="M514.2,223.41l88.53-5.69a1,1,0,0,1,.25,0c1.18.23,9.9,2.16,19,11.13a1,1,0,0,1-.56,1.71l-86.8,12.22a1,1,0,0,1-1-.48c-1.35-2.28-7.11-10.91-19.79-17A1,1,0,0,1,514.2,223.41Z"/></g></g></svg>