<svg xmlns="http://www.w3.org/2000/svg" viewBox="0 0 1042.24 146.97"><defs><style>.cls-1{fill:#0a9600;}.cls-2{fill:#fff;}</style></defs><g id="Layer_2" data-name="Layer 2"><g id="Layer_1-2" data-name="Layer 1"><path class="cls-1" d="M391.76,57.43v65.05H368V57.43H344V36.72h71.78V57.43Z"/><path class="cls-1" d="M471.25,96.63H433.52c.74,7.1,4.9,10.29,10.91,10.29,5.63,0,10.29-1.23,16.66-4.54l8.45,14.09a49.85,49.85,0,0,1-26.21,7.35c-19.36,0-30-13.72-30-33.45,0-22.16,12.49-33.56,29.4-33.56,17.64,0,28.67,11.64,28.67,35.53A39.76,39.76,0,0,1,471.25,96.63ZM442.1,73.11c-5,0-7.84,3.43-8.58,9.8H451.9C450.8,76.41,448.59,73.11,442.1,73.11Z"/><path class="cls-1" d="M512.28,123.82c-18.86,0-30.14-12-30.14-33.68,0-19.73,10.05-33.33,30.63-33.33,12.13,0,19.11,5.64,24.75,14.7L522.33,83c-3.07-5.64-5.15-8.33-9.93-8.33-5.64,0-8.45,5.63-8.45,15.8S507,105.93,513,105.93c4.17,0,7.11-2.32,11.15-8.33l14,10.91C530.66,119.53,523.67,123.82,512.28,123.82Z"/><path class="cls-1" d="M587.48,122.48V86c0-8.33-2.82-10.54-7.35-10.54s-7.47,2.21-7.47,10.29v36.76h-22V42l22-8.82V62.45a24.54,24.54,0,0,1,16.17-5.64c14.09,0,20.83,9.43,20.83,26.34v39.33Z"/><path class="cls-2" d="M662.44,123.82c-25.48,0-39.08-18.87-39.08-44.22,0-27.57,16.17-44.23,39.2-44.23,21.07,0,29.4,9.07,35.28,25.24l-21.56,8.45c-3.07-8-6-13-13.84-13-9.92,0-14.21,9.92-14.21,23.52,0,13.11,4.16,23.52,14.45,23.52,7.47,0,10.66-4,15.31-12.13l20.1,10.66C692.33,112.92,682.77,123.82,662.44,123.82Z"/><path class="cls-2" d="M752.33,82.41c-2.82-3.06-6-5.38-10.29-5.38-5.39,0-8.7,2.57-8.7,10.41v35H711.29V58.16h22.05v4.65c3.8-3.67,8.09-6,13.73-6a18.78,18.78,0,0,1,10.41,2.7Z"/><path class="cls-2" d="M804.75,122.48v-4.3a24.24,24.24,0,0,1-16,5.64c-14.09,0-20.83-9.43-20.83-26.34V58.16h22.17V94.67c0,8.32,2.82,10.53,7.35,10.53s7.35-2.21,7.35-10.29V58.16h22.18v64.32Z"/><path class="cls-2" d="M879.71,122.48V86c0-8.33-2.82-10.54-7.35-10.54s-7.48,2.21-7.48,10.29v36.76h-22V58.16h22v4.29a24.58,24.58,0,0,1,16.17-5.64c14.09,0,20.83,9.43,20.83,26.34v39.33Z"/><path class="cls-2" d="M944.86,123.82c-18.86,0-30.14-12-30.14-33.68,0-19.73,10-33.33,30.63-33.33,12.13,0,19.11,5.64,24.74,14.7L954.9,83c-3.06-5.64-5.14-8.33-9.92-8.33-5.64,0-8.45,5.63-8.45,15.8s3.06,15.43,9.06,15.43c4.17,0,7.11-2.32,11.15-8.33l14,10.91C963.24,119.53,956.25,123.82,944.86,123.82Z"/><path class="cls-2" d="M1020.06,122.48V86c0-8.33-2.82-10.54-7.35-10.54s-7.47,2.21-7.47,10.29v36.76h-22V42l22-8.82V62.45a24.54,24.54,0,0,1,16.17-5.64c14.09,0,20.83,9.43,20.83,26.34v39.33Z"/><polygon class="cls-1" points="0 0 0 48.99 48.99 48.99 48.99 146.97 97.98 146.97 97.98 48.99 146.97 48.99 146.97 0 0 0"/><polygon class="cls-1" points="195.96 97.98 195.96 48.99 146.97 48.99 146.97 146.97 293.94 146.97 293.94 97.98 195.96 97.98"/><rect class="cls-1" x="195.96" width="97.98" height="48.99"/></g></g></svg>