<svg width="72" height="60" viewBox="0 0 72 60" fill="none" xmlns="http://www.w3.org/2000/svg">
<g clip-path="url(#clip0_11_45)">
<path d="M71.9 1.29994C71.6 0.499938 71.3 0.299938 70.9 0.199938C69.8 -0.300062 68 0.299938 68 0.299938C68 0.299938 4.9 22.9999 1.3 25.4999C0.499998 25.9999 0.299998 26.3999 0.0999979 26.6999C-0.500002 28.4999 1.4 29.2999 1.4 29.2999L17.7 34.5999C17.7 34.5999 18.3 34.6999 18.5 34.5999C22.2 32.2999 55.7 11.0999 57.6 10.3999C57.9 10.2999 58.1 10.3999 58.1 10.5999C57.3 13.2999 28.2 39.1999 28.2 39.1999C28.2 39.1999 28.1 39.2999 28 39.4999L26.5 55.5999C26.5 55.5999 25.9 60.4999 30.8 55.5999C34.3 52.0999 37.7 49.1999 39.3 47.7999C45 51.5999 51 55.8999 53.6 58.0999C54.9 59.1999 56 59.3999 56.9 59.3999C59.4 59.2999 60.1 56.5999 60.1 56.5999C60.1 56.5999 71.5 10.2999 71.9 4.09994C71.9 3.49994 72 3.09994 72 2.69994C72 2.09994 72 1.59994 71.9 1.29994Z" fill="white"/>
</g>
<defs>
<clipPath id="clip0_11_45">
<rect width="72" height="59.4" fill="white"/>
</clipPath>
</defs>
</svg>
