<svg width="34" height="34" viewBox="0 0 34 34" fill="none" xmlns="http://www.w3.org/2000/svg">
<path d="M16.9373 32.9963C25.8064 32.9963 32.9963 25.8064 32.9963 16.9372C32.9963 8.06805 25.8064 0.878174 16.9373 0.878174C8.06811 0.878174 0.878235 8.06805 0.878235 16.9372C0.878235 25.8064 8.06811 32.9963 16.9373 32.9963Z" stroke="#DDFC76" stroke-width="1.5" stroke-miterlimit="10"/>
<path d="M25.7196 18.4428L23.2103 16.6863C22.834 16.4354 22.4576 16.5609 22.2066 16.8118C21.9557 17.1882 22.0812 17.5646 22.3321 17.8155L24.8413 19.5719L22.3321 21.3284C21.9557 21.5793 21.9557 21.9557 22.2066 22.3321C22.3321 22.583 22.583 22.583 22.834 22.583C22.9594 22.583 23.0849 22.583 23.2103 22.4576L25.7196 20.7011C26.0959 20.4502 26.4723 19.9483 26.4723 19.4465C26.4723 19.1956 26.2214 18.6937 25.7196 18.4428Z" fill="#DDFC76"/>
<path d="M19.1956 18.1917C19.4465 17.9408 19.572 17.5644 19.321 17.3135C18.9446 16.8116 17.69 15.9334 16.059 16.9371C15.8081 17.0625 15.6827 17.188 15.4317 17.3135C14.9299 17.6898 14.1771 18.0662 13.2989 17.3135C13.048 17.0625 12.6716 17.0625 12.4207 17.3135C12.1697 17.5644 12.1697 17.9408 12.4207 18.1917C13.048 18.819 13.6753 19.0699 14.3026 19.0699C15.0553 19.0699 15.6827 18.819 16.1845 18.3172C16.31 18.1917 16.4354 18.0662 16.5609 18.0662C17.69 17.4389 18.1919 18.0662 18.3173 18.1917C18.5683 18.3172 18.9446 18.4426 19.1956 18.1917Z" fill="#DDFC76"/>
<path d="M20.4502 15.8081C20.0738 15.9336 19.8229 16.31 19.9483 16.6863C19.9483 16.6863 21.0775 20.7011 18.6937 23.3358C18.4428 23.5867 18.4428 24.0885 18.8192 24.3395C18.9446 24.4649 19.0701 24.4649 19.321 24.4649C19.572 24.4649 19.6974 24.3395 19.8229 24.214C22.7085 20.952 21.3284 16.4354 21.3284 16.1845C21.2029 15.9336 20.8266 15.8081 20.4502 15.8081Z" fill="#DDFC76"/>
<path d="M12.0443 16.6863C12.1697 16.3099 11.9188 15.9335 11.5424 15.808C11.166 15.6826 10.7897 15.9335 10.6642 16.3099C10.6642 16.5608 9.28413 21.0774 12.1697 24.3394C12.2952 24.4649 12.5461 24.5903 12.6716 24.5903C12.797 24.5903 13.048 24.5903 13.1734 24.4649C13.4244 24.2139 13.5498 23.7121 13.2989 23.4612C10.9151 20.701 12.0443 16.8117 12.0443 16.6863Z" fill="#DDFC76"/>
<path d="M17.3137 23.3357H14.5535C14.1771 23.3357 13.8007 23.7121 13.8007 24.0885C13.8007 24.4648 14.1771 24.8412 14.5535 24.8412H17.3137C17.69 24.8412 18.0664 24.4648 18.0664 24.0885C18.0664 23.7121 17.69 23.3357 17.3137 23.3357Z" fill="#DDFC76"/>
<path d="M16.059 15.4316C16.1845 15.5571 16.31 15.5571 16.31 15.5571C16.4354 15.5571 16.5609 15.4316 16.6863 15.3062C18.4428 12.9224 16.8118 10.4132 16.6863 10.2877C16.5609 10.0368 16.31 10.0368 16.059 10.1622C15.8081 10.2877 15.8081 10.6641 15.9336 10.915C15.9336 11.0405 17.3136 12.9224 15.9336 14.8043C15.6827 14.9298 15.8081 15.3062 16.059 15.4316Z" fill="#DDFC76"/>
<path d="M14.9299 12.9224C15.0553 12.9224 15.1808 12.9224 15.1808 12.7969C15.4317 12.6715 15.4317 12.2951 15.3063 12.0442C15.3063 11.9187 13.9262 10.0368 15.3063 8.15487C15.4317 7.90394 15.4317 7.65302 15.1808 7.4021C15.0553 7.4021 14.679 7.52756 14.5535 7.77848C12.797 10.1622 14.428 12.6715 14.5535 12.7969C14.679 12.9224 14.8044 12.9224 14.9299 12.9224Z" fill="#DDFC76"/>
</svg>
