<svg width="78" height="63" viewBox="0 0 78 63" fill="none" xmlns="http://www.w3.org/2000/svg">
<path d="M24.5423 63C53.9931 63 70.0572 38.7761 70.0572 17.7465C70.0572 17.0366 70.0572 16.4155 69.968 15.7056C73.0915 13.4873 75.7689 10.6479 77.9108 7.45352C75.0549 8.69577 71.9313 9.5831 68.7185 9.93803C72.1098 7.98592 74.6087 4.88028 75.8581 1.15352C72.7345 3.0169 69.3432 4.25915 65.6842 5.05775C62.7391 1.95211 58.5446 0 53.9931 0C45.1579 0 38.0183 7.09859 38.0183 15.8831C38.0183 17.1254 38.1968 18.3676 38.4645 19.5211C25.0778 18.9 13.2975 12.5113 5.44394 2.92817C4.10526 5.23521 3.30206 7.98592 3.30206 10.9141C3.30206 16.4155 6.15789 21.2958 10.4416 24.1352C7.85355 24.0465 5.35469 23.3366 3.21281 22.1831C3.21281 22.2718 3.21281 22.2718 3.21281 22.3606C3.21281 30.0803 8.74599 36.469 16.0641 37.9775C14.7254 38.3324 13.2975 38.5099 11.8696 38.5099C10.7986 38.5099 9.81693 38.4211 8.83524 38.2437C10.8879 44.5437 16.778 49.1577 23.7391 49.2465C18.2952 53.5056 11.3341 56.0789 3.83753 56.0789C2.5881 56.0789 1.24943 55.9901 0 55.9014C7.05034 60.338 15.5286 63 24.5423 63Z" fill="white"/>
</svg>
