<svg xmlns="http://www.w3.org/2000/svg" width="1919.498" height="1359.284" viewBox="0 0 1919.498 1359.284">
  <g id="Group_1245" data-name="Group 1245" transform="translate(15620.685 -5840.618)">
    <path id="Rectangle_3387" data-name="Rectangle 3387" d="M-.25-.25H80.19V80.19H-.25Zm79.94.5H.25V79.69H79.69Z" transform="translate(-15300.672 6320.088)" fill="#949494"/>
    <path id="Rectangle_3388" data-name="Rectangle 3388" d="M-.25-.25H80.19V80.19H-.25Zm79.94.5H.25V79.69H79.69Z" transform="translate(-15460.553 6320.088)" fill="#949494"/>
    <path id="Rectangle_3507" data-name="Rectangle 3507" d="M-.25-.25H80.19V80.19H-.25Zm79.94.5H.25V79.69H79.69Z" transform="translate(-15460.553 6799.729)" fill="#949494"/>
    <path id="Rectangle_3557" data-name="Rectangle 3557" d="M-.25-.25H80.19V80.19H-.25Zm79.94.5H.25V79.69H79.69Z" transform="translate(-15460.553 6958.861)" fill="#949494"/>
    <path id="Rectangle_3389" data-name="Rectangle 3389" d="M-.25-.25H80.19V80.19H-.25Zm79.94.5H.25V79.69H79.69Z" transform="translate(-15380.612 6320.088)" fill="#949494"/>
    <path id="Rectangle_3390" data-name="Rectangle 3390" d="M-.25-.25H80.19V80.19H-.25Zm79.94.5H.25V79.69H79.69Z" transform="translate(-15540.494 6320.088)" fill="#949494"/>
    <path id="Rectangle_3391" data-name="Rectangle 3391" d="M-.25-.25H80.19V80.19H-.25Zm79.94.5H.25V79.69H79.69Z" transform="translate(-15620.435 6320.088)" fill="#949494"/>
    <path id="Rectangle_3508" data-name="Rectangle 3508" d="M-.25-.25H80.19V80.19H-.25Zm79.94.5H.25V79.69H79.69Z" transform="translate(-15540.494 6799.729)" fill="#949494"/>
    <path id="Rectangle_3509" data-name="Rectangle 3509" d="M-.25-.25H80.19V80.19H-.25Zm79.94.5H.25V79.69H79.69Z" transform="translate(-15620.435 6799.729)" fill="#949494"/>
    <path id="Rectangle_3558" data-name="Rectangle 3558" d="M-.25-.25H80.19V80.19H-.25Zm79.94.5H.25V79.69H79.69Z" transform="translate(-15540.494 6958.861)" fill="#949494"/>
    <path id="Rectangle_3559" data-name="Rectangle 3559" d="M-.25-.25H80.19V80.19H-.25Zm79.94.5H.25V79.69H79.69Z" transform="translate(-15620.435 6958.861)" fill="#949494"/>
    <path id="Rectangle_3392" data-name="Rectangle 3392" d="M-.25-.25H80.19V80.19H-.25Zm79.94.5H.25V79.69H79.69Z" transform="translate(-15220.732 6320.088)" fill="#949494"/>
    <path id="Rectangle_3393" data-name="Rectangle 3393" d="M-.25-.25H80.19V80.19H-.25Zm79.94.5H.25V79.69H79.69Z" transform="translate(-15140.793 6320.088)" fill="#949494"/>
    <path id="Rectangle_3394" data-name="Rectangle 3394" d="M-.25-.25H80.19V80.19H-.25Zm79.94.5H.25V79.69H79.69Z" transform="translate(-15060.853 6320.088)" fill="#949494"/>
    <path id="Rectangle_3395" data-name="Rectangle 3395" d="M-.25-.25H80.19V80.19H-.25Zm79.94.5H.25V79.69H79.69Z" transform="translate(-14980.912 6320.088)" fill="#949494"/>
    <path id="Rectangle_3396" data-name="Rectangle 3396" d="M-.25-.25H80.19V80.19H-.25Zm79.94.5H.25V79.69H79.69Z" transform="translate(-14900.972 6320.088)" fill="#949494"/>
    <path id="Rectangle_3397" data-name="Rectangle 3397" d="M-.25-.25H80.19V80.19H-.25Zm79.94.5H.25V79.69H79.69Z" transform="translate(-14821.032 6320.088)" fill="#949494"/>
    <path id="Rectangle_3412" data-name="Rectangle 3412" d="M-.25-.25H80.19V80.19H-.25Zm79.94.5H.25V79.69H79.69Z" transform="translate(-14661.152 6320.088)" fill="#949494"/>
    <path id="Rectangle_3407" data-name="Rectangle 3407" d="M-.25-.25H80.19V80.19H-.25Zm79.94.5H.25V79.69H79.69Z" transform="translate(-14741.092 6320.088)" fill="#949494"/>
    <path id="Rectangle_3413" data-name="Rectangle 3413" d="M-.25-.25H80.19V80.19H-.25Zm79.94.5H.25V79.69H79.69Z" transform="translate(-14581.212 6320.088)" fill="#949494"/>
    <path id="Rectangle_3443" data-name="Rectangle 3443" d="M-.25-.25H80.19V80.19H-.25Zm79.94.5H.25V79.69H79.69Z" transform="translate(-14501.271 6320.088)" fill="#949494"/>
    <path id="Rectangle_3446" data-name="Rectangle 3446" d="M-.25-.25H80.19V80.19H-.25Zm79.94.5H.25V79.69H79.69Z" transform="translate(-15460.553 6719.79)" fill="#949494"/>
    <path id="Rectangle_3534" data-name="Rectangle 3534" d="M-.25-.25H80.19V80.19H-.25Zm79.94.5H.25V79.69H79.69Z" transform="translate(-15460.553 6878.921)" fill="#949494"/>
    <path id="Rectangle_3398" data-name="Rectangle 3398" d="M-.25-.25H80.19V80.19H-.25Zm79.94.5H.25V79.69H79.69Z" transform="translate(-15540.494 6240.148)" fill="#949494"/>
    <path id="Rectangle_3399" data-name="Rectangle 3399" d="M-.25-.25H80.19V80.19H-.25Zm79.94.5H.25V79.69H79.69Z" transform="translate(-15620.435 6240.148)" fill="#949494"/>
    <path id="Rectangle_3447" data-name="Rectangle 3447" d="M-.25-.25H80.19V80.19H-.25Zm79.94.5H.25V79.69H79.69Z" transform="translate(-15540.494 6719.79)" fill="#949494"/>
    <path id="Rectangle_3448" data-name="Rectangle 3448" d="M-.25-.25H80.19V80.19H-.25Zm79.94.5H.25V79.69H79.69Z" transform="translate(-15620.435 6719.79)" fill="#949494"/>
    <path id="Rectangle_3535" data-name="Rectangle 3535" d="M-.25-.25H80.19V80.19H-.25Zm79.94.5H.25V79.69H79.69Z" transform="translate(-15540.494 6878.921)" fill="#949494"/>
    <path id="Rectangle_3536" data-name="Rectangle 3536" d="M-.25-.25H80.19V80.19H-.25Zm79.94.5H.25V79.69H79.69Z" transform="translate(-15620.435 6878.921)" fill="#949494"/>
    <g id="Group_1240" data-name="Group 1240" transform="translate(-15622 794.471)">
      <path id="Rectangle_2811" data-name="Rectangle 2811" d="M-.25-.25H80.19V80.19H-.25Zm79.94.5H.25V79.69H79.69Z" transform="translate(161.447 6325.241)" fill="#949494"/>
      <path id="Rectangle_2813" data-name="Rectangle 2813" d="M-.25-.25H80.19V80.19H-.25Zm79.94.5H.25V79.69H79.69Z" transform="translate(401.269 6325.241)" fill="#949494"/>
      <path id="Rectangle_2807" data-name="Rectangle 2807" d="M-.25-.25H80.19V80.19H-.25Zm79.94.5H.25V79.69H79.69Z" transform="translate(81.506 6325.241)" fill="#949494"/>
      <path id="Rectangle_2814" data-name="Rectangle 2814" d="M-.25-.25H80.19V80.19H-.25Zm79.94.5H.25V79.69H79.69Z" transform="translate(321.329 6325.241)" fill="#949494"/>
      <path id="Rectangle_2808" data-name="Rectangle 2808" d="M-.25-.25H80.19V80.19H-.25Zm79.94.5H.25V79.69H79.69Z" transform="translate(1.565 6325.241)" fill="#949494"/>
      <path id="Rectangle_2817" data-name="Rectangle 2817" d="M-.25-.25H80.19V80.19H-.25Zm79.94.5H.25V79.69H79.69Z" transform="translate(241.388 6325.241)" fill="#949494"/>
      <path id="Rectangle_2812" data-name="Rectangle 2812" d="M-.25-.25H80.19V80.19H-.25Zm79.94.5H.25V79.69H79.69Z" transform="translate(161.447 6245.301)" fill="#949494"/>
      <path id="Rectangle_2815" data-name="Rectangle 2815" d="M-.25-.25H80.19V80.19H-.25Zm79.94.5H.25V79.69H79.69Z" transform="translate(401.269 6245.301)" fill="#949494"/>
      <path id="Rectangle_2809" data-name="Rectangle 2809" d="M-.25-.25H80.19V80.19H-.25Zm79.94.5H.25V79.69H79.69Z" transform="translate(81.506 6245.301)" fill="#949494"/>
      <path id="Rectangle_2816" data-name="Rectangle 2816" d="M-.25-.25H80.19V80.19H-.25Zm79.94.5H.25V79.69H79.69Z" transform="translate(321.329 6245.301)" fill="#949494"/>
      <path id="Rectangle_2810" data-name="Rectangle 2810" d="M-.25-.25H80.19V80.19H-.25Zm79.94.5H.25V79.69H79.69Z" transform="translate(1.565 6245.301)" fill="#949494"/>
      <path id="Rectangle_2818" data-name="Rectangle 2818" d="M-.25-.25H80.19V80.19H-.25Zm79.94.5H.25V79.69H79.69Z" transform="translate(241.388 6245.301)" fill="#949494"/>
    </g>
    <g id="Group_1241" data-name="Group 1241" transform="translate(-14663.564 794.471)">
      <path id="Rectangle_2811-2" data-name="Rectangle 2811" d="M-.25-.25H80.19V80.19H-.25Zm79.94.5H.25V79.69H79.69Z" transform="translate(161.447 6325.241)" fill="#949494"/>
      <path id="Rectangle_2813-2" data-name="Rectangle 2813" d="M-.25-.25H80.19V80.19H-.25Zm79.94.5H.25V79.69H79.69Z" transform="translate(401.269 6325.241)" fill="#949494"/>
      <path id="Rectangle_2807-2" data-name="Rectangle 2807" d="M-.25-.25H80.19V80.19H-.25Zm79.94.5H.25V79.69H79.69Z" transform="translate(81.506 6325.241)" fill="#949494"/>
      <path id="Rectangle_2814-2" data-name="Rectangle 2814" d="M-.25-.25H80.19V80.19H-.25Zm79.94.5H.25V79.69H79.69Z" transform="translate(321.329 6325.241)" fill="#949494"/>
      <path id="Rectangle_2808-2" data-name="Rectangle 2808" d="M-.25-.25H80.19V80.19H-.25Zm79.94.5H.25V79.69H79.69Z" transform="translate(1.565 6325.241)" fill="#949494"/>
      <path id="Rectangle_2817-2" data-name="Rectangle 2817" d="M-.25-.25H80.19V80.19H-.25Zm79.94.5H.25V79.69H79.69Z" transform="translate(241.388 6325.241)" fill="#949494"/>
      <path id="Rectangle_2812-2" data-name="Rectangle 2812" d="M-.25-.25H80.19V80.19H-.25Zm79.94.5H.25V79.69H79.69Z" transform="translate(161.447 6245.301)" fill="#949494"/>
      <path id="Rectangle_2815-2" data-name="Rectangle 2815" d="M-.25-.25H80.19V80.19H-.25Zm79.94.5H.25V79.69H79.69Z" transform="translate(401.269 6245.301)" fill="#949494"/>
      <path id="Rectangle_2809-2" data-name="Rectangle 2809" d="M-.25-.25H80.19V80.19H-.25Zm79.94.5H.25V79.69H79.69Z" transform="translate(81.506 6245.301)" fill="#949494"/>
      <path id="Rectangle_2816-2" data-name="Rectangle 2816" d="M-.25-.25H80.19V80.19H-.25Zm79.94.5H.25V79.69H79.69Z" transform="translate(321.329 6245.301)" fill="#949494"/>
      <path id="Rectangle_2810-2" data-name="Rectangle 2810" d="M-.25-.25H80.19V80.19H-.25Zm79.94.5H.25V79.69H79.69Z" transform="translate(1.565 6245.301)" fill="#949494"/>
      <path id="Rectangle_2818-2" data-name="Rectangle 2818" d="M-.25-.25H80.19V80.19H-.25Zm79.94.5H.25V79.69H79.69Z" transform="translate(241.388 6245.301)" fill="#949494"/>
    </g>
    <g id="Group_1242" data-name="Group 1242" transform="translate(-15143.209 794.471)">
      <path id="Rectangle_2811-3" data-name="Rectangle 2811" d="M-.25-.25H80.19V80.19H-.25Zm79.94.5H.25V79.69H79.69Z" transform="translate(161.447 6325.241)" fill="#949494"/>
      <path id="Rectangle_2813-3" data-name="Rectangle 2813" d="M-.25-.25H80.19V80.19H-.25Zm79.94.5H.25V79.69H79.69Z" transform="translate(401.269 6325.241)" fill="#949494"/>
      <path id="Rectangle_2807-3" data-name="Rectangle 2807" d="M-.25-.25H80.19V80.19H-.25Zm79.94.5H.25V79.69H79.69Z" transform="translate(81.506 6325.241)" fill="#949494"/>
      <path id="Rectangle_2814-3" data-name="Rectangle 2814" d="M-.25-.25H80.19V80.19H-.25Zm79.94.5H.25V79.69H79.69Z" transform="translate(321.329 6325.241)" fill="#949494"/>
      <path id="Rectangle_2808-3" data-name="Rectangle 2808" d="M-.25-.25H80.19V80.19H-.25Zm79.94.5H.25V79.69H79.69Z" transform="translate(1.565 6325.241)" fill="#949494"/>
      <path id="Rectangle_2817-3" data-name="Rectangle 2817" d="M-.25-.25H80.19V80.19H-.25Zm79.94.5H.25V79.69H79.69Z" transform="translate(241.388 6325.241)" fill="#949494"/>
      <path id="Rectangle_2812-3" data-name="Rectangle 2812" d="M-.25-.25H80.19V80.19H-.25Zm79.94.5H.25V79.69H79.69Z" transform="translate(161.447 6245.301)" fill="#949494"/>
      <path id="Rectangle_2815-3" data-name="Rectangle 2815" d="M-.25-.25H80.19V80.19H-.25Zm79.94.5H.25V79.69H79.69Z" transform="translate(401.269 6245.301)" fill="#949494"/>
      <path id="Rectangle_2809-3" data-name="Rectangle 2809" d="M-.25-.25H80.19V80.19H-.25Zm79.94.5H.25V79.69H79.69Z" transform="translate(81.506 6245.301)" fill="#949494"/>
      <path id="Rectangle_2816-3" data-name="Rectangle 2816" d="M-.25-.25H80.19V80.19H-.25Zm79.94.5H.25V79.69H79.69Z" transform="translate(321.329 6245.301)" fill="#949494"/>
      <path id="Rectangle_2810-3" data-name="Rectangle 2810" d="M-.25-.25H80.19V80.19H-.25Zm79.94.5H.25V79.69H79.69Z" transform="translate(1.565 6245.301)" fill="#949494"/>
      <path id="Rectangle_2818-3" data-name="Rectangle 2818" d="M-.25-.25H80.19V80.19H-.25Zm79.94.5H.25V79.69H79.69Z" transform="translate(241.388 6245.301)" fill="#949494"/>
    </g>
    <g id="Group_1243" data-name="Group 1243" transform="translate(-14184.773 794.471)">
      <path id="Rectangle_2811-4" data-name="Rectangle 2811" d="M-.25-.25H80.19V80.19H-.25Zm79.94.5H.25V79.69H79.69Z" transform="translate(161.447 6325.241)" fill="#949494"/>
      <path id="Rectangle_2813-4" data-name="Rectangle 2813" d="M-.25-.25H80.19V80.19H-.25Zm79.94.5H.25V79.69H79.69Z" transform="translate(401.269 6325.241)" fill="#949494"/>
      <path id="Rectangle_2807-4" data-name="Rectangle 2807" d="M-.25-.25H80.19V80.19H-.25Zm79.94.5H.25V79.69H79.69Z" transform="translate(81.506 6325.241)" fill="#949494"/>
      <path id="Rectangle_2814-4" data-name="Rectangle 2814" d="M-.25-.25H80.19V80.19H-.25Zm79.94.5H.25V79.69H79.69Z" transform="translate(321.329 6325.241)" fill="#949494"/>
      <path id="Rectangle_2808-4" data-name="Rectangle 2808" d="M-.25-.25H80.19V80.19H-.25Zm79.94.5H.25V79.69H79.69Z" transform="translate(1.565 6325.241)" fill="#949494"/>
      <path id="Rectangle_2817-4" data-name="Rectangle 2817" d="M-.25-.25H80.19V80.19H-.25Zm79.94.5H.25V79.69H79.69Z" transform="translate(241.388 6325.241)" fill="#949494"/>
      <path id="Rectangle_2812-4" data-name="Rectangle 2812" d="M-.25-.25H80.19V80.19H-.25Zm79.94.5H.25V79.69H79.69Z" transform="translate(161.447 6245.301)" fill="#949494"/>
      <path id="Rectangle_2815-4" data-name="Rectangle 2815" d="M-.25-.25H80.19V80.19H-.25Zm79.94.5H.25V79.69H79.69Z" transform="translate(401.269 6245.301)" fill="#949494"/>
      <path id="Rectangle_2809-4" data-name="Rectangle 2809" d="M-.25-.25H80.19V80.19H-.25Zm79.94.5H.25V79.69H79.69Z" transform="translate(81.506 6245.301)" fill="#949494"/>
      <path id="Rectangle_2816-4" data-name="Rectangle 2816" d="M-.25-.25H80.19V80.19H-.25Zm79.94.5H.25V79.69H79.69Z" transform="translate(321.329 6245.301)" fill="#949494"/>
      <path id="Rectangle_2810-4" data-name="Rectangle 2810" d="M-.25-.25H80.19V80.19H-.25Zm79.94.5H.25V79.69H79.69Z" transform="translate(1.565 6245.301)" fill="#949494"/>
      <path id="Rectangle_2818-4" data-name="Rectangle 2818" d="M-.25-.25H80.19V80.19H-.25Zm79.94.5H.25V79.69H79.69Z" transform="translate(241.388 6245.301)" fill="#949494"/>
    </g>
    <path id="Rectangle_3400" data-name="Rectangle 3400" d="M-.25-.25H80.19V80.19H-.25Zm79.94.5H.25V79.69H79.69Z" transform="translate(-15140.793 6240.148)" fill="#949494"/>
    <path id="Rectangle_3593" data-name="Rectangle 3593" d="M-.25-.25H80.19V80.19H-.25Zm79.94.5H.25V79.69H79.69Z" transform="translate(-15460.554 6240.148)" fill="#949494"/>
    <path id="Rectangle_3401" data-name="Rectangle 3401" d="M-.25-.25H80.19V80.19H-.25Zm79.94.5H.25V79.69H79.69Z" transform="translate(-15060.853 6240.148)" fill="#949494"/>
    <path id="Rectangle_3594" data-name="Rectangle 3594" d="M-.25-.25H80.19V80.19H-.25Zm79.94.5H.25V79.69H79.69Z" transform="translate(-15380.613 6240.148)" fill="#949494"/>
    <path id="Rectangle_3402" data-name="Rectangle 3402" d="M-.25-.25H80.19V80.19H-.25Zm79.94.5H.25V79.69H79.69Z" transform="translate(-14980.912 6240.148)" fill="#949494"/>
    <path id="Rectangle_3595" data-name="Rectangle 3595" d="M-.25-.25H80.19V80.19H-.25Zm79.94.5H.25V79.69H79.69Z" transform="translate(-15300.673 6240.148)" fill="#949494"/>
    <path id="Rectangle_3403" data-name="Rectangle 3403" d="M-.25-.25H80.19V80.19H-.25Zm79.94.5H.25V79.69H79.69Z" transform="translate(-14900.972 6240.148)" fill="#949494"/>
    <path id="Rectangle_3596" data-name="Rectangle 3596" d="M-.25-.25H80.19V80.19H-.25Zm79.94.5H.25V79.69H79.69Z" transform="translate(-15220.732 6240.148)" fill="#949494"/>
    <path id="Rectangle_3404" data-name="Rectangle 3404" d="M-.25-.25H80.19V80.19H-.25Zm79.94.5H.25V79.69H79.69Z" transform="translate(-14821.032 6240.148)" fill="#949494"/>
    <path id="Rectangle_3597" data-name="Rectangle 3597" d="M-.25-.25H80.19V80.19H-.25Zm79.94.5H.25V79.69H79.69Z" transform="translate(-15140.793 6240.148)" fill="#949494"/>
    <rect id="Rectangle_3414" data-name="Rectangle 3414" width="79.94" height="79.94" transform="translate(-14661.152 6240.148)" fill="rgba(0,0,0,0)"/>
    <path id="Rectangle_3414_-_Outline" data-name="Rectangle 3414 - Outline" d="M-.25-.25H80.19V80.19H-.25Zm79.94.5H.25V79.69H79.69Z" transform="translate(-14661.152 6240.148)" fill="#949494"/>
    <rect id="Rectangle_3408" data-name="Rectangle 3408" width="79.94" height="79.94" transform="translate(-14741.092 6240.148)" fill="rgba(0,0,0,0)"/>
    <path id="Rectangle_3408_-_Outline" data-name="Rectangle 3408 - Outline" d="M-.25-.25H80.19V80.19H-.25Zm79.94.5H.25V79.69H79.69Z" transform="translate(-14741.092 6240.148)" fill="#949494"/>
    <path id="Rectangle_3415" data-name="Rectangle 3415" d="M-.25-.25H80.19V80.19H-.25Zm79.94.5H.25V79.69H79.69Z" transform="translate(-14581.212 6240.148)" fill="#949494"/>
    <path id="Rectangle_3449" data-name="Rectangle 3449" d="M-.25-.25H80.19V80.19H-.25Zm79.94.5H.25V79.69H79.69Z" transform="translate(-14501.271 6240.148)" fill="#949494"/>
    <path id="Rectangle_3418" data-name="Rectangle 3418" d="M-.25-.25H80.19V80.19H-.25Zm79.94.5H.25V79.69H79.69Z" transform="translate(-15620.435 6639.85)" fill="#949494"/>
    <path id="Rectangle_3452" data-name="Rectangle 3452" d="M-.25-.25H80.19V80.19H-.25Zm79.94.5H.25V79.69H79.69Z" transform="translate(-14500.645 6080.269)" fill="#949494"/>
    <path id="Rectangle_3607" data-name="Rectangle 3607" d="M-.25-.25H80.19V80.19H-.25Zm79.94.5H.25V79.69H79.69Z" transform="translate(-14500.645 5920.809)" fill="#949494"/>
    <path id="Rectangle_3453" data-name="Rectangle 3453" d="M-.25-.25H80.19V80.19H-.25Zm79.94.5H.25V79.69H79.69Z" transform="translate(-14501.271 6160.209)" fill="#949494"/>
    <path id="Rectangle_3454" data-name="Rectangle 3454" d="M-.25-.25H80.19V80.19H-.25Zm79.94.5H.25V79.69H79.69Z" transform="translate(-14421.331 6080.269)" fill="#949494"/>
    <path id="Rectangle_3608" data-name="Rectangle 3608" d="M-.25-.25H80.19V80.19H-.25Zm79.94.5H.25V79.69H79.69Z" transform="translate(-14421.331 5920.809)" fill="#949494"/>
    <path id="Rectangle_3455" data-name="Rectangle 3455" d="M-.25-.25H80.19V80.19H-.25Zm79.94.5H.25V79.69H79.69Z" transform="translate(-14341.391 6080.269)" fill="#949494"/>
    <path id="Rectangle_3610" data-name="Rectangle 3610" d="M-.25-.25H80.19V80.19H-.25Zm79.94.5H.25V79.69H79.69Z" transform="translate(-14341.391 5920.809)" fill="#949494"/>
    <path id="Rectangle_3631" data-name="Rectangle 3631" d="M-.25-.25H80.19V80.19H-.25Zm79.94.5H.25V79.69H79.69Z" transform="translate(-14661.558 5920.809)" fill="#949494"/>
    <path id="Rectangle_3456" data-name="Rectangle 3456" d="M-.25-.25H80.19V80.19H-.25Zm79.94.5H.25V79.69H79.69Z" transform="translate(-14261.451 6080.269)" fill="#949494"/>
    <path id="Rectangle_3614" data-name="Rectangle 3614" d="M-.25-.25H80.19V80.19H-.25Zm79.94.5H.25V79.69H79.69Z" transform="translate(-14261.451 5920.809)" fill="#949494"/>
    <path id="Rectangle_3632" data-name="Rectangle 3632" d="M-.25-.25H80.19V80.19H-.25Zm79.94.5H.25V79.69H79.69Z" transform="translate(-14581.618 5920.809)" fill="#949494"/>
    <path id="Rectangle_3501" data-name="Rectangle 3501" d="M-.25-.25H80.19V80.19H-.25Zm79.94.5H.25V79.69H79.69Z" transform="translate(-14181.511 6080.269)" fill="#949494"/>
    <path id="Rectangle_3615" data-name="Rectangle 3615" d="M-.25-.25H80.19V80.19H-.25Zm79.94.5H.25V79.69H79.69Z" transform="translate(-14181.511 5920.809)" fill="#949494"/>
    <path id="Rectangle_3537" data-name="Rectangle 3537" d="M-.25-.25H80.19V80.19H-.25Zm79.94.5H.25V79.69H79.69Z" transform="translate(-13941.474 6080.269)" fill="#949494"/>
    <path id="Rectangle_3620" data-name="Rectangle 3620" d="M-.25-.25H80.19V80.19H-.25Zm79.94.5H.25V79.69H79.69Z" transform="translate(-13941.474 5920.809)" fill="#949494"/>
    <path id="Rectangle_3510" data-name="Rectangle 3510" d="M-.25-.25H80.19V80.19H-.25Zm79.94.5H.25V79.69H79.69Z" transform="translate(-14101.917 6080.269)" fill="#949494"/>
    <path id="Rectangle_3616" data-name="Rectangle 3616" d="M-.25-.25H80.19V80.19H-.25Zm79.94.5H.25V79.69H79.69Z" transform="translate(-14101.917 5920.809)" fill="#949494"/>
    <path id="Rectangle_3571" data-name="Rectangle 3571" d="M-.25-.25H80.19V80.19H-.25Zm79.94.5H.25V79.69H79.69Z" transform="translate(-13861.88 6080.269)" fill="#949494"/>
    <path id="Rectangle_3622" data-name="Rectangle 3622" d="M-.25-.25H80.19V80.19H-.25Zm79.94.5H.25V79.69H79.69Z" transform="translate(-13861.88 5920.809)" fill="#949494"/>
    <path id="Rectangle_3582" data-name="Rectangle 3582" d="M-.25-.25H80.19V80.19H-.25Zm79.94.5H.25V79.69H79.69Z" transform="translate(-13781.377 6080.269)" fill="#949494"/>
    <path id="Rectangle_3623" data-name="Rectangle 3623" d="M-.25-.25H80.19V80.19H-.25Zm79.94.5H.25V79.69H79.69Z" transform="translate(-13781.377 5920.809)" fill="#949494"/>
    <path id="Rectangle_3511" data-name="Rectangle 3511" d="M-.25-.25H80.19V80.19H-.25Zm79.94.5H.25V79.69H79.69Z" transform="translate(-14021.977 6080.269)" fill="#949494"/>
    <path id="Rectangle_3617" data-name="Rectangle 3617" d="M-.25-.25H80.19V80.19H-.25Zm79.94.5H.25V79.69H79.69Z" transform="translate(-14021.977 5920.809)" fill="#949494"/>
    <path id="Rectangle_3457" data-name="Rectangle 3457" d="M-.25-.25H80.19V80.19H-.25Zm79.94.5H.25V79.69H79.69Z" transform="translate(-14501.115 6000.328)" fill="#949494"/>
    <path id="Rectangle_3606" data-name="Rectangle 3606" d="M-.25-.25H80.19V80.19H-.25Zm79.94.5H.25V79.69H79.69Z" transform="translate(-14501.115 5840.868)" fill="#949494"/>
    <path id="Rectangle_3458" data-name="Rectangle 3458" d="M-.25-.25H80.19V80.19H-.25Zm79.94.5H.25V79.69H79.69Z" transform="translate(-14421.331 6000.328)" fill="#949494"/>
    <path id="Rectangle_3609" data-name="Rectangle 3609" d="M-.25-.25H80.19V80.19H-.25Zm79.94.5H.25V79.69H79.69Z" transform="translate(-14421.331 5840.868)" fill="#949494"/>
    <path id="Rectangle_3459" data-name="Rectangle 3459" d="M-.25-.25H80.19V80.19H-.25Zm79.94.5H.25V79.69H79.69Z" transform="translate(-14341.391 6000.328)" fill="#949494"/>
    <path id="Rectangle_3611" data-name="Rectangle 3611" d="M-.25-.25H80.19V80.19H-.25Zm79.94.5H.25V79.69H79.69Z" transform="translate(-14341.391 5840.868)" fill="#949494"/>
    <path id="Rectangle_3628" data-name="Rectangle 3628" d="M-.25-.25H80.19V80.19H-.25Zm79.94.5H.25V79.69H79.69Z" transform="translate(-14661.558 5840.868)" fill="#949494"/>
    <path id="Rectangle_3460" data-name="Rectangle 3460" d="M-.25-.25H80.19V80.19H-.25Zm79.94.5H.25V79.69H79.69Z" transform="translate(-14261.451 6000.328)" fill="#949494"/>
    <path id="Rectangle_3612" data-name="Rectangle 3612" d="M-.25-.25H80.19V80.19H-.25Zm79.94.5H.25V79.69H79.69Z" transform="translate(-14261.451 5840.868)" fill="#949494"/>
    <path id="Rectangle_3633" data-name="Rectangle 3633" d="M-.25-.25H80.19V80.19H-.25Zm79.94.5H.25V79.69H79.69Z" transform="translate(-14581.618 5840.868)" fill="#949494"/>
    <path id="Rectangle_3502" data-name="Rectangle 3502" d="M-.25-.25H80.19V80.19H-.25Zm79.94.5H.25V79.69H79.69Z" transform="translate(-14181.511 6000.328)" fill="#949494"/>
    <path id="Rectangle_3613" data-name="Rectangle 3613" d="M-.25-.25H80.19V80.19H-.25Zm79.94.5H.25V79.69H79.69Z" transform="translate(-14181.511 5840.868)" fill="#949494"/>
    <path id="Rectangle_3539" data-name="Rectangle 3539" d="M-.25-.25H80.19V80.19H-.25Zm79.94.5H.25V79.69H79.69Z" transform="translate(-13941.474 6000.328)" fill="#949494"/>
    <path id="Rectangle_3621" data-name="Rectangle 3621" d="M-.25-.25H80.19V80.19H-.25Zm79.94.5H.25V79.69H79.69Z" transform="translate(-13941.474 5840.868)" fill="#949494"/>
    <path id="Rectangle_3512" data-name="Rectangle 3512" d="M-.25-.25H80.19V80.19H-.25Zm79.94.5H.25V79.69H79.69Z" transform="translate(-14101.917 6000.328)" fill="#949494"/>
    <path id="Rectangle_3618" data-name="Rectangle 3618" d="M-.25-.25H80.19V80.19H-.25Zm79.94.5H.25V79.69H79.69Z" transform="translate(-14101.917 5840.868)" fill="#949494"/>
    <path id="Rectangle_3573" data-name="Rectangle 3573" d="M-.25-.25H80.19V80.19H-.25Zm79.94.5H.25V79.69H79.69Z" transform="translate(-13861.88 6000.328)" fill="#949494"/>
    <path id="Rectangle_3624" data-name="Rectangle 3624" d="M-.25-.25H80.19V80.19H-.25Zm79.94.5H.25V79.69H79.69Z" transform="translate(-13861.88 5840.868)" fill="#949494"/>
    <path id="Rectangle_3584" data-name="Rectangle 3584" d="M-.25-.25H80.19V80.19H-.25Zm79.94.5H.25V79.69H79.69Z" transform="translate(-13781.377 6000.328)" fill="#949494"/>
    <path id="Rectangle_3625" data-name="Rectangle 3625" d="M-.25-.25H80.19V80.19H-.25Zm79.94.5H.25V79.69H79.69Z" transform="translate(-13781.377 5840.868)" fill="#949494"/>
    <path id="Rectangle_3513" data-name="Rectangle 3513" d="M-.25-.25H80.19V80.19H-.25Zm79.94.5H.25V79.69H79.69Z" transform="translate(-14021.977 6000.328)" fill="#949494"/>
    <path id="Rectangle_3619" data-name="Rectangle 3619" d="M-.25-.25H80.19V80.19H-.25Zm79.94.5H.25V79.69H79.69Z" transform="translate(-14021.977 5840.868)" fill="#949494"/>
    <path id="Rectangle_3514" data-name="Rectangle 3514" d="M-.25-.25H80.19V80.19H-.25Zm79.94.5H.25V79.69H79.69Z" transform="translate(-15220.732 6800.922)" fill="#949494"/>
    <path id="Rectangle_3541" data-name="Rectangle 3541" d="M-.25-.25H80.19V80.19H-.25Zm79.94.5H.25V79.69H79.69Z" transform="translate(-15220.732 6880.862)" fill="#949494"/>
    <path id="Rectangle_3467" data-name="Rectangle 3467" d="M-.25-.25H80.19V80.19H-.25Zm79.94.5H.25V79.69H79.69Z" transform="translate(-15220.732 6720.385)" fill="#949494"/>
    <path id="Rectangle_3560" data-name="Rectangle 3560" d="M-.25-.25H80.19V80.19H-.25Zm79.94.5H.25V79.69H79.69Z" transform="translate(-15220.732 6961.397)" fill="#949494"/>
    <path id="Rectangle_3515" data-name="Rectangle 3515" d="M-.25-.25H80.19V80.19H-.25Zm79.94.5H.25V79.69H79.69Z" transform="translate(-15379.828 6800.922)" fill="#949494"/>
    <path id="Rectangle_3542" data-name="Rectangle 3542" d="M-.25-.25H80.19V80.19H-.25Zm79.94.5H.25V79.69H79.69Z" transform="translate(-15379.828 6880.862)" fill="#949494"/>
    <path id="Rectangle_3468" data-name="Rectangle 3468" d="M-.25-.25H80.19V80.19H-.25Zm79.94.5H.25V79.69H79.69Z" transform="translate(-15379.828 6720.385)" fill="#949494"/>
    <path id="Rectangle_3561" data-name="Rectangle 3561" d="M-.25-.25H80.19V80.19H-.25Zm79.94.5H.25V79.69H79.69Z" transform="translate(-15379.828 6961.397)" fill="#949494"/>
    <path id="Rectangle_3516" data-name="Rectangle 3516" d="M-.25-.25H80.19V80.19H-.25Zm79.94.5H.25V79.69H79.69Z" transform="translate(-15140.792 6800.922)" fill="#949494"/>
    <path id="Rectangle_3543" data-name="Rectangle 3543" d="M-.25-.25H80.19V80.19H-.25Zm79.94.5H.25V79.69H79.69Z" transform="translate(-15140.792 6880.862)" fill="#949494"/>
    <path id="Rectangle_3469" data-name="Rectangle 3469" d="M-.25-.25H80.19V80.19H-.25Zm79.94.5H.25V79.69H79.69Z" transform="translate(-15140.792 6720.385)" fill="#949494"/>
    <path id="Rectangle_3562" data-name="Rectangle 3562" d="M-.25-.25H80.19V80.19H-.25Zm79.94.5H.25V79.69H79.69Z" transform="translate(-15140.792 6961.397)" fill="#949494"/>
    <path id="Rectangle_3517" data-name="Rectangle 3517" d="M-.25-.25H80.19V80.19H-.25Zm79.94.5H.25V79.69H79.69Z" transform="translate(-15299.888 6800.922)" fill="#949494"/>
    <path id="Rectangle_3544" data-name="Rectangle 3544" d="M-.25-.25H80.19V80.19H-.25Zm79.94.5H.25V79.69H79.69Z" transform="translate(-15299.888 6880.862)" fill="#949494"/>
    <path id="Rectangle_3470" data-name="Rectangle 3470" d="M-.25-.25H80.19V80.19H-.25Zm79.94.5H.25V79.69H79.69Z" transform="translate(-15299.888 6720.385)" fill="#949494"/>
    <path id="Rectangle_3563" data-name="Rectangle 3563" d="M-.25-.25H80.19V80.19H-.25Zm79.94.5H.25V79.69H79.69Z" transform="translate(-15299.888 6961.397)" fill="#949494"/>
    <path id="Rectangle_3518" data-name="Rectangle 3518" d="M-.25-.25H80.19V80.19H-.25Zm79.94.5H.25V79.69H79.69Z" transform="translate(-15060.853 6800.922)" fill="#949494"/>
    <path id="Rectangle_3545" data-name="Rectangle 3545" d="M-.25-.25H80.19V80.19H-.25Zm79.94.5H.25V79.69H79.69Z" transform="translate(-15060.853 6880.862)" fill="#949494"/>
    <path id="Rectangle_3471" data-name="Rectangle 3471" d="M-.25-.25H80.19V80.19H-.25Zm79.94.5H.25V79.69H79.69Z" transform="translate(-15060.853 6720.385)" fill="#949494"/>
    <path id="Rectangle_3564" data-name="Rectangle 3564" d="M-.25-.25H80.19V80.19H-.25Zm79.94.5H.25V79.69H79.69Z" transform="translate(-15060.853 6961.397)" fill="#949494"/>
    <path id="Rectangle_3519" data-name="Rectangle 3519" d="M-.25-.25H80.19V80.19H-.25Zm79.94.5H.25V79.69H79.69Z" transform="translate(-14980.912 6800.922)" fill="#949494"/>
    <path id="Rectangle_3546" data-name="Rectangle 3546" d="M-.25-.25H80.19V80.19H-.25Zm79.94.5H.25V79.69H79.69Z" transform="translate(-14980.912 6880.862)" fill="#949494"/>
    <path id="Rectangle_3472" data-name="Rectangle 3472" d="M-.25-.25H80.19V80.19H-.25Zm79.94.5H.25V79.69H79.69Z" transform="translate(-14980.912 6720.385)" fill="#949494"/>
    <path id="Rectangle_3565" data-name="Rectangle 3565" d="M-.25-.25H80.19V80.19H-.25Zm79.94.5H.25V79.69H79.69Z" transform="translate(-14980.912 6961.397)" fill="#949494"/>
    <path id="Rectangle_3520" data-name="Rectangle 3520" d="M-.25-.25H80.19V80.19H-.25Zm79.94.5H.25V79.69H79.69Z" transform="translate(-14900.972 6800.922)" fill="#949494"/>
    <path id="Rectangle_3547" data-name="Rectangle 3547" d="M-.25-.25H80.19V80.19H-.25Zm79.94.5H.25V79.69H79.69Z" transform="translate(-14900.972 6880.862)" fill="#949494"/>
    <path id="Rectangle_3548" data-name="Rectangle 3548" d="M-.25-.25H80.19V80.19H-.25Zm79.94.5H.25V79.69H79.69Z" transform="translate(-14821.032 6880.862)" fill="#949494"/>
    <path id="Rectangle_3549" data-name="Rectangle 3549" d="M-.25-.25H80.19V80.19H-.25Zm79.94.5H.25V79.69H79.69Z" transform="translate(-14741.94 6880.862)" fill="#949494"/>
    <path id="Rectangle_3550" data-name="Rectangle 3550" d="M-.25-.25H80.19V80.19H-.25Zm79.94.5H.25V79.69H79.69Z" transform="translate(-14662 6880.862)" fill="#949494"/>
    <path id="Rectangle_3473" data-name="Rectangle 3473" d="M-.25-.25H80.19V80.19H-.25Zm79.94.5H.25V79.69H79.69Z" transform="translate(-14900.972 6720.385)" fill="#949494"/>
    <path id="Rectangle_3566" data-name="Rectangle 3566" d="M-.25-.25H80.19V80.19H-.25Zm79.94.5H.25V79.69H79.69Z" transform="translate(-14900.972 6961.397)" fill="#949494"/>
    <path id="Rectangle_3567" data-name="Rectangle 3567" d="M-.25-.25H80.19V80.19H-.25Zm79.94.5H.25V79.69H79.69Z" transform="translate(-14821.032 6961.397)" fill="#949494"/>
    <path id="Rectangle_3568" data-name="Rectangle 3568" d="M-.25-.25H80.19V80.19H-.25Zm79.94.5H.25V79.69H79.69Z" transform="translate(-14741.94 6961.397)" fill="#949494"/>
    <path id="Rectangle_3569" data-name="Rectangle 3569" d="M-.25-.25H80.19V80.19H-.25Zm79.94.5H.25V79.69H79.69Z" transform="translate(-14662 6961.397)" fill="#949494"/>
    <path id="Rectangle_3474" data-name="Rectangle 3474" d="M-.25-.25H80.19V80.19H-.25Zm79.94.5H.25V79.69H79.69Z" transform="translate(-14821.031 6720.385)" fill="#949494"/>
    <path id="Rectangle_3430" data-name="Rectangle 3430" d="M-.25-.25H80.19V80.19H-.25Zm79.94.5H.25V79.69H79.69Z" transform="translate(-14821.031 6640.445)" fill="#949494"/>
    <path id="Rectangle_3409" data-name="Rectangle 3409" d="M-.25-.25H80.19V80.19H-.25Zm79.94.5H.25V79.69H79.69Z" transform="translate(-14741.091 6479.969)" fill="#949494"/>
    <path id="Rectangle_3410" data-name="Rectangle 3410" d="M-.25-.25H80.19V80.19H-.25Zm79.94.5H.25V79.69H79.69Z" transform="translate(-14821.031 6479.969)" fill="#949494"/>
    <path id="Rectangle_3431" data-name="Rectangle 3431" d="M-.25-.25H80.19V80.19H-.25Zm79.94.5H.25V79.69H79.69Z" transform="translate(-14741.091 6559.909)" fill="#949494"/>
    <path id="Rectangle_3432" data-name="Rectangle 3432" d="M-.25-.25H80.19V80.19H-.25Zm79.94.5H.25V79.69H79.69Z" transform="translate(-14821.031 6559.909)" fill="#949494"/>
    <path id="Rectangle_3433" data-name="Rectangle 3433" d="M-.25-.25H80.19V80.19H-.25Zm79.94.5H.25V79.69H79.69Z" transform="translate(-14741.091 6639.85)" fill="#949494"/>
    <path id="Rectangle_3475" data-name="Rectangle 3475" d="M-.25-.25H80.19V80.19H-.25Zm79.94.5H.25V79.69H79.69Z" transform="translate(-14741.091 6720.385)" fill="#949494"/>
    <path id="Rectangle_3434" data-name="Rectangle 3434" d="M-.25-.25H80.19V80.19H-.25Zm79.94.5H.25V79.69H79.69Z" transform="translate(-14661.152 6479.969)" fill="#949494"/>
    <path id="Rectangle_3435" data-name="Rectangle 3435" d="M-.25-.25H80.19V80.19H-.25Zm79.94.5H.25V79.69H79.69Z" transform="translate(-14661.152 6559.909)" fill="#949494"/>
    <path id="Rectangle_3436" data-name="Rectangle 3436" d="M-.25-.25H80.19V80.19H-.25Zm79.94.5H.25V79.69H79.69Z" transform="translate(-14661.152 6639.85)" fill="#949494"/>
    <path id="Rectangle_3476" data-name="Rectangle 3476" d="M-.25-.25H80.19V80.19H-.25Zm79.94.5H.25V79.69H79.69Z" transform="translate(-14661.152 6720.385)" fill="#949494"/>
    <path id="Rectangle_3437" data-name="Rectangle 3437" d="M-.25-.25H80.19V80.19H-.25Zm79.94.5H.25V79.69H79.69Z" transform="translate(-14581.212 6479.969)" fill="#949494"/>
    <path id="Rectangle_3438" data-name="Rectangle 3438" d="M-.25-.25H80.19V80.19H-.25Zm79.94.5H.25V79.69H79.69Z" transform="translate(-14581.212 6559.909)" fill="#949494"/>
    <path id="Rectangle_3439" data-name="Rectangle 3439" d="M-.25-.25H80.19V80.19H-.25Zm79.94.5H.25V79.69H79.69Z" transform="translate(-14581.212 6639.85)" fill="#949494"/>
    <path id="Rectangle_3477" data-name="Rectangle 3477" d="M-.25-.25H80.19V80.19H-.25Zm79.94.5H.25V79.69H79.69Z" transform="translate(-14581.212 6720.385)" fill="#949494"/>
    <path id="Rectangle_3478" data-name="Rectangle 3478" d="M-.25-.25H80.19V80.19H-.25Zm79.94.5H.25V79.69H79.69Z" transform="translate(-14501.271 6479.969)" fill="#949494"/>
    <path id="Rectangle_3479" data-name="Rectangle 3479" d="M-.25-.25H80.19V80.19H-.25Zm79.94.5H.25V79.69H79.69Z" transform="translate(-14501.271 6559.909)" fill="#949494"/>
    <path id="Rectangle_3480" data-name="Rectangle 3480" d="M-.25-.25H80.19V80.19H-.25Zm79.94.5H.25V79.69H79.69Z" transform="translate(-14501.271 6639.85)" fill="#949494"/>
    <path id="Rectangle_3481" data-name="Rectangle 3481" d="M-.25-.25H80.19V80.19H-.25Zm79.94.5H.25V79.69H79.69Z" transform="translate(-14501.271 6720.385)" fill="#949494"/>
    <path id="Rectangle_3482" data-name="Rectangle 3482" d="M-.25-.25H80.19V80.19H-.25Zm79.94.5H.25V79.69H79.69Z" transform="translate(-14341.392 6559.909)" fill="#949494"/>
    <path id="Rectangle_3483" data-name="Rectangle 3483" d="M-.25-.25H80.19V80.19H-.25Zm79.94.5H.25V79.69H79.69Z" transform="translate(-14341.392 6639.85)" fill="#949494"/>
    <path id="Rectangle_3484" data-name="Rectangle 3484" d="M-.25-.25H80.19V80.19H-.25Zm79.94.5H.25V79.69H79.69Z" transform="translate(-14341.392 6720.385)" fill="#949494"/>
    <path id="Rectangle_3485" data-name="Rectangle 3485" d="M-.25-.25H80.19V80.19H-.25Zm79.94.5H.25V79.69H79.69Z" transform="translate(-14421.331 6479.969)" fill="#949494"/>
    <path id="Rectangle_3486" data-name="Rectangle 3486" d="M-.25-.25H80.19V80.19H-.25Zm79.94.5H.25V79.69H79.69Z" transform="translate(-14421.331 6559.909)" fill="#949494"/>
    <path id="Rectangle_3487" data-name="Rectangle 3487" d="M-.25-.25H80.19V80.19H-.25Zm79.94.5H.25V79.69H79.69Z" transform="translate(-14421.331 6639.85)" fill="#949494"/>
    <path id="Rectangle_3488" data-name="Rectangle 3488" d="M-.25-.25H80.19V80.19H-.25Zm79.94.5H.25V79.69H79.69Z" transform="translate(-14421.331 6720.385)" fill="#949494"/>
    <path id="Rectangle_3489" data-name="Rectangle 3489" d="M-.25-.25H80.19V80.19H-.25Zm79.94.5H.25V79.69H79.69Z" transform="translate(-14261.451 6559.909)" fill="#949494"/>
    <path id="Rectangle_3503" data-name="Rectangle 3503" d="M-.25-.25H80.19V80.19H-.25Zm79.94.5H.25V79.69H79.69Z" transform="translate(-14181.51 6559.909)" fill="#949494"/>
    <path id="Rectangle_3523" data-name="Rectangle 3523" d="M-.25-.25H80.19V80.19H-.25Zm79.94.5H.25V79.69H79.69Z" transform="translate(-14101.57 6559.909)" fill="#949494"/>
    <path id="Rectangle_3524" data-name="Rectangle 3524" d="M-.25-.25H80.19V80.19H-.25Zm79.94.5H.25V79.69H79.69Z" transform="translate(-14021.977 6559.909)" fill="#949494"/>
    <path id="Rectangle_3551" data-name="Rectangle 3551" d="M-.25-.25H80.19V80.19H-.25Zm79.94.5H.25V79.69H79.69Z" transform="translate(-13942.036 6559.909)" fill="#949494"/>
    <path id="Rectangle_3575" data-name="Rectangle 3575" d="M-.25-.25H80.19V80.19H-.25Zm79.94.5H.25V79.69H79.69Z" transform="translate(-13862.096 6559.909)" fill="#949494"/>
    <path id="Rectangle_3586" data-name="Rectangle 3586" d="M-.25-.25H80.19V80.19H-.25Zm79.94.5H.25V79.69H79.69Z" transform="translate(-13782.154 6559.909)" fill="#949494"/>
    <path id="Rectangle_3552" data-name="Rectangle 3552" d="M-.25-.25H80.19V80.19H-.25Zm79.94.5H.25V79.69H79.69Z" transform="translate(-13942.036 6800.92)" fill="#949494"/>
    <path id="Rectangle_3637" data-name="Rectangle 3637" d="M-.25-.25H80.19V80.19H-.25Zm79.94.5H.25V79.69H79.69Z" transform="translate(-14261.45 6800.92)" fill="#949494"/>
    <path id="Rectangle_3576" data-name="Rectangle 3576" d="M-.25-.25H80.19V80.19H-.25Zm79.94.5H.25V79.69H79.69Z" transform="translate(-13862.096 6800.92)" fill="#949494"/>
    <path id="Rectangle_3638" data-name="Rectangle 3638" d="M-.25-.25H80.19V80.19H-.25Zm79.94.5H.25V79.69H79.69Z" transform="translate(-14181.51 6800.92)" fill="#949494"/>
    <path id="Rectangle_3587" data-name="Rectangle 3587" d="M-.25-.25H80.19V80.19H-.25Zm79.94.5H.25V79.69H79.69Z" transform="translate(-13782.154 6800.92)" fill="#949494"/>
    <path id="Rectangle_3490" data-name="Rectangle 3490" d="M-.25-.25H80.19V80.19H-.25Zm79.94.5H.25V79.69H79.69Z" transform="translate(-14261.451 6639.85)" fill="#949494"/>
    <path id="Rectangle_3504" data-name="Rectangle 3504" d="M-.25-.25H80.19V80.19H-.25Zm79.94.5H.25V79.69H79.69Z" transform="translate(-14181.51 6639.85)" fill="#949494"/>
    <path id="Rectangle_3525" data-name="Rectangle 3525" d="M-.25-.25H80.19V80.19H-.25Zm79.94.5H.25V79.69H79.69Z" transform="translate(-14101.57 6639.85)" fill="#949494"/>
    <path id="Rectangle_3526" data-name="Rectangle 3526" d="M-.25-.25H80.19V80.19H-.25Zm79.94.5H.25V79.69H79.69Z" transform="translate(-14021.977 6639.85)" fill="#949494"/>
    <path id="Rectangle_3553" data-name="Rectangle 3553" d="M-.25-.25H80.19V80.19H-.25Zm79.94.5H.25V79.69H79.69Z" transform="translate(-13942.036 6639.85)" fill="#949494"/>
    <path id="Rectangle_3577" data-name="Rectangle 3577" d="M-.25-.25H80.19V80.19H-.25Zm79.94.5H.25V79.69H79.69Z" transform="translate(-13862.096 6639.85)" fill="#949494"/>
    <path id="Rectangle_3588" data-name="Rectangle 3588" d="M-.25-.25H80.19V80.19H-.25Zm79.94.5H.25V79.69H79.69Z" transform="translate(-13782.154 6639.85)" fill="#949494"/>
    <path id="Rectangle_3554" data-name="Rectangle 3554" d="M-.25-.25H80.19V80.19H-.25Zm79.94.5H.25V79.69H79.69Z" transform="translate(-13942.036 6880.86)" fill="#949494"/>
    <path id="Rectangle_3578" data-name="Rectangle 3578" d="M-.25-.25H80.19V80.19H-.25Zm79.94.5H.25V79.69H79.69Z" transform="translate(-13862.096 6880.86)" fill="#949494"/>
    <path id="Rectangle_3589" data-name="Rectangle 3589" d="M-.25-.25H80.19V80.19H-.25Zm79.94.5H.25V79.69H79.69Z" transform="translate(-13782.154 6880.86)" fill="#949494"/>
    <path id="Rectangle_3491" data-name="Rectangle 3491" d="M-.25-.25H80.19V80.19H-.25Zm79.94.5H.25V79.69H79.69Z" transform="translate(-14261.451 6720.385)" fill="#949494"/>
    <path id="Rectangle_3505" data-name="Rectangle 3505" d="M-.25-.25H80.19V80.19H-.25Zm79.94.5H.25V79.69H79.69Z" transform="translate(-14181.51 6720.385)" fill="#949494"/>
    <path id="Rectangle_3527" data-name="Rectangle 3527" d="M-.25-.25H80.19V80.19H-.25Zm79.94.5H.25V79.69H79.69Z" transform="translate(-14181.51 6800.92)" fill="#949494"/>
    <path id="Rectangle_3634" data-name="Rectangle 3634" d="M-.25-.25H80.19V80.19H-.25Zm79.94.5H.25V79.69H79.69Z" transform="translate(-14500.924 6800.92)" fill="#949494"/>
    <path id="Rectangle_3639" data-name="Rectangle 3639" d="M-.25-.25H80.19V80.19H-.25Zm79.94.5H.25V79.69H79.69Z" transform="translate(-14580.864 6800.92)" fill="#949494"/>
    <path id="Rectangle_3528" data-name="Rectangle 3528" d="M-.25-.25H80.19V80.19H-.25Zm79.94.5H.25V79.69H79.69Z" transform="translate(-14101.57 6720.385)" fill="#949494"/>
    <path id="Rectangle_3529" data-name="Rectangle 3529" d="M-.25-.25H80.19V80.19H-.25Zm79.94.5H.25V79.69H79.69Z" transform="translate(-14101.57 6800.92)" fill="#949494"/>
    <path id="Rectangle_3635" data-name="Rectangle 3635" d="M-.25-.25H80.19V80.19H-.25Zm79.94.5H.25V79.69H79.69Z" transform="translate(-14420.984 6800.92)" fill="#949494"/>
    <path id="Rectangle_3530" data-name="Rectangle 3530" d="M-.25-.25H80.19V80.19H-.25Zm79.94.5H.25V79.69H79.69Z" transform="translate(-14021.977 6720.385)" fill="#949494"/>
    <path id="Rectangle_3531" data-name="Rectangle 3531" d="M-.25-.25H80.19V80.19H-.25Zm79.94.5H.25V79.69H79.69Z" transform="translate(-14021.977 6800.92)" fill="#949494"/>
    <path id="Rectangle_3636" data-name="Rectangle 3636" d="M-.25-.25H80.19V80.19H-.25Zm79.94.5H.25V79.69H79.69Z" transform="translate(-14341.391 6800.92)" fill="#949494"/>
    <path id="Rectangle_3555" data-name="Rectangle 3555" d="M-.25-.25H80.19V80.19H-.25Zm79.94.5H.25V79.69H79.69Z" transform="translate(-13942.036 6720.385)" fill="#949494"/>
    <path id="Rectangle_3579" data-name="Rectangle 3579" d="M-.25-.25H80.19V80.19H-.25Zm79.94.5H.25V79.69H79.69Z" transform="translate(-13862.096 6720.385)" fill="#949494"/>
    <path id="Rectangle_3590" data-name="Rectangle 3590" d="M-.25-.25H80.19V80.19H-.25Zm79.94.5H.25V79.69H79.69Z" transform="translate(-13782.154 6720.385)" fill="#949494"/>
    <path id="Rectangle_3570" data-name="Rectangle 3570" d="M-.25-.25H80.19V80.19H-.25Zm79.94.5H.25V79.69H79.69Z" transform="translate(-13942.036 6961.396)" fill="#949494"/>
    <path id="Rectangle_3580" data-name="Rectangle 3580" d="M-.25-.25H80.19V80.19H-.25Zm79.94.5H.25V79.69H79.69Z" transform="translate(-13862.096 6961.396)" fill="#949494"/>
    <path id="Rectangle_3591" data-name="Rectangle 3591" d="M-.25-.25H80.19V80.19H-.25Zm79.94.5H.25V79.69H79.69Z" transform="translate(-13782.154 6961.396)" fill="#949494"/>
    <path id="Rectangle_3492" data-name="Rectangle 3492" d="M-.25-.25H80.19V80.19H-.25Zm79.94.5H.25V79.69H79.69Z" transform="translate(-14341.391 6479.969)" fill="#949494"/>
    <path id="Rectangle_3493" data-name="Rectangle 3493" d="M-.25-.25H80.19V80.19H-.25Zm79.94.5H.25V79.69H79.69Z" transform="translate(-14261.451 6479.969)" fill="#949494"/>
    <path id="Rectangle_3506" data-name="Rectangle 3506" d="M-.25-.25H80.19V80.19H-.25Zm79.94.5H.25V79.69H79.69Z" transform="translate(-14181.51 6479.969)" fill="#949494"/>
    <path id="Rectangle_3532" data-name="Rectangle 3532" d="M-.25-.25H80.19V80.19H-.25Zm79.94.5H.25V79.69H79.69Z" transform="translate(-14101.569 6479.969)" fill="#949494"/>
    <path id="Rectangle_3533" data-name="Rectangle 3533" d="M-.25-.25H80.19V80.19H-.25Zm79.94.5H.25V79.69H79.69Z" transform="translate(-14021.977 6479.969)" fill="#949494"/>
    <path id="Rectangle_3556" data-name="Rectangle 3556" d="M-.25-.25H80.19V80.19H-.25Zm79.94.5H.25V79.69H79.69Z" transform="translate(-13942.035 6479.969)" fill="#949494"/>
    <path id="Rectangle_3581" data-name="Rectangle 3581" d="M-.25-.25H80.19V80.19H-.25Zm79.94.5H.25V79.69H79.69Z" transform="translate(-13862.096 6479.969)" fill="#949494"/>
    <path id="Rectangle_3592" data-name="Rectangle 3592" d="M-.25-.25H80.19V80.19H-.25Zm79.94.5H.25V79.69H79.69Z" transform="translate(-13782.154 6479.969)" fill="#949494"/>
    <path id="Rectangle_3411" data-name="Rectangle 3411" d="M-.25-.25H80.19V80.19H-.25Zm79.94.5H.25V79.69H79.69Z" transform="translate(-14741.092 6400.028)" fill="#949494"/>
    <path id="Rectangle_3405" data-name="Rectangle 3405" d="M-.25-.25H80.19V80.19H-.25Zm79.94.5H.25V79.69H79.69Z" transform="translate(-14821.032 6400.028)" fill="#949494"/>
    <path id="Rectangle_3440" data-name="Rectangle 3440" d="M-.25-.25H80.19V80.19H-.25Zm79.94.5H.25V79.69H79.69Z" transform="translate(-14661.152 6400.028)" fill="#949494"/>
    <path id="Rectangle_3441" data-name="Rectangle 3441" d="M-.25-.25H80.19V80.19H-.25Zm79.94.5H.25V79.69H79.69Z" transform="translate(-14581.212 6400.028)" fill="#949494"/>
    <path id="Rectangle_3494" data-name="Rectangle 3494" d="M-.25-.25H80.19V80.19H-.25Zm79.94.5H.25V79.69H79.69Z" transform="translate(-14501.271 6400.028)" fill="#949494"/>
    <path id="Rectangle_3495" data-name="Rectangle 3495" d="M-.25-.25H80.19V80.19H-.25Zm79.94.5H.25V79.69H79.69Z" transform="translate(-14421.331 6400.028)" fill="#949494"/>
    <path id="Rectangle_3496" data-name="Rectangle 3496" d="M-.25-.25H80.19V80.19H-.25Zm79.94.5H.25V79.69H79.69Z" transform="translate(-14341.391 6400.028)" fill="#949494"/>
    <g id="Group_1234" data-name="Group 1234" transform="translate(-14261.45 6400.028)">
      <path id="Rectangle_591" data-name="Rectangle 591" d="M-.25-.25H80.19V80.19H-.25Zm79.94.5H.25V79.69H79.69Z" transform="translate(0 0)" fill="#949494"/>
    </g>
    <g id="Group_1235" data-name="Group 1235" transform="translate(-14181.51 6400.028)">
      <path id="Rectangle_591-2" data-name="Rectangle 591" d="M-.25-.25H80.19V80.19H-.25Zm79.94.5H.25V79.69H79.69Z" transform="translate(0 0)" fill="#949494"/>
    </g>
    <g id="Group_1236" data-name="Group 1236" transform="translate(-14101.569 6400.028)">
      <path id="Rectangle_591-3" data-name="Rectangle 591" d="M-.25-.25H80.19V80.19H-.25Zm79.94.5H.25V79.69H79.69Z" transform="translate(0 0)" fill="#949494"/>
    </g>
    <g id="Group_1237" data-name="Group 1237" transform="translate(-14021.977 6400.028)">
      <path id="Rectangle_591-4" data-name="Rectangle 591" d="M-.25-.25H80.19V80.19H-.25Zm79.94.5H.25V79.69H79.69Z" transform="translate(0 0)" fill="#949494"/>
    </g>
    <g id="Group_1238" data-name="Group 1238" transform="translate(-13942.035 6400.028)">
      <path id="Rectangle_591-5" data-name="Rectangle 591" d="M-.25-.25H80.19V80.19H-.25Zm79.94.5H.25V79.69H79.69Z" transform="translate(0 0)" fill="#949494"/>
    </g>
    <g id="Group_1239" data-name="Group 1239" transform="translate(-13862.096 6400.028)">
      <path id="Rectangle_591-6" data-name="Rectangle 591" d="M-.25-.25H80.19V80.19H-.25Zm79.94.5H.25V79.69H79.69Z" transform="translate(0 0)" fill="#949494"/>
    </g>
    <g id="Group_1244" data-name="Group 1244" transform="translate(-13782.154 6400.028)">
      <path id="Rectangle_591-7" data-name="Rectangle 591" d="M-.25-.25H80.19V80.19H-.25Zm79.94.5H.25V79.69H79.69Z" transform="translate(0 0)" fill="#949494"/>
    </g>
  </g>
</svg>
