<?xml version="1.0" encoding="utf-8"?>
<!-- Generator: Adobe Illustrator 26.3.1, SVG Export Plug-In . SVG Version: 6.00 Build 0)  -->
<svg version="1.1" id="Layer_1" xmlns="http://www.w3.org/2000/svg" xmlns:xlink="http://www.w3.org/1999/xlink" x="0px" y="0px"
	 viewBox="0 0 1920.5 1200.5" style="enable-background:new 0 0 1920.5 1200.5;" xml:space="preserve">
<style type="text/css">
	.st0{fill:none;}
	.st1{fill:#949494;}
</style>
<g id="Group_1222" transform="translate(21671.25 0.25)">
	<g id="Group_1180" transform="translate(-8091 -5447)">
		<path id="Path_9" class="st0" d="M-12101.9,6373.7L-12101.9,6373.7z"/>
		<path id="Rectangle_1184" class="st1" d="M-13580.2,5766.8h80.5v80.5h-80.5V5766.8z M-13500.2,5767.2h-79.5v79.5h79.5V5767.2z"/>
		<path id="Rectangle_1186" class="st1" d="M-13500.2,5766.8h80.5v80.5h-80.5V5766.8z M-13420.2,5767.2h-79.5v79.5h79.5V5767.2z"/>
		<path id="Rectangle_1187" class="st1" d="M-13420.2,5766.8h80.5v80.5h-80.5V5766.8z M-13340.2,5767.2h-79.5v79.5h79.5V5767.2z"/>
		<path id="Rectangle_1188" class="st1" d="M-13340.2,5766.8h80.5v80.5h-80.5V5766.8z M-13260.2,5767.2h-79.5v79.5h79.5V5767.2z"/>
		<path id="Rectangle_1189" class="st1" d="M-13260.2,5766.8h80.5v80.5h-80.5V5766.8z M-13180.2,5767.2h-79.5v79.5h79.5V5767.2z"/>
		<path id="Rectangle_1190" class="st1" d="M-13180.2,5766.8h80.5v80.5h-80.5V5766.8z M-13100.2,5767.2h-79.5v79.5h79.5V5767.2z"/>
		<path id="Rectangle_1191" class="st1" d="M-13100.2,5766.8h80.5v80.5h-80.5V5766.8z M-13020.2,5767.2h-79.5v79.5h79.5V5767.2z"/>
		<path id="Rectangle_1192" class="st1" d="M-13020.2,5766.8h80.5v80.5h-80.5V5766.8z M-12940.2,5767.2h-79.5v79.5h79.5V5767.2z"/>
		<path id="Rectangle_1193" class="st1" d="M-12940.2,5766.8h80.5v80.5h-80.5V5766.8z M-12860.2,5767.2h-79.5v79.5h79.5V5767.2z"/>
		<path id="Rectangle_1194" class="st1" d="M-12860.2,5766.8h80.5v80.5h-80.5V5766.8z M-12780.2,5767.2h-79.5v79.5h79.5V5767.2z"/>
		<path id="Rectangle_1195" class="st1" d="M-12780.2,5766.8h80.5v80.5h-80.5V5766.8z M-12700.2,5767.2h-79.5v79.5h79.5V5767.2z"/>
		<path id="Rectangle_2634" class="st1" d="M-12380.2,5766.8h80.5v80.5h-80.5V5766.8z M-12300.2,5767.2h-79.5v79.5h79.5V5767.2z"/>
		<path id="Rectangle_1196" class="st1" d="M-12700.2,5766.8h80.5v80.5h-80.5V5766.8z M-12620.2,5767.2h-79.5v79.5h79.5V5767.2z"/>
		<path id="Rectangle_2635" class="st1" d="M-12300.3,5766.8h80.5v80.5h-80.5V5766.8z M-12220.3,5767.2h-79.5v79.5h79.5V5767.2z"/>
		<path id="Rectangle_2679" class="st1" d="M-11980.2,5766.8h80.5v80.5h-80.5V5766.8z M-11900.2,5767.2h-79.5v79.5h79.5V5767.2z"/>
		<path id="Rectangle_1197" class="st1" d="M-12620.2,5766.8h80.5v80.5h-80.5V5766.8z M-12540.2,5767.2h-79.5v79.5h79.5V5767.2z"/>
		<path id="Rectangle_2636" class="st1" d="M-12220.2,5766.8h80.5v80.5h-80.5V5766.8z M-12140.2,5767.2h-79.5v79.5h79.5V5767.2z"/>
		<path id="Rectangle_2680" class="st1" d="M-11900.2,5766.8h80.5v80.5h-80.5V5766.8z M-11820.2,5767.2h-79.5v79.5h79.5V5767.2z"/>
		<path id="Rectangle_1198" class="st1" d="M-12540.2,5766.8h80.5v80.5h-80.5V5766.8z M-12460.2,5767.2h-79.5v79.5h79.5V5767.2z"/>
		<path id="Rectangle_2644" class="st1" d="M-12140.2,5766.8h80.5v80.5h-80.5V5766.8z M-12060.2,5767.2h-79.5v79.5h79.5V5767.2z"/>
		<path id="Rectangle_2683" class="st1" d="M-11820.2,5766.8h80.5v80.5h-80.5V5766.8z M-11740.2,5767.2h-79.5v79.5h79.5V5767.2z"/>
		<path id="Rectangle_1199" class="st1" d="M-12460.2,5766.8h80.5v80.5h-80.5V5766.8z M-12380.2,5767.2h-79.5v79.5h79.5V5767.2z"/>
		<path id="Rectangle_2658" class="st1" d="M-12060.2,5766.8h80.5v80.5h-80.5V5766.8z M-11980.2,5767.2h-79.5v79.5h79.5V5767.2z"/>
		<path id="Rectangle_2695" class="st1" d="M-11740.2,5766.8h80.5v80.5h-80.5V5766.8z M-11660.2,5767.2h-79.5v79.5h79.5V5767.2z"/>
		<path id="Rectangle_1200" class="st1" d="M-13580.2,5686.8h80.5v80.5h-80.5V5686.8z M-13500.2,5687.2h-79.5v79.5h79.5V5687.2z"/>
		<path id="Rectangle_1202" class="st1" d="M-13500.2,5686.8h80.5v80.5h-80.5V5686.8z M-13420.2,5687.2h-79.5v79.5h79.5V5687.2z"/>
		<path id="Rectangle_1203" class="st1" d="M-13420.2,5686.8h80.5v80.5h-80.5V5686.8z M-13340.2,5687.2h-79.5v79.5h79.5V5687.2z"/>
		<path id="Rectangle_1204" class="st1" d="M-13340.2,5686.8h80.5v80.5h-80.5V5686.8z M-13260.2,5687.2h-79.5v79.5h79.5V5687.2z"/>
		<path id="Rectangle_1205" class="st1" d="M-13260.2,5686.8h80.5v80.5h-80.5V5686.8z M-13180.2,5687.2h-79.5v79.5h79.5V5687.2z"/>
		<path id="Rectangle_1206" class="st1" d="M-13180.2,5686.8h80.5v80.5h-80.5V5686.8z M-13100.2,5687.2h-79.5v79.5h79.5V5687.2z"/>
		<path id="Rectangle_1207" class="st1" d="M-13100.2,5686.8h80.5v80.5h-80.5V5686.8z M-13020.2,5687.2h-79.5v79.5h79.5V5687.2z"/>
		<path id="Rectangle_1208" class="st1" d="M-13020.2,5686.8h80.5v80.5h-80.5V5686.8z M-12940.2,5687.2h-79.5v79.5h79.5V5687.2z"/>
		<path id="Rectangle_1209" class="st1" d="M-12940.2,5686.8h80.5v80.5h-80.5V5686.8z M-12860.2,5687.2h-79.5v79.5h79.5V5687.2z"/>
		<path id="Rectangle_1210" class="st1" d="M-12860.2,5686.8h80.5v80.5h-80.5V5686.8z M-12780.2,5687.2h-79.5v79.5h79.5V5687.2z"/>
		<path id="Rectangle_1211" class="st1" d="M-12780.2,5686.8h80.5v80.5h-80.5V5686.8z M-12700.2,5687.2h-79.5v79.5h79.5V5687.2z"/>
		<path id="Rectangle_2632" class="st1" d="M-12380.2,5686.8h80.5v80.5h-80.5V5686.8z M-12300.2,5687.2h-79.5v79.5h79.5V5687.2z"/>
		<path id="Rectangle_1212" class="st1" d="M-12700.2,5686.8h80.5v80.5h-80.5V5686.8z M-12620.2,5687.2h-79.5v79.5h79.5V5687.2z"/>
		<path id="Rectangle_2633" class="st1" d="M-12300.3,5686.8h80.5v80.5h-80.5V5686.8z M-12220.3,5687.2h-79.5v79.5h79.5V5687.2z"/>
		<path id="Rectangle_2677" class="st1" d="M-11980.2,5686.8h80.5v80.5h-80.5V5686.8z M-11900.2,5687.2h-79.5v79.5h79.5V5687.2z"/>
		<path id="Rectangle_1213" class="st1" d="M-12620.2,5686.8h80.5v80.5h-80.5V5686.8z M-12540.2,5687.2h-79.5v79.5h79.5V5687.2z"/>
		<path id="Rectangle_2637" class="st1" d="M-12220.2,5686.8h80.5v80.5h-80.5V5686.8z M-12140.2,5687.2h-79.5v79.5h79.5V5687.2z"/>
		<path id="Rectangle_2678" class="st1" d="M-11900.2,5686.8h80.5v80.5h-80.5V5686.8z M-11820.2,5687.2h-79.5v79.5h79.5V5687.2z"/>
		<path id="Rectangle_1214" class="st1" d="M-12540.2,5686.8h80.5v80.5h-80.5V5686.8z M-12460.2,5687.2h-79.5v79.5h79.5V5687.2z"/>
		<path id="Rectangle_2645" class="st1" d="M-12140.2,5686.8h80.5v80.5h-80.5V5686.8z M-12060.2,5687.2h-79.5v79.5h79.5V5687.2z"/>
		<path id="Rectangle_2684" class="st1" d="M-11820.2,5686.8h80.5v80.5h-80.5V5686.8z M-11740.2,5687.2h-79.5v79.5h79.5V5687.2z"/>
		<path id="Rectangle_1215" class="st1" d="M-12460.2,5686.8h80.5v80.5h-80.5V5686.8z M-12380.2,5687.2h-79.5v79.5h79.5V5687.2z"/>
		<path id="Rectangle_2659" class="st1" d="M-12060.2,5686.8h80.5v80.5h-80.5V5686.8z M-11980.2,5687.2h-79.5v79.5h79.5V5687.2z"/>
		<path id="Rectangle_2696" class="st1" d="M-11740.2,5686.8h80.5v80.5h-80.5V5686.8z M-11660.2,5687.2h-79.5v79.5h79.5V5687.2z"/>
		<path id="Rectangle_1216" class="st1" d="M-13580.2,5606.8h80.5v80.5h-80.5V5606.8z M-13500.2,5607.2h-79.5v79.5h79.5V5607.2z"/>
		<path id="Rectangle_1218" class="st1" d="M-13500.2,5606.8h80.5v80.5h-80.5V5606.8z M-13420.2,5607.2h-79.5v79.5h79.5V5607.2z"/>
		<path id="Rectangle_1219" class="st1" d="M-13420.2,5606.8h80.5v80.5h-80.5V5606.8z M-13340.2,5607.2h-79.5v79.5h79.5V5607.2z"/>
		<path id="Rectangle_1220" class="st1" d="M-13340.2,5606.8h80.5v80.5h-80.5V5606.8z M-13260.2,5607.2h-79.5v79.5h79.5V5607.2z"/>
		<path id="Rectangle_1221" class="st1" d="M-13260.2,5606.8h80.5v80.5h-80.5V5606.8z M-13180.2,5607.2h-79.5v79.5h79.5V5607.2z"/>
		<path id="Rectangle_1222" class="st1" d="M-13180.2,5606.8h80.5v80.5h-80.5V5606.8z M-13100.2,5607.2h-79.5v79.5h79.5V5607.2z"/>
		<path id="Rectangle_1223" class="st1" d="M-13100.2,5606.8h80.5v80.5h-80.5V5606.8z M-13020.2,5607.2h-79.5v79.5h79.5V5607.2z"/>
		<path id="Rectangle_1224" class="st1" d="M-13020.2,5606.8h80.5v80.5h-80.5V5606.8z M-12940.2,5607.2h-79.5v79.5h79.5V5607.2z"/>
		<path id="Rectangle_1225" class="st1" d="M-12940.2,5606.8h80.5v80.5h-80.5V5606.8z M-12860.2,5607.2h-79.5v79.5h79.5V5607.2z"/>
		<path id="Rectangle_1226" class="st1" d="M-12860.2,5606.8h80.5v80.5h-80.5V5606.8z M-12780.2,5607.2h-79.5v79.5h79.5V5607.2z"/>
		<path id="Rectangle_1227" class="st1" d="M-12780.2,5606.8h80.5v80.5h-80.5V5606.8z M-12700.2,5607.2h-79.5v79.5h79.5V5607.2z"/>
		<path id="Rectangle_2630" class="st1" d="M-12380.2,5606.8h80.5v80.5h-80.5V5606.8z M-12300.2,5607.2h-79.5v79.5h79.5V5607.2z"/>
		<path id="Rectangle_1228" class="st1" d="M-12700.2,5606.8h80.5v80.5h-80.5V5606.8z M-12620.2,5607.2h-79.5v79.5h79.5V5607.2z"/>
		<path id="Rectangle_2631" class="st1" d="M-12300.3,5606.8h80.5v80.5h-80.5V5606.8z M-12220.3,5607.2h-79.5v79.5h79.5V5607.2z"/>
		<path id="Rectangle_2672" class="st1" d="M-11980.2,5606.8h80.5v80.5h-80.5V5606.8z M-11900.2,5607.2h-79.5v79.5h79.5V5607.2z"/>
		<path id="Rectangle_1229" class="st1" d="M-12620.2,5606.8h80.5v80.5h-80.5V5606.8z M-12540.2,5607.2h-79.5v79.5h79.5V5607.2z"/>
		<path id="Rectangle_2638" class="st1" d="M-12220.2,5606.8h80.5v80.5h-80.5V5606.8z M-12140.2,5607.2h-79.5v79.5h79.5V5607.2z"/>
		<path id="Rectangle_2673" class="st1" d="M-11900.2,5606.8h80.5v80.5h-80.5V5606.8z M-11820.2,5607.2h-79.5v79.5h79.5V5607.2z"/>
		<path id="Rectangle_1230" class="st1" d="M-12540.2,5606.8h80.5v80.5h-80.5V5606.8z M-12460.2,5607.2h-79.5v79.5h79.5V5607.2z"/>
		<path id="Rectangle_2646" class="st1" d="M-12140.2,5606.8h80.5v80.5h-80.5V5606.8z M-12060.2,5607.2h-79.5v79.5h79.5V5607.2z"/>
		<path id="Rectangle_2685" class="st1" d="M-11820.2,5606.8h80.5v80.5h-80.5V5606.8z M-11740.2,5607.2h-79.5v79.5h79.5V5607.2z"/>
		<path id="Rectangle_1231" class="st1" d="M-12460.2,5606.8h80.5v80.5h-80.5V5606.8z M-12380.2,5607.2h-79.5v79.5h79.5V5607.2z"/>
		<path id="Rectangle_2660" class="st1" d="M-12060.2,5606.8h80.5v80.5h-80.5V5606.8z M-11980.2,5607.2h-79.5v79.5h79.5V5607.2z"/>
		<path id="Rectangle_2697" class="st1" d="M-11740.2,5606.8h80.5v80.5h-80.5V5606.8z M-11660.2,5607.2h-79.5v79.5h79.5V5607.2z"/>
		<path id="Rectangle_1232" class="st1" d="M-13580.2,5526.8h80.5v80.5h-80.5V5526.8z M-13500.2,5527.2h-79.5v79.5h79.5V5527.2z"/>
		<path id="Rectangle_1234" class="st1" d="M-13500.2,5526.8h80.5v80.5h-80.5V5526.8z M-13420.2,5527.2h-79.5v79.5h79.5V5527.2z"/>
		<path id="Rectangle_1235" class="st1" d="M-13420.2,5526.8h80.5v80.5h-80.5V5526.8z M-13340.2,5527.2h-79.5v79.5h79.5V5527.2z"/>
		<path id="Rectangle_1236" class="st1" d="M-13340.2,5526.8h80.5v80.5h-80.5V5526.8z M-13260.2,5527.2h-79.5v79.5h79.5V5527.2z"/>
		<path id="Rectangle_1237" class="st1" d="M-13260.2,5526.8h80.5v80.5h-80.5V5526.8z M-13180.2,5527.2h-79.5v79.5h79.5V5527.2z"/>
		<path id="Rectangle_1238" class="st1" d="M-13180.2,5526.8h80.5v80.5h-80.5V5526.8z M-13100.2,5527.2h-79.5v79.5h79.5V5527.2z"/>
		<path id="Rectangle_1239" class="st1" d="M-13100.2,5526.8h80.5v80.5h-80.5V5526.8z M-13020.2,5527.2h-79.5v79.5h79.5V5527.2z"/>
		<path id="Rectangle_1240" class="st1" d="M-13020.2,5526.8h80.5v80.5h-80.5V5526.8z M-12940.2,5527.2h-79.5v79.5h79.5V5527.2z"/>
		<path id="Rectangle_1241" class="st1" d="M-12940.2,5526.8h80.5v80.5h-80.5V5526.8z M-12860.2,5527.2h-79.5v79.5h79.5V5527.2z"/>
		<path id="Rectangle_1242" class="st1" d="M-12860.2,5526.8h80.5v80.5h-80.5V5526.8z M-12780.2,5527.2h-79.5v79.5h79.5V5527.2z"/>
		<path id="Rectangle_1243" class="st1" d="M-12780.2,5526.8h80.5v80.5h-80.5V5526.8z M-12700.2,5527.2h-79.5v79.5h79.5V5527.2z"/>
		<path id="Rectangle_2627" class="st1" d="M-12380.2,5526.8h80.5v80.5h-80.5V5526.8z M-12300.2,5527.2h-79.5v79.5h79.5V5527.2z"/>
		<path id="Rectangle_1244" class="st1" d="M-12700.2,5526.8h80.5v80.5h-80.5V5526.8z M-12620.2,5527.2h-79.5v79.5h79.5V5527.2z"/>
		<path id="Rectangle_2628" class="st1" d="M-12300.3,5526.8h80.5v80.5h-80.5V5526.8z M-12220.3,5527.2h-79.5v79.5h79.5V5527.2z"/>
		<path id="Rectangle_2674" class="st1" d="M-11980.2,5526.8h80.5v80.5h-80.5V5526.8z M-11900.2,5527.2h-79.5v79.5h79.5V5527.2z"/>
		<path id="Rectangle_1245" class="st1" d="M-12620.2,5526.8h80.5v80.5h-80.5V5526.8z M-12540.2,5527.2h-79.5v79.5h79.5V5527.2z"/>
		<path id="Rectangle_2639" class="st1" d="M-12220.2,5526.8h80.5v80.5h-80.5V5526.8z M-12140.2,5527.2h-79.5v79.5h79.5V5527.2z"/>
		<path id="Rectangle_2675" class="st1" d="M-11900.2,5526.8h80.5v80.5h-80.5V5526.8z M-11820.2,5527.2h-79.5v79.5h79.5V5527.2z"/>
		<path id="Rectangle_1246" class="st1" d="M-12540.2,5526.8h80.5v80.5h-80.5V5526.8z M-12460.2,5527.2h-79.5v79.5h79.5V5527.2z"/>
		<path id="Rectangle_2647" class="st1" d="M-12140.2,5526.8h80.5v80.5h-80.5V5526.8z M-12060.2,5527.2h-79.5v79.5h79.5V5527.2z"/>
		<path id="Rectangle_2686" class="st1" d="M-11820.2,5526.8h80.5v80.5h-80.5V5526.8z M-11740.2,5527.2h-79.5v79.5h79.5V5527.2z"/>
		<path id="Rectangle_1247" class="st1" d="M-12460.2,5526.8h80.5v80.5h-80.5V5526.8z M-12380.2,5527.2h-79.5v79.5h79.5V5527.2z"/>
		<path id="Rectangle_2661" class="st1" d="M-12060.2,5526.8h80.5v80.5h-80.5V5526.8z M-11980.2,5527.2h-79.5v79.5h79.5V5527.2z"/>
		<path id="Rectangle_2698" class="st1" d="M-11740.2,5526.8h80.5v80.5h-80.5V5526.8z M-11660.2,5527.2h-79.5v79.5h79.5V5527.2z"/>
		<path id="Rectangle_1248" class="st1" d="M-13580.2,5446.8h80.5v80.5h-80.5V5446.8z M-13500.2,5447.2h-79.5v79.5h79.5V5447.2z"/>
		<path id="Rectangle_1249" class="st1" d="M-13500.2,5446.8h80.5v80.5h-80.5V5446.8z M-13420.2,5447.2h-79.5v79.5h79.5V5447.2z"/>
		<path id="Rectangle_1250" class="st1" d="M-13420.2,5446.8h80.5v80.5h-80.5V5446.8z M-13340.2,5447.2h-79.5v79.5h79.5V5447.2z"/>
		<path id="Rectangle_1251" class="st1" d="M-13340.2,5446.8h80.5v80.5h-80.5V5446.8z M-13260.2,5447.2h-79.5v79.5h79.5V5447.2z"/>
		<path id="Rectangle_1252" class="st1" d="M-13260.2,5446.8h80.5v80.5h-80.5V5446.8z M-13180.2,5447.2h-79.5v79.5h79.5V5447.2z"/>
		<path id="Rectangle_1253" class="st1" d="M-13180.2,5446.8h80.5v80.5h-80.5V5446.8z M-13100.2,5447.2h-79.5v79.5h79.5V5447.2z"/>
		<path id="Rectangle_1254" class="st1" d="M-13100.2,5446.8h80.5v80.5h-80.5V5446.8z M-13020.2,5447.2h-79.5v79.5h79.5V5447.2z"/>
		<path id="Rectangle_1255" class="st1" d="M-13020.2,5446.8h80.5v80.5h-80.5V5446.8z M-12940.2,5447.2h-79.5v79.5h79.5V5447.2z"/>
		<path id="Rectangle_1256" class="st1" d="M-12940.2,5446.8h80.5v80.5h-80.5V5446.8z M-12860.2,5447.2h-79.5v79.5h79.5V5447.2z"/>
		<path id="Rectangle_1257" class="st1" d="M-12860.2,5446.8h80.5v80.5h-80.5V5446.8z M-12780.2,5447.2h-79.5v79.5h79.5V5447.2z"/>
		<path id="Rectangle_1258" class="st1" d="M-12780.2,5446.8h80.5v80.5h-80.5V5446.8z M-12700.2,5447.2h-79.5v79.5h79.5V5447.2z"/>
		<path id="Rectangle_2626" class="st1" d="M-12380.2,5446.8h80.5v80.5h-80.5V5446.8z M-12300.2,5447.2h-79.5v79.5h79.5V5447.2z"/>
		<path id="Rectangle_1259" class="st1" d="M-12700.2,5446.8h80.5v80.5h-80.5V5446.8z M-12620.2,5447.2h-79.5v79.5h79.5V5447.2z"/>
		<path id="Rectangle_2629" class="st1" d="M-12300.2,5446.8h80.5v80.5h-80.5V5446.8z M-12220.2,5447.2h-79.5v79.5h79.5V5447.2z"/>
		<path id="Rectangle_2671" class="st1" d="M-11980.2,5446.8h80.5v80.5h-80.5V5446.8z M-11900.2,5447.2h-79.5v79.5h79.5V5447.2z"/>
		<path id="Rectangle_1260" class="st1" d="M-12620.2,5446.8h80.5v80.5h-80.5V5446.8z M-12540.2,5447.2h-79.5v79.5h79.5V5447.2z"/>
		<path id="Rectangle_2640" class="st1" d="M-12220.2,5446.8h80.5v80.5h-80.5V5446.8z M-12140.2,5447.2h-79.5v79.5h79.5V5447.2z"/>
		<path id="Rectangle_2676" class="st1" d="M-11900.2,5446.8h80.5v80.5h-80.5V5446.8z M-11820.2,5447.2h-79.5v79.5h79.5V5447.2z"/>
		<path id="Rectangle_1261" class="st1" d="M-12540.2,5446.8h80.5v80.5h-80.5V5446.8z M-12460.2,5447.2h-79.5v79.5h79.5V5447.2z"/>
		<path id="Rectangle_2648" class="st1" d="M-12140.2,5446.8h80.5v80.5h-80.5V5446.8z M-12060.2,5447.2h-79.5v79.5h79.5V5447.2z"/>
		<path id="Rectangle_2687" class="st1" d="M-11820.2,5446.8h80.5v80.5h-80.5V5446.8z M-11740.2,5447.2h-79.5v79.5h79.5V5447.2z"/>
		<path id="Rectangle_1262" class="st1" d="M-12460.2,5446.8h80.5v80.5h-80.5V5446.8z M-12380.2,5447.2h-79.5v79.5h79.5V5447.2z"/>
		<path id="Rectangle_2662" class="st1" d="M-12060.2,5446.8h80.5v80.5h-80.5V5446.8z M-11980.2,5447.2h-79.5v79.5h79.5V5447.2z"/>
		<path id="Rectangle_2699" class="st1" d="M-11740.2,5446.8h80.5v80.5h-80.5V5446.8z M-11660.2,5447.2h-79.5v79.5h79.5V5447.2z"/>
		<path id="Rectangle_1263" class="st1" d="M-13580.2,6086.8h80.5v80.5h-80.5V6086.8z M-13500.2,6087.2h-79.5v79.5h79.5V6087.2z"/>
		<path id="Rectangle_2719" class="st1" d="M-13580.2,6326.8h80.5v80.5h-80.5V6326.8z M-13500.2,6327.2h-79.5v79.5h79.5V6327.2z"/>
		<path id="Rectangle_1264" class="st1" d="M-13500.2,6086.8h80.5v80.5h-80.5V6086.8z M-13420.2,6087.2h-79.5v79.5h79.5V6087.2z"/>
		<path id="Rectangle_2720" class="st1" d="M-13500.2,6326.8h80.5v80.5h-80.5V6326.8z M-13420.2,6327.2h-79.5v79.5h79.5V6327.2z"/>
		<path id="Rectangle_1265" class="st1" d="M-13420.2,6086.8h80.5v80.5h-80.5V6086.8z M-13340.2,6087.2h-79.5v79.5h79.5V6087.2z"/>
		<path id="Rectangle_2721" class="st1" d="M-13420.2,6326.8h80.5v80.5h-80.5V6326.8z M-13340.2,6327.2h-79.5v79.5h79.5V6327.2z"/>
		<path id="Rectangle_1266" class="st1" d="M-13340.2,6086.8h80.5v80.5h-80.5V6086.8z M-13260.2,6087.2h-79.5v79.5h79.5V6087.2z"/>
		<path id="Rectangle_2722" class="st1" d="M-13340.2,6326.8h80.5v80.5h-80.5V6326.8z M-13260.2,6327.2h-79.5v79.5h79.5V6327.2z"/>
		<path id="Rectangle_1267" class="st1" d="M-13260.2,6086.8h80.5v80.5h-80.5V6086.8z M-13180.2,6087.2h-79.5v79.5h79.5V6087.2z"/>
		<path id="Rectangle_2723" class="st1" d="M-13260.2,6326.8h80.5v80.5h-80.5V6326.8z M-13180.2,6327.2h-79.5v79.5h79.5V6327.2z"/>
		<path id="Rectangle_1268" class="st1" d="M-13180.2,6086.8h80.5v80.5h-80.5V6086.8z M-13100.2,6087.2h-79.5v79.5h79.5V6087.2z"/>
		<path id="Rectangle_2724" class="st1" d="M-13180.2,6326.8h80.5v80.5h-80.5V6326.8z M-13100.2,6327.2h-79.5v79.5h79.5V6327.2z"/>
		<path id="Rectangle_1269" class="st1" d="M-13100.2,6086.8h80.5v80.5h-80.5V6086.8z M-13020.2,6087.2h-79.5v79.5h79.5V6087.2z"/>
		<path id="Rectangle_2725" class="st1" d="M-13100.2,6326.8h80.5v80.5h-80.5V6326.8z M-13020.2,6327.2h-79.5v79.5h79.5V6327.2z"/>
		<path id="Rectangle_1270" class="st1" d="M-13020.2,6086.8h80.5v80.5h-80.5V6086.8z M-12940.2,6087.2h-79.5v79.5h79.5V6087.2z"/>
		<path id="Rectangle_2726" class="st1" d="M-13020.2,6326.8h80.5v80.5h-80.5V6326.8z M-12940.2,6327.2h-79.5v79.5h79.5V6327.2z"/>
		<path id="Rectangle_1271" class="st1" d="M-12940.2,6086.8h80.5v80.5h-80.5V6086.8z M-12860.2,6087.2h-79.5v79.5h79.5V6087.2z"/>
		<path id="Rectangle_2727" class="st1" d="M-12940.2,6326.8h80.5v80.5h-80.5V6326.8z M-12860.2,6327.2h-79.5v79.5h79.5V6327.2z"/>
		<path id="Rectangle_1272" class="st1" d="M-12860.2,6086.8h80.5v80.5h-80.5V6086.8z M-12780.2,6087.2h-79.5v79.5h79.5V6087.2z"/>
		<path id="Rectangle_2728" class="st1" d="M-12860.2,6326.8h80.5v80.5h-80.5V6326.8z M-12780.2,6327.2h-79.5v79.5h79.5V6327.2z"/>
		<path id="Rectangle_1273" class="st1" d="M-12780.2,6086.8h80.5v80.5h-80.5V6086.8z M-12700.2,6087.2h-79.5v79.5h79.5V6087.2z"/>
		<path id="Rectangle_2729" class="st1" d="M-12780.2,6326.8h80.5v80.5h-80.5V6326.8z M-12700.2,6327.2h-79.5v79.5h79.5V6327.2z"/>
		<path id="Rectangle_2663" class="st1" d="M-12380.2,6086.8h80.5v80.5h-80.5V6086.8z M-12300.2,6087.2h-79.5v79.5h79.5V6087.2z"/>
		<path id="Rectangle_2752" class="st1" d="M-12380.2,6326.8h80.5v80.5h-80.5V6326.8z M-12300.2,6327.2h-79.5v79.5h79.5V6327.2z"/>
		<path id="Rectangle_1274" class="st1" d="M-12700.2,6086.8h80.5v80.5h-80.5V6086.8z M-12620.2,6087.2h-79.5v79.5h79.5V6087.2z"/>
		<path id="Rectangle_2740" class="st1" d="M-12700.2,6326.8h80.5v80.5h-80.5V6326.8z M-12620.2,6327.2h-79.5v79.5h79.5V6327.2z"/>
		<path id="Rectangle_2664" class="st1" d="M-12300.2,6086.8h80.5v80.5h-80.5V6086.8z M-12220.2,6087.2h-79.5v79.5h79.5V6087.2z"/>
		<path id="Rectangle_2753" class="st1" d="M-12300.2,6326.8h80.5v80.5h-80.5V6326.8z M-12220.2,6327.2h-79.5v79.5h79.5V6327.2z"/>
		<path id="Rectangle_2703" class="st1" d="M-11980.2,6086.8h80.5v80.5h-80.5V6086.8z M-11900.2,6087.2h-79.5v79.5h79.5V6087.2z"/>
		<path id="Rectangle_2767" class="st1" d="M-11980.2,6326.8h80.5v80.5h-80.5V6326.8z M-11900.2,6327.2h-79.5v79.5h79.5V6327.2z"/>
		<path id="Rectangle_1275" class="st1" d="M-12620.2,6086.8h80.5v80.5h-80.5V6086.8z M-12540.2,6087.2h-79.5v79.5h79.5V6087.2z"/>
		<path id="Rectangle_2743" class="st1" d="M-12620.2,6326.8h80.5v80.5h-80.5V6326.8z M-12540.2,6327.2h-79.5v79.5h79.5V6327.2z"/>
		<path id="Rectangle_2665" class="st1" d="M-12220.2,6086.8h80.5v80.5h-80.5V6086.8z M-12140.2,6087.2h-79.5v79.5h79.5V6087.2z"/>
		<path id="Rectangle_2758" class="st1" d="M-12220.2,6326.8h80.5v80.5h-80.5V6326.8z M-12140.2,6327.2h-79.5v79.5h79.5V6327.2z"/>
		<path id="Rectangle_2704" class="st1" d="M-11900.2,6086.8h80.5v80.5h-80.5V6086.8z M-11820.2,6087.2h-79.5v79.5h79.5V6087.2z"/>
		<path id="Rectangle_2770" class="st1" d="M-11900.2,6326.8h80.5v80.5h-80.5V6326.8z M-11820.2,6327.2h-79.5v79.5h79.5V6327.2z"/>
		<path id="Rectangle_1276" class="st1" d="M-12540.2,6086.8h80.5v80.5h-80.5V6086.8z M-12460.2,6087.2h-79.5v79.5h79.5V6087.2z"/>
		<path id="Rectangle_2666" class="st1" d="M-12140.2,6086.8h80.5v80.5h-80.5V6086.8z M-12060.2,6087.2h-79.5v79.5h79.5V6087.2z"/>
		<path id="Rectangle_2761" class="st1" d="M-12140.2,6326.8h80.5v80.5h-80.5V6326.8z M-12060.2,6327.2h-79.5v79.5h79.5V6327.2z"/>
		<path id="Rectangle_2705" class="st1" d="M-11820.2,6086.8h80.5v80.5h-80.5V6086.8z M-11740.2,6087.2h-79.5v79.5h79.5V6087.2z"/>
		<path id="Rectangle_2773" class="st1" d="M-11820.2,6326.8h80.5v80.5h-80.5V6326.8z M-11740.2,6327.2h-79.5v79.5h79.5V6327.2z"/>
		<path id="Rectangle_1277" class="st1" d="M-12460.2,6086.8h80.5v80.5h-80.5V6086.8z M-12380.2,6087.2h-79.5v79.5h79.5V6087.2z"/>
		<path id="Rectangle_2747" class="st1" d="M-12460.2,6326.8h80.5v80.5h-80.5V6326.8z M-12380.2,6327.2h-79.5v79.5h79.5V6327.2z"/>
		<path id="Rectangle_2667" class="st1" d="M-12060.2,6086.8h80.5v80.5h-80.5V6086.8z M-11980.2,6087.2h-79.5v79.5h79.5V6087.2z"/>
		<path id="Rectangle_2762" class="st1" d="M-12060.2,6326.8h80.5v80.5h-80.5V6326.8z M-11980.2,6327.2h-79.5v79.5h79.5V6327.2z"/>
		<path id="Rectangle_2706" class="st1" d="M-11740.2,6086.8h80.5v80.5h-80.5V6086.8z M-11660.2,6087.2h-79.5v79.5h79.5V6087.2z"/>
		<path id="Rectangle_2776" class="st1" d="M-11740.2,6326.8h80.5v80.5h-80.5V6326.8z M-11660.2,6327.2h-79.5v79.5h79.5V6327.2z"/>
		<path id="Rectangle_1278" class="st1" d="M-13580.2,6006.8h80.5v80.5h-80.5V6006.8z M-13500.2,6007.2h-79.5v79.5h79.5V6007.2z"/>
		<path id="Rectangle_2710" class="st1" d="M-13580.2,6246.8h80.5v80.5h-80.5V6246.8z M-13500.2,6247.2h-79.5v79.5h79.5V6247.2z"/>
		<path id="Rectangle_1280" class="st1" d="M-13500.2,6006.8h80.5v80.5h-80.5V6006.8z M-13420.2,6007.2h-79.5v79.5h79.5V6007.2z"/>
		<path id="Rectangle_2711" class="st1" d="M-13500.2,6246.8h80.5v80.5h-80.5V6246.8z M-13420.2,6247.2h-79.5v79.5h79.5V6247.2z"/>
		<path id="Rectangle_1281" class="st1" d="M-13420.2,6006.8h80.5v80.5h-80.5V6006.8z M-13340.2,6007.2h-79.5v79.5h79.5V6007.2z"/>
		<path id="Rectangle_2712" class="st1" d="M-13420.2,6246.8h80.5v80.5h-80.5V6246.8z M-13340.2,6247.2h-79.5v79.5h79.5V6247.2z"/>
		<path id="Rectangle_1282" class="st1" d="M-13340.2,6006.8h80.5v80.5h-80.5V6006.8z M-13260.2,6007.2h-79.5v79.5h79.5V6007.2z"/>
		<path id="Rectangle_2713" class="st1" d="M-13340.2,6246.8h80.5v80.5h-80.5V6246.8z M-13260.2,6247.2h-79.5v79.5h79.5V6247.2z"/>
		<path id="Rectangle_1283" class="st1" d="M-13260.2,6006.8h80.5v80.5h-80.5V6006.8z M-13180.2,6007.2h-79.5v79.5h79.5V6007.2z"/>
		<path id="Rectangle_2714" class="st1" d="M-13260.2,6246.8h80.5v80.5h-80.5V6246.8z M-13180.2,6247.2h-79.5v79.5h79.5V6247.2z"/>
		<path id="Rectangle_1284" class="st1" d="M-13180.2,6006.8h80.5v80.5h-80.5V6006.8z M-13100.2,6007.2h-79.5v79.5h79.5V6007.2z"/>
		<path id="Rectangle_2715" class="st1" d="M-13180.2,6246.8h80.5v80.5h-80.5V6246.8z M-13100.2,6247.2h-79.5v79.5h79.5V6247.2z"/>
		<path id="Rectangle_1285" class="st1" d="M-13100.2,6006.8h80.5v80.5h-80.5V6006.8z M-13020.2,6007.2h-79.5v79.5h79.5V6007.2z"/>
		<path id="Rectangle_2730" class="st1" d="M-13100.2,6246.8h80.5v80.5h-80.5V6246.8z M-13020.2,6247.2h-79.5v79.5h79.5V6247.2z"/>
		<path id="Rectangle_1286" class="st1" d="M-13020.2,6006.8h80.5v80.5h-80.5V6006.8z M-12940.2,6007.2h-79.5v79.5h79.5V6007.2z"/>
		<path id="Rectangle_2731" class="st1" d="M-13020.2,6246.8h80.5v80.5h-80.5V6246.8z M-12940.2,6247.2h-79.5v79.5h79.5V6247.2z"/>
		<path id="Rectangle_1287" class="st1" d="M-12940.2,6006.8h80.5v80.5h-80.5V6006.8z M-12860.2,6007.2h-79.5v79.5h79.5V6007.2z"/>
		<path id="Rectangle_2732" class="st1" d="M-12940.2,6246.8h80.5v80.5h-80.5V6246.8z M-12860.2,6247.2h-79.5v79.5h79.5V6247.2z"/>
		<path id="Rectangle_1288" class="st1" d="M-12860.2,6006.8h80.5v80.5h-80.5V6006.8z M-12780.2,6007.2h-79.5v79.5h79.5V6007.2z"/>
		<path id="Rectangle_2733" class="st1" d="M-12860.2,6246.8h80.5v80.5h-80.5V6246.8z M-12780.2,6247.2h-79.5v79.5h79.5V6247.2z"/>
		<path id="Rectangle_1289" class="st1" d="M-12780.2,6006.8h80.5v80.5h-80.5V6006.8z M-12700.2,6007.2h-79.5v79.5h79.5V6007.2z"/>
		<path id="Rectangle_2734" class="st1" d="M-12780.2,6246.8h80.5v80.5h-80.5V6246.8z M-12700.2,6247.2h-79.5v79.5h79.5V6247.2z"/>
		<path id="Rectangle_2654" class="st1" d="M-12380.2,6006.8h80.5v80.5h-80.5V6006.8z M-12300.2,6007.2h-79.5v79.5h79.5V6007.2z"/>
		<path id="Rectangle_2754" class="st1" d="M-12380.2,6246.8h80.5v80.5h-80.5V6246.8z M-12300.2,6247.2h-79.5v79.5h79.5V6247.2z"/>
		<path id="Rectangle_1290" class="st1" d="M-12700.2,6006.8h80.5v80.5h-80.5V6006.8z M-12620.2,6007.2h-79.5v79.5h79.5V6007.2z"/>
		<path id="Rectangle_2741" class="st1" d="M-12700.2,6246.8h80.5v80.5h-80.5V6246.8z M-12620.2,6247.2h-79.5v79.5h79.5V6247.2z"/>
		<path id="Rectangle_2655" class="st1" d="M-12300.3,6006.8h80.5v80.5h-80.5V6006.8z M-12220.3,6007.2h-79.5v79.5h79.5V6007.2z"/>
		<path id="Rectangle_2755" class="st1" d="M-12300.3,6246.8h80.5v80.5h-80.5V6246.8z M-12220.3,6247.2h-79.5v79.5h79.5V6247.2z"/>
		<path id="Rectangle_2692" class="st1" d="M-11980.2,6006.8h80.5v80.5h-80.5V6006.8z M-11900.2,6007.2h-79.5v79.5h79.5V6007.2z"/>
		<path id="Rectangle_2768" class="st1" d="M-11980.2,6246.8h80.5v80.5h-80.5V6246.8z M-11900.2,6247.2h-79.5v79.5h79.5V6247.2z"/>
		<path id="Rectangle_1291" class="st1" d="M-12620.2,6006.8h80.5v80.5h-80.5V6006.8z M-12540.2,6007.2h-79.5v79.5h79.5V6007.2z"/>
		<path id="Rectangle_2744" class="st1" d="M-12620.2,6246.8h80.5v80.5h-80.5V6246.8z M-12540.2,6247.2h-79.5v79.5h79.5V6247.2z"/>
		<path id="Rectangle_2656" class="st1" d="M-12220.2,6006.8h80.5v80.5h-80.5V6006.8z M-12140.2,6007.2h-79.5v79.5h79.5V6007.2z"/>
		<path id="Rectangle_2759" class="st1" d="M-12220.2,6246.8h80.5v80.5h-80.5V6246.8z M-12140.2,6247.2h-79.5v79.5h79.5V6247.2z"/>
		<path id="Rectangle_2693" class="st1" d="M-11900.2,6006.8h80.5v80.5h-80.5V6006.8z M-11820.2,6007.2h-79.5v79.5h79.5V6007.2z"/>
		<path id="Rectangle_2771" class="st1" d="M-11900.2,6246.8h80.5v80.5h-80.5V6246.8z M-11820.2,6247.2h-79.5v79.5h79.5V6247.2z"/>
		<path id="Rectangle_1292" class="st1" d="M-12540.2,6006.8h80.5v80.5h-80.5V6006.8z M-12460.2,6007.2h-79.5v79.5h79.5V6007.2z"/>
		<path id="Rectangle_2748" class="st1" d="M-12540.2,6246.8h80.5v80.5h-80.5V6246.8z M-12460.2,6247.2h-79.5v79.5h79.5V6247.2z"/>
		<path id="Rectangle_2657" class="st1" d="M-12140.2,6006.8h80.5v80.5h-80.5V6006.8z M-12060.2,6007.2h-79.5v79.5h79.5V6007.2z"/>
		<path id="Rectangle_2763" class="st1" d="M-12140.2,6246.8h80.5v80.5h-80.5V6246.8z M-12060.2,6247.2h-79.5v79.5h79.5V6247.2z"/>
		<path id="Rectangle_2694" class="st1" d="M-11820.2,6006.8h80.5v80.5h-80.5V6006.8z M-11740.2,6007.2h-79.5v79.5h79.5V6007.2z"/>
		<path id="Rectangle_2774" class="st1" d="M-11820.2,6246.8h80.5v80.5h-80.5V6246.8z M-11740.2,6247.2h-79.5v79.5h79.5V6247.2z"/>
		<path id="Rectangle_1293" class="st1" d="M-12460.2,6006.8h80.5v80.5h-80.5V6006.8z M-12380.2,6007.2h-79.5v79.5h79.5V6007.2z"/>
		<path id="Rectangle_2749" class="st1" d="M-12460.2,6246.8h80.5v80.5h-80.5V6246.8z M-12380.2,6247.2h-79.5v79.5h79.5V6247.2z"/>
		<path id="Rectangle_2668" class="st1" d="M-12060.2,6006.8h80.5v80.5h-80.5V6006.8z M-11980.2,6007.2h-79.5v79.5h79.5V6007.2z"/>
		<path id="Rectangle_2764" class="st1" d="M-12060.2,6246.8h80.5v80.5h-80.5V6246.8z M-11980.2,6247.2h-79.5v79.5h79.5V6247.2z"/>
		<path id="Rectangle_2700" class="st1" d="M-11740.2,6006.8h80.5v80.5h-80.5V6006.8z M-11660.2,6007.2h-79.5v79.5h79.5V6007.2z"/>
		<path id="Rectangle_2777" class="st1" d="M-11740.2,6246.8h80.5v80.5h-80.5V6246.8z M-11660.2,6247.2h-79.5v79.5h79.5V6247.2z"/>
		<path id="Rectangle_1294" class="st1" d="M-13580.2,5926.8h80.5v80.5h-80.5V5926.8z M-13500.2,5927.2h-79.5v79.5h79.5V5927.2z"/>
		<path id="Rectangle_2707" class="st1" d="M-13580.2,6166.8h80.5v80.5h-80.5V6166.8z M-13500.2,6167.2h-79.5v79.5h79.5V6167.2z"/>
		<path id="Rectangle_1296" class="st1" d="M-13500.2,5926.8h80.5v80.5h-80.5V5926.8z M-13420.2,5927.2h-79.5v79.5h79.5V5927.2z"/>
		<path id="Rectangle_2708" class="st1" d="M-13500.2,6166.8h80.5v80.5h-80.5V6166.8z M-13420.2,6167.2h-79.5v79.5h79.5V6167.2z"/>
		<path id="Rectangle_1297" class="st1" d="M-13420.2,5926.8h80.5v80.5h-80.5V5926.8z M-13340.2,5927.2h-79.5v79.5h79.5V5927.2z"/>
		<path id="Rectangle_2709" class="st1" d="M-13420.2,6166.8h80.5v80.5h-80.5V6166.8z M-13340.2,6167.2h-79.5v79.5h79.5V6167.2z"/>
		<path id="Rectangle_1298" class="st1" d="M-13340.2,5926.8h80.5v80.5h-80.5V5926.8z M-13260.2,5927.2h-79.5v79.5h79.5V5927.2z"/>
		<path id="Rectangle_2716" class="st1" d="M-13340.2,6166.8h80.5v80.5h-80.5V6166.8z M-13260.2,6167.2h-79.5v79.5h79.5V6167.2z"/>
		<path id="Rectangle_1299" class="st1" d="M-13260.2,5926.8h80.5v80.5h-80.5V5926.8z M-13180.2,5927.2h-79.5v79.5h79.5V5927.2z"/>
		<path id="Rectangle_2717" class="st1" d="M-13260.2,6166.8h80.5v80.5h-80.5V6166.8z M-13180.2,6167.2h-79.5v79.5h79.5V6167.2z"/>
		<path id="Rectangle_1300" class="st1" d="M-13180.2,5926.8h80.5v80.5h-80.5V5926.8z M-13100.2,5927.2h-79.5v79.5h79.5V5927.2z"/>
		<path id="Rectangle_2718" class="st1" d="M-13180.2,6166.8h80.5v80.5h-80.5V6166.8z M-13100.2,6167.2h-79.5v79.5h79.5V6167.2z"/>
		<path id="Rectangle_1301" class="st1" d="M-13100.2,5926.8h80.5v80.5h-80.5V5926.8z M-13020.2,5927.2h-79.5v79.5h79.5V5927.2z"/>
		<path id="Rectangle_2735" class="st1" d="M-13100.2,6166.8h80.5v80.5h-80.5V6166.8z M-13020.2,6167.2h-79.5v79.5h79.5V6167.2z"/>
		<path id="Rectangle_1302" class="st1" d="M-13020.2,5926.8h80.5v80.5h-80.5V5926.8z M-12940.2,5927.2h-79.5v79.5h79.5V5927.2z"/>
		<path id="Rectangle_2736" class="st1" d="M-13020.2,6166.8h80.5v80.5h-80.5V6166.8z M-12940.2,6167.2h-79.5v79.5h79.5V6167.2z"/>
		<path id="Rectangle_1303" class="st1" d="M-12940.2,5926.8h80.5v80.5h-80.5V5926.8z M-12860.2,5927.2h-79.5v79.5h79.5V5927.2z"/>
		<path id="Rectangle_2737" class="st1" d="M-12940.2,6166.8h80.5v80.5h-80.5V6166.8z M-12860.2,6167.2h-79.5v79.5h79.5V6167.2z"/>
		<path id="Rectangle_1304" class="st1" d="M-12860.2,5926.8h80.5v80.5h-80.5V5926.8z M-12780.2,5927.2h-79.5v79.5h79.5V5927.2z"/>
		<path id="Rectangle_2738" class="st1" d="M-12860.2,6166.8h80.5v80.5h-80.5V6166.8z M-12780.2,6167.2h-79.5v79.5h79.5V6167.2z"/>
		<path id="Rectangle_1305" class="st1" d="M-12780.2,5926.8h80.5v80.5h-80.5V5926.8z M-12700.2,5927.2h-79.5v79.5h79.5V5927.2z"/>
		<path id="Rectangle_2739" class="st1" d="M-12780.2,6166.8h80.5v80.5h-80.5V6166.8z M-12700.2,6167.2h-79.5v79.5h79.5V6167.2z"/>
		<path id="Rectangle_2650" class="st1" d="M-12380.2,5926.8h80.5v80.5h-80.5V5926.8z M-12300.2,5927.2h-79.5v79.5h79.5V5927.2z"/>
		<path id="Rectangle_2756" class="st1" d="M-12380.2,6166.8h80.5v80.5h-80.5V6166.8z M-12300.2,6167.2h-79.5v79.5h79.5V6167.2z"/>
		<path id="Rectangle_1306" class="st1" d="M-12700.2,5926.8h80.5v80.5h-80.5V5926.8z M-12620.2,5927.2h-79.5v79.5h79.5V5927.2z"/>
		<path id="Rectangle_2742" class="st1" d="M-12700.2,6166.8h80.5v80.5h-80.5V6166.8z M-12620.2,6167.2h-79.5v79.5h79.5V6167.2z"/>
		<path id="Rectangle_2651" class="st1" d="M-12300.3,5926.8h80.5v80.5h-80.5V5926.8z M-12220.3,5927.2h-79.5v79.5h79.5V5927.2z"/>
		<path id="Rectangle_2757" class="st1" d="M-12300.3,6166.8h80.5v80.5h-80.5V6166.8z M-12220.3,6167.2h-79.5v79.5h79.5V6167.2z"/>
		<path id="Rectangle_2689" class="st1" d="M-11980.2,5926.8h80.5v80.5h-80.5V5926.8z M-11900.2,5927.2h-79.5v79.5h79.5V5927.2z"/>
		<path id="Rectangle_2769" class="st1" d="M-11980.2,6166.8h80.5v80.5h-80.5V6166.8z M-11900.2,6167.2h-79.5v79.5h79.5V6167.2z"/>
		<path id="Rectangle_1307" class="st1" d="M-12620.2,5926.8h80.5v80.5h-80.5V5926.8z M-12540.2,5927.2h-79.5v79.5h79.5V5927.2z"/>
		<path id="Rectangle_2745" class="st1" d="M-12620.2,6166.8h80.5v80.5h-80.5V6166.8z M-12540.2,6167.2h-79.5v79.5h79.5V6167.2z"/>
		<path id="Rectangle_2652" class="st1" d="M-12220.2,5926.8h80.5v80.5h-80.5V5926.8z M-12140.2,5927.2h-79.5v79.5h79.5V5927.2z"/>
		<path id="Rectangle_2760" class="st1" d="M-12220.2,6166.8h80.5v80.5h-80.5V6166.8z M-12140.2,6167.2h-79.5v79.5h79.5V6167.2z"/>
		<path id="Rectangle_2690" class="st1" d="M-11900.2,5926.8h80.5v80.5h-80.5V5926.8z M-11820.2,5927.2h-79.5v79.5h79.5V5927.2z"/>
		<path id="Rectangle_2772" class="st1" d="M-11900.2,6166.8h80.5v80.5h-80.5V6166.8z M-11820.2,6167.2h-79.5v79.5h79.5V6167.2z"/>
		<path id="Rectangle_1308" class="st1" d="M-12540.2,5926.8h80.5v80.5h-80.5V5926.8z M-12460.2,5927.2h-79.5v79.5h79.5V5927.2z"/>
		<path id="Rectangle_2750" class="st1" d="M-12540.2,6166.8h80.5v80.5h-80.5V6166.8z M-12460.2,6167.2h-79.5v79.5h79.5V6167.2z"/>
		<path id="Rectangle_2653" class="st1" d="M-12140.2,5926.8h80.5v80.5h-80.5V5926.8z M-12060.2,5927.2h-79.5v79.5h79.5V5927.2z"/>
		<path id="Rectangle_2765" class="st1" d="M-12140.2,6166.8h80.5v80.5h-80.5V6166.8z M-12060.2,6167.2h-79.5v79.5h79.5V6167.2z"/>
		<path id="Rectangle_2691" class="st1" d="M-11820.2,5926.8h80.5v80.5h-80.5V5926.8z M-11740.2,5927.2h-79.5v79.5h79.5V5927.2z"/>
		<path id="Rectangle_2775" class="st1" d="M-11820.2,6166.8h80.5v80.5h-80.5V6166.8z M-11740.2,6167.2h-79.5v79.5h79.5V6167.2z"/>
		<path id="Rectangle_1309" class="st1" d="M-12460.2,5926.8h80.5v80.5h-80.5V5926.8z M-12380.2,5927.2h-79.5v79.5h79.5V5927.2z"/>
		<path id="Rectangle_2751" class="st1" d="M-12460.2,6166.8h80.5v80.5h-80.5V6166.8z M-12380.2,6167.2h-79.5v79.5h79.5V6167.2z"/>
		<path id="Rectangle_2669" class="st1" d="M-12060.2,5926.8h80.5v80.5h-80.5V5926.8z M-11980.2,5927.2h-79.5v79.5h79.5V5927.2z"/>
		<path id="Rectangle_2766" class="st1" d="M-12060.2,6166.8h80.5v80.5h-80.5V6166.8z M-11980.2,6167.2h-79.5v79.5h79.5V6167.2z"/>
		<path id="Rectangle_2701" class="st1" d="M-11740.2,5926.8h80.5v80.5h-80.5V5926.8z M-11660.2,5927.2h-79.5v79.5h79.5V5927.2z"/>
		<path id="Rectangle_2778" class="st1" d="M-11740.2,6166.8h80.5v80.5h-80.5V6166.8z M-11660.2,6167.2h-79.5v79.5h79.5V6167.2z"/>
		<path id="Rectangle_1310" class="st1" d="M-13580.2,5846.8h80.5v80.5h-80.5V5846.8z M-13500.2,5847.2h-79.5v79.5h79.5V5847.2z"/>
		<path id="Rectangle_1312" class="st1" d="M-13500.2,5846.8h80.5v80.5h-80.5V5846.8z M-13420.2,5847.2h-79.5v79.5h79.5V5847.2z"/>
		<path id="Rectangle_1313" class="st1" d="M-13420.2,5846.8h80.5v80.5h-80.5V5846.8z M-13340.2,5847.2h-79.5v79.5h79.5V5847.2z"/>
		<path id="Rectangle_1314" class="st1" d="M-13340.2,5846.8h80.5v80.5h-80.5V5846.8z M-13260.2,5847.2h-79.5v79.5h79.5V5847.2z"/>
		<path id="Rectangle_1315" class="st1" d="M-13260.2,5846.8h80.5v80.5h-80.5V5846.8z M-13180.2,5847.2h-79.5v79.5h79.5V5847.2z"/>
		<path id="Rectangle_1316" class="st1" d="M-13180.2,5846.8h80.5v80.5h-80.5V5846.8z M-13100.2,5847.2h-79.5v79.5h79.5V5847.2z"/>
		<path id="Rectangle_1317" class="st1" d="M-13100.2,5846.8h80.5v80.5h-80.5V5846.8z M-13020.2,5847.2h-79.5v79.5h79.5V5847.2z"/>
		<path id="Rectangle_1318" class="st1" d="M-13020.2,5846.8h80.5v80.5h-80.5V5846.8z M-12940.2,5847.2h-79.5v79.5h79.5V5847.2z"/>
		<path id="Rectangle_1319" class="st1" d="M-12940.2,5846.8h80.5v80.5h-80.5V5846.8z M-12860.2,5847.2h-79.5v79.5h79.5V5847.2z"/>
		<path id="Rectangle_1320" class="st1" d="M-12860.2,5846.8h80.5v80.5h-80.5V5846.8z M-12780.2,5847.2h-79.5v79.5h79.5V5847.2z"/>
		<path id="Rectangle_1321" class="st1" d="M-12780.2,5846.8h80.5v80.5h-80.5V5846.8z M-12700.2,5847.2h-79.5v79.5h79.5V5847.2z"/>
		<path id="Rectangle_2641" class="st1" d="M-12380.2,5846.8h80.5v80.5h-80.5V5846.8z M-12300.2,5847.2h-79.5v79.5h79.5V5847.2z"/>
		<path id="Rectangle_1322" class="st1" d="M-12700.2,5846.8h80.5v80.5h-80.5V5846.8z M-12620.2,5847.2h-79.5v79.5h79.5V5847.2z"/>
		<path id="Rectangle_2642" class="st1" d="M-12300.3,5846.8h80.5v80.5h-80.5V5846.8z M-12220.3,5847.2h-79.5v79.5h79.5V5847.2z"/>
		<path id="Rectangle_2681" class="st1" d="M-11980.2,5846.8h80.5v80.5h-80.5V5846.8z M-11900.2,5847.2h-79.5v79.5h79.5V5847.2z"/>
		<path id="Rectangle_1323" class="st1" d="M-12620.2,5846.8h80.5v80.5h-80.5V5846.8z M-12540.2,5847.2h-79.5v79.5h79.5V5847.2z"/>
		<path id="Rectangle_2643" class="st1" d="M-12220.2,5846.8h80.5v80.5h-80.5V5846.8z M-12140.2,5847.2h-79.5v79.5h79.5V5847.2z"/>
		<path id="Rectangle_2682" class="st1" d="M-11900.2,5846.8h80.5v80.5h-80.5V5846.8z M-11820.2,5847.2h-79.5v79.5h79.5V5847.2z"/>
		<path id="Rectangle_1324" class="st1" d="M-12540.2,5846.8h80.5v80.5h-80.5V5846.8z M-12460.2,5847.2h-79.5v79.5h79.5V5847.2z"/>
		<path id="Rectangle_2649" class="st1" d="M-12140.2,5846.8h80.5v80.5h-80.5V5846.8z M-12060.2,5847.2h-79.5v79.5h79.5V5847.2z"/>
		<path id="Rectangle_2688" class="st1" d="M-11820.2,5846.8h80.5v80.5h-80.5V5846.8z M-11740.2,5847.2h-79.5v79.5h79.5V5847.2z"/>
		<path id="Rectangle_1325" class="st1" d="M-12460.2,5846.8h80.5v80.5h-80.5V5846.8z M-12380.2,5847.2h-79.5v79.5h79.5V5847.2z"/>
		<path id="Rectangle_2670" class="st1" d="M-12060.2,5846.8h80.5v80.5h-80.5V5846.8z M-11980.2,5847.2h-79.5v79.5h79.5V5847.2z"/>
		<path id="Rectangle_2702" class="st1" d="M-11740.2,5846.8h80.5v80.5h-80.5V5846.8z M-11660.2,5847.2h-79.5v79.5h79.5V5847.2z"/>
		<path id="Rectangle_1216-2" class="st1" d="M-13580.2,6566.8h80.5v80.5h-80.5V6566.8z M-13500.2,6567.2h-79.5v79.5h79.5V6567.2z"
			/>
		<path id="Rectangle_1218-2" class="st1" d="M-13500.2,6566.8h80.5v80.5h-80.5V6566.8z M-13420.2,6567.2h-79.5v79.5h79.5V6567.2z"
			/>
		<path id="Rectangle_1219-2" class="st1" d="M-13420.2,6566.8h80.5v80.5h-80.5V6566.8z M-13340.2,6567.2h-79.5v79.5h79.5V6567.2z"
			/>
		<path id="Rectangle_1220-2" class="st1" d="M-13340.2,6566.8h80.5v80.5h-80.5V6566.8z M-13260.2,6567.2h-79.5v79.5h79.5V6567.2z"
			/>
		<path id="Rectangle_1221-2" class="st1" d="M-13260.2,6566.8h80.5v80.5h-80.5V6566.8z M-13180.2,6567.2h-79.5v79.5h79.5V6567.2z"
			/>
		<path id="Rectangle_1222-2" class="st1" d="M-13180.2,6566.8h80.5v80.5h-80.5V6566.8z M-13100.2,6567.2h-79.5v79.5h79.5V6567.2z"
			/>
		<path id="Rectangle_1223-2" class="st1" d="M-13100.2,6566.8h80.5v80.5h-80.5V6566.8z M-13020.2,6567.2h-79.5v79.5h79.5V6567.2z"
			/>
		<path id="Rectangle_1224-2" class="st1" d="M-13020.2,6566.8h80.5v80.5h-80.5V6566.8z M-12940.2,6567.2h-79.5v79.5h79.5V6567.2z"
			/>
		<path id="Rectangle_1225-2" class="st1" d="M-12940.2,6566.8h80.5v80.5h-80.5V6566.8z M-12860.2,6567.2h-79.5v79.5h79.5V6567.2z"
			/>
		<path id="Rectangle_1226-2" class="st1" d="M-12860.2,6566.8h80.5v80.5h-80.5V6566.8z M-12780.2,6567.2h-79.5v79.5h79.5V6567.2z"
			/>
		<path id="Rectangle_1227-2" class="st1" d="M-12780.2,6566.8h80.5v80.5h-80.5V6566.8z M-12700.2,6567.2h-79.5v79.5h79.5V6567.2z"
			/>
		<path id="Rectangle_2630-2" class="st1" d="M-12380.2,6566.8h80.5v80.5h-80.5V6566.8z M-12300.2,6567.2h-79.5v79.5h79.5V6567.2z"
			/>
		<path id="Rectangle_1228-2" class="st1" d="M-12700.2,6566.8h80.5v80.5h-80.5V6566.8z M-12620.2,6567.2h-79.5v79.5h79.5V6567.2z"
			/>
		<path id="Rectangle_2631-2" class="st1" d="M-12300.3,6566.8h80.5v80.5h-80.5V6566.8z M-12220.3,6567.2h-79.5v79.5h79.5V6567.2z"
			/>
		<path id="Rectangle_2672-2" class="st1" d="M-11980.2,6566.8h80.5v80.5h-80.5V6566.8z M-11900.2,6567.2h-79.5v79.5h79.5V6567.2z"
			/>
		<path id="Rectangle_1229-2" class="st1" d="M-12620.2,6566.8h80.5v80.5h-80.5V6566.8z M-12540.2,6567.2h-79.5v79.5h79.5V6567.2z"
			/>
		<path id="Rectangle_2638-2" class="st1" d="M-12220.2,6566.8h80.5v80.5h-80.5V6566.8z M-12140.2,6567.2h-79.5v79.5h79.5V6567.2z"
			/>
		<path id="Rectangle_2673-2" class="st1" d="M-11900.2,6566.8h80.5v80.5h-80.5V6566.8z M-11820.2,6567.2h-79.5v79.5h79.5V6567.2z"
			/>
		<path id="Rectangle_1230-2" class="st1" d="M-12540.2,6566.8h80.5v80.5h-80.5V6566.8z M-12460.2,6567.2h-79.5v79.5h79.5V6567.2z"
			/>
		<path id="Rectangle_2646-2" class="st1" d="M-12140.2,6566.8h80.5v80.5h-80.5V6566.8z M-12060.2,6567.2h-79.5v79.5h79.5V6567.2z"
			/>
		<path id="Rectangle_2685-2" class="st1" d="M-11820.2,6566.8h80.5v80.5h-80.5V6566.8z M-11740.2,6567.2h-79.5v79.5h79.5V6567.2z"
			/>
		<path id="Rectangle_1231-2" class="st1" d="M-12460.2,6566.8h80.5v80.5h-80.5V6566.8z M-12380.2,6567.2h-79.5v79.5h79.5V6567.2z"
			/>
		<path id="Rectangle_2660-2" class="st1" d="M-12060.2,6566.8h80.5v80.5h-80.5V6566.8z M-11980.2,6567.2h-79.5v79.5h79.5V6567.2z"
			/>
		<path id="Rectangle_2697-2" class="st1" d="M-11740.2,6566.8h80.5v80.5h-80.5V6566.8z M-11660.2,6567.2h-79.5v79.5h79.5V6567.2z"
			/>
		<path id="Rectangle_1232-2" class="st1" d="M-13580.2,6486.8h80.5v80.5h-80.5V6486.8z M-13500.2,6487.2h-79.5v79.5h79.5V6487.2z"
			/>
		<path id="Rectangle_1234-2" class="st1" d="M-13500.2,6486.8h80.5v80.5h-80.5V6486.8z M-13420.2,6487.2h-79.5v79.5h79.5V6487.2z"
			/>
		<path id="Rectangle_1235-2" class="st1" d="M-13420.2,6486.8h80.5v80.5h-80.5V6486.8z M-13340.2,6487.2h-79.5v79.5h79.5V6487.2z"
			/>
		<path id="Rectangle_1236-2" class="st1" d="M-13340.2,6486.8h80.5v80.5h-80.5V6486.8z M-13260.2,6487.2h-79.5v79.5h79.5V6487.2z"
			/>
		<path id="Rectangle_1237-2" class="st1" d="M-13260.2,6486.8h80.5v80.5h-80.5V6486.8z M-13180.2,6487.2h-79.5v79.5h79.5V6487.2z"
			/>
		<path id="Rectangle_1238-2" class="st1" d="M-13180.2,6486.8h80.5v80.5h-80.5V6486.8z M-13100.2,6487.2h-79.5v79.5h79.5V6487.2z"
			/>
		<path id="Rectangle_1239-2" class="st1" d="M-13100.2,6486.8h80.5v80.5h-80.5V6486.8z M-13020.2,6487.2h-79.5v79.5h79.5V6487.2z"
			/>
		<path id="Rectangle_1240-2" class="st1" d="M-13020.2,6486.8h80.5v80.5h-80.5V6486.8z M-12940.2,6487.2h-79.5v79.5h79.5V6487.2z"
			/>
		<path id="Rectangle_1241-2" class="st1" d="M-12940.2,6486.8h80.5v80.5h-80.5V6486.8z M-12860.2,6487.2h-79.5v79.5h79.5V6487.2z"
			/>
		<path id="Rectangle_1242-2" class="st1" d="M-12860.2,6486.8h80.5v80.5h-80.5V6486.8z M-12780.2,6487.2h-79.5v79.5h79.5V6487.2z"
			/>
		<path id="Rectangle_1243-2" class="st1" d="M-12780.2,6486.8h80.5v80.5h-80.5V6486.8z M-12700.2,6487.2h-79.5v79.5h79.5V6487.2z"
			/>
		<path id="Rectangle_2627-2" class="st1" d="M-12380.2,6486.8h80.5v80.5h-80.5V6486.8z M-12300.2,6487.2h-79.5v79.5h79.5V6487.2z"
			/>
		<path id="Rectangle_1244-2" class="st1" d="M-12700.2,6486.8h80.5v80.5h-80.5V6486.8z M-12620.2,6487.2h-79.5v79.5h79.5V6487.2z"
			/>
		<path id="Rectangle_2628-2" class="st1" d="M-12300.3,6486.8h80.5v80.5h-80.5V6486.8z M-12220.3,6487.2h-79.5v79.5h79.5V6487.2z"
			/>
		<path id="Rectangle_2674-2" class="st1" d="M-11980.2,6486.8h80.5v80.5h-80.5V6486.8z M-11900.2,6487.2h-79.5v79.5h79.5V6487.2z"
			/>
		<path id="Rectangle_1245-2" class="st1" d="M-12620.2,6486.8h80.5v80.5h-80.5V6486.8z M-12540.2,6487.2h-79.5v79.5h79.5V6487.2z"
			/>
		<path id="Rectangle_2639-2" class="st1" d="M-12220.2,6486.8h80.5v80.5h-80.5V6486.8z M-12140.2,6487.2h-79.5v79.5h79.5V6487.2z"
			/>
		<path id="Rectangle_2675-2" class="st1" d="M-11900.2,6486.8h80.5v80.5h-80.5V6486.8z M-11820.2,6487.2h-79.5v79.5h79.5V6487.2z"
			/>
		<path id="Rectangle_1246-2" class="st1" d="M-12540.2,6486.8h80.5v80.5h-80.5V6486.8z M-12460.2,6487.2h-79.5v79.5h79.5V6487.2z"
			/>
		<path id="Rectangle_2647-2" class="st1" d="M-12140.2,6486.8h80.5v80.5h-80.5V6486.8z M-12060.2,6487.2h-79.5v79.5h79.5V6487.2z"
			/>
		<path id="Rectangle_2686-2" class="st1" d="M-11820.2,6486.8h80.5v80.5h-80.5V6486.8z M-11740.2,6487.2h-79.5v79.5h79.5V6487.2z"
			/>
		<path id="Rectangle_1247-2" class="st1" d="M-12460.2,6486.8h80.5v80.5h-80.5V6486.8z M-12380.2,6487.2h-79.5v79.5h79.5V6487.2z"
			/>
		<path id="Rectangle_2661-2" class="st1" d="M-12060.2,6486.8h80.5v80.5h-80.5V6486.8z M-11980.2,6487.2h-79.5v79.5h79.5V6487.2z"
			/>
		<path id="Rectangle_2698-2" class="st1" d="M-11740.2,6486.8h80.5v80.5h-80.5V6486.8z M-11660.2,6487.2h-79.5v79.5h79.5V6487.2z"
			/>
		<path id="Rectangle_1248-2" class="st1" d="M-13580.2,6406.8h80.5v80.5h-80.5V6406.8z M-13500.2,6407.2h-79.5v79.5h79.5V6407.2z"
			/>
		<path id="Rectangle_1249-2" class="st1" d="M-13500.2,6406.8h80.5v80.5h-80.5V6406.8z M-13420.2,6407.2h-79.5v79.5h79.5V6407.2z"
			/>
		<path id="Rectangle_1250-2" class="st1" d="M-13420.2,6406.8h80.5v80.5h-80.5V6406.8z M-13340.2,6407.2h-79.5v79.5h79.5V6407.2z"
			/>
		<path id="Rectangle_1251-2" class="st1" d="M-13340.2,6406.8h80.5v80.5h-80.5V6406.8z M-13260.2,6407.2h-79.5v79.5h79.5V6407.2z"
			/>
		<path id="Rectangle_1252-2" class="st1" d="M-13260.2,6406.8h80.5v80.5h-80.5V6406.8z M-13180.2,6407.2h-79.5v79.5h79.5V6407.2z"
			/>
		<path id="Rectangle_1253-2" class="st1" d="M-13180.2,6406.8h80.5v80.5h-80.5V6406.8z M-13100.2,6407.2h-79.5v79.5h79.5V6407.2z"
			/>
		<path id="Rectangle_1254-2" class="st1" d="M-13100.2,6406.8h80.5v80.5h-80.5V6406.8z M-13020.2,6407.2h-79.5v79.5h79.5V6407.2z"
			/>
		<path id="Rectangle_1255-2" class="st1" d="M-13020.2,6406.8h80.5v80.5h-80.5V6406.8z M-12940.2,6407.2h-79.5v79.5h79.5V6407.2z"
			/>
		<path id="Rectangle_1256-2" class="st1" d="M-12940.2,6406.8h80.5v80.5h-80.5V6406.8z M-12860.2,6407.2h-79.5v79.5h79.5V6407.2z"
			/>
		<path id="Rectangle_1257-2" class="st1" d="M-12860.2,6406.8h80.5v80.5h-80.5V6406.8z M-12780.2,6407.2h-79.5v79.5h79.5V6407.2z"
			/>
		<path id="Rectangle_1258-2" class="st1" d="M-12780.2,6406.8h80.5v80.5h-80.5V6406.8z M-12700.2,6407.2h-79.5v79.5h79.5V6407.2z"
			/>
		<path id="Rectangle_2626-2" class="st1" d="M-12380.2,6406.8h80.5v80.5h-80.5V6406.8z M-12300.2,6407.2h-79.5v79.5h79.5V6407.2z"
			/>
		<path id="Rectangle_1259-2" class="st1" d="M-12700.2,6406.8h80.5v80.5h-80.5V6406.8z M-12620.2,6407.2h-79.5v79.5h79.5V6407.2z"
			/>
		<path id="Rectangle_2629-2" class="st1" d="M-12300.2,6406.8h80.5v80.5h-80.5V6406.8z M-12220.2,6407.2h-79.5v79.5h79.5V6407.2z"
			/>
		<path id="Rectangle_2671-2" class="st1" d="M-11980.2,6406.8h80.5v80.5h-80.5V6406.8z M-11900.2,6407.2h-79.5v79.5h79.5V6407.2z"
			/>
		<path id="Rectangle_1260-2" class="st1" d="M-12620.2,6406.8h80.5v80.5h-80.5V6406.8z M-12540.2,6407.2h-79.5v79.5h79.5V6407.2z"
			/>
		<path id="Rectangle_2640-2" class="st1" d="M-12220.2,6406.8h80.5v80.5h-80.5V6406.8z M-12140.2,6407.2h-79.5v79.5h79.5V6407.2z"
			/>
		<path id="Rectangle_2676-2" class="st1" d="M-11900.2,6406.8h80.5v80.5h-80.5V6406.8z M-11820.2,6407.2h-79.5v79.5h79.5V6407.2z"
			/>
		<path id="Rectangle_1261-2" class="st1" d="M-12540.2,6406.8h80.5v80.5h-80.5V6406.8z M-12460.2,6407.2h-79.5v79.5h79.5V6407.2z"
			/>
		<path id="Rectangle_2648-2" class="st1" d="M-12140.2,6406.8h80.5v80.5h-80.5V6406.8z M-12060.2,6407.2h-79.5v79.5h79.5V6407.2z"
			/>
		<path id="Rectangle_2687-2" class="st1" d="M-11820.2,6406.8h80.5v80.5h-80.5V6406.8z M-11740.2,6407.2h-79.5v79.5h79.5V6407.2z"
			/>
		<path id="Rectangle_1262-2" class="st1" d="M-12460.2,6406.8h80.5v80.5h-80.5V6406.8z M-12380.2,6407.2h-79.5v79.5h79.5V6407.2z"
			/>
		<path id="Rectangle_2662-2" class="st1" d="M-12060.2,6406.8h80.5v80.5h-80.5V6406.8z M-11980.2,6407.2h-79.5v79.5h79.5V6407.2z"
			/>
		<path id="Rectangle_2699-2" class="st1" d="M-11740.2,6406.8h80.5v80.5h-80.5V6406.8z M-11660.2,6407.2h-79.5v79.5h79.5V6407.2z"
			/>
	</g>
</g>
<g>
	<defs>
		<rect id="SVGID_1_" x="1280.5" y="240.5" width="399.5" height="239.5"/>
	</defs>
	<clipPath id="SVGID_00000052800116721874502060000006317058657410122942_">
		<use xlink:href="#SVGID_1_"  style="overflow:visible;"/>
	</clipPath>
	<g style="clip-path:url(#SVGID_00000052800116721874502060000006317058657410122942_);">
		
			<image style="overflow:visible;" width="1024" height="1024" xlink:href="gen-art/gen-art-_0002_DALL·E 2022-09-01 09.50.45 - rainbow oil spill on pavement.png.jpg"  transform="matrix(0.3933 0 0 0.3933 1278.2699 179.1164)">
		</image>
	</g>
</g>
<g>
	<defs>
		<rect id="SVGID_00000080896094612754687480000007840554366870062478_" x="1120.5" y="560.5" width="159.5" height="159.5"/>
	</defs>
	<clipPath id="SVGID_00000170987347564820850550000011526108244330403237_">
		<use xlink:href="#SVGID_00000080896094612754687480000007840554366870062478_"  style="overflow:visible;"/>
	</clipPath>
	<g style="clip-path:url(#SVGID_00000170987347564820850550000011526108244330403237_);">
		
			<image style="overflow:visible;" width="1024" height="1024" xlink:href="gen-art/gen-art-_0013_DALL·E 2022-09-01 11.17.52 - macro red world of pastel geometric shapes.png.jpg"  transform="matrix(0.187 0 0 0.187 1106.6669 538.376)">
		</image>
	</g>
</g>
</svg>
