<svg xmlns="http://www.w3.org/2000/svg" width="1920.5" height="720.5" viewBox="0 0 1920.5 720.5">
  <g id="Group_1221" data-name="Group 1221" transform="translate(15102.25 1417.25)">
    <path id="Rectangle_3206" data-name="Rectangle 3206" d="M-.25-.25h80.5v80.5H-.25Zm80,.5H.25v79.5h79.5Z" transform="translate(-15102 -1097)" fill="#949494"/>
    <path id="Rectangle_3207" data-name="Rectangle 3207" d="M-.25-.25h80.5v80.5H-.25Zm80,.5H.25v79.5h79.5Z" transform="translate(-15022 -1097)" fill="#949494"/>
    <path id="Rectangle_3208" data-name="Rectangle 3208" d="M-.25-.25h80.5v80.5H-.25Zm80,.5H.25v79.5h79.5Z" transform="translate(-14942 -1097)" fill="#949494"/>
    <path id="Rectangle_3209" data-name="Rectangle 3209" d="M-.25-.25h80.5v80.5H-.25Zm80,.5H.25v79.5h79.5Z" transform="translate(-14862 -1097)" fill="#949494"/>
    <path id="Rectangle_3210" data-name="Rectangle 3210" d="M-.25-.25h80.5v80.5H-.25Zm80,.5H.25v79.5h79.5Z" transform="translate(-14782 -1097)" fill="#949494"/>
    <path id="Rectangle_3211" data-name="Rectangle 3211" d="M-.25-.25h80.5v80.5H-.25Zm80,.5H.25v79.5h79.5Z" transform="translate(-14702 -1097)" fill="#949494"/>
    <path id="Rectangle_3212" data-name="Rectangle 3212" d="M-.25-.25h80.5v80.5H-.25Zm80,.5H.25v79.5h79.5Z" transform="translate(-14622 -1097)" fill="#949494"/>
    <path id="Rectangle_3213" data-name="Rectangle 3213" d="M-.25-.25h80.5v80.5H-.25Zm80,.5H.25v79.5h79.5Z" transform="translate(-14542 -1097)" fill="#949494"/>
    <path id="Rectangle_3214" data-name="Rectangle 3214" d="M-.25-.25h80.5v80.5H-.25Zm80,.5H.25v79.5h79.5Z" transform="translate(-14462 -1097)" fill="#949494"/>
    <path id="Rectangle_3308" data-name="Rectangle 3308" d="M-.25-.25h80.5v80.5H-.25Zm80,.5H.25v79.5h79.5Z" transform="translate(-13502 -1097)" fill="#949494"/>
    <path id="Rectangle_3255" data-name="Rectangle 3255" d="M-.25-.25h80.5v80.5H-.25Zm80,.5H.25v79.5h79.5Z" transform="translate(-13982 -1097)" fill="#949494"/>
    <path id="Rectangle_3215" data-name="Rectangle 3215" d="M-.25-.25h80.5v80.5H-.25Zm80,.5H.25v79.5h79.5Z" transform="translate(-14222 -1097)" fill="#949494"/>
    <path id="Rectangle_3316" data-name="Rectangle 3316" d="M-.25-.25h80.5v80.5H-.25Zm80,.5H.25v79.5h79.5Z" transform="translate(-13422 -1097)" fill="#949494"/>
    <path id="Rectangle_3261" data-name="Rectangle 3261" d="M-.25-.25h80.5v80.5H-.25Zm80,.5H.25v79.5h79.5Z" transform="translate(-13902 -1097)" fill="#949494"/>
    <path id="Rectangle_3284" data-name="Rectangle 3284" d="M-.25-.25h80.5v80.5H-.25Zm80,.5H.25v79.5h79.5Z" transform="translate(-13662 -1097)" fill="#949494"/>
    <path id="Rectangle_3247" data-name="Rectangle 3247" d="M-.25-.25h80.5v80.5H-.25Zm80,.5H.25v79.5h79.5Z" transform="translate(-14142 -1097)" fill="#949494"/>
    <path id="Rectangle_3216" data-name="Rectangle 3216" d="M-.25-.25h80.5v80.5H-.25Zm80,.5H.25v79.5h79.5Z" transform="translate(-14382 -1097)" fill="#949494"/>
    <path id="Rectangle_3326" data-name="Rectangle 3326" d="M-.25-.25h80.5v80.5H-.25Zm80,.5H.25v79.5h79.5Z" transform="translate(-13342 -1097)" fill="#949494"/>
    <path id="Rectangle_3268" data-name="Rectangle 3268" d="M-.25-.25h80.5v80.5H-.25Zm80,.5H.25v79.5h79.5Z" transform="translate(-13822 -1097)" fill="#949494"/>
    <path id="Rectangle_3299" data-name="Rectangle 3299" d="M-.25-.25h80.5v80.5H-.25Zm80,.5H.25v79.5h79.5Z" transform="translate(-13582 -1097)" fill="#949494"/>
    <path id="Rectangle_3251" data-name="Rectangle 3251" d="M-.25-.25h80.5v80.5H-.25Zm80,.5H.25v79.5h79.5Z" transform="translate(-14062 -1097)" fill="#949494"/>
    <path id="Rectangle_3217" data-name="Rectangle 3217" d="M-.25-.25h80.5v80.5H-.25Zm80,.5H.25v79.5h79.5Z" transform="translate(-14302 -1097)" fill="#949494"/>
    <path id="Rectangle_3335" data-name="Rectangle 3335" d="M-.25-.25h80.5v80.5H-.25Zm80,.5H.25v79.5h79.5Z" transform="translate(-13262 -1097)" fill="#949494"/>
    <path id="Rectangle_3275" data-name="Rectangle 3275" d="M-.25-.25h80.5v80.5H-.25Zm80,.5H.25v79.5h79.5Z" transform="translate(-13742 -1097)" fill="#949494"/>
    <path id="Rectangle_3190" data-name="Rectangle 3190" d="M-.25-.25h80.5v80.5H-.25Zm80,.5H.25v79.5h79.5Z" transform="translate(-15102 -1177)" fill="#949494"/>
    <path id="Rectangle_3191" data-name="Rectangle 3191" d="M-.25-.25h80.5v80.5H-.25Zm80,.5H.25v79.5h79.5Z" transform="translate(-15022 -1177)" fill="#949494"/>
    <path id="Rectangle_3262" data-name="Rectangle 3262" d="M-.25-.25h80.5v80.5H-.25Zm80,.5H.25v79.5h79.5Z" transform="translate(-13902 -1177)" fill="#949494"/>
    <path id="Rectangle_3269" data-name="Rectangle 3269" d="M-.25-.25h80.5v80.5H-.25Zm80,.5H.25v79.5h79.5Z" transform="translate(-13822.001 -1177)" fill="#949494"/>
    <path id="Rectangle_3309" data-name="Rectangle 3309" d="M-.25-.25h80.5v80.5H-.25Zm80,.5H.25v79.5h79.5Z" transform="translate(-13502 -1177)" fill="#949494"/>
    <path id="Rectangle_3276" data-name="Rectangle 3276" d="M-.25-.25h80.5v80.5H-.25Zm80,.5H.25v79.5h79.5Z" transform="translate(-13742 -1177)" fill="#949494"/>
    <path id="Rectangle_3317" data-name="Rectangle 3317" d="M-.25-.25h80.5v80.5H-.25Zm80,.5H.25v79.5h79.5Z" transform="translate(-13422 -1177)" fill="#949494"/>
    <path id="Rectangle_3285" data-name="Rectangle 3285" d="M-.25-.25h80.5v80.5H-.25Zm80,.5H.25v79.5h79.5Z" transform="translate(-13662 -1177)" fill="#949494"/>
    <path id="Rectangle_3327" data-name="Rectangle 3327" d="M-.25-.25h80.5v80.5H-.25Zm80,.5H.25v79.5h79.5Z" transform="translate(-13342 -1177)" fill="#949494"/>
    <path id="Rectangle_3256" data-name="Rectangle 3256" d="M-.25-.25h80.5v80.5H-.25Zm80,.5H.25v79.5h79.5Z" transform="translate(-13982 -1177)" fill="#949494"/>
    <path id="Rectangle_3300" data-name="Rectangle 3300" d="M-.25-.25h80.5v80.5H-.25Zm80,.5H.25v79.5h79.5Z" transform="translate(-13582 -1177)" fill="#949494"/>
    <path id="Rectangle_3336" data-name="Rectangle 3336" d="M-.25-.25h80.5v80.5H-.25Zm80,.5H.25v79.5h79.5Z" transform="translate(-13262 -1177)" fill="#949494"/>
    <path id="Rectangle_3192" data-name="Rectangle 3192" d="M-.25-.25h80.5v80.5H-.25Zm80,.5H.25v79.5h79.5Z" transform="translate(-15102 -1257)" fill="#949494"/>
    <path id="Rectangle_3193" data-name="Rectangle 3193" d="M-.25-.25h80.5v80.5H-.25Zm80,.5H.25v79.5h79.5Z" transform="translate(-15022 -1257)" fill="#949494"/>
    <path id="Rectangle_3263" data-name="Rectangle 3263" d="M-.25-.25h80.5v80.5H-.25Zm80,.5H.25v79.5h79.5Z" transform="translate(-13902 -1257)" fill="#949494"/>
    <path id="Rectangle_3270" data-name="Rectangle 3270" d="M-.25-.25h80.5v80.5H-.25Zm80,.5H.25v79.5h79.5Z" transform="translate(-13822.001 -1257)" fill="#949494"/>
    <path id="Rectangle_3310" data-name="Rectangle 3310" d="M-.25-.25h80.5v80.5H-.25Zm80,.5H.25v79.5h79.5Z" transform="translate(-13502 -1257)" fill="#949494"/>
    <path id="Rectangle_3277" data-name="Rectangle 3277" d="M-.25-.25h80.5v80.5H-.25Zm80,.5H.25v79.5h79.5Z" transform="translate(-13742 -1257)" fill="#949494"/>
    <path id="Rectangle_3318" data-name="Rectangle 3318" d="M-.25-.25h80.5v80.5H-.25Zm80,.5H.25v79.5h79.5Z" transform="translate(-13422 -1257)" fill="#949494"/>
    <path id="Rectangle_3286" data-name="Rectangle 3286" d="M-.25-.25h80.5v80.5H-.25Zm80,.5H.25v79.5h79.5Z" transform="translate(-13662 -1257)" fill="#949494"/>
    <path id="Rectangle_3328" data-name="Rectangle 3328" d="M-.25-.25h80.5v80.5H-.25Zm80,.5H.25v79.5h79.5Z" transform="translate(-13342 -1257)" fill="#949494"/>
    <path id="Rectangle_3257" data-name="Rectangle 3257" d="M-.25-.25h80.5v80.5H-.25Zm80,.5H.25v79.5h79.5Z" transform="translate(-13982 -1257)" fill="#949494"/>
    <path id="Rectangle_3301" data-name="Rectangle 3301" d="M-.25-.25h80.5v80.5H-.25Zm80,.5H.25v79.5h79.5Z" transform="translate(-13582 -1257)" fill="#949494"/>
    <path id="Rectangle_3337" data-name="Rectangle 3337" d="M-.25-.25h80.5v80.5H-.25Zm80,.5H.25v79.5h79.5Z" transform="translate(-13262 -1257)" fill="#949494"/>
    <path id="Rectangle_3194" data-name="Rectangle 3194" d="M-.25-.25h80.5v80.5H-.25Zm80,.5H.25v79.5h79.5Z" transform="translate(-15102 -1337)" fill="#949494"/>
    <path id="Rectangle_3195" data-name="Rectangle 3195" d="M-.25-.25h80.5v80.5H-.25Zm80,.5H.25v79.5h79.5Z" transform="translate(-15022 -1337)" fill="#949494"/>
    <path id="Rectangle_3196" data-name="Rectangle 3196" d="M-.25-.25h80.5v80.5H-.25Zm80,.5H.25v79.5h79.5Z" transform="translate(-14942 -1337)" fill="#949494"/>
    <path id="Rectangle_3197" data-name="Rectangle 3197" d="M-.25-.25h80.5v80.5H-.25Zm80,.5H.25v79.5h79.5Z" transform="translate(-14862 -1337)" fill="#949494"/>
    <path id="Rectangle_3198" data-name="Rectangle 3198" d="M-.25-.25h80.5v80.5H-.25Zm80,.5H.25v79.5h79.5Z" transform="translate(-14782 -1337)" fill="#949494"/>
    <path id="Rectangle_3204" data-name="Rectangle 3204" d="M-.25-.25h80.5v80.5H-.25Zm80,.5H.25v79.5h79.5Z" transform="translate(-14702 -1337)" fill="#949494"/>
    <path id="Rectangle_3218" data-name="Rectangle 3218" d="M-.25-.25h80.5v80.5H-.25Zm80,.5H.25v79.5h79.5Z" transform="translate(-14622 -1337)" fill="#949494"/>
    <path id="Rectangle_3219" data-name="Rectangle 3219" d="M-.25-.25h80.5v80.5H-.25Zm80,.5H.25v79.5h79.5Z" transform="translate(-14542 -1337)" fill="#949494"/>
    <path id="Rectangle_3220" data-name="Rectangle 3220" d="M-.25-.25h80.5v80.5H-.25Zm80,.5H.25v79.5h79.5Z" transform="translate(-14462 -1337)" fill="#949494"/>
    <path id="Rectangle_3221" data-name="Rectangle 3221" d="M-.25-.25h80.5v80.5H-.25Zm80,.5H.25v79.5h79.5Z" transform="translate(-14382 -1337)" fill="#949494"/>
    <path id="Rectangle_3222" data-name="Rectangle 3222" d="M-.25-.25h80.5v80.5H-.25Zm80,.5H.25v79.5h79.5Z" transform="translate(-14302 -1337)" fill="#949494"/>
    <path id="Rectangle_3264" data-name="Rectangle 3264" d="M-.25-.25h80.5v80.5H-.25Zm80,.5H.25v79.5h79.5Z" transform="translate(-13902 -1337)" fill="#949494"/>
    <path id="Rectangle_3223" data-name="Rectangle 3223" d="M-.25-.25h80.5v80.5H-.25Zm80,.5H.25v79.5h79.5Z" transform="translate(-14222 -1337)" fill="#949494"/>
    <path id="Rectangle_3271" data-name="Rectangle 3271" d="M-.25-.25h80.5v80.5H-.25Zm80,.5H.25v79.5h79.5Z" transform="translate(-13822.001 -1337)" fill="#949494"/>
    <path id="Rectangle_3311" data-name="Rectangle 3311" d="M-.25-.25h80.5v80.5H-.25Zm80,.5H.25v79.5h79.5Z" transform="translate(-13502 -1337)" fill="#949494"/>
    <path id="Rectangle_3248" data-name="Rectangle 3248" d="M-.25-.25h80.5v80.5H-.25Zm80,.5H.25v79.5h79.5Z" transform="translate(-14142 -1337)" fill="#949494"/>
    <path id="Rectangle_3278" data-name="Rectangle 3278" d="M-.25-.25h80.5v80.5H-.25Zm80,.5H.25v79.5h79.5Z" transform="translate(-13742 -1337)" fill="#949494"/>
    <path id="Rectangle_3319" data-name="Rectangle 3319" d="M-.25-.25h80.5v80.5H-.25Zm80,.5H.25v79.5h79.5Z" transform="translate(-13422 -1337)" fill="#949494"/>
    <path id="Rectangle_3252" data-name="Rectangle 3252" d="M-.25-.25h80.5v80.5H-.25Zm80,.5H.25v79.5h79.5Z" transform="translate(-14062 -1337)" fill="#949494"/>
    <path id="Rectangle_3287" data-name="Rectangle 3287" d="M-.25-.25h80.5v80.5H-.25Zm80,.5H.25v79.5h79.5Z" transform="translate(-13662 -1337)" fill="#949494"/>
    <path id="Rectangle_3329" data-name="Rectangle 3329" d="M-.25-.25h80.5v80.5H-.25Zm80,.5H.25v79.5h79.5Z" transform="translate(-13342 -1337)" fill="#949494"/>
    <path id="Rectangle_3258" data-name="Rectangle 3258" d="M-.25-.25h80.5v80.5H-.25Zm80,.5H.25v79.5h79.5Z" transform="translate(-13982 -1337)" fill="#949494"/>
    <path id="Rectangle_3302" data-name="Rectangle 3302" d="M-.25-.25h80.5v80.5H-.25Zm80,.5H.25v79.5h79.5Z" transform="translate(-13582 -1337)" fill="#949494"/>
    <path id="Rectangle_3338" data-name="Rectangle 3338" d="M-.25-.25h80.5v80.5H-.25Zm80,.5H.25v79.5h79.5Z" transform="translate(-13262 -1337)" fill="#949494"/>
    <path id="Rectangle_3199" data-name="Rectangle 3199" d="M-.25-.25h80.5v80.5H-.25Zm80,.5H.25v79.5h79.5Z" transform="translate(-15102 -1417)" fill="#949494"/>
    <path id="Rectangle_3200" data-name="Rectangle 3200" d="M-.25-.25h80.5v80.5H-.25Zm80,.5H.25v79.5h79.5Z" transform="translate(-15022 -1417)" fill="#949494"/>
    <path id="Rectangle_3201" data-name="Rectangle 3201" d="M-.25-.25h80.5v80.5H-.25Zm80,.5H.25v79.5h79.5Z" transform="translate(-14942 -1417)" fill="#949494"/>
    <path id="Rectangle_3202" data-name="Rectangle 3202" d="M-.25-.25h80.5v80.5H-.25Zm80,.5H.25v79.5h79.5Z" transform="translate(-14862 -1417)" fill="#949494"/>
    <path id="Rectangle_3203" data-name="Rectangle 3203" d="M-.25-.25h80.5v80.5H-.25Zm80,.5H.25v79.5h79.5Z" transform="translate(-14782 -1417)" fill="#949494"/>
    <path id="Rectangle_3205" data-name="Rectangle 3205" d="M-.25-.25h80.5v80.5H-.25Zm80,.5H.25v79.5h79.5Z" transform="translate(-14702 -1417)" fill="#949494"/>
    <path id="Rectangle_3224" data-name="Rectangle 3224" d="M-.25-.25h80.5v80.5H-.25Zm80,.5H.25v79.5h79.5Z" transform="translate(-14622 -1417)" fill="#949494"/>
    <path id="Rectangle_3225" data-name="Rectangle 3225" d="M-.25-.25h80.5v80.5H-.25Zm80,.5H.25v79.5h79.5Z" transform="translate(-14542 -1417)" fill="#949494"/>
    <path id="Rectangle_3226" data-name="Rectangle 3226" d="M-.25-.25h80.5v80.5H-.25Zm80,.5H.25v79.5h79.5Z" transform="translate(-14462 -1417)" fill="#949494"/>
    <path id="Rectangle_3227" data-name="Rectangle 3227" d="M-.25-.25h80.5v80.5H-.25Zm80,.5H.25v79.5h79.5Z" transform="translate(-14382 -1417)" fill="#949494"/>
    <path id="Rectangle_3228" data-name="Rectangle 3228" d="M-.25-.25h80.5v80.5H-.25Zm80,.5H.25v79.5h79.5Z" transform="translate(-14302 -1417)" fill="#949494"/>
    <path id="Rectangle_3265" data-name="Rectangle 3265" d="M-.25-.25h80.5v80.5H-.25Zm80,.5H.25v79.5h79.5Z" transform="translate(-13902 -1417)" fill="#949494"/>
    <path id="Rectangle_3229" data-name="Rectangle 3229" d="M-.25-.25h80.5v80.5H-.25Zm80,.5H.25v79.5h79.5Z" transform="translate(-14222 -1417)" fill="#949494"/>
    <path id="Rectangle_3272" data-name="Rectangle 3272" d="M-.25-.25h80.5v80.5H-.25Zm80,.5H.25v79.5h79.5Z" transform="translate(-13822 -1417)" fill="#949494"/>
    <path id="Rectangle_3312" data-name="Rectangle 3312" d="M-.25-.25h80.5v80.5H-.25Zm80,.5H.25v79.5h79.5Z" transform="translate(-13502 -1417)" fill="#949494"/>
    <path id="Rectangle_3249" data-name="Rectangle 3249" d="M-.25-.25h80.5v80.5H-.25Zm80,.5H.25v79.5h79.5Z" transform="translate(-14142 -1417)" fill="#949494"/>
    <path id="Rectangle_3279" data-name="Rectangle 3279" d="M-.25-.25h80.5v80.5H-.25Zm80,.5H.25v79.5h79.5Z" transform="translate(-13742 -1417)" fill="#949494"/>
    <path id="Rectangle_3320" data-name="Rectangle 3320" d="M-.25-.25h80.5v80.5H-.25Zm80,.5H.25v79.5h79.5Z" transform="translate(-13422 -1417)" fill="#949494"/>
    <path id="Rectangle_3253" data-name="Rectangle 3253" d="M-.25-.25h80.5v80.5H-.25Zm80,.5H.25v79.5h79.5Z" transform="translate(-14062 -1417)" fill="#949494"/>
    <path id="Rectangle_3288" data-name="Rectangle 3288" d="M-.25-.25h80.5v80.5H-.25Zm80,.5H.25v79.5h79.5Z" transform="translate(-13662 -1417)" fill="#949494"/>
    <path id="Rectangle_3330" data-name="Rectangle 3330" d="M-.25-.25h80.5v80.5H-.25Zm80,.5H.25v79.5h79.5Z" transform="translate(-13342 -1417)" fill="#949494"/>
    <path id="Rectangle_3259" data-name="Rectangle 3259" d="M-.25-.25h80.5v80.5H-.25Zm80,.5H.25v79.5h79.5Z" transform="translate(-13982 -1417)" fill="#949494"/>
    <path id="Rectangle_3303" data-name="Rectangle 3303" d="M-.25-.25h80.5v80.5H-.25Zm80,.5H.25v79.5h79.5Z" transform="translate(-13582 -1417)" fill="#949494"/>
    <path id="Rectangle_3339" data-name="Rectangle 3339" d="M-.25-.25h80.5v80.5H-.25Zm80,.5H.25v79.5h79.5Z" transform="translate(-13262 -1417)" fill="#949494"/>
    <path id="Rectangle_3291" data-name="Rectangle 3291" d="M-.25-.25h80.5v80.5H-.25Zm80,.5H.25v79.5h79.5Z" transform="translate(-13902 -777)" fill="#949494"/>
    <path id="Rectangle_3292" data-name="Rectangle 3292" d="M-.25-.25h80.5v80.5H-.25Zm80,.5H.25v79.5h79.5Z" transform="translate(-14222 -777)" fill="#949494"/>
    <path id="Rectangle_3293" data-name="Rectangle 3293" d="M-.25-.25h80.5v80.5H-.25Zm80,.5H.25v79.5h79.5Z" transform="translate(-13822 -777)" fill="#949494"/>
    <path id="Rectangle_3313" data-name="Rectangle 3313" d="M-.25-.25h80.5v80.5H-.25Zm80,.5H.25v79.5h79.5Z" transform="translate(-13502 -777)" fill="#949494"/>
    <path id="Rectangle_3294" data-name="Rectangle 3294" d="M-.25-.25h80.5v80.5H-.25Zm80,.5H.25v79.5h79.5Z" transform="translate(-14142 -777)" fill="#949494"/>
    <path id="Rectangle_3295" data-name="Rectangle 3295" d="M-.25-.25h80.5v80.5H-.25Zm80,.5H.25v79.5h79.5Z" transform="translate(-13742 -777)" fill="#949494"/>
    <path id="Rectangle_3321" data-name="Rectangle 3321" d="M-.25-.25h80.5v80.5H-.25Zm80,.5H.25v79.5h79.5Z" transform="translate(-13422 -777)" fill="#949494"/>
    <path id="Rectangle_3296" data-name="Rectangle 3296" d="M-.25-.25h80.5v80.5H-.25Zm80,.5H.25v79.5h79.5Z" transform="translate(-14062 -777)" fill="#949494"/>
    <path id="Rectangle_3297" data-name="Rectangle 3297" d="M-.25-.25h80.5v80.5H-.25Zm80,.5H.25v79.5h79.5Z" transform="translate(-13662 -777)" fill="#949494"/>
    <path id="Rectangle_3331" data-name="Rectangle 3331" d="M-.25-.25h80.5v80.5H-.25Zm80,.5H.25v79.5h79.5Z" transform="translate(-13342 -777)" fill="#949494"/>
    <path id="Rectangle_3298" data-name="Rectangle 3298" d="M-.25-.25h80.5v80.5H-.25Zm80,.5H.25v79.5h79.5Z" transform="translate(-13982 -777)" fill="#949494"/>
    <path id="Rectangle_3304" data-name="Rectangle 3304" d="M-.25-.25h80.5v80.5H-.25Zm80,.5H.25v79.5h79.5Z" transform="translate(-13582 -777)" fill="#949494"/>
    <path id="Rectangle_3340" data-name="Rectangle 3340" d="M-.25-.25h80.5v80.5H-.25Zm80,.5H.25v79.5h79.5Z" transform="translate(-13262 -777)" fill="#949494"/>
    <path id="Rectangle_3266" data-name="Rectangle 3266" d="M-.25-.25h80.5v80.5H-.25Zm80,.5H.25v79.5h79.5Z" transform="translate(-13902 -857)" fill="#949494"/>
    <path id="Rectangle_3230" data-name="Rectangle 3230" d="M-.25-.25h80.5v80.5H-.25Zm80,.5H.25v79.5h79.5Z" transform="translate(-14222 -857)" fill="#949494"/>
    <path id="Rectangle_3273" data-name="Rectangle 3273" d="M-.25-.25h80.5v80.5H-.25Zm80,.5H.25v79.5h79.5Z" transform="translate(-13822.001 -857)" fill="#949494"/>
    <path id="Rectangle_3314" data-name="Rectangle 3314" d="M-.25-.25h80.5v80.5H-.25Zm80,.5H.25v79.5h79.5Z" transform="translate(-13502 -857)" fill="#949494"/>
    <path id="Rectangle_3250" data-name="Rectangle 3250" d="M-.25-.25h80.5v80.5H-.25Zm80,.5H.25v79.5h79.5Z" transform="translate(-14142 -857)" fill="#949494"/>
    <path id="Rectangle_3280" data-name="Rectangle 3280" d="M-.25-.25h80.5v80.5H-.25Zm80,.5H.25v79.5h79.5Z" transform="translate(-13742 -857)" fill="#949494"/>
    <path id="Rectangle_3322" data-name="Rectangle 3322" d="M-.25-.25h80.5v80.5H-.25Zm80,.5H.25v79.5h79.5Z" transform="translate(-13422 -857)" fill="#949494"/>
    <path id="Rectangle_3254" data-name="Rectangle 3254" d="M-.25-.25h80.5v80.5H-.25Zm80,.5H.25v79.5h79.5Z" transform="translate(-14062 -857)" fill="#949494"/>
    <path id="Rectangle_3289" data-name="Rectangle 3289" d="M-.25-.25h80.5v80.5H-.25Zm80,.5H.25v79.5h79.5Z" transform="translate(-13662 -857)" fill="#949494"/>
    <path id="Rectangle_3332" data-name="Rectangle 3332" d="M-.25-.25h80.5v80.5H-.25Zm80,.5H.25v79.5h79.5Z" transform="translate(-13342 -857)" fill="#949494"/>
    <path id="Rectangle_3260" data-name="Rectangle 3260" d="M-.25-.25h80.5v80.5H-.25Zm80,.5H.25v79.5h79.5Z" transform="translate(-13982 -857)" fill="#949494"/>
    <path id="Rectangle_3305" data-name="Rectangle 3305" d="M-.25-.25h80.5v80.5H-.25Zm80,.5H.25v79.5h79.5Z" transform="translate(-13582 -857)" fill="#949494"/>
    <path id="Rectangle_3341" data-name="Rectangle 3341" d="M-.25-.25h80.5v80.5H-.25Zm80,.5H.25v79.5h79.5Z" transform="translate(-13262 -857)" fill="#949494"/>
    <path id="Rectangle_3231" data-name="Rectangle 3231" d="M-.25-.25h80.5v80.5H-.25Zm80,.5H.25v79.5h79.5Z" transform="translate(-15102 -937)" fill="#949494"/>
    <path id="Rectangle_3232" data-name="Rectangle 3232" d="M-.25-.25h80.5v80.5H-.25Zm80,.5H.25v79.5h79.5Z" transform="translate(-15022 -937)" fill="#949494"/>
    <path id="Rectangle_3233" data-name="Rectangle 3233" d="M-.25-.25h80.5v80.5H-.25Zm80,.5H.25v79.5h79.5Z" transform="translate(-14942 -937)" fill="#949494"/>
    <path id="Rectangle_3234" data-name="Rectangle 3234" d="M-.25-.25h80.5v80.5H-.25Zm80,.5H.25v79.5h79.5Z" transform="translate(-14862 -937)" fill="#949494"/>
    <path id="Rectangle_3235" data-name="Rectangle 3235" d="M-.25-.25h80.5v80.5H-.25Zm80,.5H.25v79.5h79.5Z" transform="translate(-14782 -937)" fill="#949494"/>
    <path id="Rectangle_3236" data-name="Rectangle 3236" d="M-.25-.25h80.5v80.5H-.25Zm80,.5H.25v79.5h79.5Z" transform="translate(-14702 -937)" fill="#949494"/>
    <path id="Rectangle_3237" data-name="Rectangle 3237" d="M-.25-.25h80.5v80.5H-.25Zm80,.5H.25v79.5h79.5Z" transform="translate(-14622 -937)" fill="#949494"/>
    <path id="Rectangle_3238" data-name="Rectangle 3238" d="M-.25-.25h80.5v80.5H-.25Zm80,.5H.25v79.5h79.5Z" transform="translate(-14542 -937)" fill="#949494"/>
    <path id="Rectangle_3315" data-name="Rectangle 3315" d="M-.25-.25h80.5v80.5H-.25Zm80,.5H.25v79.5h79.5Z" transform="translate(-13502 -937)" fill="#949494"/>
    <path id="Rectangle_3347" data-name="Rectangle 3347" d="M-.25-.25h80.5v80.5H-.25Zm80,.5H.25v79.5h79.5Z" transform="translate(-13502 -1017)" fill="#949494"/>
    <path id="Rectangle_3281" data-name="Rectangle 3281" d="M-.25-.25h80.5v80.5H-.25Zm80,.5H.25v79.5h79.5Z" transform="translate(-13742 -937)" fill="#949494"/>
    <path id="Rectangle_3344" data-name="Rectangle 3344" d="M-.25-.25h80.5v80.5H-.25Zm80,.5H.25v79.5h79.5Z" transform="translate(-13742 -1017)" fill="#949494"/>
    <path id="Rectangle_3323" data-name="Rectangle 3323" d="M-.25-.25h80.5v80.5H-.25Zm80,.5H.25v79.5h79.5Z" transform="translate(-13422 -937)" fill="#949494"/>
    <path id="Rectangle_3290" data-name="Rectangle 3290" d="M-.25-.25h80.5v80.5H-.25Zm80,.5H.25v79.5h79.5Z" transform="translate(-13662 -937)" fill="#949494"/>
    <path id="Rectangle_3345" data-name="Rectangle 3345" d="M-.25-.25h80.5v80.5H-.25Zm80,.5H.25v79.5h79.5Z" transform="translate(-13662 -1017)" fill="#949494"/>
    <path id="Rectangle_3333" data-name="Rectangle 3333" d="M-.25-.25h80.5v80.5H-.25Zm80,.5H.25v79.5h79.5Z" transform="translate(-13342 -937)" fill="#949494"/>
    <path id="Rectangle_3306" data-name="Rectangle 3306" d="M-.25-.25h80.5v80.5H-.25Zm80,.5H.25v79.5h79.5Z" transform="translate(-13582 -937)" fill="#949494"/>
    <path id="Rectangle_3346" data-name="Rectangle 3346" d="M-.25-.25h80.5v80.5H-.25Zm80,.5H.25v79.5h79.5Z" transform="translate(-13582 -1017)" fill="#949494"/>
    <path id="Rectangle_3342" data-name="Rectangle 3342" d="M-.25-.25h80.5v80.5H-.25Zm80,.5H.25v79.5h79.5Z" transform="translate(-13262 -937)" fill="#949494"/>
    <path id="Rectangle_3239" data-name="Rectangle 3239" d="M-.25-.25h80.5v80.5H-.25Zm80,.5H.25v79.5h79.5Z" transform="translate(-15102 -1017)" fill="#949494"/>
    <path id="Rectangle_3240" data-name="Rectangle 3240" d="M-.25-.25h80.5v80.5H-.25Zm80,.5H.25v79.5h79.5Z" transform="translate(-15022 -1017)" fill="#949494"/>
    <path id="Rectangle_3241" data-name="Rectangle 3241" d="M-.25-.25h80.5v80.5H-.25Zm80,.5H.25v79.5h79.5Z" transform="translate(-14942 -1017)" fill="#949494"/>
    <path id="Rectangle_3242" data-name="Rectangle 3242" d="M-.25-.25h80.5v80.5H-.25Zm80,.5H.25v79.5h79.5Z" transform="translate(-14862 -1017)" fill="#949494"/>
    <path id="Rectangle_3243" data-name="Rectangle 3243" d="M-.25-.25h80.5v80.5H-.25Zm80,.5H.25v79.5h79.5Z" transform="translate(-14782 -1017)" fill="#949494"/>
    <path id="Rectangle_3244" data-name="Rectangle 3244" d="M-.25-.25h80.5v80.5H-.25Zm80,.5H.25v79.5h79.5Z" transform="translate(-14702 -1017)" fill="#949494"/>
    <path id="Rectangle_3245" data-name="Rectangle 3245" d="M-.25-.25h80.5v80.5H-.25Zm80,.5H.25v79.5h79.5Z" transform="translate(-14622 -1017)" fill="#949494"/>
    <path id="Rectangle_3246" data-name="Rectangle 3246" d="M-.25-.25h80.5v80.5H-.25Zm80,.5H.25v79.5h79.5Z" transform="translate(-14542 -1017)" fill="#949494"/>
    <path id="Rectangle_3324" data-name="Rectangle 3324" d="M-.25-.25h80.5v80.5H-.25Zm80,.5H.25v79.5h79.5Z" transform="translate(-13422 -1017)" fill="#949494"/>
    <path id="Rectangle_3334" data-name="Rectangle 3334" d="M-.25-.25h80.5v80.5H-.25Zm80,.5H.25v79.5h79.5Z" transform="translate(-13342 -1017)" fill="#949494"/>
    <path id="Rectangle_3343" data-name="Rectangle 3343" d="M-.25-.25h80.5v80.5H-.25Zm80,.5H.25v79.5h79.5Z" transform="translate(-13262 -1017)" fill="#949494"/>
    <g id="Rectangle_3274" data-name="Rectangle 3274" opacity="0">
      <rect id="Rectangle_3274-2" data-name="Rectangle 3274" width="96" height="17" transform="translate(-13819 -1378)" fill="#fff"/>
      <path id="Rectangle_3274_-_Outline" data-name="Rectangle 3274 - Outline" d="M1,1V16H95V1H1M0,0H96V17H0Z" transform="translate(-13819 -1378)" fill="#707070"/>
    </g>
    <g id="Rectangle_3283" data-name="Rectangle 3283" opacity="0.001">
      <rect id="Rectangle_3283-2" data-name="Rectangle 3283" width="136" height="17" transform="translate(-13723 -1378)" fill="#fff"/>
      <path id="Rectangle_3283_-_Outline" data-name="Rectangle 3283 - Outline" d="M1,1V16H135V1H1M0,0H136V17H0Z" transform="translate(-13723 -1378)" fill="#707070"/>
    </g>
    <g id="Rectangle_3307" data-name="Rectangle 3307" opacity="0">
      <rect id="Rectangle_3307-2" data-name="Rectangle 3307" width="128" height="17" transform="translate(-13586 -1378)" fill="#fff"/>
      <path id="Rectangle_3307_-_Outline" data-name="Rectangle 3307 - Outline" d="M1,1V16H127V1H1M0,0H128V17H0Z" transform="translate(-13586 -1378)" fill="#707070"/>
    </g>
    <g id="Rectangle_3325" data-name="Rectangle 3325" opacity="0">
      <rect id="Rectangle_3325-2" data-name="Rectangle 3325" width="70" height="17" transform="translate(-13349 -1378)" fill="#fff"/>
      <path id="Rectangle_3325_-_Outline" data-name="Rectangle 3325 - Outline" d="M1,1V16H69V1H1M0,0H70V17H0Z" transform="translate(-13349 -1378)" fill="#707070"/>
    </g>
  </g>
</svg>
