<svg xmlns="http://www.w3.org/2000/svg" width="1920.25" height="1200.5" viewBox="0 0 1920.25 1200.5">
  <g id="Group_1226" data-name="Group 1226" transform="translate(15102 2794.25)">
    <path id="Rectangle_2634" data-name="Rectangle 2634" d="M-.25-.25h80.5v80.5H-.25Zm80,.5H.25v79.5h79.5Z" transform="translate(-13902 -2474)" fill="#949494"/>
    <path id="Rectangle_2635" data-name="Rectangle 2635" d="M-.25-.25h80.5v80.5H-.25Zm80,.5H.25v79.5h79.5Z" transform="translate(-13822.001 -2474)" fill="#949494"/>
    <path id="Rectangle_2679" data-name="Rectangle 2679" d="M-.25-.25h80.5v80.5H-.25Zm80,.5H.25v79.5h79.5Z" transform="translate(-13502 -2474)" fill="#949494"/>
    <path id="Rectangle_2636" data-name="Rectangle 2636" d="M-.25-.25h80.5v80.5H-.25Zm80,.5H.25v79.5h79.5Z" transform="translate(-13742 -2474)" fill="#949494"/>
    <path id="Rectangle_2680" data-name="Rectangle 2680" d="M-.25-.25h80.5v80.5H-.25Zm80,.5H.25v79.5h79.5Z" transform="translate(-13422 -2474)" fill="#949494"/>
    <path id="Rectangle_1198" data-name="Rectangle 1198" d="M-.25-.25h80.5v80.5H-.25Zm80,.5H.25v79.5h79.5Z" transform="translate(-14062 -2474)" fill="#949494"/>
    <path id="Rectangle_2644" data-name="Rectangle 2644" d="M-.25-.25h80.5v80.5H-.25Zm80,.5H.25v79.5h79.5Z" transform="translate(-13662 -2474)" fill="#949494"/>
    <path id="Rectangle_2683" data-name="Rectangle 2683" d="M-.25-.25h80.5v80.5H-.25Zm80,.5H.25v79.5h79.5Z" transform="translate(-13342 -2474)" fill="#949494"/>
    <path id="Rectangle_1199" data-name="Rectangle 1199" d="M-.25-.25h80.5v80.5H-.25Zm80,.5H.25v79.5h79.5Z" transform="translate(-13982 -2474)" fill="#949494"/>
    <path id="Rectangle_2658" data-name="Rectangle 2658" d="M-.25-.25h80.5v80.5H-.25Zm80,.5H.25v79.5h79.5Z" transform="translate(-13582 -2474)" fill="#949494"/>
    <path id="Rectangle_2695" data-name="Rectangle 2695" d="M-.25-.25h80.5v80.5H-.25Zm80,.5H.25v79.5h79.5Z" transform="translate(-13262 -2474)" fill="#949494"/>
    <path id="Rectangle_2632" data-name="Rectangle 2632" d="M-.25-.25h80.5v80.5H-.25Zm80,.5H.25v79.5h79.5Z" transform="translate(-13902 -2554)" fill="#949494"/>
    <path id="Rectangle_2633" data-name="Rectangle 2633" d="M-.25-.25h80.5v80.5H-.25Zm80,.5H.25v79.5h79.5Z" transform="translate(-13822.001 -2554)" fill="#949494"/>
    <path id="Rectangle_2677" data-name="Rectangle 2677" d="M-.25-.25h80.5v80.5H-.25Zm80,.5H.25v79.5h79.5Z" transform="translate(-13502 -2554)" fill="#949494"/>
    <path id="Rectangle_2637" data-name="Rectangle 2637" d="M-.25-.25h80.5v80.5H-.25Zm80,.5H.25v79.5h79.5Z" transform="translate(-13742 -2554)" fill="#949494"/>
    <path id="Rectangle_2678" data-name="Rectangle 2678" d="M-.25-.25h80.5v80.5H-.25Zm80,.5H.25v79.5h79.5Z" transform="translate(-13422 -2554)" fill="#949494"/>
    <path id="Rectangle_1214" data-name="Rectangle 1214" d="M-.25-.25h80.5v80.5H-.25Zm80,.5H.25v79.5h79.5Z" transform="translate(-14062 -2554)" fill="#949494"/>
    <path id="Rectangle_2645" data-name="Rectangle 2645" d="M-.25-.25h80.5v80.5H-.25Zm80,.5H.25v79.5h79.5Z" transform="translate(-13662 -2554)" fill="#949494"/>
    <path id="Rectangle_2684" data-name="Rectangle 2684" d="M-.25-.25h80.5v80.5H-.25Zm80,.5H.25v79.5h79.5Z" transform="translate(-13342 -2554)" fill="#949494"/>
    <path id="Rectangle_1215" data-name="Rectangle 1215" d="M-.25-.25h80.5v80.5H-.25Zm80,.5H.25v79.5h79.5Z" transform="translate(-13982 -2554)" fill="#949494"/>
    <path id="Rectangle_2659" data-name="Rectangle 2659" d="M-.25-.25h80.5v80.5H-.25Zm80,.5H.25v79.5h79.5Z" transform="translate(-13582 -2554)" fill="#949494"/>
    <path id="Rectangle_2696" data-name="Rectangle 2696" d="M-.25-.25h80.5v80.5H-.25Zm80,.5H.25v79.5h79.5Z" transform="translate(-13262 -2554)" fill="#949494"/>
    <path id="Rectangle_2630" data-name="Rectangle 2630" d="M-.25-.25h80.5v80.5H-.25Zm80,.5H.25v79.5h79.5Z" transform="translate(-13902 -2634)" fill="#949494"/>
    <path id="Rectangle_2631" data-name="Rectangle 2631" d="M-.25-.25h80.5v80.5H-.25Zm80,.5H.25v79.5h79.5Z" transform="translate(-13822.001 -2634)" fill="#949494"/>
    <path id="Rectangle_2672" data-name="Rectangle 2672" d="M-.25-.25h80.5v80.5H-.25Zm80,.5H.25v79.5h79.5Z" transform="translate(-13502 -2634)" fill="#949494"/>
    <path id="Rectangle_2638" data-name="Rectangle 2638" d="M-.25-.25h80.5v80.5H-.25Zm80,.5H.25v79.5h79.5Z" transform="translate(-13742 -2634)" fill="#949494"/>
    <path id="Rectangle_2673" data-name="Rectangle 2673" d="M-.25-.25h80.5v80.5H-.25Zm80,.5H.25v79.5h79.5Z" transform="translate(-13422 -2634)" fill="#949494"/>
    <path id="Rectangle_1230" data-name="Rectangle 1230" d="M-.25-.25h80.5v80.5H-.25Zm80,.5H.25v79.5h79.5Z" transform="translate(-14062 -2634)" fill="#949494"/>
    <path id="Rectangle_2646" data-name="Rectangle 2646" d="M-.25-.25h80.5v80.5H-.25Zm80,.5H.25v79.5h79.5Z" transform="translate(-13662 -2634)" fill="#949494"/>
    <path id="Rectangle_2685" data-name="Rectangle 2685" d="M-.25-.25h80.5v80.5H-.25Zm80,.5H.25v79.5h79.5Z" transform="translate(-13342 -2634)" fill="#949494"/>
    <path id="Rectangle_1231" data-name="Rectangle 1231" d="M-.25-.25h80.5v80.5H-.25Zm80,.5H.25v79.5h79.5Z" transform="translate(-13982 -2634)" fill="#949494"/>
    <path id="Rectangle_2660" data-name="Rectangle 2660" d="M-.25-.25h80.5v80.5H-.25Zm80,.5H.25v79.5h79.5Z" transform="translate(-13582 -2634)" fill="#949494"/>
    <path id="Rectangle_2697" data-name="Rectangle 2697" d="M-.25-.25h80.5v80.5H-.25Zm80,.5H.25v79.5h79.5Z" transform="translate(-13262 -2634)" fill="#949494"/>
    <path id="Rectangle_2627" data-name="Rectangle 2627" d="M-.25-.25h80.5v80.5H-.25Zm80,.5H.25v79.5h79.5Z" transform="translate(-13902 -2714)" fill="#949494"/>
    <path id="Rectangle_2628" data-name="Rectangle 2628" d="M-.25-.25h80.5v80.5H-.25Zm80,.5H.25v79.5h79.5Z" transform="translate(-13822.001 -2714)" fill="#949494"/>
    <path id="Rectangle_2674" data-name="Rectangle 2674" d="M-.25-.25h80.5v80.5H-.25Zm80,.5H.25v79.5h79.5Z" transform="translate(-13502 -2714)" fill="#949494"/>
    <path id="Rectangle_2639" data-name="Rectangle 2639" d="M-.25-.25h80.5v80.5H-.25Zm80,.5H.25v79.5h79.5Z" transform="translate(-13742 -2714)" fill="#949494"/>
    <path id="Rectangle_2675" data-name="Rectangle 2675" d="M-.25-.25h80.5v80.5H-.25Zm80,.5H.25v79.5h79.5Z" transform="translate(-13422 -2714)" fill="#949494"/>
    <path id="Rectangle_1246" data-name="Rectangle 1246" d="M-.25-.25h80.5v80.5H-.25Zm80,.5H.25v79.5h79.5Z" transform="translate(-14062 -2714)" fill="#949494"/>
    <path id="Rectangle_2647" data-name="Rectangle 2647" d="M-.25-.25h80.5v80.5H-.25Zm80,.5H.25v79.5h79.5Z" transform="translate(-13662 -2714)" fill="#949494"/>
    <path id="Rectangle_2686" data-name="Rectangle 2686" d="M-.25-.25h80.5v80.5H-.25Zm80,.5H.25v79.5h79.5Z" transform="translate(-13342 -2714)" fill="#949494"/>
    <path id="Rectangle_1247" data-name="Rectangle 1247" d="M-.25-.25h80.5v80.5H-.25Zm80,.5H.25v79.5h79.5Z" transform="translate(-13982 -2714)" fill="#949494"/>
    <path id="Rectangle_2661" data-name="Rectangle 2661" d="M-.25-.25h80.5v80.5H-.25Zm80,.5H.25v79.5h79.5Z" transform="translate(-13582 -2714)" fill="#949494"/>
    <path id="Rectangle_2698" data-name="Rectangle 2698" d="M-.25-.25h80.5v80.5H-.25Zm80,.5H.25v79.5h79.5Z" transform="translate(-13262 -2714)" fill="#949494"/>
    <path id="Rectangle_2626" data-name="Rectangle 2626" d="M-.25-.25h80.5v80.5H-.25Zm80,.5H.25v79.5h79.5Z" transform="translate(-13902 -2794)" fill="#949494"/>
    <path id="Rectangle_2629" data-name="Rectangle 2629" d="M-.25-.25h80.5v80.5H-.25Zm80,.5H.25v79.5h79.5Z" transform="translate(-13822 -2794)" fill="#949494"/>
    <path id="Rectangle_2671" data-name="Rectangle 2671" d="M-.25-.25h80.5v80.5H-.25Zm80,.5H.25v79.5h79.5Z" transform="translate(-13502 -2794)" fill="#949494"/>
    <path id="Rectangle_2640" data-name="Rectangle 2640" d="M-.25-.25h80.5v80.5H-.25Zm80,.5H.25v79.5h79.5Z" transform="translate(-13742 -2794)" fill="#949494"/>
    <path id="Rectangle_2676" data-name="Rectangle 2676" d="M-.25-.25h80.5v80.5H-.25Zm80,.5H.25v79.5h79.5Z" transform="translate(-13422 -2794)" fill="#949494"/>
    <path id="Rectangle_1261" data-name="Rectangle 1261" d="M-.25-.25h80.5v80.5H-.25Zm80,.5H.25v79.5h79.5Z" transform="translate(-14062 -2794)" fill="#949494"/>
    <path id="Rectangle_2648" data-name="Rectangle 2648" d="M-.25-.25h80.5v80.5H-.25Zm80,.5H.25v79.5h79.5Z" transform="translate(-13662 -2794)" fill="#949494"/>
    <path id="Rectangle_2687" data-name="Rectangle 2687" d="M-.25-.25h80.5v80.5H-.25Zm80,.5H.25v79.5h79.5Z" transform="translate(-13342 -2794)" fill="#949494"/>
    <path id="Rectangle_1262" data-name="Rectangle 1262" d="M-.25-.25h80.5v80.5H-.25Zm80,.5H.25v79.5h79.5Z" transform="translate(-13982 -2794)" fill="#949494"/>
    <path id="Rectangle_2662" data-name="Rectangle 2662" d="M-.25-.25h80.5v80.5H-.25Zm80,.5H.25v79.5h79.5Z" transform="translate(-13582 -2794)" fill="#949494"/>
    <path id="Rectangle_2699" data-name="Rectangle 2699" d="M-.25-.25h80.5v80.5H-.25Zm80,.5H.25v79.5h79.5Z" transform="translate(-13262 -2794)" fill="#949494"/>
    <path id="Rectangle_2663" data-name="Rectangle 2663" d="M-.25-.25h80.5v80.5H-.25Zm80,.5H.25v79.5h79.5Z" transform="translate(-13902 -2154)" fill="#949494"/>
    <path id="Rectangle_2752" data-name="Rectangle 2752" d="M-.25-.25h80.5v80.5H-.25Zm80,.5H.25v79.5h79.5Z" transform="translate(-13902 -1914)" fill="#949494"/>
    <path id="Rectangle_2664" data-name="Rectangle 2664" d="M-.25-.25h80.5v80.5H-.25Zm80,.5H.25v79.5h79.5Z" transform="translate(-13822 -2154)" fill="#949494"/>
    <path id="Rectangle_2753" data-name="Rectangle 2753" d="M-.25-.25h80.5v80.5H-.25Zm80,.5H.25v79.5h79.5Z" transform="translate(-13822 -1914)" fill="#949494"/>
    <path id="Rectangle_2703" data-name="Rectangle 2703" d="M-.25-.25h80.5v80.5H-.25Zm80,.5H.25v79.5h79.5Z" transform="translate(-13502 -2154)" fill="#949494"/>
    <path id="Rectangle_2767" data-name="Rectangle 2767" d="M-.25-.25h80.5v80.5H-.25Zm80,.5H.25v79.5h79.5Z" transform="translate(-13502 -1914)" fill="#949494"/>
    <path id="Rectangle_2665" data-name="Rectangle 2665" d="M-.25-.25h80.5v80.5H-.25Zm80,.5H.25v79.5h79.5Z" transform="translate(-13742 -2154)" fill="#949494"/>
    <path id="Rectangle_2758" data-name="Rectangle 2758" d="M-.25-.25h80.5v80.5H-.25Zm80,.5H.25v79.5h79.5Z" transform="translate(-13742 -1914)" fill="#949494"/>
    <path id="Rectangle_2704" data-name="Rectangle 2704" d="M-.25-.25h80.5v80.5H-.25Zm80,.5H.25v79.5h79.5Z" transform="translate(-13422 -2154)" fill="#949494"/>
    <path id="Rectangle_2770" data-name="Rectangle 2770" d="M-.25-.25h80.5v80.5H-.25Zm80,.5H.25v79.5h79.5Z" transform="translate(-13422 -1914)" fill="#949494"/>
    <path id="Rectangle_1276" data-name="Rectangle 1276" d="M-.25-.25h80.5v80.5H-.25Zm80,.5H.25v79.5h79.5Z" transform="translate(-14062 -2154)" fill="#949494"/>
    <path id="Rectangle_2666" data-name="Rectangle 2666" d="M-.25-.25h80.5v80.5H-.25Zm80,.5H.25v79.5h79.5Z" transform="translate(-13662 -2154)" fill="#949494"/>
    <path id="Rectangle_2761" data-name="Rectangle 2761" d="M-.25-.25h80.5v80.5H-.25Zm80,.5H.25v79.5h79.5Z" transform="translate(-13662 -1914)" fill="#949494"/>
    <path id="Rectangle_2705" data-name="Rectangle 2705" d="M-.25-.25h80.5v80.5H-.25Zm80,.5H.25v79.5h79.5Z" transform="translate(-13342 -2154)" fill="#949494"/>
    <path id="Rectangle_2773" data-name="Rectangle 2773" d="M-.25-.25h80.5v80.5H-.25Zm80,.5H.25v79.5h79.5Z" transform="translate(-13342 -1914)" fill="#949494"/>
    <path id="Rectangle_1277" data-name="Rectangle 1277" d="M-.25-.25h80.5v80.5H-.25Zm80,.5H.25v79.5h79.5Z" transform="translate(-13982 -2154)" fill="#949494"/>
    <path id="Rectangle_2747" data-name="Rectangle 2747" d="M-.25-.25h80.5v80.5H-.25Zm80,.5H.25v79.5h79.5Z" transform="translate(-13982 -1914)" fill="#949494"/>
    <path id="Rectangle_2667" data-name="Rectangle 2667" d="M-.25-.25h80.5v80.5H-.25Zm80,.5H.25v79.5h79.5Z" transform="translate(-13582 -2154)" fill="#949494"/>
    <path id="Rectangle_2762" data-name="Rectangle 2762" d="M-.25-.25h80.5v80.5H-.25Zm80,.5H.25v79.5h79.5Z" transform="translate(-13582 -1914)" fill="#949494"/>
    <path id="Rectangle_2706" data-name="Rectangle 2706" d="M-.25-.25h80.5v80.5H-.25Zm80,.5H.25v79.5h79.5Z" transform="translate(-13262 -2154)" fill="#949494"/>
    <path id="Rectangle_2776" data-name="Rectangle 2776" d="M-.25-.25h80.5v80.5H-.25Zm80,.5H.25v79.5h79.5Z" transform="translate(-13262 -1914)" fill="#949494"/>
    <path id="Rectangle_2654" data-name="Rectangle 2654" d="M-.25-.25h80.5v80.5H-.25Zm80,.5H.25v79.5h79.5Z" transform="translate(-13902 -2234)" fill="#949494"/>
    <path id="Rectangle_2754" data-name="Rectangle 2754" d="M-.25-.25h80.5v80.5H-.25Zm80,.5H.25v79.5h79.5Z" transform="translate(-13902 -1994)" fill="#949494"/>
    <path id="Rectangle_2655" data-name="Rectangle 2655" d="M-.25-.25h80.5v80.5H-.25Zm80,.5H.25v79.5h79.5Z" transform="translate(-13822.001 -2234)" fill="#949494"/>
    <path id="Rectangle_2755" data-name="Rectangle 2755" d="M-.25-.25h80.5v80.5H-.25Zm80,.5H.25v79.5h79.5Z" transform="translate(-13822.001 -1994)" fill="#949494"/>
    <path id="Rectangle_2692" data-name="Rectangle 2692" d="M-.25-.25h80.5v80.5H-.25Zm80,.5H.25v79.5h79.5Z" transform="translate(-13502 -2234)" fill="#949494"/>
    <path id="Rectangle_2768" data-name="Rectangle 2768" d="M-.25-.25h80.5v80.5H-.25Zm80,.5H.25v79.5h79.5Z" transform="translate(-13502 -1994)" fill="#949494"/>
    <path id="Rectangle_2656" data-name="Rectangle 2656" d="M-.25-.25h80.5v80.5H-.25Zm80,.5H.25v79.5h79.5Z" transform="translate(-13742 -2234)" fill="#949494"/>
    <path id="Rectangle_2759" data-name="Rectangle 2759" d="M-.25-.25h80.5v80.5H-.25Zm80,.5H.25v79.5h79.5Z" transform="translate(-13742 -1994)" fill="#949494"/>
    <path id="Rectangle_2693" data-name="Rectangle 2693" d="M-.25-.25h80.5v80.5H-.25Zm80,.5H.25v79.5h79.5Z" transform="translate(-13422 -2234)" fill="#949494"/>
    <path id="Rectangle_2771" data-name="Rectangle 2771" d="M-.25-.25h80.5v80.5H-.25Zm80,.5H.25v79.5h79.5Z" transform="translate(-13422 -1994)" fill="#949494"/>
    <path id="Rectangle_1292" data-name="Rectangle 1292" d="M-.25-.25h80.5v80.5H-.25Zm80,.5H.25v79.5h79.5Z" transform="translate(-14062 -2234)" fill="#949494"/>
    <path id="Rectangle_2748" data-name="Rectangle 2748" d="M-.25-.25h80.5v80.5H-.25Zm80,.5H.25v79.5h79.5Z" transform="translate(-14062 -1994)" fill="#949494"/>
    <path id="Rectangle_2657" data-name="Rectangle 2657" d="M-.25-.25h80.5v80.5H-.25Zm80,.5H.25v79.5h79.5Z" transform="translate(-13662 -2234)" fill="#949494"/>
    <path id="Rectangle_2763" data-name="Rectangle 2763" d="M-.25-.25h80.5v80.5H-.25Zm80,.5H.25v79.5h79.5Z" transform="translate(-13662 -1994)" fill="#949494"/>
    <path id="Rectangle_2694" data-name="Rectangle 2694" d="M-.25-.25h80.5v80.5H-.25Zm80,.5H.25v79.5h79.5Z" transform="translate(-13342 -2234)" fill="#949494"/>
    <path id="Rectangle_2774" data-name="Rectangle 2774" d="M-.25-.25h80.5v80.5H-.25Zm80,.5H.25v79.5h79.5Z" transform="translate(-13342 -1994)" fill="#949494"/>
    <path id="Rectangle_1293" data-name="Rectangle 1293" d="M-.25-.25h80.5v80.5H-.25Zm80,.5H.25v79.5h79.5Z" transform="translate(-13982 -2234)" fill="#949494"/>
    <path id="Rectangle_2749" data-name="Rectangle 2749" d="M-.25-.25h80.5v80.5H-.25Zm80,.5H.25v79.5h79.5Z" transform="translate(-13982 -1994)" fill="#949494"/>
    <path id="Rectangle_2668" data-name="Rectangle 2668" d="M-.25-.25h80.5v80.5H-.25Zm80,.5H.25v79.5h79.5Z" transform="translate(-13582 -2234)" fill="#949494"/>
    <path id="Rectangle_2764" data-name="Rectangle 2764" d="M-.25-.25h80.5v80.5H-.25Zm80,.5H.25v79.5h79.5Z" transform="translate(-13582 -1994)" fill="#949494"/>
    <path id="Rectangle_2700" data-name="Rectangle 2700" d="M-.25-.25h80.5v80.5H-.25Zm80,.5H.25v79.5h79.5Z" transform="translate(-13262 -2234)" fill="#949494"/>
    <path id="Rectangle_2777" data-name="Rectangle 2777" d="M-.25-.25h80.5v80.5H-.25Zm80,.5H.25v79.5h79.5Z" transform="translate(-13262 -1994)" fill="#949494"/>
    <path id="Rectangle_2650" data-name="Rectangle 2650" d="M-.25-.25h80.5v80.5H-.25Zm80,.5H.25v79.5h79.5Z" transform="translate(-13902 -2314)" fill="#949494"/>
    <path id="Rectangle_2756" data-name="Rectangle 2756" d="M-.25-.25h80.5v80.5H-.25Zm80,.5H.25v79.5h79.5Z" transform="translate(-13902 -2074)" fill="#949494"/>
    <path id="Rectangle_2651" data-name="Rectangle 2651" d="M-.25-.25h80.5v80.5H-.25Zm80,.5H.25v79.5h79.5Z" transform="translate(-13822.001 -2314)" fill="#949494"/>
    <path id="Rectangle_2757" data-name="Rectangle 2757" d="M-.25-.25h80.5v80.5H-.25Zm80,.5H.25v79.5h79.5Z" transform="translate(-13822.001 -2074)" fill="#949494"/>
    <path id="Rectangle_2689" data-name="Rectangle 2689" d="M-.25-.25h80.5v80.5H-.25Zm80,.5H.25v79.5h79.5Z" transform="translate(-13502 -2314)" fill="#949494"/>
    <path id="Rectangle_2769" data-name="Rectangle 2769" d="M-.25-.25h80.5v80.5H-.25Zm80,.5H.25v79.5h79.5Z" transform="translate(-13502 -2074)" fill="#949494"/>
    <path id="Rectangle_2652" data-name="Rectangle 2652" d="M-.25-.25h80.5v80.5H-.25Zm80,.5H.25v79.5h79.5Z" transform="translate(-13742 -2314)" fill="#949494"/>
    <path id="Rectangle_2760" data-name="Rectangle 2760" d="M-.25-.25h80.5v80.5H-.25Zm80,.5H.25v79.5h79.5Z" transform="translate(-13742 -2074)" fill="#949494"/>
    <path id="Rectangle_2690" data-name="Rectangle 2690" d="M-.25-.25h80.5v80.5H-.25Zm80,.5H.25v79.5h79.5Z" transform="translate(-13422 -2314)" fill="#949494"/>
    <path id="Rectangle_2772" data-name="Rectangle 2772" d="M-.25-.25h80.5v80.5H-.25Zm80,.5H.25v79.5h79.5Z" transform="translate(-13422 -2074)" fill="#949494"/>
    <path id="Rectangle_1308" data-name="Rectangle 1308" d="M-.25-.25h80.5v80.5H-.25Zm80,.5H.25v79.5h79.5Z" transform="translate(-14062 -2314)" fill="#949494"/>
    <path id="Rectangle_2750" data-name="Rectangle 2750" d="M-.25-.25h80.5v80.5H-.25Zm80,.5H.25v79.5h79.5Z" transform="translate(-14062 -2074)" fill="#949494"/>
    <path id="Rectangle_2653" data-name="Rectangle 2653" d="M-.25-.25h80.5v80.5H-.25Zm80,.5H.25v79.5h79.5Z" transform="translate(-13662 -2314)" fill="#949494"/>
    <path id="Rectangle_2765" data-name="Rectangle 2765" d="M-.25-.25h80.5v80.5H-.25Zm80,.5H.25v79.5h79.5Z" transform="translate(-13662 -2074)" fill="#949494"/>
    <path id="Rectangle_2691" data-name="Rectangle 2691" d="M-.25-.25h80.5v80.5H-.25Zm80,.5H.25v79.5h79.5Z" transform="translate(-13342 -2314)" fill="#949494"/>
    <path id="Rectangle_2775" data-name="Rectangle 2775" d="M-.25-.25h80.5v80.5H-.25Zm80,.5H.25v79.5h79.5Z" transform="translate(-13342 -2074)" fill="#949494"/>
    <path id="Rectangle_1309" data-name="Rectangle 1309" d="M-.25-.25h80.5v80.5H-.25Zm80,.5H.25v79.5h79.5Z" transform="translate(-13982 -2314)" fill="#949494"/>
    <path id="Rectangle_2751" data-name="Rectangle 2751" d="M-.25-.25h80.5v80.5H-.25Zm80,.5H.25v79.5h79.5Z" transform="translate(-13982 -2074)" fill="#949494"/>
    <path id="Rectangle_2669" data-name="Rectangle 2669" d="M-.25-.25h80.5v80.5H-.25Zm80,.5H.25v79.5h79.5Z" transform="translate(-13582 -2314)" fill="#949494"/>
    <path id="Rectangle_2766" data-name="Rectangle 2766" d="M-.25-.25h80.5v80.5H-.25Zm80,.5H.25v79.5h79.5Z" transform="translate(-13582 -2074)" fill="#949494"/>
    <path id="Rectangle_2701" data-name="Rectangle 2701" d="M-.25-.25h80.5v80.5H-.25Zm80,.5H.25v79.5h79.5Z" transform="translate(-13262 -2314)" fill="#949494"/>
    <path id="Rectangle_2778" data-name="Rectangle 2778" d="M-.25-.25h80.5v80.5H-.25Zm80,.5H.25v79.5h79.5Z" transform="translate(-13262 -2074)" fill="#949494"/>
    <path id="Rectangle_2641" data-name="Rectangle 2641" d="M-.25-.25h80.5v80.5H-.25Zm80,.5H.25v79.5h79.5Z" transform="translate(-13902 -2394)" fill="#949494"/>
    <path id="Rectangle_2642" data-name="Rectangle 2642" d="M-.25-.25h80.5v80.5H-.25Zm80,.5H.25v79.5h79.5Z" transform="translate(-13822.001 -2394)" fill="#949494"/>
    <path id="Rectangle_2681" data-name="Rectangle 2681" d="M-.25-.25h80.5v80.5H-.25Zm80,.5H.25v79.5h79.5Z" transform="translate(-13502 -2394)" fill="#949494"/>
    <path id="Rectangle_2643" data-name="Rectangle 2643" d="M-.25-.25h80.5v80.5H-.25Zm80,.5H.25v79.5h79.5Z" transform="translate(-13742 -2394)" fill="#949494"/>
    <path id="Rectangle_2682" data-name="Rectangle 2682" d="M-.25-.25h80.5v80.5H-.25Zm80,.5H.25v79.5h79.5Z" transform="translate(-13422 -2394)" fill="#949494"/>
    <path id="Rectangle_1324" data-name="Rectangle 1324" d="M-.25-.25h80.5v80.5H-.25Zm80,.5H.25v79.5h79.5Z" transform="translate(-14062 -2394)" fill="#949494"/>
    <path id="Rectangle_2649" data-name="Rectangle 2649" d="M-.25-.25h80.5v80.5H-.25Zm80,.5H.25v79.5h79.5Z" transform="translate(-13662 -2394)" fill="#949494"/>
    <path id="Rectangle_2688" data-name="Rectangle 2688" d="M-.25-.25h80.5v80.5H-.25Zm80,.5H.25v79.5h79.5Z" transform="translate(-13342 -2394)" fill="#949494"/>
    <path id="Rectangle_1325" data-name="Rectangle 1325" d="M-.25-.25h80.5v80.5H-.25Zm80,.5H.25v79.5h79.5Z" transform="translate(-13982 -2394)" fill="#949494"/>
    <path id="Rectangle_2670" data-name="Rectangle 2670" d="M-.25-.25h80.5v80.5H-.25Zm80,.5H.25v79.5h79.5Z" transform="translate(-13582 -2394)" fill="#949494"/>
    <path id="Rectangle_2702" data-name="Rectangle 2702" d="M-.25-.25h80.5v80.5H-.25Zm80,.5H.25v79.5h79.5Z" transform="translate(-13262 -2394)" fill="#949494"/>
    <path id="Rectangle_2630-2" data-name="Rectangle 2630" d="M-.25-.25h80.5v80.5H-.25Zm80,.5H.25v79.5h79.5Z" transform="translate(-13902 -1674)" fill="#949494"/>
    <path id="Rectangle_2631-2" data-name="Rectangle 2631" d="M-.25-.25h80.5v80.5H-.25Zm80,.5H.25v79.5h79.5Z" transform="translate(-13822.001 -1674)" fill="#949494"/>
    <path id="Rectangle_2672-2" data-name="Rectangle 2672" d="M-.25-.25h80.5v80.5H-.25Zm80,.5H.25v79.5h79.5Z" transform="translate(-13502 -1674)" fill="#949494"/>
    <path id="Rectangle_2638-2" data-name="Rectangle 2638" d="M-.25-.25h80.5v80.5H-.25Zm80,.5H.25v79.5h79.5Z" transform="translate(-13742 -1674)" fill="#949494"/>
    <path id="Rectangle_2673-2" data-name="Rectangle 2673" d="M-.25-.25h80.5v80.5H-.25Zm80,.5H.25v79.5h79.5Z" transform="translate(-13422 -1674)" fill="#949494"/>
    <path id="Rectangle_1230-2" data-name="Rectangle 1230" d="M-.25-.25h80.5v80.5H-.25Zm80,.5H.25v79.5h79.5Z" transform="translate(-14062 -1674)" fill="#949494"/>
    <path id="Rectangle_2646-2" data-name="Rectangle 2646" d="M-.25-.25h80.5v80.5H-.25Zm80,.5H.25v79.5h79.5Z" transform="translate(-13662 -1674)" fill="#949494"/>
    <path id="Rectangle_2685-2" data-name="Rectangle 2685" d="M-.25-.25h80.5v80.5H-.25Zm80,.5H.25v79.5h79.5Z" transform="translate(-13342 -1674)" fill="#949494"/>
    <path id="Rectangle_1231-2" data-name="Rectangle 1231" d="M-.25-.25h80.5v80.5H-.25Zm80,.5H.25v79.5h79.5Z" transform="translate(-13982 -1674)" fill="#949494"/>
    <path id="Rectangle_2660-2" data-name="Rectangle 2660" d="M-.25-.25h80.5v80.5H-.25Zm80,.5H.25v79.5h79.5Z" transform="translate(-13582 -1674)" fill="#949494"/>
    <path id="Rectangle_2697-2" data-name="Rectangle 2697" d="M-.25-.25h80.5v80.5H-.25Zm80,.5H.25v79.5h79.5Z" transform="translate(-13262 -1674)" fill="#949494"/>
    <path id="Rectangle_2627-2" data-name="Rectangle 2627" d="M-.25-.25h80.5v80.5H-.25Zm80,.5H.25v79.5h79.5Z" transform="translate(-13902 -1754)" fill="#949494"/>
    <path id="Rectangle_2628-2" data-name="Rectangle 2628" d="M-.25-.25h80.5v80.5H-.25Zm80,.5H.25v79.5h79.5Z" transform="translate(-13822.001 -1754)" fill="#949494"/>
    <path id="Rectangle_2674-2" data-name="Rectangle 2674" d="M-.25-.25h80.5v80.5H-.25Zm80,.5H.25v79.5h79.5Z" transform="translate(-13502 -1754)" fill="#949494"/>
    <path id="Rectangle_2639-2" data-name="Rectangle 2639" d="M-.25-.25h80.5v80.5H-.25Zm80,.5H.25v79.5h79.5Z" transform="translate(-13742 -1754)" fill="#949494"/>
    <path id="Rectangle_2675-2" data-name="Rectangle 2675" d="M-.25-.25h80.5v80.5H-.25Zm80,.5H.25v79.5h79.5Z" transform="translate(-13422 -1754)" fill="#949494"/>
    <path id="Rectangle_1246-2" data-name="Rectangle 1246" d="M-.25-.25h80.5v80.5H-.25Zm80,.5H.25v79.5h79.5Z" transform="translate(-14062 -1754)" fill="#949494"/>
    <path id="Rectangle_2647-2" data-name="Rectangle 2647" d="M-.25-.25h80.5v80.5H-.25Zm80,.5H.25v79.5h79.5Z" transform="translate(-13662 -1754)" fill="#949494"/>
    <path id="Rectangle_2686-2" data-name="Rectangle 2686" d="M-.25-.25h80.5v80.5H-.25Zm80,.5H.25v79.5h79.5Z" transform="translate(-13342 -1754)" fill="#949494"/>
    <path id="Rectangle_1247-2" data-name="Rectangle 1247" d="M-.25-.25h80.5v80.5H-.25Zm80,.5H.25v79.5h79.5Z" transform="translate(-13982 -1754)" fill="#949494"/>
    <path id="Rectangle_2661-2" data-name="Rectangle 2661" d="M-.25-.25h80.5v80.5H-.25Zm80,.5H.25v79.5h79.5Z" transform="translate(-13582 -1754)" fill="#949494"/>
    <path id="Rectangle_2698-2" data-name="Rectangle 2698" d="M-.25-.25h80.5v80.5H-.25Zm80,.5H.25v79.5h79.5Z" transform="translate(-13262 -1754)" fill="#949494"/>
    <path id="Rectangle_2626-2" data-name="Rectangle 2626" d="M-.25-.25h80.5v80.5H-.25Zm80,.5H.25v79.5h79.5Z" transform="translate(-13902 -1834)" fill="#949494"/>
    <path id="Rectangle_2629-2" data-name="Rectangle 2629" d="M-.25-.25h80.5v80.5H-.25Zm80,.5H.25v79.5h79.5Z" transform="translate(-13822 -1834)" fill="#949494"/>
    <path id="Rectangle_2671-2" data-name="Rectangle 2671" d="M-.25-.25h80.5v80.5H-.25Zm80,.5H.25v79.5h79.5Z" transform="translate(-13502 -1834)" fill="#949494"/>
    <path id="Rectangle_2640-2" data-name="Rectangle 2640" d="M-.25-.25h80.5v80.5H-.25Zm80,.5H.25v79.5h79.5Z" transform="translate(-13742 -1834)" fill="#949494"/>
    <path id="Rectangle_2676-2" data-name="Rectangle 2676" d="M-.25-.25h80.5v80.5H-.25Zm80,.5H.25v79.5h79.5Z" transform="translate(-13422 -1834)" fill="#949494"/>
    <path id="Rectangle_1261-2" data-name="Rectangle 1261" d="M-.25-.25h80.5v80.5H-.25Zm80,.5H.25v79.5h79.5Z" transform="translate(-14062 -1834)" fill="#949494"/>
    <path id="Rectangle_2648-2" data-name="Rectangle 2648" d="M-.25-.25h80.5v80.5H-.25Zm80,.5H.25v79.5h79.5Z" transform="translate(-13662 -1834)" fill="#949494"/>
    <path id="Rectangle_2687-2" data-name="Rectangle 2687" d="M-.25-.25h80.5v80.5H-.25Zm80,.5H.25v79.5h79.5Z" transform="translate(-13342 -1834)" fill="#949494"/>
    <path id="Rectangle_1262-2" data-name="Rectangle 1262" d="M-.25-.25h80.5v80.5H-.25Zm80,.5H.25v79.5h79.5Z" transform="translate(-13982 -1834)" fill="#949494"/>
    <path id="Rectangle_2662-2" data-name="Rectangle 2662" d="M-.25-.25h80.5v80.5H-.25Zm80,.5H.25v79.5h79.5Z" transform="translate(-13582 -1834)" fill="#949494"/>
    <path id="Rectangle_2699-2" data-name="Rectangle 2699" d="M-.25-.25h80.5v80.5H-.25Zm80,.5H.25v79.5h79.5Z" transform="translate(-13262 -1834)" fill="#949494"/>
    <rect id="Rectangle_3349" data-name="Rectangle 3349" width="1920" height="1200" transform="translate(-15102 -2794)" fill="none"/>
  </g>
</svg>
