<?xml version="1.0" encoding="UTF-8"?><svg id="Layer_2" xmlns="http://www.w3.org/2000/svg" viewBox="0 0 1920.5 240.5"><defs><style>.cls-1{fill:#949494;}</style></defs><g id="Layer_1-2"><g><path id="Rectangle_1216-2" class="cls-1" d="M0,160H80.5v80.5H0v-80.5Zm80,.4H.5v79.5H80v-79.5Z"/><path id="Rectangle_1218-2" class="cls-1" d="M80,160h80.5v80.5H80v-80.5Zm80,.4H80.5v79.5h79.5v-79.5Z"/><path id="Rectangle_1219-2" class="cls-1" d="M160,160h80.5v80.5h-80.5v-80.5Zm80,.4h-79.5v79.5h79.5v-79.5Z"/><path id="Rectangle_1220-2" class="cls-1" d="M240,160h80.5v80.5h-80.5v-80.5Zm80,.4h-79.5v79.5h79.5v-79.5Z"/><path id="Rectangle_1221-2" class="cls-1" d="M320,160h80.5v80.5h-80.5v-80.5Zm80,.4h-79.5v79.5h79.5v-79.5Z"/><path id="Rectangle_1222-2" class="cls-1" d="M400,160h80.5v80.5h-80.5v-80.5Zm80,.4h-79.5v79.5h79.5v-79.5Z"/><path id="Rectangle_1223-2" class="cls-1" d="M480,160h80.5v80.5h-80.5v-80.5Zm80,.4h-79.5v79.5h79.5v-79.5Z"/><path id="Rectangle_1224-2" class="cls-1" d="M560,160h80.5v80.5h-80.5v-80.5Zm80,.4h-79.5v79.5h79.5v-79.5Z"/><path id="Rectangle_1225-2" class="cls-1" d="M640,160h80.5v80.5h-80.5v-80.5Zm80,.4h-79.5v79.5h79.5v-79.5Z"/><path id="Rectangle_1226-2" class="cls-1" d="M720,160h80.5v80.5h-80.5v-80.5Zm80,.4h-79.5v79.5h79.5v-79.5Z"/><path id="Rectangle_1227-2" class="cls-1" d="M800,160h80.5v80.5h-80.5v-80.5Zm80,.4h-79.5v79.5h79.5v-79.5Z"/><path id="Rectangle_2630-2" class="cls-1" d="M1200,160h80.5v80.5h-80.5v-80.5Zm80,.4h-79.5v79.5h79.5v-79.5Z"/><path id="Rectangle_1228-2" class="cls-1" d="M880,160h80.5v80.5h-80.5v-80.5Zm80,.4h-79.5v79.5h79.5v-79.5Z"/><path id="Rectangle_2631-2" class="cls-1" d="M1279.9,160h80.5v80.5h-80.5v-80.5Zm80,.4h-79.5v79.5h79.5v-79.5Z"/><path id="Rectangle_2672-2" class="cls-1" d="M1600,160h80.5v80.5h-80.5v-80.5Zm80,.4h-79.5v79.5h79.5v-79.5Z"/><path id="Rectangle_1229-2" class="cls-1" d="M960,160h80.5v80.5h-80.5v-80.5Zm80,.4h-79.5v79.5h79.5v-79.5Z"/><path id="Rectangle_2638-2" class="cls-1" d="M1360,160h80.5v80.5h-80.5v-80.5Zm80,.4h-79.5v79.5h79.5v-79.5Z"/><path id="Rectangle_2673-2" class="cls-1" d="M1680,160h80.5v80.5h-80.5v-80.5Zm80,.4h-79.5v79.5h79.5v-79.5Z"/><path id="Rectangle_1230-2" class="cls-1" d="M1040,160h80.5v80.5h-80.5v-80.5Zm80,.4h-79.5v79.5h79.5v-79.5Z"/><path id="Rectangle_2646-2" class="cls-1" d="M1440,160h80.5v80.5h-80.5v-80.5Zm80,.4h-79.5v79.5h79.5v-79.5Z"/><path id="Rectangle_2685-2" class="cls-1" d="M1760,160h80.5v80.5h-80.5v-80.5Zm80,.4h-79.5v79.5h79.5v-79.5Z"/><path id="Rectangle_1231-2" class="cls-1" d="M1120,160h80.5v80.5h-80.5v-80.5Zm80,.4h-79.5v79.5h79.5v-79.5Z"/><path id="Rectangle_2660-2" class="cls-1" d="M1520,160h80.5v80.5h-80.5v-80.5Zm80,.4h-79.5v79.5h79.5v-79.5Z"/><path id="Rectangle_2697-2" class="cls-1" d="M1840,160h80.5v80.5h-80.5v-80.5Zm80,.4h-79.5v79.5h79.5v-79.5Z"/><path id="Rectangle_1232-2" class="cls-1" d="M0,80H80.5v80.5H0V80Zm80,.4H.5v79.5H80V80.4Z"/><path id="Rectangle_1234-2" class="cls-1" d="M80,80h80.5v80.5H80V80Zm80,.4H80.5v79.5h79.5V80.4Z"/><path id="Rectangle_1235-2" class="cls-1" d="M160,80h80.5v80.5h-80.5V80Zm80,.4h-79.5v79.5h79.5V80.4Z"/><path id="Rectangle_1236-2" class="cls-1" d="M240,80h80.5v80.5h-80.5V80Zm80,.4h-79.5v79.5h79.5V80.4Z"/><path id="Rectangle_1237-2" class="cls-1" d="M320,80h80.5v80.5h-80.5V80Zm80,.4h-79.5v79.5h79.5V80.4Z"/><path id="Rectangle_1238-2" class="cls-1" d="M400,80h80.5v80.5h-80.5V80Zm80,.4h-79.5v79.5h79.5V80.4Z"/><path id="Rectangle_1239-2" class="cls-1" d="M480,80h80.5v80.5h-80.5V80Zm80,.4h-79.5v79.5h79.5V80.4Z"/><path id="Rectangle_1240-2" class="cls-1" d="M560,80h80.5v80.5h-80.5V80Zm80,.4h-79.5v79.5h79.5V80.4Z"/><path id="Rectangle_1241-2" class="cls-1" d="M640,80h80.5v80.5h-80.5V80Zm80,.4h-79.5v79.5h79.5V80.4Z"/><path id="Rectangle_1242-2" class="cls-1" d="M720,80h80.5v80.5h-80.5V80Zm80,.4h-79.5v79.5h79.5V80.4Z"/><path id="Rectangle_1243-2" class="cls-1" d="M800,80h80.5v80.5h-80.5V80Zm80,.4h-79.5v79.5h79.5V80.4Z"/><path id="Rectangle_2627-2" class="cls-1" d="M1200,80h80.5v80.5h-80.5V80Zm80,.4h-79.5v79.5h79.5V80.4Z"/><path id="Rectangle_1244-2" class="cls-1" d="M880,80h80.5v80.5h-80.5V80Zm80,.4h-79.5v79.5h79.5V80.4Z"/><path id="Rectangle_2628-2" class="cls-1" d="M1279.9,80h80.5v80.5h-80.5V80Zm80,.4h-79.5v79.5h79.5V80.4Z"/><path id="Rectangle_2674-2" class="cls-1" d="M1600,80h80.5v80.5h-80.5V80Zm80,.4h-79.5v79.5h79.5V80.4Z"/><path id="Rectangle_1245-2" class="cls-1" d="M960,80h80.5v80.5h-80.5V80Zm80,.4h-79.5v79.5h79.5V80.4Z"/><path id="Rectangle_2639-2" class="cls-1" d="M1360,80h80.5v80.5h-80.5V80Zm80,.4h-79.5v79.5h79.5V80.4Z"/><path id="Rectangle_2675-2" class="cls-1" d="M1680,80h80.5v80.5h-80.5V80Zm80,.4h-79.5v79.5h79.5V80.4Z"/><path id="Rectangle_1246-2" class="cls-1" d="M1040,80h80.5v80.5h-80.5V80Zm80,.4h-79.5v79.5h79.5V80.4Z"/><path id="Rectangle_2647-2" class="cls-1" d="M1440,80h80.5v80.5h-80.5V80Zm80,.4h-79.5v79.5h79.5V80.4Z"/><path id="Rectangle_2686-2" class="cls-1" d="M1760,80h80.5v80.5h-80.5V80Zm80,.4h-79.5v79.5h79.5V80.4Z"/><path id="Rectangle_1247-2" class="cls-1" d="M1120,80h80.5v80.5h-80.5V80Zm80,.4h-79.5v79.5h79.5V80.4Z"/><path id="Rectangle_2661-2" class="cls-1" d="M1520,80h80.5v80.5h-80.5V80Zm80,.4h-79.5v79.5h79.5V80.4Z"/><path id="Rectangle_2698-2" class="cls-1" d="M1840,80h80.5v80.5h-80.5V80Zm80,.4h-79.5v79.5h79.5V80.4Z"/><path id="Rectangle_1248-2" class="cls-1" d="M0,0H80.5V80.5H0V0ZM80,.4H.5V79.9H80V.4Z"/><path id="Rectangle_1249-2" class="cls-1" d="M80,0h80.5V80.5H80V0Zm80,.4H80.5V79.9h79.5V.4Z"/><path id="Rectangle_1250-2" class="cls-1" d="M160,0h80.5V80.5h-80.5V0Zm80,.4h-79.5V79.9h79.5V.4Z"/><path id="Rectangle_1251-2" class="cls-1" d="M240,0h80.5V80.5h-80.5V0Zm80,.4h-79.5V79.9h79.5V.4Z"/><path id="Rectangle_1252-2" class="cls-1" d="M320,0h80.5V80.5h-80.5V0Zm80,.4h-79.5V79.9h79.5V.4Z"/><path id="Rectangle_1253-2" class="cls-1" d="M400,0h80.5V80.5h-80.5V0Zm80,.4h-79.5V79.9h79.5V.4Z"/><path id="Rectangle_1254-2" class="cls-1" d="M480,0h80.5V80.5h-80.5V0Zm80,.4h-79.5V79.9h79.5V.4Z"/><path id="Rectangle_1255-2" class="cls-1" d="M560,0h80.5V80.5h-80.5V0Zm80,.4h-79.5V79.9h79.5V.4Z"/><path id="Rectangle_1256-2" class="cls-1" d="M640,0h80.5V80.5h-80.5V0Zm80,.4h-79.5V79.9h79.5V.4Z"/><path id="Rectangle_1257-2" class="cls-1" d="M720,0h80.5V80.5h-80.5V0Zm80,.4h-79.5V79.9h79.5V.4Z"/><path id="Rectangle_1258-2" class="cls-1" d="M800,0h80.5V80.5h-80.5V0Zm80,.4h-79.5V79.9h79.5V.4Z"/><path id="Rectangle_2626-2" class="cls-1" d="M1200,0h80.5V80.5h-80.5V0Zm80,.4h-79.5V79.9h79.5V.4Z"/><path id="Rectangle_1259-2" class="cls-1" d="M880,0h80.5V80.5h-80.5V0Zm80,.4h-79.5V79.9h79.5V.4Z"/><path id="Rectangle_2629-2" class="cls-1" d="M1280,0h80.5V80.5h-80.5V0Zm80,.4h-79.5V79.9h79.5V.4Z"/><path id="Rectangle_2671-2" class="cls-1" d="M1600,0h80.5V80.5h-80.5V0Zm80,.4h-79.5V79.9h79.5V.4Z"/><path id="Rectangle_1260-2" class="cls-1" d="M960,0h80.5V80.5h-80.5V0Zm80,.4h-79.5V79.9h79.5V.4Z"/><path id="Rectangle_2640-2" class="cls-1" d="M1360,0h80.5V80.5h-80.5V0Zm80,.4h-79.5V79.9h79.5V.4Z"/><path id="Rectangle_2676-2" class="cls-1" d="M1680,0h80.5V80.5h-80.5V0Zm80,.4h-79.5V79.9h79.5V.4Z"/><path id="Rectangle_1261-2" class="cls-1" d="M1040,0h80.5V80.5h-80.5V0Zm80,.4h-79.5V79.9h79.5V.4Z"/><path id="Rectangle_2648-2" class="cls-1" d="M1440,0h80.5V80.5h-80.5V0Zm80,.4h-79.5V79.9h79.5V.4Z"/><path id="Rectangle_2687-2" class="cls-1" d="M1760,0h80.5V80.5h-80.5V0Zm80,.4h-79.5V79.9h79.5V.4Z"/><path id="Rectangle_1262-2" class="cls-1" d="M1120,0h80.5V80.5h-80.5V0Zm80,.4h-79.5V79.9h79.5V.4Z"/><path id="Rectangle_2662-2" class="cls-1" d="M1520,0h80.5V80.5h-80.5V0Zm80,.4h-79.5V79.9h79.5V.4Z"/><path id="Rectangle_2699-2" class="cls-1" d="M1840,0h80.5V80.5h-80.5V0Zm80,.4h-79.5V79.9h79.5V.4Z"/></g></g></svg>