<svg xmlns="http://www.w3.org/2000/svg" width="1920.5" height="1200.5" viewBox="0 0 1920.5 1200.5">
  <g id="Group_1180" data-name="Group 1180" transform="translate(13580.25 -5446.75)" opacity="0.25">
    <path id="Path_9" data-name="Path 9" d="M1280,768.142h0Z" transform="translate(-13381.875 5605.553)" fill="none"/>
    <path id="Rectangle_1184" data-name="Rectangle 1184" d="M-.25-.25h80.5v80.5H-.25Zm80,.5H.25v79.5h79.5Z" transform="translate(-13580 5767)" fill="#949494"/>
    <path id="Rectangle_1186" data-name="Rectangle 1186" d="M-.25-.25h80.5v80.5H-.25Zm80,.5H.25v79.5h79.5Z" transform="translate(-13500 5767)" fill="#949494"/>
    <path id="Rectangle_1187" data-name="Rectangle 1187" d="M-.25-.25h80.5v80.5H-.25Zm80,.5H.25v79.5h79.5Z" transform="translate(-13420 5767)" fill="#949494"/>
    <path id="Rectangle_1188" data-name="Rectangle 1188" d="M-.25-.25h80.5v80.5H-.25Zm80,.5H.25v79.5h79.5Z" transform="translate(-13340 5767)" fill="#949494"/>
    <path id="Rectangle_1189" data-name="Rectangle 1189" d="M-.25-.25h80.5v80.5H-.25Zm80,.5H.25v79.5h79.5Z" transform="translate(-13260 5767)" fill="#949494"/>
    <path id="Rectangle_1190" data-name="Rectangle 1190" d="M-.25-.25h80.5v80.5H-.25Zm80,.5H.25v79.5h79.5Z" transform="translate(-13180 5767)" fill="#949494"/>
    <path id="Rectangle_1191" data-name="Rectangle 1191" d="M-.25-.25h80.5v80.5H-.25Zm80,.5H.25v79.5h79.5Z" transform="translate(-13100 5767)" fill="#949494"/>
    <path id="Rectangle_1192" data-name="Rectangle 1192" d="M-.25-.25h80.5v80.5H-.25Zm80,.5H.25v79.5h79.5Z" transform="translate(-13020 5767)" fill="#949494"/>
    <path id="Rectangle_1193" data-name="Rectangle 1193" d="M-.25-.25h80.5v80.5H-.25Zm80,.5H.25v79.5h79.5Z" transform="translate(-12940 5767)" fill="#949494"/>
    <path id="Rectangle_1194" data-name="Rectangle 1194" d="M-.25-.25h80.5v80.5H-.25Zm80,.5H.25v79.5h79.5Z" transform="translate(-12860 5767)" fill="#949494"/>
    <path id="Rectangle_1195" data-name="Rectangle 1195" d="M-.25-.25h80.5v80.5H-.25Zm80,.5H.25v79.5h79.5Z" transform="translate(-12780 5767)" fill="#949494"/>
    <path id="Rectangle_2634" data-name="Rectangle 2634" d="M-.25-.25h80.5v80.5H-.25Zm80,.5H.25v79.5h79.5Z" transform="translate(-12380 5767)" fill="#949494"/>
    <path id="Rectangle_1196" data-name="Rectangle 1196" d="M-.25-.25h80.5v80.5H-.25Zm80,.5H.25v79.5h79.5Z" transform="translate(-12700 5767)" fill="#949494"/>
    <path id="Rectangle_2635" data-name="Rectangle 2635" d="M-.25-.25h80.5v80.5H-.25Zm80,.5H.25v79.5h79.5Z" transform="translate(-12300.001 5767)" fill="#949494"/>
    <path id="Rectangle_2679" data-name="Rectangle 2679" d="M-.25-.25h80.5v80.5H-.25Zm80,.5H.25v79.5h79.5Z" transform="translate(-11980 5767)" fill="#949494"/>
    <path id="Rectangle_1197" data-name="Rectangle 1197" d="M-.25-.25h80.5v80.5H-.25Zm80,.5H.25v79.5h79.5Z" transform="translate(-12620 5767)" fill="#949494"/>
    <path id="Rectangle_2636" data-name="Rectangle 2636" d="M-.25-.25h80.5v80.5H-.25Zm80,.5H.25v79.5h79.5Z" transform="translate(-12220 5767)" fill="#949494"/>
    <path id="Rectangle_2680" data-name="Rectangle 2680" d="M-.25-.25h80.5v80.5H-.25Zm80,.5H.25v79.5h79.5Z" transform="translate(-11900 5767)" fill="#949494"/>
    <path id="Rectangle_1198" data-name="Rectangle 1198" d="M-.25-.25h80.5v80.5H-.25Zm80,.5H.25v79.5h79.5Z" transform="translate(-12540 5767)" fill="#949494"/>
    <path id="Rectangle_2644" data-name="Rectangle 2644" d="M-.25-.25h80.5v80.5H-.25Zm80,.5H.25v79.5h79.5Z" transform="translate(-12140 5767)" fill="#949494"/>
    <path id="Rectangle_2683" data-name="Rectangle 2683" d="M-.25-.25h80.5v80.5H-.25Zm80,.5H.25v79.5h79.5Z" transform="translate(-11820 5767)" fill="#949494"/>
    <path id="Rectangle_1199" data-name="Rectangle 1199" d="M-.25-.25h80.5v80.5H-.25Zm80,.5H.25v79.5h79.5Z" transform="translate(-12460 5767)" fill="#949494"/>
    <path id="Rectangle_2658" data-name="Rectangle 2658" d="M-.25-.25h80.5v80.5H-.25Zm80,.5H.25v79.5h79.5Z" transform="translate(-12060 5767)" fill="#949494"/>
    <path id="Rectangle_2695" data-name="Rectangle 2695" d="M-.25-.25h80.5v80.5H-.25Zm80,.5H.25v79.5h79.5Z" transform="translate(-11740 5767)" fill="#949494"/>
    <path id="Rectangle_1200" data-name="Rectangle 1200" d="M-.25-.25h80.5v80.5H-.25Zm80,.5H.25v79.5h79.5Z" transform="translate(-13580 5687)" fill="#949494"/>
    <path id="Rectangle_1202" data-name="Rectangle 1202" d="M-.25-.25h80.5v80.5H-.25Zm80,.5H.25v79.5h79.5Z" transform="translate(-13500 5687)" fill="#949494"/>
    <path id="Rectangle_1203" data-name="Rectangle 1203" d="M-.25-.25h80.5v80.5H-.25Zm80,.5H.25v79.5h79.5Z" transform="translate(-13420 5687)" fill="#949494"/>
    <path id="Rectangle_1204" data-name="Rectangle 1204" d="M-.25-.25h80.5v80.5H-.25Zm80,.5H.25v79.5h79.5Z" transform="translate(-13340 5687)" fill="#949494"/>
    <path id="Rectangle_1205" data-name="Rectangle 1205" d="M-.25-.25h80.5v80.5H-.25Zm80,.5H.25v79.5h79.5Z" transform="translate(-13260 5687)" fill="#949494"/>
    <path id="Rectangle_1206" data-name="Rectangle 1206" d="M-.25-.25h80.5v80.5H-.25Zm80,.5H.25v79.5h79.5Z" transform="translate(-13180 5687)" fill="#949494"/>
    <path id="Rectangle_1207" data-name="Rectangle 1207" d="M-.25-.25h80.5v80.5H-.25Zm80,.5H.25v79.5h79.5Z" transform="translate(-13100 5687)" fill="#949494"/>
    <path id="Rectangle_1208" data-name="Rectangle 1208" d="M-.25-.25h80.5v80.5H-.25Zm80,.5H.25v79.5h79.5Z" transform="translate(-13020 5687)" fill="#949494"/>
    <path id="Rectangle_1209" data-name="Rectangle 1209" d="M-.25-.25h80.5v80.5H-.25Zm80,.5H.25v79.5h79.5Z" transform="translate(-12940 5687)" fill="#949494"/>
    <path id="Rectangle_1210" data-name="Rectangle 1210" d="M-.25-.25h80.5v80.5H-.25Zm80,.5H.25v79.5h79.5Z" transform="translate(-12860 5687)" fill="#949494"/>
    <path id="Rectangle_1211" data-name="Rectangle 1211" d="M-.25-.25h80.5v80.5H-.25Zm80,.5H.25v79.5h79.5Z" transform="translate(-12780 5687)" fill="#949494"/>
    <path id="Rectangle_2632" data-name="Rectangle 2632" d="M-.25-.25h80.5v80.5H-.25Zm80,.5H.25v79.5h79.5Z" transform="translate(-12380 5687)" fill="#949494"/>
    <path id="Rectangle_1212" data-name="Rectangle 1212" d="M-.25-.25h80.5v80.5H-.25Zm80,.5H.25v79.5h79.5Z" transform="translate(-12700 5687)" fill="#949494"/>
    <path id="Rectangle_2633" data-name="Rectangle 2633" d="M-.25-.25h80.5v80.5H-.25Zm80,.5H.25v79.5h79.5Z" transform="translate(-12300.001 5687)" fill="#949494"/>
    <path id="Rectangle_2677" data-name="Rectangle 2677" d="M-.25-.25h80.5v80.5H-.25Zm80,.5H.25v79.5h79.5Z" transform="translate(-11980 5687)" fill="#949494"/>
    <path id="Rectangle_1213" data-name="Rectangle 1213" d="M-.25-.25h80.5v80.5H-.25Zm80,.5H.25v79.5h79.5Z" transform="translate(-12620 5687)" fill="#949494"/>
    <path id="Rectangle_2637" data-name="Rectangle 2637" d="M-.25-.25h80.5v80.5H-.25Zm80,.5H.25v79.5h79.5Z" transform="translate(-12220 5687)" fill="#949494"/>
    <path id="Rectangle_2678" data-name="Rectangle 2678" d="M-.25-.25h80.5v80.5H-.25Zm80,.5H.25v79.5h79.5Z" transform="translate(-11900 5687)" fill="#949494"/>
    <path id="Rectangle_1214" data-name="Rectangle 1214" d="M-.25-.25h80.5v80.5H-.25Zm80,.5H.25v79.5h79.5Z" transform="translate(-12540 5687)" fill="#949494"/>
    <path id="Rectangle_2645" data-name="Rectangle 2645" d="M-.25-.25h80.5v80.5H-.25Zm80,.5H.25v79.5h79.5Z" transform="translate(-12140 5687)" fill="#949494"/>
    <path id="Rectangle_2684" data-name="Rectangle 2684" d="M-.25-.25h80.5v80.5H-.25Zm80,.5H.25v79.5h79.5Z" transform="translate(-11820 5687)" fill="#949494"/>
    <path id="Rectangle_1215" data-name="Rectangle 1215" d="M-.25-.25h80.5v80.5H-.25Zm80,.5H.25v79.5h79.5Z" transform="translate(-12460 5687)" fill="#949494"/>
    <path id="Rectangle_2659" data-name="Rectangle 2659" d="M-.25-.25h80.5v80.5H-.25Zm80,.5H.25v79.5h79.5Z" transform="translate(-12060 5687)" fill="#949494"/>
    <path id="Rectangle_2696" data-name="Rectangle 2696" d="M-.25-.25h80.5v80.5H-.25Zm80,.5H.25v79.5h79.5Z" transform="translate(-11740 5687)" fill="#949494"/>
    <path id="Rectangle_1216" data-name="Rectangle 1216" d="M-.25-.25h80.5v80.5H-.25Zm80,.5H.25v79.5h79.5Z" transform="translate(-13580 5607)" fill="#949494"/>
    <path id="Rectangle_1218" data-name="Rectangle 1218" d="M-.25-.25h80.5v80.5H-.25Zm80,.5H.25v79.5h79.5Z" transform="translate(-13500 5607)" fill="#949494"/>
    <path id="Rectangle_1219" data-name="Rectangle 1219" d="M-.25-.25h80.5v80.5H-.25Zm80,.5H.25v79.5h79.5Z" transform="translate(-13420 5607)" fill="#949494"/>
    <path id="Rectangle_1220" data-name="Rectangle 1220" d="M-.25-.25h80.5v80.5H-.25Zm80,.5H.25v79.5h79.5Z" transform="translate(-13340 5607)" fill="#949494"/>
    <path id="Rectangle_1221" data-name="Rectangle 1221" d="M-.25-.25h80.5v80.5H-.25Zm80,.5H.25v79.5h79.5Z" transform="translate(-13260 5607)" fill="#949494"/>
    <path id="Rectangle_1222" data-name="Rectangle 1222" d="M-.25-.25h80.5v80.5H-.25Zm80,.5H.25v79.5h79.5Z" transform="translate(-13180 5607)" fill="#949494"/>
    <path id="Rectangle_1223" data-name="Rectangle 1223" d="M-.25-.25h80.5v80.5H-.25Zm80,.5H.25v79.5h79.5Z" transform="translate(-13100 5607)" fill="#949494"/>
    <path id="Rectangle_1224" data-name="Rectangle 1224" d="M-.25-.25h80.5v80.5H-.25Zm80,.5H.25v79.5h79.5Z" transform="translate(-13020 5607)" fill="#949494"/>
    <path id="Rectangle_1225" data-name="Rectangle 1225" d="M-.25-.25h80.5v80.5H-.25Zm80,.5H.25v79.5h79.5Z" transform="translate(-12940 5607)" fill="#949494"/>
    <path id="Rectangle_1226" data-name="Rectangle 1226" d="M-.25-.25h80.5v80.5H-.25Zm80,.5H.25v79.5h79.5Z" transform="translate(-12860 5607)" fill="#949494"/>
    <path id="Rectangle_1227" data-name="Rectangle 1227" d="M-.25-.25h80.5v80.5H-.25Zm80,.5H.25v79.5h79.5Z" transform="translate(-12780 5607)" fill="#949494"/>
    <path id="Rectangle_2630" data-name="Rectangle 2630" d="M-.25-.25h80.5v80.5H-.25Zm80,.5H.25v79.5h79.5Z" transform="translate(-12380 5607)" fill="#949494"/>
    <path id="Rectangle_1228" data-name="Rectangle 1228" d="M-.25-.25h80.5v80.5H-.25Zm80,.5H.25v79.5h79.5Z" transform="translate(-12700 5607)" fill="#949494"/>
    <path id="Rectangle_2631" data-name="Rectangle 2631" d="M-.25-.25h80.5v80.5H-.25Zm80,.5H.25v79.5h79.5Z" transform="translate(-12300.001 5607)" fill="#949494"/>
    <path id="Rectangle_2672" data-name="Rectangle 2672" d="M-.25-.25h80.5v80.5H-.25Zm80,.5H.25v79.5h79.5Z" transform="translate(-11980 5607)" fill="#949494"/>
    <path id="Rectangle_1229" data-name="Rectangle 1229" d="M-.25-.25h80.5v80.5H-.25Zm80,.5H.25v79.5h79.5Z" transform="translate(-12620 5607)" fill="#949494"/>
    <path id="Rectangle_2638" data-name="Rectangle 2638" d="M-.25-.25h80.5v80.5H-.25Zm80,.5H.25v79.5h79.5Z" transform="translate(-12220 5607)" fill="#949494"/>
    <path id="Rectangle_2673" data-name="Rectangle 2673" d="M-.25-.25h80.5v80.5H-.25Zm80,.5H.25v79.5h79.5Z" transform="translate(-11900 5607)" fill="#949494"/>
    <path id="Rectangle_1230" data-name="Rectangle 1230" d="M-.25-.25h80.5v80.5H-.25Zm80,.5H.25v79.5h79.5Z" transform="translate(-12540 5607)" fill="#949494"/>
    <path id="Rectangle_2646" data-name="Rectangle 2646" d="M-.25-.25h80.5v80.5H-.25Zm80,.5H.25v79.5h79.5Z" transform="translate(-12140 5607)" fill="#949494"/>
    <path id="Rectangle_2685" data-name="Rectangle 2685" d="M-.25-.25h80.5v80.5H-.25Zm80,.5H.25v79.5h79.5Z" transform="translate(-11820 5607)" fill="#949494"/>
    <path id="Rectangle_1231" data-name="Rectangle 1231" d="M-.25-.25h80.5v80.5H-.25Zm80,.5H.25v79.5h79.5Z" transform="translate(-12460 5607)" fill="#949494"/>
    <path id="Rectangle_2660" data-name="Rectangle 2660" d="M-.25-.25h80.5v80.5H-.25Zm80,.5H.25v79.5h79.5Z" transform="translate(-12060 5607)" fill="#949494"/>
    <path id="Rectangle_2697" data-name="Rectangle 2697" d="M-.25-.25h80.5v80.5H-.25Zm80,.5H.25v79.5h79.5Z" transform="translate(-11740 5607)" fill="#949494"/>
    <path id="Rectangle_1232" data-name="Rectangle 1232" d="M-.25-.25h80.5v80.5H-.25Zm80,.5H.25v79.5h79.5Z" transform="translate(-13580 5527)" fill="#949494"/>
    <path id="Rectangle_1234" data-name="Rectangle 1234" d="M-.25-.25h80.5v80.5H-.25Zm80,.5H.25v79.5h79.5Z" transform="translate(-13500 5527)" fill="#949494"/>
    <path id="Rectangle_1235" data-name="Rectangle 1235" d="M-.25-.25h80.5v80.5H-.25Zm80,.5H.25v79.5h79.5Z" transform="translate(-13420 5527)" fill="#949494"/>
    <path id="Rectangle_1236" data-name="Rectangle 1236" d="M-.25-.25h80.5v80.5H-.25Zm80,.5H.25v79.5h79.5Z" transform="translate(-13340 5527)" fill="#949494"/>
    <path id="Rectangle_1237" data-name="Rectangle 1237" d="M-.25-.25h80.5v80.5H-.25Zm80,.5H.25v79.5h79.5Z" transform="translate(-13260 5527)" fill="#949494"/>
    <path id="Rectangle_1238" data-name="Rectangle 1238" d="M-.25-.25h80.5v80.5H-.25Zm80,.5H.25v79.5h79.5Z" transform="translate(-13180 5527)" fill="#949494"/>
    <path id="Rectangle_1239" data-name="Rectangle 1239" d="M-.25-.25h80.5v80.5H-.25Zm80,.5H.25v79.5h79.5Z" transform="translate(-13100 5527)" fill="#949494"/>
    <path id="Rectangle_1240" data-name="Rectangle 1240" d="M-.25-.25h80.5v80.5H-.25Zm80,.5H.25v79.5h79.5Z" transform="translate(-13020 5527)" fill="#949494"/>
    <path id="Rectangle_1241" data-name="Rectangle 1241" d="M-.25-.25h80.5v80.5H-.25Zm80,.5H.25v79.5h79.5Z" transform="translate(-12940 5527)" fill="#949494"/>
    <path id="Rectangle_1242" data-name="Rectangle 1242" d="M-.25-.25h80.5v80.5H-.25Zm80,.5H.25v79.5h79.5Z" transform="translate(-12860 5527)" fill="#949494"/>
    <path id="Rectangle_1243" data-name="Rectangle 1243" d="M-.25-.25h80.5v80.5H-.25Zm80,.5H.25v79.5h79.5Z" transform="translate(-12780 5527)" fill="#949494"/>
    <path id="Rectangle_2627" data-name="Rectangle 2627" d="M-.25-.25h80.5v80.5H-.25Zm80,.5H.25v79.5h79.5Z" transform="translate(-12380 5527)" fill="#949494"/>
    <path id="Rectangle_1244" data-name="Rectangle 1244" d="M-.25-.25h80.5v80.5H-.25Zm80,.5H.25v79.5h79.5Z" transform="translate(-12700 5527)" fill="#949494"/>
    <path id="Rectangle_2628" data-name="Rectangle 2628" d="M-.25-.25h80.5v80.5H-.25Zm80,.5H.25v79.5h79.5Z" transform="translate(-12300.001 5527)" fill="#949494"/>
    <path id="Rectangle_2674" data-name="Rectangle 2674" d="M-.25-.25h80.5v80.5H-.25Zm80,.5H.25v79.5h79.5Z" transform="translate(-11980 5527)" fill="#949494"/>
    <path id="Rectangle_1245" data-name="Rectangle 1245" d="M-.25-.25h80.5v80.5H-.25Zm80,.5H.25v79.5h79.5Z" transform="translate(-12620 5527)" fill="#949494"/>
    <path id="Rectangle_2639" data-name="Rectangle 2639" d="M-.25-.25h80.5v80.5H-.25Zm80,.5H.25v79.5h79.5Z" transform="translate(-12220 5527)" fill="#949494"/>
    <path id="Rectangle_2675" data-name="Rectangle 2675" d="M-.25-.25h80.5v80.5H-.25Zm80,.5H.25v79.5h79.5Z" transform="translate(-11900 5527)" fill="#949494"/>
    <path id="Rectangle_1246" data-name="Rectangle 1246" d="M-.25-.25h80.5v80.5H-.25Zm80,.5H.25v79.5h79.5Z" transform="translate(-12540 5527)" fill="#949494"/>
    <path id="Rectangle_2647" data-name="Rectangle 2647" d="M-.25-.25h80.5v80.5H-.25Zm80,.5H.25v79.5h79.5Z" transform="translate(-12140 5527)" fill="#949494"/>
    <path id="Rectangle_2686" data-name="Rectangle 2686" d="M-.25-.25h80.5v80.5H-.25Zm80,.5H.25v79.5h79.5Z" transform="translate(-11820 5527)" fill="#949494"/>
    <path id="Rectangle_1247" data-name="Rectangle 1247" d="M-.25-.25h80.5v80.5H-.25Zm80,.5H.25v79.5h79.5Z" transform="translate(-12460 5527)" fill="#949494"/>
    <path id="Rectangle_2661" data-name="Rectangle 2661" d="M-.25-.25h80.5v80.5H-.25Zm80,.5H.25v79.5h79.5Z" transform="translate(-12060 5527)" fill="#949494"/>
    <path id="Rectangle_2698" data-name="Rectangle 2698" d="M-.25-.25h80.5v80.5H-.25Zm80,.5H.25v79.5h79.5Z" transform="translate(-11740 5527)" fill="#949494"/>
    <path id="Rectangle_1248" data-name="Rectangle 1248" d="M-.25-.25h80.5v80.5H-.25Zm80,.5H.25v79.5h79.5Z" transform="translate(-13580 5447)" fill="#949494"/>
    <path id="Rectangle_1249" data-name="Rectangle 1249" d="M-.25-.25h80.5v80.5H-.25Zm80,.5H.25v79.5h79.5Z" transform="translate(-13500 5447)" fill="#949494"/>
    <path id="Rectangle_1250" data-name="Rectangle 1250" d="M-.25-.25h80.5v80.5H-.25Zm80,.5H.25v79.5h79.5Z" transform="translate(-13420 5447)" fill="#949494"/>
    <path id="Rectangle_1251" data-name="Rectangle 1251" d="M-.25-.25h80.5v80.5H-.25Zm80,.5H.25v79.5h79.5Z" transform="translate(-13340 5447)" fill="#949494"/>
    <path id="Rectangle_1252" data-name="Rectangle 1252" d="M-.25-.25h80.5v80.5H-.25Zm80,.5H.25v79.5h79.5Z" transform="translate(-13260 5447)" fill="#949494"/>
    <path id="Rectangle_1253" data-name="Rectangle 1253" d="M-.25-.25h80.5v80.5H-.25Zm80,.5H.25v79.5h79.5Z" transform="translate(-13180 5447)" fill="#949494"/>
    <path id="Rectangle_1254" data-name="Rectangle 1254" d="M-.25-.25h80.5v80.5H-.25Zm80,.5H.25v79.5h79.5Z" transform="translate(-13100 5447)" fill="#949494"/>
    <path id="Rectangle_1255" data-name="Rectangle 1255" d="M-.25-.25h80.5v80.5H-.25Zm80,.5H.25v79.5h79.5Z" transform="translate(-13020 5447)" fill="#949494"/>
    <path id="Rectangle_1256" data-name="Rectangle 1256" d="M-.25-.25h80.5v80.5H-.25Zm80,.5H.25v79.5h79.5Z" transform="translate(-12940 5447)" fill="#949494"/>
    <path id="Rectangle_1257" data-name="Rectangle 1257" d="M-.25-.25h80.5v80.5H-.25Zm80,.5H.25v79.5h79.5Z" transform="translate(-12860 5447)" fill="#949494"/>
    <path id="Rectangle_1258" data-name="Rectangle 1258" d="M-.25-.25h80.5v80.5H-.25Zm80,.5H.25v79.5h79.5Z" transform="translate(-12780 5447)" fill="#949494"/>
    <path id="Rectangle_2626" data-name="Rectangle 2626" d="M-.25-.25h80.5v80.5H-.25Zm80,.5H.25v79.5h79.5Z" transform="translate(-12380 5447)" fill="#949494"/>
    <path id="Rectangle_1259" data-name="Rectangle 1259" d="M-.25-.25h80.5v80.5H-.25Zm80,.5H.25v79.5h79.5Z" transform="translate(-12700 5447)" fill="#949494"/>
    <path id="Rectangle_2629" data-name="Rectangle 2629" d="M-.25-.25h80.5v80.5H-.25Zm80,.5H.25v79.5h79.5Z" transform="translate(-12300 5447)" fill="#949494"/>
    <path id="Rectangle_2671" data-name="Rectangle 2671" d="M-.25-.25h80.5v80.5H-.25Zm80,.5H.25v79.5h79.5Z" transform="translate(-11980 5447)" fill="#949494"/>
    <path id="Rectangle_1260" data-name="Rectangle 1260" d="M-.25-.25h80.5v80.5H-.25Zm80,.5H.25v79.5h79.5Z" transform="translate(-12620 5447)" fill="#949494"/>
    <path id="Rectangle_2640" data-name="Rectangle 2640" d="M-.25-.25h80.5v80.5H-.25Zm80,.5H.25v79.5h79.5Z" transform="translate(-12220 5447)" fill="#949494"/>
    <path id="Rectangle_2676" data-name="Rectangle 2676" d="M-.25-.25h80.5v80.5H-.25Zm80,.5H.25v79.5h79.5Z" transform="translate(-11900 5447)" fill="#949494"/>
    <path id="Rectangle_1261" data-name="Rectangle 1261" d="M-.25-.25h80.5v80.5H-.25Zm80,.5H.25v79.5h79.5Z" transform="translate(-12540 5447)" fill="#949494"/>
    <path id="Rectangle_2648" data-name="Rectangle 2648" d="M-.25-.25h80.5v80.5H-.25Zm80,.5H.25v79.5h79.5Z" transform="translate(-12140 5447)" fill="#949494"/>
    <path id="Rectangle_2687" data-name="Rectangle 2687" d="M-.25-.25h80.5v80.5H-.25Zm80,.5H.25v79.5h79.5Z" transform="translate(-11820 5447)" fill="#949494"/>
    <path id="Rectangle_1262" data-name="Rectangle 1262" d="M-.25-.25h80.5v80.5H-.25Zm80,.5H.25v79.5h79.5Z" transform="translate(-12460 5447)" fill="#949494"/>
    <path id="Rectangle_2662" data-name="Rectangle 2662" d="M-.25-.25h80.5v80.5H-.25Zm80,.5H.25v79.5h79.5Z" transform="translate(-12060 5447)" fill="#949494"/>
    <path id="Rectangle_2699" data-name="Rectangle 2699" d="M-.25-.25h80.5v80.5H-.25Zm80,.5H.25v79.5h79.5Z" transform="translate(-11740 5447)" fill="#949494"/>
    <path id="Rectangle_1263" data-name="Rectangle 1263" d="M-.25-.25h80.5v80.5H-.25Zm80,.5H.25v79.5h79.5Z" transform="translate(-13580 6087)" fill="#949494"/>
    <path id="Rectangle_2719" data-name="Rectangle 2719" d="M-.25-.25h80.5v80.5H-.25Zm80,.5H.25v79.5h79.5Z" transform="translate(-13580 6327)" fill="#949494"/>
    <path id="Rectangle_1264" data-name="Rectangle 1264" d="M-.25-.25h80.5v80.5H-.25Zm80,.5H.25v79.5h79.5Z" transform="translate(-13500 6087)" fill="#949494"/>
    <path id="Rectangle_2720" data-name="Rectangle 2720" d="M-.25-.25h80.5v80.5H-.25Zm80,.5H.25v79.5h79.5Z" transform="translate(-13500 6327)" fill="#949494"/>
    <path id="Rectangle_1265" data-name="Rectangle 1265" d="M-.25-.25h80.5v80.5H-.25Zm80,.5H.25v79.5h79.5Z" transform="translate(-13420 6087)" fill="#949494"/>
    <path id="Rectangle_2721" data-name="Rectangle 2721" d="M-.25-.25h80.5v80.5H-.25Zm80,.5H.25v79.5h79.5Z" transform="translate(-13420 6327)" fill="#949494"/>
    <path id="Rectangle_1266" data-name="Rectangle 1266" d="M-.25-.25h80.5v80.5H-.25Zm80,.5H.25v79.5h79.5Z" transform="translate(-13340 6087)" fill="#949494"/>
    <path id="Rectangle_2722" data-name="Rectangle 2722" d="M-.25-.25h80.5v80.5H-.25Zm80,.5H.25v79.5h79.5Z" transform="translate(-13340 6327)" fill="#949494"/>
    <path id="Rectangle_1267" data-name="Rectangle 1267" d="M-.25-.25h80.5v80.5H-.25Zm80,.5H.25v79.5h79.5Z" transform="translate(-13260 6087)" fill="#949494"/>
    <path id="Rectangle_2723" data-name="Rectangle 2723" d="M-.25-.25h80.5v80.5H-.25Zm80,.5H.25v79.5h79.5Z" transform="translate(-13260 6327)" fill="#949494"/>
    <path id="Rectangle_1268" data-name="Rectangle 1268" d="M-.25-.25h80.5v80.5H-.25Zm80,.5H.25v79.5h79.5Z" transform="translate(-13180 6087)" fill="#949494"/>
    <path id="Rectangle_2724" data-name="Rectangle 2724" d="M-.25-.25h80.5v80.5H-.25Zm80,.5H.25v79.5h79.5Z" transform="translate(-13180 6327)" fill="#949494"/>
    <path id="Rectangle_1269" data-name="Rectangle 1269" d="M-.25-.25h80.5v80.5H-.25Zm80,.5H.25v79.5h79.5Z" transform="translate(-13100 6087)" fill="#949494"/>
    <path id="Rectangle_2725" data-name="Rectangle 2725" d="M-.25-.25h80.5v80.5H-.25Zm80,.5H.25v79.5h79.5Z" transform="translate(-13100 6327)" fill="#949494"/>
    <path id="Rectangle_1270" data-name="Rectangle 1270" d="M-.25-.25h80.5v80.5H-.25Zm80,.5H.25v79.5h79.5Z" transform="translate(-13020 6087)" fill="#949494"/>
    <path id="Rectangle_2726" data-name="Rectangle 2726" d="M-.25-.25h80.5v80.5H-.25Zm80,.5H.25v79.5h79.5Z" transform="translate(-13020 6327)" fill="#949494"/>
    <path id="Rectangle_1271" data-name="Rectangle 1271" d="M-.25-.25h80.5v80.5H-.25Zm80,.5H.25v79.5h79.5Z" transform="translate(-12940 6087)" fill="#949494"/>
    <path id="Rectangle_2727" data-name="Rectangle 2727" d="M-.25-.25h80.5v80.5H-.25Zm80,.5H.25v79.5h79.5Z" transform="translate(-12940 6327)" fill="#949494"/>
    <path id="Rectangle_1272" data-name="Rectangle 1272" d="M-.25-.25h80.5v80.5H-.25Zm80,.5H.25v79.5h79.5Z" transform="translate(-12860 6087)" fill="#949494"/>
    <path id="Rectangle_2728" data-name="Rectangle 2728" d="M-.25-.25h80.5v80.5H-.25Zm80,.5H.25v79.5h79.5Z" transform="translate(-12860 6327)" fill="#949494"/>
    <path id="Rectangle_1273" data-name="Rectangle 1273" d="M-.25-.25h80.5v80.5H-.25Zm80,.5H.25v79.5h79.5Z" transform="translate(-12780 6087)" fill="#949494"/>
    <path id="Rectangle_2729" data-name="Rectangle 2729" d="M-.25-.25h80.5v80.5H-.25Zm80,.5H.25v79.5h79.5Z" transform="translate(-12780 6327)" fill="#949494"/>
    <path id="Rectangle_2663" data-name="Rectangle 2663" d="M-.25-.25h80.5v80.5H-.25Zm80,.5H.25v79.5h79.5Z" transform="translate(-12380 6087)" fill="#949494"/>
    <path id="Rectangle_2752" data-name="Rectangle 2752" d="M-.25-.25h80.5v80.5H-.25Zm80,.5H.25v79.5h79.5Z" transform="translate(-12380 6327)" fill="#949494"/>
    <path id="Rectangle_1274" data-name="Rectangle 1274" d="M-.25-.25h80.5v80.5H-.25Zm80,.5H.25v79.5h79.5Z" transform="translate(-12700 6087)" fill="#949494"/>
    <path id="Rectangle_2740" data-name="Rectangle 2740" d="M-.25-.25h80.5v80.5H-.25Zm80,.5H.25v79.5h79.5Z" transform="translate(-12700 6327)" fill="#949494"/>
    <path id="Rectangle_2664" data-name="Rectangle 2664" d="M-.25-.25h80.5v80.5H-.25Zm80,.5H.25v79.5h79.5Z" transform="translate(-12300 6087)" fill="#949494"/>
    <path id="Rectangle_2753" data-name="Rectangle 2753" d="M-.25-.25h80.5v80.5H-.25Zm80,.5H.25v79.5h79.5Z" transform="translate(-12300 6327)" fill="#949494"/>
    <path id="Rectangle_2703" data-name="Rectangle 2703" d="M-.25-.25h80.5v80.5H-.25Zm80,.5H.25v79.5h79.5Z" transform="translate(-11980 6087)" fill="#949494"/>
    <path id="Rectangle_2767" data-name="Rectangle 2767" d="M-.25-.25h80.5v80.5H-.25Zm80,.5H.25v79.5h79.5Z" transform="translate(-11980 6327)" fill="#949494"/>
    <path id="Rectangle_1275" data-name="Rectangle 1275" d="M-.25-.25h80.5v80.5H-.25Zm80,.5H.25v79.5h79.5Z" transform="translate(-12620 6087)" fill="#949494"/>
    <path id="Rectangle_2743" data-name="Rectangle 2743" d="M-.25-.25h80.5v80.5H-.25Zm80,.5H.25v79.5h79.5Z" transform="translate(-12620 6327)" fill="#949494"/>
    <path id="Rectangle_2665" data-name="Rectangle 2665" d="M-.25-.25h80.5v80.5H-.25Zm80,.5H.25v79.5h79.5Z" transform="translate(-12220 6087)" fill="#949494"/>
    <path id="Rectangle_2758" data-name="Rectangle 2758" d="M-.25-.25h80.5v80.5H-.25Zm80,.5H.25v79.5h79.5Z" transform="translate(-12220 6327)" fill="#949494"/>
    <path id="Rectangle_2704" data-name="Rectangle 2704" d="M-.25-.25h80.5v80.5H-.25Zm80,.5H.25v79.5h79.5Z" transform="translate(-11900 6087)" fill="#949494"/>
    <path id="Rectangle_2770" data-name="Rectangle 2770" d="M-.25-.25h80.5v80.5H-.25Zm80,.5H.25v79.5h79.5Z" transform="translate(-11900 6327)" fill="#949494"/>
    <path id="Rectangle_1276" data-name="Rectangle 1276" d="M-.25-.25h80.5v80.5H-.25Zm80,.5H.25v79.5h79.5Z" transform="translate(-12540 6087)" fill="#949494"/>
    <path id="Rectangle_2666" data-name="Rectangle 2666" d="M-.25-.25h80.5v80.5H-.25Zm80,.5H.25v79.5h79.5Z" transform="translate(-12140 6087)" fill="#949494"/>
    <path id="Rectangle_2761" data-name="Rectangle 2761" d="M-.25-.25h80.5v80.5H-.25Zm80,.5H.25v79.5h79.5Z" transform="translate(-12140 6327)" fill="#949494"/>
    <path id="Rectangle_2705" data-name="Rectangle 2705" d="M-.25-.25h80.5v80.5H-.25Zm80,.5H.25v79.5h79.5Z" transform="translate(-11820 6087)" fill="#949494"/>
    <path id="Rectangle_2773" data-name="Rectangle 2773" d="M-.25-.25h80.5v80.5H-.25Zm80,.5H.25v79.5h79.5Z" transform="translate(-11820 6327)" fill="#949494"/>
    <path id="Rectangle_1277" data-name="Rectangle 1277" d="M-.25-.25h80.5v80.5H-.25Zm80,.5H.25v79.5h79.5Z" transform="translate(-12460 6087)" fill="#949494"/>
    <path id="Rectangle_2747" data-name="Rectangle 2747" d="M-.25-.25h80.5v80.5H-.25Zm80,.5H.25v79.5h79.5Z" transform="translate(-12460 6327)" fill="#949494"/>
    <path id="Rectangle_2667" data-name="Rectangle 2667" d="M-.25-.25h80.5v80.5H-.25Zm80,.5H.25v79.5h79.5Z" transform="translate(-12060 6087)" fill="#949494"/>
    <path id="Rectangle_2762" data-name="Rectangle 2762" d="M-.25-.25h80.5v80.5H-.25Zm80,.5H.25v79.5h79.5Z" transform="translate(-12060 6327)" fill="#949494"/>
    <path id="Rectangle_2706" data-name="Rectangle 2706" d="M-.25-.25h80.5v80.5H-.25Zm80,.5H.25v79.5h79.5Z" transform="translate(-11740 6087)" fill="#949494"/>
    <path id="Rectangle_2776" data-name="Rectangle 2776" d="M-.25-.25h80.5v80.5H-.25Zm80,.5H.25v79.5h79.5Z" transform="translate(-11740 6327)" fill="#949494"/>
    <path id="Rectangle_1278" data-name="Rectangle 1278" d="M-.25-.25h80.5v80.5H-.25Zm80,.5H.25v79.5h79.5Z" transform="translate(-13580 6007)" fill="#949494"/>
    <path id="Rectangle_2710" data-name="Rectangle 2710" d="M-.25-.25h80.5v80.5H-.25Zm80,.5H.25v79.5h79.5Z" transform="translate(-13580 6247)" fill="#949494"/>
    <path id="Rectangle_1280" data-name="Rectangle 1280" d="M-.25-.25h80.5v80.5H-.25Zm80,.5H.25v79.5h79.5Z" transform="translate(-13500 6007)" fill="#949494"/>
    <path id="Rectangle_2711" data-name="Rectangle 2711" d="M-.25-.25h80.5v80.5H-.25Zm80,.5H.25v79.5h79.5Z" transform="translate(-13500 6247)" fill="#949494"/>
    <path id="Rectangle_1281" data-name="Rectangle 1281" d="M-.25-.25h80.5v80.5H-.25Zm80,.5H.25v79.5h79.5Z" transform="translate(-13420 6007)" fill="#949494"/>
    <path id="Rectangle_2712" data-name="Rectangle 2712" d="M-.25-.25h80.5v80.5H-.25Zm80,.5H.25v79.5h79.5Z" transform="translate(-13420 6247)" fill="#949494"/>
    <path id="Rectangle_1282" data-name="Rectangle 1282" d="M-.25-.25h80.5v80.5H-.25Zm80,.5H.25v79.5h79.5Z" transform="translate(-13340 6007)" fill="#949494"/>
    <path id="Rectangle_2713" data-name="Rectangle 2713" d="M-.25-.25h80.5v80.5H-.25Zm80,.5H.25v79.5h79.5Z" transform="translate(-13340 6247)" fill="#949494"/>
    <path id="Rectangle_1283" data-name="Rectangle 1283" d="M-.25-.25h80.5v80.5H-.25Zm80,.5H.25v79.5h79.5Z" transform="translate(-13260 6007)" fill="#949494"/>
    <path id="Rectangle_2714" data-name="Rectangle 2714" d="M-.25-.25h80.5v80.5H-.25Zm80,.5H.25v79.5h79.5Z" transform="translate(-13260 6247)" fill="#949494"/>
    <path id="Rectangle_1284" data-name="Rectangle 1284" d="M-.25-.25h80.5v80.5H-.25Zm80,.5H.25v79.5h79.5Z" transform="translate(-13180 6007)" fill="#949494"/>
    <path id="Rectangle_2715" data-name="Rectangle 2715" d="M-.25-.25h80.5v80.5H-.25Zm80,.5H.25v79.5h79.5Z" transform="translate(-13180 6247)" fill="#949494"/>
    <path id="Rectangle_1285" data-name="Rectangle 1285" d="M-.25-.25h80.5v80.5H-.25Zm80,.5H.25v79.5h79.5Z" transform="translate(-13100 6007)" fill="#949494"/>
    <path id="Rectangle_2730" data-name="Rectangle 2730" d="M-.25-.25h80.5v80.5H-.25Zm80,.5H.25v79.5h79.5Z" transform="translate(-13100 6247)" fill="#949494"/>
    <path id="Rectangle_1286" data-name="Rectangle 1286" d="M-.25-.25h80.5v80.5H-.25Zm80,.5H.25v79.5h79.5Z" transform="translate(-13020 6007)" fill="#949494"/>
    <path id="Rectangle_2731" data-name="Rectangle 2731" d="M-.25-.25h80.5v80.5H-.25Zm80,.5H.25v79.5h79.5Z" transform="translate(-13020 6247)" fill="#949494"/>
    <path id="Rectangle_1287" data-name="Rectangle 1287" d="M-.25-.25h80.5v80.5H-.25Zm80,.5H.25v79.5h79.5Z" transform="translate(-12940 6007)" fill="#949494"/>
    <path id="Rectangle_2732" data-name="Rectangle 2732" d="M-.25-.25h80.5v80.5H-.25Zm80,.5H.25v79.5h79.5Z" transform="translate(-12940 6247)" fill="#949494"/>
    <path id="Rectangle_1288" data-name="Rectangle 1288" d="M-.25-.25h80.5v80.5H-.25Zm80,.5H.25v79.5h79.5Z" transform="translate(-12860 6007)" fill="#949494"/>
    <path id="Rectangle_2733" data-name="Rectangle 2733" d="M-.25-.25h80.5v80.5H-.25Zm80,.5H.25v79.5h79.5Z" transform="translate(-12860 6247)" fill="#949494"/>
    <path id="Rectangle_1289" data-name="Rectangle 1289" d="M-.25-.25h80.5v80.5H-.25Zm80,.5H.25v79.5h79.5Z" transform="translate(-12780 6007)" fill="#949494"/>
    <path id="Rectangle_2734" data-name="Rectangle 2734" d="M-.25-.25h80.5v80.5H-.25Zm80,.5H.25v79.5h79.5Z" transform="translate(-12780 6247)" fill="#949494"/>
    <path id="Rectangle_2654" data-name="Rectangle 2654" d="M-.25-.25h80.5v80.5H-.25Zm80,.5H.25v79.5h79.5Z" transform="translate(-12380 6007)" fill="#949494"/>
    <path id="Rectangle_2754" data-name="Rectangle 2754" d="M-.25-.25h80.5v80.5H-.25Zm80,.5H.25v79.5h79.5Z" transform="translate(-12380 6247)" fill="#949494"/>
    <path id="Rectangle_1290" data-name="Rectangle 1290" d="M-.25-.25h80.5v80.5H-.25Zm80,.5H.25v79.5h79.5Z" transform="translate(-12700 6007)" fill="#949494"/>
    <path id="Rectangle_2741" data-name="Rectangle 2741" d="M-.25-.25h80.5v80.5H-.25Zm80,.5H.25v79.5h79.5Z" transform="translate(-12700 6247)" fill="#949494"/>
    <path id="Rectangle_2655" data-name="Rectangle 2655" d="M-.25-.25h80.5v80.5H-.25Zm80,.5H.25v79.5h79.5Z" transform="translate(-12300.001 6007)" fill="#949494"/>
    <path id="Rectangle_2755" data-name="Rectangle 2755" d="M-.25-.25h80.5v80.5H-.25Zm80,.5H.25v79.5h79.5Z" transform="translate(-12300.001 6247)" fill="#949494"/>
    <path id="Rectangle_2692" data-name="Rectangle 2692" d="M-.25-.25h80.5v80.5H-.25Zm80,.5H.25v79.5h79.5Z" transform="translate(-11980 6007)" fill="#949494"/>
    <path id="Rectangle_2768" data-name="Rectangle 2768" d="M-.25-.25h80.5v80.5H-.25Zm80,.5H.25v79.5h79.5Z" transform="translate(-11980 6247)" fill="#949494"/>
    <path id="Rectangle_1291" data-name="Rectangle 1291" d="M-.25-.25h80.5v80.5H-.25Zm80,.5H.25v79.5h79.5Z" transform="translate(-12620 6007)" fill="#949494"/>
    <path id="Rectangle_2744" data-name="Rectangle 2744" d="M-.25-.25h80.5v80.5H-.25Zm80,.5H.25v79.5h79.5Z" transform="translate(-12620 6247)" fill="#949494"/>
    <path id="Rectangle_2656" data-name="Rectangle 2656" d="M-.25-.25h80.5v80.5H-.25Zm80,.5H.25v79.5h79.5Z" transform="translate(-12220 6007)" fill="#949494"/>
    <path id="Rectangle_2759" data-name="Rectangle 2759" d="M-.25-.25h80.5v80.5H-.25Zm80,.5H.25v79.5h79.5Z" transform="translate(-12220 6247)" fill="#949494"/>
    <path id="Rectangle_2693" data-name="Rectangle 2693" d="M-.25-.25h80.5v80.5H-.25Zm80,.5H.25v79.5h79.5Z" transform="translate(-11900 6007)" fill="#949494"/>
    <path id="Rectangle_2771" data-name="Rectangle 2771" d="M-.25-.25h80.5v80.5H-.25Zm80,.5H.25v79.5h79.5Z" transform="translate(-11900 6247)" fill="#949494"/>
    <path id="Rectangle_1292" data-name="Rectangle 1292" d="M-.25-.25h80.5v80.5H-.25Zm80,.5H.25v79.5h79.5Z" transform="translate(-12540 6007)" fill="#949494"/>
    <path id="Rectangle_2748" data-name="Rectangle 2748" d="M-.25-.25h80.5v80.5H-.25Zm80,.5H.25v79.5h79.5Z" transform="translate(-12540 6247)" fill="#949494"/>
    <path id="Rectangle_2657" data-name="Rectangle 2657" d="M-.25-.25h80.5v80.5H-.25Zm80,.5H.25v79.5h79.5Z" transform="translate(-12140 6007)" fill="#949494"/>
    <path id="Rectangle_2763" data-name="Rectangle 2763" d="M-.25-.25h80.5v80.5H-.25Zm80,.5H.25v79.5h79.5Z" transform="translate(-12140 6247)" fill="#949494"/>
    <path id="Rectangle_2694" data-name="Rectangle 2694" d="M-.25-.25h80.5v80.5H-.25Zm80,.5H.25v79.5h79.5Z" transform="translate(-11820 6007)" fill="#949494"/>
    <path id="Rectangle_2774" data-name="Rectangle 2774" d="M-.25-.25h80.5v80.5H-.25Zm80,.5H.25v79.5h79.5Z" transform="translate(-11820 6247)" fill="#949494"/>
    <path id="Rectangle_1293" data-name="Rectangle 1293" d="M-.25-.25h80.5v80.5H-.25Zm80,.5H.25v79.5h79.5Z" transform="translate(-12460 6007)" fill="#949494"/>
    <path id="Rectangle_2749" data-name="Rectangle 2749" d="M-.25-.25h80.5v80.5H-.25Zm80,.5H.25v79.5h79.5Z" transform="translate(-12460 6247)" fill="#949494"/>
    <path id="Rectangle_2668" data-name="Rectangle 2668" d="M-.25-.25h80.5v80.5H-.25Zm80,.5H.25v79.5h79.5Z" transform="translate(-12060 6007)" fill="#949494"/>
    <path id="Rectangle_2764" data-name="Rectangle 2764" d="M-.25-.25h80.5v80.5H-.25Zm80,.5H.25v79.5h79.5Z" transform="translate(-12060 6247)" fill="#949494"/>
    <path id="Rectangle_2700" data-name="Rectangle 2700" d="M-.25-.25h80.5v80.5H-.25Zm80,.5H.25v79.5h79.5Z" transform="translate(-11740 6007)" fill="#949494"/>
    <path id="Rectangle_2777" data-name="Rectangle 2777" d="M-.25-.25h80.5v80.5H-.25Zm80,.5H.25v79.5h79.5Z" transform="translate(-11740 6247)" fill="#949494"/>
    <path id="Rectangle_1294" data-name="Rectangle 1294" d="M-.25-.25h80.5v80.5H-.25Zm80,.5H.25v79.5h79.5Z" transform="translate(-13580 5927)" fill="#949494"/>
    <path id="Rectangle_2707" data-name="Rectangle 2707" d="M-.25-.25h80.5v80.5H-.25Zm80,.5H.25v79.5h79.5Z" transform="translate(-13580 6167)" fill="#949494"/>
    <path id="Rectangle_1296" data-name="Rectangle 1296" d="M-.25-.25h80.5v80.5H-.25Zm80,.5H.25v79.5h79.5Z" transform="translate(-13500 5927)" fill="#949494"/>
    <path id="Rectangle_2708" data-name="Rectangle 2708" d="M-.25-.25h80.5v80.5H-.25Zm80,.5H.25v79.5h79.5Z" transform="translate(-13500 6167)" fill="#949494"/>
    <path id="Rectangle_1297" data-name="Rectangle 1297" d="M-.25-.25h80.5v80.5H-.25Zm80,.5H.25v79.5h79.5Z" transform="translate(-13420 5927)" fill="#949494"/>
    <path id="Rectangle_2709" data-name="Rectangle 2709" d="M-.25-.25h80.5v80.5H-.25Zm80,.5H.25v79.5h79.5Z" transform="translate(-13420 6167)" fill="#949494"/>
    <path id="Rectangle_1298" data-name="Rectangle 1298" d="M-.25-.25h80.5v80.5H-.25Zm80,.5H.25v79.5h79.5Z" transform="translate(-13340 5927)" fill="#949494"/>
    <path id="Rectangle_2716" data-name="Rectangle 2716" d="M-.25-.25h80.5v80.5H-.25Zm80,.5H.25v79.5h79.5Z" transform="translate(-13340 6167)" fill="#949494"/>
    <path id="Rectangle_1299" data-name="Rectangle 1299" d="M-.25-.25h80.5v80.5H-.25Zm80,.5H.25v79.5h79.5Z" transform="translate(-13260 5927)" fill="#949494"/>
    <path id="Rectangle_2717" data-name="Rectangle 2717" d="M-.25-.25h80.5v80.5H-.25Zm80,.5H.25v79.5h79.5Z" transform="translate(-13260 6167)" fill="#949494"/>
    <path id="Rectangle_1300" data-name="Rectangle 1300" d="M-.25-.25h80.5v80.5H-.25Zm80,.5H.25v79.5h79.5Z" transform="translate(-13180 5927)" fill="#949494"/>
    <path id="Rectangle_2718" data-name="Rectangle 2718" d="M-.25-.25h80.5v80.5H-.25Zm80,.5H.25v79.5h79.5Z" transform="translate(-13180 6167)" fill="#949494"/>
    <path id="Rectangle_1301" data-name="Rectangle 1301" d="M-.25-.25h80.5v80.5H-.25Zm80,.5H.25v79.5h79.5Z" transform="translate(-13100 5927)" fill="#949494"/>
    <path id="Rectangle_2735" data-name="Rectangle 2735" d="M-.25-.25h80.5v80.5H-.25Zm80,.5H.25v79.5h79.5Z" transform="translate(-13100 6167)" fill="#949494"/>
    <path id="Rectangle_1302" data-name="Rectangle 1302" d="M-.25-.25h80.5v80.5H-.25Zm80,.5H.25v79.5h79.5Z" transform="translate(-13020 5927)" fill="#949494"/>
    <path id="Rectangle_2736" data-name="Rectangle 2736" d="M-.25-.25h80.5v80.5H-.25Zm80,.5H.25v79.5h79.5Z" transform="translate(-13020 6167)" fill="#949494"/>
    <path id="Rectangle_1303" data-name="Rectangle 1303" d="M-.25-.25h80.5v80.5H-.25Zm80,.5H.25v79.5h79.5Z" transform="translate(-12940 5927)" fill="#949494"/>
    <path id="Rectangle_2737" data-name="Rectangle 2737" d="M-.25-.25h80.5v80.5H-.25Zm80,.5H.25v79.5h79.5Z" transform="translate(-12940 6167)" fill="#949494"/>
    <path id="Rectangle_1304" data-name="Rectangle 1304" d="M-.25-.25h80.5v80.5H-.25Zm80,.5H.25v79.5h79.5Z" transform="translate(-12860 5927)" fill="#949494"/>
    <path id="Rectangle_2738" data-name="Rectangle 2738" d="M-.25-.25h80.5v80.5H-.25Zm80,.5H.25v79.5h79.5Z" transform="translate(-12860 6167)" fill="#949494"/>
    <path id="Rectangle_1305" data-name="Rectangle 1305" d="M-.25-.25h80.5v80.5H-.25Zm80,.5H.25v79.5h79.5Z" transform="translate(-12780 5927)" fill="#949494"/>
    <path id="Rectangle_2739" data-name="Rectangle 2739" d="M-.25-.25h80.5v80.5H-.25Zm80,.5H.25v79.5h79.5Z" transform="translate(-12780 6167)" fill="#949494"/>
    <path id="Rectangle_2650" data-name="Rectangle 2650" d="M-.25-.25h80.5v80.5H-.25Zm80,.5H.25v79.5h79.5Z" transform="translate(-12380 5927)" fill="#949494"/>
    <path id="Rectangle_2756" data-name="Rectangle 2756" d="M-.25-.25h80.5v80.5H-.25Zm80,.5H.25v79.5h79.5Z" transform="translate(-12380 6167)" fill="#949494"/>
    <path id="Rectangle_1306" data-name="Rectangle 1306" d="M-.25-.25h80.5v80.5H-.25Zm80,.5H.25v79.5h79.5Z" transform="translate(-12700 5927)" fill="#949494"/>
    <path id="Rectangle_2742" data-name="Rectangle 2742" d="M-.25-.25h80.5v80.5H-.25Zm80,.5H.25v79.5h79.5Z" transform="translate(-12700 6167)" fill="#949494"/>
    <path id="Rectangle_2651" data-name="Rectangle 2651" d="M-.25-.25h80.5v80.5H-.25Zm80,.5H.25v79.5h79.5Z" transform="translate(-12300.001 5927)" fill="#949494"/>
    <path id="Rectangle_2757" data-name="Rectangle 2757" d="M-.25-.25h80.5v80.5H-.25Zm80,.5H.25v79.5h79.5Z" transform="translate(-12300.001 6167)" fill="#949494"/>
    <path id="Rectangle_2689" data-name="Rectangle 2689" d="M-.25-.25h80.5v80.5H-.25Zm80,.5H.25v79.5h79.5Z" transform="translate(-11980 5927)" fill="#949494"/>
    <path id="Rectangle_2769" data-name="Rectangle 2769" d="M-.25-.25h80.5v80.5H-.25Zm80,.5H.25v79.5h79.5Z" transform="translate(-11980 6167)" fill="#949494"/>
    <path id="Rectangle_1307" data-name="Rectangle 1307" d="M-.25-.25h80.5v80.5H-.25Zm80,.5H.25v79.5h79.5Z" transform="translate(-12620 5927)" fill="#949494"/>
    <path id="Rectangle_2745" data-name="Rectangle 2745" d="M-.25-.25h80.5v80.5H-.25Zm80,.5H.25v79.5h79.5Z" transform="translate(-12620 6167)" fill="#949494"/>
    <path id="Rectangle_2652" data-name="Rectangle 2652" d="M-.25-.25h80.5v80.5H-.25Zm80,.5H.25v79.5h79.5Z" transform="translate(-12220 5927)" fill="#949494"/>
    <path id="Rectangle_2760" data-name="Rectangle 2760" d="M-.25-.25h80.5v80.5H-.25Zm80,.5H.25v79.5h79.5Z" transform="translate(-12220 6167)" fill="#949494"/>
    <path id="Rectangle_2690" data-name="Rectangle 2690" d="M-.25-.25h80.5v80.5H-.25Zm80,.5H.25v79.5h79.5Z" transform="translate(-11900 5927)" fill="#949494"/>
    <path id="Rectangle_2772" data-name="Rectangle 2772" d="M-.25-.25h80.5v80.5H-.25Zm80,.5H.25v79.5h79.5Z" transform="translate(-11900 6167)" fill="#949494"/>
    <path id="Rectangle_1308" data-name="Rectangle 1308" d="M-.25-.25h80.5v80.5H-.25Zm80,.5H.25v79.5h79.5Z" transform="translate(-12540 5927)" fill="#949494"/>
    <path id="Rectangle_2750" data-name="Rectangle 2750" d="M-.25-.25h80.5v80.5H-.25Zm80,.5H.25v79.5h79.5Z" transform="translate(-12540 6167)" fill="#949494"/>
    <path id="Rectangle_2653" data-name="Rectangle 2653" d="M-.25-.25h80.5v80.5H-.25Zm80,.5H.25v79.5h79.5Z" transform="translate(-12140 5927)" fill="#949494"/>
    <path id="Rectangle_2765" data-name="Rectangle 2765" d="M-.25-.25h80.5v80.5H-.25Zm80,.5H.25v79.5h79.5Z" transform="translate(-12140 6167)" fill="#949494"/>
    <path id="Rectangle_2691" data-name="Rectangle 2691" d="M-.25-.25h80.5v80.5H-.25Zm80,.5H.25v79.5h79.5Z" transform="translate(-11820 5927)" fill="#949494"/>
    <path id="Rectangle_2775" data-name="Rectangle 2775" d="M-.25-.25h80.5v80.5H-.25Zm80,.5H.25v79.5h79.5Z" transform="translate(-11820 6167)" fill="#949494"/>
    <path id="Rectangle_1309" data-name="Rectangle 1309" d="M-.25-.25h80.5v80.5H-.25Zm80,.5H.25v79.5h79.5Z" transform="translate(-12460 5927)" fill="#949494"/>
    <path id="Rectangle_2751" data-name="Rectangle 2751" d="M-.25-.25h80.5v80.5H-.25Zm80,.5H.25v79.5h79.5Z" transform="translate(-12460 6167)" fill="#949494"/>
    <path id="Rectangle_2669" data-name="Rectangle 2669" d="M-.25-.25h80.5v80.5H-.25Zm80,.5H.25v79.5h79.5Z" transform="translate(-12060 5927)" fill="#949494"/>
    <path id="Rectangle_2766" data-name="Rectangle 2766" d="M-.25-.25h80.5v80.5H-.25Zm80,.5H.25v79.5h79.5Z" transform="translate(-12060 6167)" fill="#949494"/>
    <path id="Rectangle_2701" data-name="Rectangle 2701" d="M-.25-.25h80.5v80.5H-.25Zm80,.5H.25v79.5h79.5Z" transform="translate(-11740 5927)" fill="#949494"/>
    <path id="Rectangle_2778" data-name="Rectangle 2778" d="M-.25-.25h80.5v80.5H-.25Zm80,.5H.25v79.5h79.5Z" transform="translate(-11740 6167)" fill="#949494"/>
    <path id="Rectangle_1310" data-name="Rectangle 1310" d="M-.25-.25h80.5v80.5H-.25Zm80,.5H.25v79.5h79.5Z" transform="translate(-13580 5847)" fill="#949494"/>
    <path id="Rectangle_1312" data-name="Rectangle 1312" d="M-.25-.25h80.5v80.5H-.25Zm80,.5H.25v79.5h79.5Z" transform="translate(-13500 5847)" fill="#949494"/>
    <path id="Rectangle_1313" data-name="Rectangle 1313" d="M-.25-.25h80.5v80.5H-.25Zm80,.5H.25v79.5h79.5Z" transform="translate(-13420 5847)" fill="#949494"/>
    <path id="Rectangle_1314" data-name="Rectangle 1314" d="M-.25-.25h80.5v80.5H-.25Zm80,.5H.25v79.5h79.5Z" transform="translate(-13340 5847)" fill="#949494"/>
    <path id="Rectangle_1315" data-name="Rectangle 1315" d="M-.25-.25h80.5v80.5H-.25Zm80,.5H.25v79.5h79.5Z" transform="translate(-13260 5847)" fill="#949494"/>
    <path id="Rectangle_1316" data-name="Rectangle 1316" d="M-.25-.25h80.5v80.5H-.25Zm80,.5H.25v79.5h79.5Z" transform="translate(-13180 5847)" fill="#949494"/>
    <path id="Rectangle_1317" data-name="Rectangle 1317" d="M-.25-.25h80.5v80.5H-.25Zm80,.5H.25v79.5h79.5Z" transform="translate(-13100 5847)" fill="#949494"/>
    <path id="Rectangle_1318" data-name="Rectangle 1318" d="M-.25-.25h80.5v80.5H-.25Zm80,.5H.25v79.5h79.5Z" transform="translate(-13020 5847)" fill="#949494"/>
    <path id="Rectangle_1319" data-name="Rectangle 1319" d="M-.25-.25h80.5v80.5H-.25Zm80,.5H.25v79.5h79.5Z" transform="translate(-12940 5847)" fill="#949494"/>
    <path id="Rectangle_1320" data-name="Rectangle 1320" d="M-.25-.25h80.5v80.5H-.25Zm80,.5H.25v79.5h79.5Z" transform="translate(-12860 5847)" fill="#949494"/>
    <path id="Rectangle_1321" data-name="Rectangle 1321" d="M-.25-.25h80.5v80.5H-.25Zm80,.5H.25v79.5h79.5Z" transform="translate(-12780 5847)" fill="#949494"/>
    <path id="Rectangle_2641" data-name="Rectangle 2641" d="M-.25-.25h80.5v80.5H-.25Zm80,.5H.25v79.5h79.5Z" transform="translate(-12380 5847)" fill="#949494"/>
    <path id="Rectangle_1322" data-name="Rectangle 1322" d="M-.25-.25h80.5v80.5H-.25Zm80,.5H.25v79.5h79.5Z" transform="translate(-12700 5847)" fill="#949494"/>
    <path id="Rectangle_2642" data-name="Rectangle 2642" d="M-.25-.25h80.5v80.5H-.25Zm80,.5H.25v79.5h79.5Z" transform="translate(-12300.001 5847)" fill="#949494"/>
    <path id="Rectangle_2681" data-name="Rectangle 2681" d="M-.25-.25h80.5v80.5H-.25Zm80,.5H.25v79.5h79.5Z" transform="translate(-11980 5847)" fill="#949494"/>
    <path id="Rectangle_1323" data-name="Rectangle 1323" d="M-.25-.25h80.5v80.5H-.25Zm80,.5H.25v79.5h79.5Z" transform="translate(-12620 5847)" fill="#949494"/>
    <path id="Rectangle_2643" data-name="Rectangle 2643" d="M-.25-.25h80.5v80.5H-.25Zm80,.5H.25v79.5h79.5Z" transform="translate(-12220 5847)" fill="#949494"/>
    <path id="Rectangle_2682" data-name="Rectangle 2682" d="M-.25-.25h80.5v80.5H-.25Zm80,.5H.25v79.5h79.5Z" transform="translate(-11900 5847)" fill="#949494"/>
    <path id="Rectangle_1324" data-name="Rectangle 1324" d="M-.25-.25h80.5v80.5H-.25Zm80,.5H.25v79.5h79.5Z" transform="translate(-12540 5847)" fill="#949494"/>
    <path id="Rectangle_2649" data-name="Rectangle 2649" d="M-.25-.25h80.5v80.5H-.25Zm80,.5H.25v79.5h79.5Z" transform="translate(-12140 5847)" fill="#949494"/>
    <path id="Rectangle_2688" data-name="Rectangle 2688" d="M-.25-.25h80.5v80.5H-.25Zm80,.5H.25v79.5h79.5Z" transform="translate(-11820 5847)" fill="#949494"/>
    <path id="Rectangle_1325" data-name="Rectangle 1325" d="M-.25-.25h80.5v80.5H-.25Zm80,.5H.25v79.5h79.5Z" transform="translate(-12460 5847)" fill="#949494"/>
    <path id="Rectangle_2670" data-name="Rectangle 2670" d="M-.25-.25h80.5v80.5H-.25Zm80,.5H.25v79.5h79.5Z" transform="translate(-12060 5847)" fill="#949494"/>
    <path id="Rectangle_2702" data-name="Rectangle 2702" d="M-.25-.25h80.5v80.5H-.25Zm80,.5H.25v79.5h79.5Z" transform="translate(-11740 5847)" fill="#949494"/>
    <path id="Rectangle_1216-2" data-name="Rectangle 1216" d="M-.25-.25h80.5v80.5H-.25Zm80,.5H.25v79.5h79.5Z" transform="translate(-13580 6567)" fill="#949494"/>
    <path id="Rectangle_1218-2" data-name="Rectangle 1218" d="M-.25-.25h80.5v80.5H-.25Zm80,.5H.25v79.5h79.5Z" transform="translate(-13500 6567)" fill="#949494"/>
    <path id="Rectangle_1219-2" data-name="Rectangle 1219" d="M-.25-.25h80.5v80.5H-.25Zm80,.5H.25v79.5h79.5Z" transform="translate(-13420 6567)" fill="#949494"/>
    <path id="Rectangle_1220-2" data-name="Rectangle 1220" d="M-.25-.25h80.5v80.5H-.25Zm80,.5H.25v79.5h79.5Z" transform="translate(-13340 6567)" fill="#949494"/>
    <path id="Rectangle_1221-2" data-name="Rectangle 1221" d="M-.25-.25h80.5v80.5H-.25Zm80,.5H.25v79.5h79.5Z" transform="translate(-13260 6567)" fill="#949494"/>
    <path id="Rectangle_1222-2" data-name="Rectangle 1222" d="M-.25-.25h80.5v80.5H-.25Zm80,.5H.25v79.5h79.5Z" transform="translate(-13180 6567)" fill="#949494"/>
    <path id="Rectangle_1223-2" data-name="Rectangle 1223" d="M-.25-.25h80.5v80.5H-.25Zm80,.5H.25v79.5h79.5Z" transform="translate(-13100 6567)" fill="#949494"/>
    <path id="Rectangle_1224-2" data-name="Rectangle 1224" d="M-.25-.25h80.5v80.5H-.25Zm80,.5H.25v79.5h79.5Z" transform="translate(-13020 6567)" fill="#949494"/>
    <path id="Rectangle_1225-2" data-name="Rectangle 1225" d="M-.25-.25h80.5v80.5H-.25Zm80,.5H.25v79.5h79.5Z" transform="translate(-12940 6567)" fill="#949494"/>
    <path id="Rectangle_1226-2" data-name="Rectangle 1226" d="M-.25-.25h80.5v80.5H-.25Zm80,.5H.25v79.5h79.5Z" transform="translate(-12860 6567)" fill="#949494"/>
    <path id="Rectangle_1227-2" data-name="Rectangle 1227" d="M-.25-.25h80.5v80.5H-.25Zm80,.5H.25v79.5h79.5Z" transform="translate(-12780 6567)" fill="#949494"/>
    <path id="Rectangle_2630-2" data-name="Rectangle 2630" d="M-.25-.25h80.5v80.5H-.25Zm80,.5H.25v79.5h79.5Z" transform="translate(-12380 6567)" fill="#949494"/>
    <path id="Rectangle_1228-2" data-name="Rectangle 1228" d="M-.25-.25h80.5v80.5H-.25Zm80,.5H.25v79.5h79.5Z" transform="translate(-12700 6567)" fill="#949494"/>
    <path id="Rectangle_2631-2" data-name="Rectangle 2631" d="M-.25-.25h80.5v80.5H-.25Zm80,.5H.25v79.5h79.5Z" transform="translate(-12300.001 6567)" fill="#949494"/>
    <path id="Rectangle_2672-2" data-name="Rectangle 2672" d="M-.25-.25h80.5v80.5H-.25Zm80,.5H.25v79.5h79.5Z" transform="translate(-11980 6567)" fill="#949494"/>
    <path id="Rectangle_1229-2" data-name="Rectangle 1229" d="M-.25-.25h80.5v80.5H-.25Zm80,.5H.25v79.5h79.5Z" transform="translate(-12620 6567)" fill="#949494"/>
    <path id="Rectangle_2638-2" data-name="Rectangle 2638" d="M-.25-.25h80.5v80.5H-.25Zm80,.5H.25v79.5h79.5Z" transform="translate(-12220 6567)" fill="#949494"/>
    <path id="Rectangle_2673-2" data-name="Rectangle 2673" d="M-.25-.25h80.5v80.5H-.25Zm80,.5H.25v79.5h79.5Z" transform="translate(-11900 6567)" fill="#949494"/>
    <path id="Rectangle_1230-2" data-name="Rectangle 1230" d="M-.25-.25h80.5v80.5H-.25Zm80,.5H.25v79.5h79.5Z" transform="translate(-12540 6567)" fill="#949494"/>
    <path id="Rectangle_2646-2" data-name="Rectangle 2646" d="M-.25-.25h80.5v80.5H-.25Zm80,.5H.25v79.5h79.5Z" transform="translate(-12140 6567)" fill="#949494"/>
    <path id="Rectangle_2685-2" data-name="Rectangle 2685" d="M-.25-.25h80.5v80.5H-.25Zm80,.5H.25v79.5h79.5Z" transform="translate(-11820 6567)" fill="#949494"/>
    <path id="Rectangle_1231-2" data-name="Rectangle 1231" d="M-.25-.25h80.5v80.5H-.25Zm80,.5H.25v79.5h79.5Z" transform="translate(-12460 6567)" fill="#949494"/>
    <path id="Rectangle_2660-2" data-name="Rectangle 2660" d="M-.25-.25h80.5v80.5H-.25Zm80,.5H.25v79.5h79.5Z" transform="translate(-12060 6567)" fill="#949494"/>
    <path id="Rectangle_2697-2" data-name="Rectangle 2697" d="M-.25-.25h80.5v80.5H-.25Zm80,.5H.25v79.5h79.5Z" transform="translate(-11740 6567)" fill="#949494"/>
    <path id="Rectangle_1232-2" data-name="Rectangle 1232" d="M-.25-.25h80.5v80.5H-.25Zm80,.5H.25v79.5h79.5Z" transform="translate(-13580 6487)" fill="#949494"/>
    <path id="Rectangle_1234-2" data-name="Rectangle 1234" d="M-.25-.25h80.5v80.5H-.25Zm80,.5H.25v79.5h79.5Z" transform="translate(-13500 6487)" fill="#949494"/>
    <path id="Rectangle_1235-2" data-name="Rectangle 1235" d="M-.25-.25h80.5v80.5H-.25Zm80,.5H.25v79.5h79.5Z" transform="translate(-13420 6487)" fill="#949494"/>
    <path id="Rectangle_1236-2" data-name="Rectangle 1236" d="M-.25-.25h80.5v80.5H-.25Zm80,.5H.25v79.5h79.5Z" transform="translate(-13340 6487)" fill="#949494"/>
    <path id="Rectangle_1237-2" data-name="Rectangle 1237" d="M-.25-.25h80.5v80.5H-.25Zm80,.5H.25v79.5h79.5Z" transform="translate(-13260 6487)" fill="#949494"/>
    <path id="Rectangle_1238-2" data-name="Rectangle 1238" d="M-.25-.25h80.5v80.5H-.25Zm80,.5H.25v79.5h79.5Z" transform="translate(-13180 6487)" fill="#949494"/>
    <path id="Rectangle_1239-2" data-name="Rectangle 1239" d="M-.25-.25h80.5v80.5H-.25Zm80,.5H.25v79.5h79.5Z" transform="translate(-13100 6487)" fill="#949494"/>
    <path id="Rectangle_1240-2" data-name="Rectangle 1240" d="M-.25-.25h80.5v80.5H-.25Zm80,.5H.25v79.5h79.5Z" transform="translate(-13020 6487)" fill="#949494"/>
    <path id="Rectangle_1241-2" data-name="Rectangle 1241" d="M-.25-.25h80.5v80.5H-.25Zm80,.5H.25v79.5h79.5Z" transform="translate(-12940 6487)" fill="#949494"/>
    <path id="Rectangle_1242-2" data-name="Rectangle 1242" d="M-.25-.25h80.5v80.5H-.25Zm80,.5H.25v79.5h79.5Z" transform="translate(-12860 6487)" fill="#949494"/>
    <path id="Rectangle_1243-2" data-name="Rectangle 1243" d="M-.25-.25h80.5v80.5H-.25Zm80,.5H.25v79.5h79.5Z" transform="translate(-12780 6487)" fill="#949494"/>
    <path id="Rectangle_2627-2" data-name="Rectangle 2627" d="M-.25-.25h80.5v80.5H-.25Zm80,.5H.25v79.5h79.5Z" transform="translate(-12380 6487)" fill="#949494"/>
    <path id="Rectangle_1244-2" data-name="Rectangle 1244" d="M-.25-.25h80.5v80.5H-.25Zm80,.5H.25v79.5h79.5Z" transform="translate(-12700 6487)" fill="#949494"/>
    <path id="Rectangle_2628-2" data-name="Rectangle 2628" d="M-.25-.25h80.5v80.5H-.25Zm80,.5H.25v79.5h79.5Z" transform="translate(-12300.001 6487)" fill="#949494"/>
    <path id="Rectangle_2674-2" data-name="Rectangle 2674" d="M-.25-.25h80.5v80.5H-.25Zm80,.5H.25v79.5h79.5Z" transform="translate(-11980 6487)" fill="#949494"/>
    <path id="Rectangle_1245-2" data-name="Rectangle 1245" d="M-.25-.25h80.5v80.5H-.25Zm80,.5H.25v79.5h79.5Z" transform="translate(-12620 6487)" fill="#949494"/>
    <path id="Rectangle_2639-2" data-name="Rectangle 2639" d="M-.25-.25h80.5v80.5H-.25Zm80,.5H.25v79.5h79.5Z" transform="translate(-12220 6487)" fill="#949494"/>
    <path id="Rectangle_2675-2" data-name="Rectangle 2675" d="M-.25-.25h80.5v80.5H-.25Zm80,.5H.25v79.5h79.5Z" transform="translate(-11900 6487)" fill="#949494"/>
    <path id="Rectangle_1246-2" data-name="Rectangle 1246" d="M-.25-.25h80.5v80.5H-.25Zm80,.5H.25v79.5h79.5Z" transform="translate(-12540 6487)" fill="#949494"/>
    <path id="Rectangle_2647-2" data-name="Rectangle 2647" d="M-.25-.25h80.5v80.5H-.25Zm80,.5H.25v79.5h79.5Z" transform="translate(-12140 6487)" fill="#949494"/>
    <path id="Rectangle_2686-2" data-name="Rectangle 2686" d="M-.25-.25h80.5v80.5H-.25Zm80,.5H.25v79.5h79.5Z" transform="translate(-11820 6487)" fill="#949494"/>
    <path id="Rectangle_1247-2" data-name="Rectangle 1247" d="M-.25-.25h80.5v80.5H-.25Zm80,.5H.25v79.5h79.5Z" transform="translate(-12460 6487)" fill="#949494"/>
    <path id="Rectangle_2661-2" data-name="Rectangle 2661" d="M-.25-.25h80.5v80.5H-.25Zm80,.5H.25v79.5h79.5Z" transform="translate(-12060 6487)" fill="#949494"/>
    <path id="Rectangle_2698-2" data-name="Rectangle 2698" d="M-.25-.25h80.5v80.5H-.25Zm80,.5H.25v79.5h79.5Z" transform="translate(-11740 6487)" fill="#949494"/>
    <path id="Rectangle_1248-2" data-name="Rectangle 1248" d="M-.25-.25h80.5v80.5H-.25Zm80,.5H.25v79.5h79.5Z" transform="translate(-13580 6407)" fill="#949494"/>
    <path id="Rectangle_1249-2" data-name="Rectangle 1249" d="M-.25-.25h80.5v80.5H-.25Zm80,.5H.25v79.5h79.5Z" transform="translate(-13500 6407)" fill="#949494"/>
    <path id="Rectangle_1250-2" data-name="Rectangle 1250" d="M-.25-.25h80.5v80.5H-.25Zm80,.5H.25v79.5h79.5Z" transform="translate(-13420 6407)" fill="#949494"/>
    <path id="Rectangle_1251-2" data-name="Rectangle 1251" d="M-.25-.25h80.5v80.5H-.25Zm80,.5H.25v79.5h79.5Z" transform="translate(-13340 6407)" fill="#949494"/>
    <path id="Rectangle_1252-2" data-name="Rectangle 1252" d="M-.25-.25h80.5v80.5H-.25Zm80,.5H.25v79.5h79.5Z" transform="translate(-13260 6407)" fill="#949494"/>
    <path id="Rectangle_1253-2" data-name="Rectangle 1253" d="M-.25-.25h80.5v80.5H-.25Zm80,.5H.25v79.5h79.5Z" transform="translate(-13180 6407)" fill="#949494"/>
    <path id="Rectangle_1254-2" data-name="Rectangle 1254" d="M-.25-.25h80.5v80.5H-.25Zm80,.5H.25v79.5h79.5Z" transform="translate(-13100 6407)" fill="#949494"/>
    <path id="Rectangle_1255-2" data-name="Rectangle 1255" d="M-.25-.25h80.5v80.5H-.25Zm80,.5H.25v79.5h79.5Z" transform="translate(-13020 6407)" fill="#949494"/>
    <path id="Rectangle_1256-2" data-name="Rectangle 1256" d="M-.25-.25h80.5v80.5H-.25Zm80,.5H.25v79.5h79.5Z" transform="translate(-12940 6407)" fill="#949494"/>
    <path id="Rectangle_1257-2" data-name="Rectangle 1257" d="M-.25-.25h80.5v80.5H-.25Zm80,.5H.25v79.5h79.5Z" transform="translate(-12860 6407)" fill="#949494"/>
    <path id="Rectangle_1258-2" data-name="Rectangle 1258" d="M-.25-.25h80.5v80.5H-.25Zm80,.5H.25v79.5h79.5Z" transform="translate(-12780 6407)" fill="#949494"/>
    <path id="Rectangle_2626-2" data-name="Rectangle 2626" d="M-.25-.25h80.5v80.5H-.25Zm80,.5H.25v79.5h79.5Z" transform="translate(-12380 6407)" fill="#949494"/>
    <path id="Rectangle_1259-2" data-name="Rectangle 1259" d="M-.25-.25h80.5v80.5H-.25Zm80,.5H.25v79.5h79.5Z" transform="translate(-12700 6407)" fill="#949494"/>
    <path id="Rectangle_2629-2" data-name="Rectangle 2629" d="M-.25-.25h80.5v80.5H-.25Zm80,.5H.25v79.5h79.5Z" transform="translate(-12300 6407)" fill="#949494"/>
    <path id="Rectangle_2671-2" data-name="Rectangle 2671" d="M-.25-.25h80.5v80.5H-.25Zm80,.5H.25v79.5h79.5Z" transform="translate(-11980 6407)" fill="#949494"/>
    <path id="Rectangle_1260-2" data-name="Rectangle 1260" d="M-.25-.25h80.5v80.5H-.25Zm80,.5H.25v79.5h79.5Z" transform="translate(-12620 6407)" fill="#949494"/>
    <path id="Rectangle_2640-2" data-name="Rectangle 2640" d="M-.25-.25h80.5v80.5H-.25Zm80,.5H.25v79.5h79.5Z" transform="translate(-12220 6407)" fill="#949494"/>
    <path id="Rectangle_2676-2" data-name="Rectangle 2676" d="M-.25-.25h80.5v80.5H-.25Zm80,.5H.25v79.5h79.5Z" transform="translate(-11900 6407)" fill="#949494"/>
    <path id="Rectangle_1261-2" data-name="Rectangle 1261" d="M-.25-.25h80.5v80.5H-.25Zm80,.5H.25v79.5h79.5Z" transform="translate(-12540 6407)" fill="#949494"/>
    <path id="Rectangle_2648-2" data-name="Rectangle 2648" d="M-.25-.25h80.5v80.5H-.25Zm80,.5H.25v79.5h79.5Z" transform="translate(-12140 6407)" fill="#949494"/>
    <path id="Rectangle_2687-2" data-name="Rectangle 2687" d="M-.25-.25h80.5v80.5H-.25Zm80,.5H.25v79.5h79.5Z" transform="translate(-11820 6407)" fill="#949494"/>
    <path id="Rectangle_1262-2" data-name="Rectangle 1262" d="M-.25-.25h80.5v80.5H-.25Zm80,.5H.25v79.5h79.5Z" transform="translate(-12460 6407)" fill="#949494"/>
    <path id="Rectangle_2662-2" data-name="Rectangle 2662" d="M-.25-.25h80.5v80.5H-.25Zm80,.5H.25v79.5h79.5Z" transform="translate(-12060 6407)" fill="#949494"/>
    <path id="Rectangle_2699-2" data-name="Rectangle 2699" d="M-.25-.25h80.5v80.5H-.25Zm80,.5H.25v79.5h79.5Z" transform="translate(-11740 6407)" fill="#949494"/>
  </g>
</svg>
